<?xml version="1.0" encoding="utf-8"?>
<!-- Generator: Adobe Illustrator 14.0.0, SVG Export Plug-In . SVG Version: 6.00 Build 43363)  -->
<!DOCTYPE svg PUBLIC "-//W3C//DTD SVG 1.1//EN" "http://www.w3.org/Graphics/SVG/1.1/DTD/svg11.dtd">
<svg version="1.1" id="katman_1" xmlns="http://www.w3.org/2000/svg" xmlns:xlink="http://www.w3.org/1999/xlink" x="0px" y="0px"
	 width="600px" height="785.8px" viewBox="0 0 600 785.8" enable-background="new 0 0 600 785.8" xml:space="preserve">
<path d="M258.547,741.804c-40.931-19.625-60.35-23.175-91.049-35.08C63.084,663.704,7.117,599.803,10.042,479.729
	c15.034-121.952,65.153-176.664,42.602-253.721c-7.727-29.026-25.27-59.306-50.329-81.023
	C49.717,105.514,84.177,72.729,113.205,2.981c61.601,49.285,129.681,14.828,186.691,13.783
	c56.799,1.044,124.878,35.71,186.691-13.574c29.029,69.54,63.276,102.324,111.099,141.794
	c-25.476,21.717-43.02,51.999-50.327,81.442c-22.971,76.428,27.148,131.35,42.392,253.302
	c2.713,120.074-53.253,183.976-157.04,227.207c-31.114,11.897-50.747,15.243-91.465,35.292
	c-23.183,11.695-34.46,28.813-41.349,42.392C293.215,770.837,281.728,753.919,258.547,741.804L258.547,741.804z"/>
<path fill="#FFFFFF" d="M209.475,715.912c-39.471-10.445-64.948-23.387-92.512-39.258V13.005
	c24.85,13.991,42.183,23.597,92.512,21.093v224.695c2.92-3.76,5.846-8.354,9.605-15.452c25.686,22.761,47.614,10.231,80.818,8.771
	c32.993,1.46,54.918,14.199,80.607-8.771c2.923,7.307,6.053,12.53,9.396,15.661V34.098c50.119,2.713,69.754-6.891,92.515-21.093
	v663.649c-27.564,15.453-52.836,28.813-92.725,39.47V502.909c-22.97,15.449-31.322,15.659-58.262,23.601
	c-15.872,6.053-24.852,11.896-31.742,23.599c-6.681-11.905-15.661-17.962-31.53-23.599c-27.36-8.151-35.92-9.188-58.682-23.811
	V715.912L209.475,715.912z"/>
<path d="M449.238,205.333l-7.936-41.974c-0.624-13.783-13.99-16.917-20.465-2.715v49.701c0.628,3.76,1.458,5.431,4.386,8.143
	c-11.069,0-23.391,0-33.831,0c3.341-3.55,3.97-3.131,4.386-8.561V90.686c-0.416-3.131-1.461-4.385-4.386-6.889h33.831
	c-1.881,2.087-3.758,3.548-4.386,6.889v54.297l40.931-53.669c1.46-2.505,1.044-5.429-2.922-7.935h23.595
	c-1.669,0.833-6.055,2.505-9.188,6.681l-33.409,45.106c10.439-1.042,17.538-2.087,22.555,11.487
	c8.77,40.72,8.562,75.593,21.51,53.25C477.64,229.974,451.327,220.16,449.238,205.333L449.238,205.333z"/>
<path d="M116.211,217.833c5.693-3.702,7.443-5.143,7.882-11.312V91.348c0-3.698-2.191-6.58-6.351-8.635
	c44.667,0,60.869-1.646,74.443,12.338c13.576,14.192,9.415,32.082-7.224,46.686c28.024,12.34,26.493,54.706,8.757,66.43
	C176.422,218.858,171.167,217.833,116.211,217.833L116.211,217.833z"/>
<path fill="#FFFFFF" d="M250.195,205.126c-10.652-15.801-7.309-32.885,4.176-40.358c9.606-5.553,25.06-4.914,25.06,15.589
	c-0.209,11.531-11.903,15.373-18.377,10.035c-9.606,14.736,14.408,32.46,46.568,9.825V90.239
	c-10.23,0.426-19.838,0.426-30.279,1.919l3.76-7.898c17.75,0,38.213,0,57.426-0.215c-2.089,2.775-4.382,4.272-5.431,8.542
	l0.213,110.833C289.873,218.792,269.198,226.267,250.195,205.126L250.195,205.126z"/>
<path fill="#FFFFFF" d="M148.102,137.882V87.766c17.522,0,27.814,8.561,28.034,24.433
	C175.699,129.74,166.716,138.299,148.102,137.882L148.102,137.882z"/>
<path fill="#FFFFFF" d="M148.307,208.47v-62.857c27.269,0.209,35.188,16.915,35.405,33.202
	C183.492,197.609,171.617,208.886,148.307,208.47L148.307,208.47z"/>
<path d="M159.927,669.53v-8.831c7.192-0.214,8.884,0.433,8.884-3.874v-63.077l-9.944-0.212
	c10.153-7.752,16.291-13.352,29.404-25.192v88.914c-0.213,3.874,2.96,3.441,9.52,3.441v8.831H159.927L159.927,669.53z"/>
<path fill="#FFFFFF" d="M376.974,620.774c0.057-67.388-69.523-67.412-69.505-0.026c-0.062,67.385,69.513,67.416,69.505,0.034
	V620.774L376.974,620.774z"/>
<path d="M357.956,620.774c-0.036,60.27-31.697,60.253-31.697-0.019c0.037-60.264,31.697-60.264,31.697,0.008V620.774
	L357.956,620.774z"/>
<path d="M417.251,609.685h2.064c7.079,0,12.485-1.167,15.826-4.357c3.733-2.815,5.798-7.271,5.798-12.893
	c0-5.23-1.675-9.204-4.131-12.012c-2.556-3.297-6.293-4.463-11.302-4.463c-2.85,0-5.796,0.392-8.258,1.647
	c-2.943,1.167-4.221,1.942-4.221,2.815c0,0.384,0.881,1.159,2.946,3.199c1.672,1.54,2.46,3.964,2.46,6.006
	c0,2.807-0.788,4.845-2.46,6.397c-2.065,1.64-4.127,2.415-7.077,2.415c-2.948,0-5.406-0.775-7.079-2.808
	c-2.061-2.033-2.945-4.847-2.945-8.047c0-5.231,2.556-9.589,7.962-13.274c5.406-3.583,11.991-5.616,19.951-5.616
	c8.747,0,15.826,2.423,21.624,6.879c5.798,4.845,8.747,10.461,8.747,17.25c0,5.232-1.672,9.688-5.405,13.274
	c-3.342,3.19-8.748,6.392-15.82,8.039c7.469,2.043,13.758,5.231,17.889,9.979c4.129,4.465,6.291,10.471,6.291,17.35
	c0,8.43-2.949,15.211-9.241,20.449c-6.193,5.23-14.058,7.654-24.08,7.654c-8.352,0-14.937-2.042-20.444-5.62
	c-5.798-4.072-8.254-8.823-8.254-14.927c0-3.585,0.787-6.392,2.852-8.815c2.162-2.421,5.011-3.59,8.352-3.59
	c2.559,0,5.015,0.775,6.684,2.423c1.673,1.551,2.46,3.975,2.46,6.397c0,2.81-1.184,5.623-3.342,7.654
	c-2.064,2.034-3.245,3.199-3.245,3.199c0,1.259,1.57,2.423,4.521,3.198c2.945,1.257,6.289,2.032,10.414,2.032
	c5.015,0,9.535-1.648,12.482-5.23c2.95-3.583,4.525-8.43,4.525-14.436c0-7.662-2.063-13.668-6.193-17.739
	c-3.733-3.973-10.025-6.006-17.495-6.006c-0.395,0-0.788,0.396-1.669,0.396c-0.394,0-1.184,0-1.184,0v-8.821H417.251z"/>
<path fill="#FFFFFF" d="M271.151,625.124c-2.486,2.807-5.262,4.747-8.512,6.397c-2.87,1.256-6.503,2.031-10.14,2.031
	c-8.13,0-14.156-3.198-19.417-8.821c-4.881-6.104-7.27-13.659-7.27-23.354c0-9.588,2.391-17.242,8.035-23.256
	c5.26-6.006,12.53-9.303,21.043-9.303c10.14,0,18.269,4.07,24.294,12.109c5.74,7.662,8.896,18.415,8.896,32.566
	c0,16.378-3.634,30.037-10.519,40.507c-6.89,10.461-16.167,15.691-27.071,15.691c-6.121,0-11.383-1.64-15.783-5.23
	c-4.116-3.198-6.505-7.263-6.505-12.012c0-3.688,1.246-6.495,2.87-8.438c2.011-2.031,4.4-3.288,7.27-3.288
	c2.772,0,4.879,0.873,6.408,2.424c2.105,1.64,2.868,3.68,2.868,6.006c0,2.031-0.763,4.071-2.392,5.622
	c-1.244,1.64-2.007,2.423-2.007,2.904c0,1.159,0.764,1.935,2.771,3.199c1.625,0.775,3.635,1.55,6.125,1.55
	c5.643,0,10.14-3.59,13.772-9.979c3.157-6.887,5.262-15.699,5.262-26.944V625.124L271.151,625.124z"/>
<path d="M257.379,576.865c-5.26,0-8.897,2.032-11.765,6.495c-2.392,3.964-3.635,9.978-3.635,18.018
	c0,7.654,1.245,13.668,4.017,18.123c2.486,3.975,6.505,6.006,11.768,6.006s8.895-2.031,11.284-5.616
	c2.488-3.59,3.731-9.693,3.731-17.25c0-8.43-1.244-14.541-4.114-18.898C266.273,579.289,262.259,576.865,257.379,576.865
	L257.379,576.865z"/>
<path fill="#E32219" d="M282.419,525.708c-17.242-7.237-25.423-8.543-38.353-12.932c-43.981-15.873-67.555-39.438-66.325-83.722
	c6.333-44.972,27.447-65.151,17.946-93.572c-3.257-10.704-10.643-21.873-21.199-29.882c19.969-14.557,34.483-26.647,46.707-52.371
	c25.95,18.176,54.625,5.469,78.639,5.085c23.925,0.386,52.605,13.169,78.64-5.005c12.226,25.646,26.652,37.737,46.794,52.293
	c-10.73,8.009-18.119,19.178-21.2,30.037c-9.674,28.188,11.438,48.443,17.86,93.415c1.143,44.284-22.432,67.851-66.149,83.795
	c-13.103,4.393-21.373,5.623-38.525,13.016c-9.765,4.316-14.517,10.633-17.419,15.635
	C297.02,536.414,292.182,530.182,282.419,525.708L282.419,525.708z"/>
<path fill="#FFFFFF" d="M297.588,498.317c-32.578-0.841-71.627-23.599-78.518-68.285c-3.761-25.067,4.384-55.97,34.038-79.773
	c-4.176,5.22-9.814,10.651-13.363,21.928c-6.057,18.166-4.594,33.204,1.252,48.029c12.948,24.221,31.952,39.258,57.221,40.088
	c38.002-2.293,55.754-29.866,60.138-43.222c3.554-10.444,9.4-25.895-2.922-51.999c-3.97-8.143-10.44-14.827-10.44-14.827
	c17.54,12.111,37.169,37.797,34.456,76.012C376.94,462.396,343.945,496.856,297.588,498.317L297.588,498.317z"/>
<polygon fill="#FFFFFF" points="299.48,345.673 293.646,327.085 274.625,327.085 289.539,314.549 283.702,294.667 299.912,306.121 
	315.255,295.099 309.637,314.334 324.766,327.085 305.744,327.085 "/>
</svg>
