<?xml version="1.0" encoding="utf-8"?><!DOCTYPE svg PUBLIC "-//W3C//DTD SVG 1.1//EN" "http://www.w3.org/Graphics/SVG/1.1/DTD/svg11.dtd"><svg width="200" height="160" viewBox="0 0 200 160" xmlns="http://www.w3.org/2000/svg" xmlns:xlink="http://www.w3.org/1999/xlink"><view id="000001" viewBox="40 0 40 40"/><svg id="aEbene_1" viewBox="0 0 40 40" width="40" height="40" x="40"><style>.ast0{fill:#171513}.ast1{fill:#fff}.ast2{fill:#0c9f3d}</style><g id="a_96-Logo"><path class="ast0" d="M5 11.3c.1-.1.1-.2.2-.3l-.1.1c0 .1 0 .2-.1.2zm25.8-4.9h8.8l-4.2 5.7c1.2 2.4 1.9 5.1 1.9 7.8 0 9.5-7.7 17.3-17.3 17.3-3.9 0-7.7-1.3-10.8-3.8H.4l4.2-5.7C2 22.5 2.2 16.4 5 11.3c0-.1.1-.1.1-.2l.1-.1c3-5 8.5-8.4 14.8-8.4 3.9 0 7.7 1.4 10.8 3.8z"/><path class="ast1" d="M4 19.9c0-2.7.7-5.4 2-7.8 0-.1.1-.2.2-.3.1-.1.1-.2.2-.3C9.2 6.9 14.3 3.8 20 3.8c3.8 0 7.4 1.3 10.3 3.8h6.9L34 12c1.4 2.4 2.1 5.1 2.1 7.9C36.1 28.8 28.9 36 20 36c-3.8 0-7.4-1.3-10.3-3.8H2.8L6 27.8c-1.3-2.4-2-5.1-2-7.9z"/><path class="ast0" d="M29.1 23.9c0-1.3-1.1-2.4-2.4-2.4s-2.4 1.1-2.4 2.4c0 1.3 1.1 2.4 2.4 2.4 1.3-.1 2.4-1.1 2.4-2.4zm3.8 3.5c-2 3.4-6.4 4.5-9.8 2.5-3.4-2-4.7-6.8-1.7-10.9.3-.4 7.6-10.2 7.6-10.2h5.9l-6 8.2c3.8 1.2 5.9 5.2 4.7 9-.2.5-.5 1-.7 1.4z"/><path class="ast2" d="M33.2 13c1.1 2.1 1.7 4.5 1.7 6.9 0 .7 0 1.3-.1 2-.5-2.2-1.9-4.1-3.9-5.2-.1 0-.2-.1-.2-.1l2.5-3.6zM6.8 26.7c-1.1-2.1-1.7-4.5-1.7-6.8 0-.6 0-1.2.1-1.9.5 2.2 1.9 4 3.8 5.1.1 0 .2.1.2.1l-2.4 3.5z"/><path class="ast0" d="M11 15.9c0 1.3 1.1 2.4 2.4 2.4s2.4-1.1 2.4-2.4-1.1-2.4-2.4-2.4c-1.4.1-2.4 1.1-2.4 2.4zm-3.8-3.5c2-3.4 6.4-4.5 9.8-2.5 3.4 2 4.7 6.8 1.7 10.9-.3.4-7.6 10.2-7.6 10.2h-6l6.1-8.2c-3.8-1.2-5.9-5.2-4.7-9 .2-.5.4-1 .7-1.4z"/><path class="ast2" d="M20 5c3 0 5.9.9 8.4 2.6-.1.1-2.4 3.3-4.5 6-.8 1-1.7 2.3-2.4 3.2.4-3.1-1.1-6.4-3.9-8-1.9-1.1-4.2-1.5-6.4-.9C13.7 6 16.8 5 20 5zM20 34.8c-3 0-5.9-.9-8.4-2.6.1-.1 2.4-3.3 4.5-6 .8-1 1.7-2.3 2.4-3.3-.4 3.1 1.1 6.4 3.9 8.1 1.9 1.1 4.2 1.5 6.4.9-2.5 1.8-5.6 2.9-8.8 2.9z"/></g></svg><view id="000002" viewBox="120 0 40 40"/><svg id="bEbene_1" viewBox="0 0 40 40" width="40" height="40" x="120"><style>.bst0{fill:#fff}.bst1{fill:#0b5da5}</style><title>TSG_Standard_Logo</title><path class="bst0" d="M36.2 23.9l-.3-.4c-2.8-3.1-4.1-6.1-3.9-9 .3-3.7 3-5.9 3-6l.4-.3-2.1-5.1-.6.4s-1.9 1.1-4.4 1.1c-2.7 0-5.3-1.2-7.6-3.5l-.5-.5-.5.5c-2.3 2.3-4.8 3.5-7.6 3.5-2.6 0-4.4-1.1-4.4-1.1l-.6-.4-1.9 4.7-.2.4.4.3s2.8 2.3 3 6c.2 2.9-1.2 6-4.1 9.1l-.2.2v.2c0 .1 1 7.6 7.9 9.4 6 1.6 7.6 4.3 7.6 4.3l.6 1 .6-1s1.6-2.8 7.6-4.4c3.5-.9 5.5-3.4 6.5-5.3 1-1.8 1.4-3.9 1.3-4.1z"/><path class="bst1" d="M20.2 39.3l-.8-1.4s-.4-.7-1.5-1.5c-1-.8-2.9-1.9-5.9-2.7-1.6-.4-3-1.2-4.2-2.3-1-.9-1.8-2-2.4-3.2-1-2-1.3-3.8-1.4-4.2v-.3l.3-.3c2.9-3.1 4.2-6.1 4-8.9-.4-3.5-3-5.7-3.1-5.8l-.5-.4.3-.6 2-4.9.9.6c.1 0 1.9 1 4.3 1 2.6 0 5.1-1.1 7.4-3.4l.6-.6.6.6c2.2 2.3 4.7 3.4 7.4 3.4 2.5 0 4.3-1.1 4.3-1.1l.9-.5 2.2 5.6-.5.4c-.1 0-2.7 2.2-2.9 5.8-.2 2.8 1.1 5.8 3.9 8.8l.4.4v.1c0 .4-.4 2.5-1.4 4.4-1 1.9-3 4.4-6.6 5.4-1.7.4-4 1.3-5.9 2.7-1.1.8-1.5 1.5-1.5 1.5l-.9 1.4zM4.4 24c.1.4 1.1 7.5 7.7 9.2 6 1.6 7.7 4.3 7.7 4.5l.3.6.3-.6s1.7-2.9 7.8-4.5c3.4-.9 5.3-3.3 6.3-5.1 1-1.8 1.4-3.8 1.4-4.1l-.3-.3c-2.9-3.1-4.2-6.2-4-9.2.3-3.7 3-6 3.1-6.1l.3-.2-1.9-4.7-.4.2c-.1 0-2 1.2-4.6 1.2-2.8 0-5.4-1.2-7.7-3.5l-.3-.3-.3.3c-2.3 2.4-4.9 3.5-7.7 3.5-2.5 0-4.4-1-4.6-1.1l-.3-.3-1.8 4.4-.1.3.2.2s2.8 2.3 3.1 6.1c.2 3-1.2 6.1-4.2 9.3v.2z"/><path class="bst1" d="M28 17.1l-1.1-.9c-.1-.1-.2-.2-.2-.3 0-.1 0-.1.1-.2.2-.2.4-.1.5 0l1.1.9.2-.3-1.2-1c-.4-.3-.6-.1-.8.1-.1.1-.2.3-.1.5-.2-.1-.4.1-.5.2-.2.2-.2.4-.1.6l-.2-.2-.2.3.3.3 1.3 1.1.2-.3-1-.9c-.1-.1-.1-.2-.2-.3 0-.1 0-.2.1-.3.2-.2.4-.1.5 0l1.1.9.2-.2zm-3.5.1l.2-.3-.3-.2-.1.3.2.2zm.7.1l-.2.3 1.6 1.3.2-.3-1.6-1.3zm.3 1.3l-.1-.1c-.5-.4-.9-.5-1.2-.1-.5.5-.1.9.3 1.3.7.6 1 .4 1.3.1.3-.3.3-.7 0-1l-.2.3c.2.1.2.4.1.5-.2.2-.4.2-.8-.1l.6-.9zm-.9.8c-.4-.4-.4-.6-.3-.7.2-.2.3-.3.8.1l-.5.6zm.4 1.3l-1.1-.9c-.4-.3-.6-.3-.8 0-.2.2-.2.4-.1.6l-1-.7-.2.3 2.3 1.9.2-.3-.9-.8c-.3-.2-.4-.5-.2-.7.2-.2.4-.2.6 0l1.1.9.1-.3zm-1.3 1.5l-1.1-.9c-.3-.3-.6-.3-.9 0-.2.2-.2.4-.1.6l-.2-.2-.2.3.3.3 1.3 1.1.2-.4-.9-.8c-.2-.2-.4-.4-.2-.7.2-.2.4-.2.5 0l1.1.9.2-.2zm-1.9.9l-.2-.1c-.5-.4-.9-.5-1.2-.1-.5.5-.1.9.3 1.3.7.6 1 .4 1.3.1.3-.3.3-.7 0-1l-.2.3c.2.1.2.4.1.5-.2.2-.4.2-.8-.1l.7-.9zm-1 .7c-.4-.4-.4-.6-.3-.7.2-.2.3-.3.8.1l-.5.6zm-1.7.7l.2.2.2-.2 1.4 1.2.2-.3-1.4-1.2.3-.3-.2-.2-.3.3-.3-.2c-.1-.1-.2-.3 0-.5l-.2-.2-.1.1c-.2.2-.3.5 0 .8l.3.3-.1.2zm-.7.9l.2.2.2-.2 1.4 1.2.2-.3L19 25l.3-.3-.2-.2-.3.3-.3-.2c-.1-.1-.2-.3 0-.5l-.1-.1-.1.1c-.2.2-.3.5 0 .8l.3.3-.2.2zm.9 2.1c.3-.3.4-.7-.3-1.3-.5-.4-.9-.7-1.4-.1-.5.5-.1.9.3 1.3.8.6 1.1.5 1.4.1m-.2-.2c-.2.3-.5.2-1-.3-.4-.4-.4-.6-.2-.8s.4-.3.8.1c.5.6.6.8.4 1m-1.5 2.2l-1-.9.7-.8 1 .9.2-.3-2.3-1.9-.2.3 1 .8-.7.8-1-.8-.2.3 2.3 1.9.2-.3zM23.2 12.1c-.2-.2-.4-.2-.6 0-.2.2-.1.5.1.6.1.1.4.3.6 0 .2-.2.1-.5-.1-.6zM21.1 16.4c-.2-.1-.4-.1-.6 0-.2.2-.1.4.1.6.2.2.5.1.6 0 .1-.2.2-.4-.1-.6zM21.7 13.9c-.2-.2-.4-.2-.6 0-.2.2-.1.5.1.6.1.1.4.3.6 0 .2-.2.1-.5-.1-.6zM19.6 15.6c-.1.2-.1.4 0 .5.1.1.4.1.5 0 .1-.2.1-.4 0-.5s-.4-.1-.5 0z"/><g><path class="bst1" d="M32.9 4.2l-.2.1c-.6.3-2.3 1.1-4.5 1.1-2.8 0-5.5-1.2-7.8-3.5l-.2-.2-.2.2c-2.4 2.3-5 3.5-7.8 3.5-2.2 0-3.9-.7-4.5-1.1l-.3-.1L5.9 8l.1.1c.7.6 2.9 2.9 3.1 6.3.2 3.2-1.2 6.4-4.1 9.6l-.1.1v.1c.2 1 1.2 5.7 5.4 7.8l23-27.1-.4-.7zM14 26.2l-1.9-1.6-.6.7-.4-.3 1.5-1.8.4.3-.6.7 1.9 1.6-.3.4zm1.9-2.2c-.7.9-1.3.4-1.5.2l.4-.5c.1.1.4.4.8-.1.2-.3.2-.5 0-.7-.2-.2-.4-.1-.7.2-.6.4-1 .6-1.4.3-.4-.3-.5-.9.1-1.5.2-.2.5-.5.8-.5.3 0 .5.2.5.2l-.4.5c-.1-.1-.4-.3-.7.1-.2.2-.2.5 0 .6.2.2.4 0 .7-.2.4-.3.9-.6 1.3-.2.5.4.6 1 .1 1.6zm2-2.4c-.4.5-.8.7-1.1.7-.5 0-.9-.2-1.1-.4-.8-.7-.8-1.5-.2-2.2.2-.3.6-.5.9-.5.3 0 .5.1.6.2l-.4.5c-.1-.1-.2-.1-.3-.1-.2 0-.4.1-.5.2-.5.6 0 1.1.3 1.4.2.1.4.3.8.3.2 0 .4-.1.6-.4.2-.2.2-.3.3-.4l-.5-.4-.3.4-.4-.3.8-.9 1.1.9c-.1.2-.2.5-.6 1zm2.3-2.8l-1.7-1.4c0 .3-.1.5-.2.7l-.4-.4c.1-.3.1-.6.2-.9l.3-.4 2.2 1.8-.4.6zm1.3-1.5c-.4.4-.9.5-1.3.2-.1-.1-.2-.3-.2-.5 0-.1 0-.3.1-.4-.1.1-.5.3-.8 0-.3-.2-.4-.7 0-1.3.4-.4.9-.5 1.2-.2.3.2.3.6.1.8.1-.1.3-.2.5-.2s.3.1.4.2c.4.4.4 1 0 1.4zm1.5-1.7c-.1.1-.6.7-1.1.2l.4-.5c.1.1.3.1.4 0 .3-.3 0-.6-.4-.9 0 .2-.1.4-.2.5-.5.5-1 .3-1.3.1-.4-.3-.5-.9-.1-1.4.6-.8 1.4-.2 1.7.1 1 .8 1 1.3.6 1.9zm1.5-1.8c-.1.1-.6.7-1.1.2l.4-.5c.1.1.3.1.4 0 .3-.3 0-.6-.4-.9 0 .2-.1.4-.2.5-.5.5-1 .3-1.3.1-.4-.3-.5-.9-.1-1.4.6-.8 1.4-.2 1.7.1 1 .8 1 1.3.6 1.9z"/></g></svg><view id="000003" viewBox="0 40 40 40"/><svg id="cEbene_1" viewBox="0 0 40 40" width="40" height="40" y="40"><style>.cst0{fill:#fff}.cst1{fill:#67b033}</style><path class="cst0" d="M38.9 20c0 10.4-8.4 18.8-18.8 18.8S1.3 30.4 1.3 20 9.7 1.2 20.1 1.2 38.9 8.7 38.9 20z"/><path class="cst0" d="M20.1 38.8c-2.5 0-5-.5-7.3-1.5-2.2-.9-4.2-2.3-6-4-1.7-1.7-3.1-3.7-4-6-1-2.3-1.5-4.8-1.5-7.3C1.3 9.6 9.7 1.2 20.1 1.2c5.1 0 9.8 1.8 13.3 5.2 1.7 1.7 3.1 3.7 4 6 1 2.4 1.5 5 1.5 7.7 0 2.5-.5 5-1.5 7.3-.9 2.2-2.3 4.2-4 6-1.7 1.7-3.7 3.1-6 4-2.3.9-4.8 1.4-7.3 1.4zm0-37.6C9.8 1.2 1.4 9.7 1.4 20c0 2.5.5 5 1.5 7.3.9 2.2 2.3 4.2 4 6 1.7 1.7 3.7 3.1 6 4 2.3 1 4.8 1.5 7.3 1.5s5-.5 7.3-1.5c2.2-.9 4.2-2.3 6-4 1.7-1.7 3.1-3.7 4-6 1-2.3 1.5-4.8 1.5-7.3 0-2.8-.5-5.3-1.5-7.7-.9-2.3-2.3-4.3-4-5.9-3.6-3.3-8.3-5.2-13.4-5.2z"/><path class="cst1" d="M1.7 20C2 8.6 9.9 3.9 15.1 2.3c2.4-.7 4.4-.8 4.4-.5 0 .2-1.8 0-4.3.9C10.8 4.3 4.7 8.2 4.3 18.3 4.3 27.5 11.8 35 21 35s16.7-7.5 16.7-16.7c0-2-.3-3.5-.8-4.9-.8-2.4-1.8-3.5-1.4-3.5.3 0 1.2 1.9 1.8 3.6.7 2 1.1 3.9 1.1 6.5 0 10.2-8.2 18.4-18.4 18.4S1.7 30.2 1.7 20z"/><path class="cst1" d="M18.3 14.2c0-3.3 5.4-3 5.4-3v11.7c0 .8.5 1.3 1.4 1.3 1.5 0 1.4-1.3 1.4-1.3v-12C26.5 8 31.8 8 31.8 8v16.5c-.5 2.9-3 5.2-6 5.2-2 0-3.7-1-4.8-2.5-1.1 1.5-2.9 2.5-4.8 2.5-3 0-5.5-2.2-6-5.2l-.1-1V10.9C10.1 8 15.4 8 15.4 8v14.9c0 .8.6 1.3 1.4 1.3.8 0 1.5-.5 1.5-1.3v-8.7z"/></svg><view id="000004" viewBox="40 40 40 40"/><svg id="dEbene_1" viewBox="0 0 40 40" width="40" height="40" x="40" y="40"><style>.dst0{fill:#fff}.dst1{fill:#1d1d1b}</style><path class="dst0" d="M20.2.3L7.7 20.2 20.2 40l12.4-19.8z"/><path class="dst1" d="M20.2 1.6L8.5 20.2l11.7 18.5 11.6-18.5z"/><path class="dst0" d="M20.2 4.6l-9.8 15.6 9.8 15.5 9.7-15.5z"/><path class="dst1" d="M20.2 5.9l-8.9 14.3 8.9 14.2 8.9-14.2z"/><path class="dst0" d="M20.2 7L12 20.2l8.2 13.1 8.2-13.1z"/><path class="dst1" d="M20.2 6.7l-2.5 3.7h5zM24.6 26.8h-8.8l-3.3-5.2h15.2zM15.9 13.4h8.6l3.1 5.2h-15zM20.2 33.8l-2.6-4.1h5.3z"/><path class="dst1" d="M16 26.7h6.2c1.8 0 3.3-1.7 3.3-4 0-1.3-.6-2.1-.9-2.5.4-.4.9-.9.9-2.7 0-1.3-1.1-3.9-3.8-3.9H16v13.1z"/><path class="dst0" d="M16.5 26.3h5.1c1.7 0 3.4-1.1 3.4-3.5 0-1.2-.6-2-1-2.5.3-.3 1-.9 1-2.6 0-1.2-.7-3.6-3.7-3.6h-4.9v12.2z"/><path class="dst1" d="M16.9 25.8h4.3c1.9 0 3.3-1 3.3-3.3 0-1.1-.8-2.1-1.2-2.4.4-.2 1.2-.8 1.2-2.4 0-1.3-.7-3.4-3.5-3.4h-4.2v11.5z"/><path class="dst0" d="M18.9 21.1h2.2c.7 0 1.4.4 1.4 1.2 0 1-.7 1.3-1.5 1.3h-2.1v-2.5zM18.9 16.5h1.9c.6 0 1.5.1 1.5 1.2 0 1.2-.8 1.2-1.5 1.2h-1.9v-2.4z"/><path class="dst1" d="M19.3 17h1.4c.4 0 1.1 0 1.1.8 0 .7-.6.8-1.1.8h-1.4V17zM19.3 21.6h1.5c.5 0 1.1.3 1.1.8 0 .7-.6.8-1.2.8h-1.4v-1.6z"/></svg><view id="000006" viewBox="80 0 40 40"/><svg id="eEbene_1" viewBox="0 0 40 40" width="40" height="40" x="80"><style>.est0{fill:#fff}.est1{fill:#e2092c}.est2{fill:#9d9c9b}</style><path class="est0" d="M39.5 19.5c0 10-8.8 18.2-19.6 18.2S.4 29.5.4 19.5 9.1 1.3 19.9 1.3s19.6 8.1 19.6 18.2z"/><path class="est1" d="M6.9 26.1l.2.3-1.1 1 .5.6 1.6-1.5-.7-.9-.5.5zM9.3 30.8l.7.5.4-.7.5.3.3-.5-.5-.3.1-.2.5.4.3-.5-1.2-.8-1.1 1.8zm-1.5-2.4c-.1-.2-.4-.2-.6 0-.2.2-.1.4.1.6.1.2.4.2.6.1.1-.2.1-.5-.1-.7M17.3 34.4h.8l.1-1v-.3.3l.2 1h.5l.4-1c0-.1 0-.1.1-.2v1.2h.8l-.2-2.2h-.8l-.3.9c0 .1-.1.2-.1.3l-.2-1.2h-.8l-.5 2.2zm-2.2-3l-.6.9c-.1.1-.1.2-.2.3 0-.1.1-.2.1-.3v-1.1l-.8-.3.1 2.4.6.2 1.5-1.9-.7-.2zm-4.1.3l.6.6c.4.2.9.2 1.2-.3.2-.3 0-.6-.2-.9l-.1-.1s-.1-.1-.1-.2.1-.1.2 0 .2.2.3.4l.4-.4c-.1-.2-.3-.4-.5-.5-.4-.2-1-.2-1.2.3-.2.3 0 .6.2.8l.1.1c.1 0 .1.1.1.2s-.2.1-.2 0c-.2-.1-.3-.3-.3-.4l-.5.4zM21.7 33.6l.1-.7c0 .1 0 .2.1.3l.1.4h-.3zm-.2.6h.6l.1.3.8-.1-.9-2.2-.9.1-.6 2.3.8-.1.1-.3zM23.7 34.2l.8-.2-.5-2.2-.8.2zM25.1 33.9l.7-.3-.2-.7c-.1-.1-.1-.3-.2-.4l1 .9.7-.3-.6-2.1-.7.3.2.6c.1.2.1.4.2.5l-1.1-.9-.7.3.7 2.1zM27 30.8l.3.6.5-.3c.1 0 .1-.1.2-.1 0 .1 0 .2-.1.3l-.1 1.5 1.9-1-.3-.6-.6.3c-.1 0-.1.1-.2.1l.2-1.8-1.8 1zM31.3 28.7c.2-.2.4 0 .5.1.1.1.3.4.1.6-.2.2-.4 0-.5-.2-.1-.1-.3-.4-.1-.5m-.5-.5c-.5.5-.4 1.1 0 1.6s1 .6 1.5.1.4-1.1 0-1.6-1-.6-1.5-.1M32.2 26.8l.9 1c.1-.2.2-.4.3-.5.1-.1.3-.3.4-.2.1.1 0 .3-.1.5-.1.1-.4.3-.5.4l.4.5c.2-.1.5-.4.7-.6.3-.4.5-1 .1-1.4-.3-.3-.7-.2-1 .1-.1.1-.2.3-.1.4 0-.1-.1-.2-.1-.2l.6-.7-.5-.4-1.1 1.1z"/><path class="est2" d="M24.7 23.7c-.3.2-.4.4-.6.5l.2.5c.3-.2.4-.3.8-.6 2.6-1.9 3.9-4.6 3.5-6.6-.1-.5-.3-.9-.7-1.2.2.2.3.5.3.8.4 2-1 4.7-3.5 6.6zM13.2 18.5c-.1-1.5.4-2.8 1.3-2.8.3 0 .5.1.7.3-.3-.4-.7-.7-1.1-.6-.8.1-1.4 1.3-1.3 2.8.1 1 .5 1.9 1 2.3-.3-.5-.6-1.2-.6-2zM17.8 7.3c-1.1.2-2.1.6-3 1.1l.4.3c.9-.5 2-.9 3-1.1.3-.1.6-.4.6-.7 0-.3-.2-.5-.4-.7 0 .1.1.2.1.3-.1.4-.4.7-.7.8zM10.2 26.1c1.3 1.4 2.9 2.6 4.7 3.3l1.2-3.3c-.1 0-.2-.1-.4-.1l-1.1 3.1c-1.6-.7-3.1-1.7-4.4-3z"/><path class="est2" d="M30 9.9c2 2.1 3.1 4.9 3.1 7.9 0 4.9-3.1 9.2-7.7 11.1l.2.4c4.6-1.9 7.9-6.2 7.9-11.2 0-3.1-1.3-6-3.5-8.2zM26.8 9.5l-5.6 4.9v9.5s.3 2.9 2 5.8c-1 .2-2.1.4-3.2.4-.8 0-1.7-.1-2.5-.3h-.2c0 .1-.1.2-.1.3 1 .2 2.1.4 3.2.4.8 0 1.6-.1 2.4-.2.3 0 .5-.1.8-.2-1.7-2.9-2-5.8-2-5.8v-9.5l5.6-4.9c.3.2.6.5.8.7-.4-.4-.8-.7-1.2-1.1zM9.5 16.9c0 2.6 1.1 4.9 2.8 6.6-1.5-1.7-2.5-3.9-2.5-6.3 0-2.9 1.4-5.6 3.6-7.4l-.4-.3c-2.1 1.8-3.5 4.4-3.5 7.4zM22.1 7.3c-.1 0-.1 0-.1-.1.1.2.3.4.5.4.9.2 1.7.5 2.5.8l.1-.1c-.9-.4-1.9-.8-3-1z"/><path class="est2" d="M24.6 15.3v1.4l.3-.3v-.8l2.1-1.7v-2.2l-.4.3v1.5l-2 1.8zM17.9 18.4c-.2-1.9-.9-3.6-1.9-4.5.8 1 1.4 2.4 1.5 4.1.3 3-.9 5.6-2.6 5.7-.6.1-1.2-.2-1.8-.7.6.7 1.4 1.2 2.1 1.1 1.8-.1 2.9-2.7 2.7-5.7zM24.4 18.3c-.5.3-.9.7-1.3 1.1v.7c.6-.6 1-1 1.6-1.5.4-.3.7-.3 1-.2-.2-.4-.7-.6-1.3-.1z"/><path class="est1" d="M24.2 22c-.5.3-.6.4-.9.6l.6 1.7c.1 0 .1-.1.2-.1.2-.1.3-.3.6-.5 2.6-1.9 3.9-4.6 3.5-6.6 0-.3-.2-.6-.3-.8-.5-.8-1.5-.8-2.6 0-.1.1-.2.1-.3.2l-.3.3v-1.4l2.1-1.7v-2.2l-4 3.5v4.9c.1-.1.2-.3.3-.4.4-.4.8-.8 1.3-1.1.6-.5 1.1-.2 1.3.2.1.2.2.3.2.5.2.9-.5 2.1-1.7 2.9z"/><path class="est1" d="M33.2 17.9c0-3-1.2-5.8-3.1-7.9-1.9-2-4.5-3.5-7.4-4.1h-.2c-.5 0-.9.3-.9.8 0 .3.2.5.4.7l.1.1c1.1.2 2.1.6 3 1.1l-.1-.1-5.1 4.4-4.8-4.2-.4-.3c1-.5 2-.9 3-1.1.3-.1.6-.4.6-.7 0-.1 0-.2-.1-.3-.1-.3-.5-.5-.8-.5h-.2c-6 1.2-10.6 6.1-10.6 12 0 3.2 1.3 6.1 3.5 8.3 1.3 1.3 2.7 2.3 4.4 2.9l1.1-3.1.1-.2c-1.3-.5-2.5-1.3-3.5-2.3-1.7-1.7-2.8-4.1-2.8-6.6 0-2.9 1.4-5.5 3.6-7.3l.4.3 5.2 4.6v9.5s-.3 2.9-2 5.8c.2 0 .3.1.5.1h.2c.8.2 1.7.2 2.5.3 1.1 0 2.2-.2 3.2-.4-1.7-2.9-2-5.8-2-5.8v-9.5l5.6-4.9c.4.3.8.7 1.2 1.1 1.5 1.7 2.4 3.9 2.4 6.2 0 4-2.6 7.4-6.3 8.9l1.2 3.3c.1 0 .1-.1.2-.1 4.7-1.9 7.9-6.1 7.9-11z"/><path class="est1" d="M17.5 18c-.2-1.7-.8-3.2-1.5-4.1-.6-.7-1.4-1.2-2.1-1.1-1.7.1-2.9 2.7-2.6 5.7.2 1.9.9 3.6 1.9 4.5.5.5 1.2.8 1.8.7 1.6-.1 2.8-2.6 2.5-5.7zm-4.7.1c-.1-1.5.4-2.8 1.3-2.8.4 0 .8.2 1.1.6.4.5.6 1.2.7 2 .1 1.5-.4 2.8-1.3 2.8-.3 0-.5-.1-.7-.3-.6-.3-1-1.2-1.1-2.3z"/></svg><view id="000007" viewBox="80 40 40 40"/><svg id="fEbene_1" data-name="Ebene 1" viewBox="0 0 960.19 960.2" width="40" height="40" x="80" y="40"><defs><style>.fcls-1,.fcls-4{fill:#ffe500}.fcls-2,.fcls-3{fill:#1d1d1b}.fcls-3,.fcls-4{fill-rule:evenodd}</style></defs><title>BVB_Standard_Logo</title><ellipse class="fcls-1" cx="480.09" cy="480.1" rx="480.09" ry="480.1"/><circle class="fcls-2" cx="480.09" cy="480.1" r="457.02"/><circle class="fcls-1" cx="480.09" cy="480.1" r="431.64"/><path class="fcls-3" d="M573.36 870.39c-31.88 0-55.08-24.12-55.08-51.68 0-4-.29-5.81-.1-8.7h30.07c8.71 0 7.31 11.8 7.31 11.8 0 9.08 9.82 13.2 17.22 13.4 9 .25 16.34-8 16.34-17.12l-.13-17.6c-5.75 3.12-17.16 3.06-17.16 3.06-27.24-.75-53.83-24.25-53.83-53.31v-12.95c0-29.06 24.79-51.94 53.85-51.94H573c29.06 0 51.63 23.54 51.63 52.61v79.39c.03 29.91-21.15 52.73-51.27 53.04z" transform="translate(-22.64 -22.51)"/><path class="fcls-4" d="M572.17 722.9h.51a16.45 16.45 0 0 1 16.45 16.44v10.43a16.44 16.44 0 0 1-16.45 16.44h-.51a16.44 16.44 0 0 1-16.45-16.44v-10.43a16.45 16.45 0 0 1 16.45-16.44z" transform="translate(-22.64 -22.51)"/><path class="fcls-3" d="M244 614.91V530.7h49.08c40.61 0 55.11 73.76 2.32 84.2zm0-148.32v-80.38h55.46c36 0 43.35 69.32 2.16 80.37zm-66.15-147v358.4l112.91.12c91.08 0 137.34-110.52 74-178.65a.81.81 0 0 1-.19-.53c0-.33.45-.68.45-.68 52.63-59.45 30.59-163.88-67.3-178.64zM710.41 614.91V530.7h48.75c40.61 0 55.11 73.76 2.32 84.2zm0-148.32v-80.38h55.13c36 0 43.35 69.32 2.16 80.37zm-66.48-147v358.4l112.91.12c91.09 0 137.34-110.52 74-178.65a.81.81 0 0 1-.19-.53c0-.33.45-.68.45-.68 52.63-59.45 30.59-163.88-67.3-178.64zM432 685.6h1.19a52.62 52.62 0 0 1 52.62 52.63v79.47a52.62 52.62 0 0 1-52.62 52.63H432a52.63 52.63 0 0 1-52.63-52.63v-79.47A52.63 52.63 0 0 1 432 685.6z" transform="translate(-22.64 -22.51)"/><path class="fcls-1" d="M409.68 700.84h.53a16.44 16.44 0 0 1 16.44 16.44v78.9a16.45 16.45 0 0 1-16.45 16.45h-.53a16.45 16.45 0 0 1-16.45-16.45v-78.89a16.45 16.45 0 0 1 16.46-16.45z"/><path class="fcls-3" d="M337.02 118.02l117.43 363.34h50.81l116.03-363.34h-71.06l-70.5 242.51-70.02-242.51h-72.69z"/></svg><view id="000008" viewBox="0 80 40 40"/><svg id="gEbene_1" viewBox="0 0 40 40" width="40" height="40" y="80"><style>.gst0{fill:#fff}.gst1{fill:#e30613}</style><title>KOE_Standard_Logo</title><path class="gst0" d="M36.8 20.1c.1-.1.1-.2.1-.3 0-.1 0-.2-.1-.2 0 0 0-.1-.1-.1 0-.1.1-.2.1-.2v-.1c0-.2-.1-.3-.2-.4-.2-.1-.4-.1-.6 0-.1.1-.2.3-.3.4-.1-.1-.2-.1-.2-.1-.2 0-.1.1-.3.3-.5.7-1.1 1.7-1.8 1.8-.2 0-.2-.1-.4-.4-1.5-2.4-3.4-3.9-5.9-5.6-.1-.2-.4-.7-.7-1.2-.5-.8-1.1-1.8-1.7-2.2-.5-.3-1-.5-1.4-.7-.6-.2-1.1-.4-1.6-.9-.2-.2-.4-.4-.6-.7-.4-.6-.9-1.3-2-2 0-.2.1-.4.1-.6 0-.3-.1-.8-.2-1-.1-.2-.2-.3-.4-.3-.3-.1-.7 0-1 .2.6-1.7 2-2.9 2.7-3.5.4-.3.6-.5.6-.8v-.1c-.1-.5-.6-.5-.8-.5-.3 0-1.3 0-2 .6-.2.1-.4.1-.6.2v-.1c-.1-.2-.3-.4-.7-.3-.7.1-1.1.3-1.4.4h-.1c-.4.2-.7.6-.9 1-.3.2-.6.5-.7 1-.4.3-.7.6-.7 1-.2.2-.3.4-.4.7-.2-.2-.6-.4-1-.5-.1 0-.4 0-.6.2l-.1.1V5.5c0 .1 0 .2.1.3l.1.3v.4c.1.6.4.9.7 1.2-.1.2-.1.4-.1.6 0 .3.1.5.1.7v.2c0 .4-.2 1.2-.3 1.7v.2c-.1.3-.3.8-.3 1.4 0 .2 0 .4.1.6.1.4.4.8.8 1l.2.1c.2.1.3.1.3.2.1.1.1.5.1.8v.8c0 .2.1.4.3.5.2.1.4.1.6-.2.1-.1.2-.3.3-.4 0 0 0 .1.1.1s.2.1.2.1c-.2.2-.5.4-1 .6-2.2.3-3.7 1.1-4 2.1-3.7 1.8-6.1 5.6-6.1 9.7 0 6 4.8 10.8 10.8 10.8s10.8-4.8 10.8-10.8c0-1.4-.3-2.8-.8-4.1l.1-.1.1.1c.1.2.4.4.6.4h.4l.1.2c.2.3.6.3.7.3h.3c.1 0 .1.2.2.5v.2c0 .2.1.3.3.5 0 .1.1.3.1.3 0 .3.1.6.4.7 0 .2.1.5.3.7.1 0 .1.1.2.1.1.4.4.5.5.5l.2.3c.1.2.2.4.4.5l.1.1h.2c.4.5 1.3 1.9 1.3 3.3v.2c-.1.9-.4 1.4-.7 1.7-.3.4-.3.8-.3.9 0 .4.2.5.4.6.2.1.6.3 1.3 0 .5-.2.6-.6.7-.9 0-.1.1-.2.1-.2.2-.2.5-.6.6-1.1v-.1c0-.5-.2-1.1-.3-1.6-.1-.2-.1-.7-.2-1.2.2.3.4.6.5.7l.1.1c.1.2.5.9.5 1.5v.2c-.1.4-.2.7-.4 1-.2.3-.4.6-.5 1.2v.2c0 .3.1.6.3.7.3.3.7.3 1.2.1.6-.2 1-.9 1.1-1.8l.2-.1c.1-.1.2-.3.2-.5v-.3c-.3-1.3-.4-1.9-.4-2.4v-1.5c0-.3-.1-.5-.3-.7l-.2-.3c-.2-.2-.4-.4-.4-.6-.1-.2-.1-.6-.1-.9 0-.6.1-1.3.1-2 .1-.8.1-1.5.1-2.1 0-.3 0-.5-.1-.8 1.8.1 2.6-1.8 2.8-2.4v-.1c0-.1.1-.2.1-.3.2.2.1 0 0-.1zm-21.3-6.2c0-.2 0-.3.1-.5h.1c0 .2.2.4.4.5l.1.3c-.1.1-.2.2-.4.3l-.3.5c-.2.2-.4.4-.6.5.3-.5.5-1.1.6-1.6zM34.5 30z"/><path class="gst1" d="M3.5 28.6c0-5.7 4.7-10.4 10.4-10.4s10.4 4.7 10.4 10.4S19.6 39 13.9 39C8.1 39 3.5 34.3 3.5 28.6z"/><path class="gst0" d="M4.7 28.6c0-5 4.1-9.1 9.1-9.1s9.1 4.1 9.1 9.1-4.1 9.1-9.1 9.1-9.1-4.1-9.1-9.1z"/><path class="gst1" d="M5.4 28.6c0-4.7 3.8-8.5 8.5-8.5s8.5 3.8 8.5 8.5-3.8 8.4-8.5 8.4-8.5-3.8-8.5-8.4z"/><path d="M22.8 23.1c-.1-.1-.2-.3-.3-.4-1.9-2.7-5-4.5-8.6-4.5-.1 0-.3.1-.5.2-.3.2-.6.2-1 .2-.3 0-.1-.3-.2-.3-.2.1-.6.2-.8.3 0 .4-1.2.8-1.9.5.1-1 1.7-1.8 4-2.1 1.4-.9 1.6-1.1 2.6-1.9.4-.4.6-.5.8-.6.1 0 0-.1 0-.1-.1 0-.2-.1-.2-.2-.1-.2 0-.3-.1-.4-.1-.1-.3-.1-.3-.4 0-.1 0-.3-.2-.3s-.3.1-.3-.4c0-.2 0-.5-.1-.5s-.3.5-.4 1.6c-.1.9-.6 1.8-.8 1.7-.2-.1 0-1-.3-1.4 0-.1.1 1-.7 1.8-.1.1-.2 0-.2 0 0-.2.1-1.5-.1-1.9-.2-.3-.4-.3-.7-.5-.3-.1-.5-.4-.5-.7-.2-.8.2-1.7.2-1.9.1-.3.4-1.5.3-2-.1-.4-.3-.7 0-1.3 0-.1.1-.1 0-.2-.4-.3-.6-.5-.7-1.1-.1-.3 0-.5-.1-.8 0-.1-.1-.2-.1-.3.1-.1.2-.1.3-.1.6.1 1 .5 1.2.8-.3.1-.2 0-.1-.1 0-.4.2-.7.4-.9 0-.5.3-.8.5-.9 0-.4.3-.7.7-1 .3-.6.7-.8.9-.9.2-.1.6-.3 1.2-.4.3 0 .3.1.2.2-.4.3-1.3 1.3-1.7 2.4.1-.2.4-.6.8-.7.2-.5.7-.8 1-1 .2-.3.6-.7 1.1-.8.6-.5 1.7-.5 1.8-.5.2 0 .5 0 .5.2.1.3-3 1.9-3.5 5.1 0 .1.8-.7 1.6-.6l.1.1c.4.8 0 1.6.1 1.6 1.6 1 2 2.2 2.7 2.8 1 .9 2.1.9 3.1 1.6.9.6 2 2.8 2.5 3.3 2.3 1.6 4.2 3.1 5.8 5.5.2.3.3.5.7.5.9 0 1.6-1 2.1-2 0 0 .1-.1.1 0 .1.1 0 .2.1.2.2 0 .3-.5.5-.7.1-.1.2 0 .2.1-.1.2-.2.5-.2.6h.1s.1-.1.1 0c.1 0 .1.1 0 .2s-.1.3-.1.4c0 .1.1 0 .2.1.1 0 .1.1 0 .3-.2.5-1 2.5-2.7 2.2-.2 0-.3-.2-.3 0 .4 1.5-.4 4.8-.1 6.3.1.4.6.8.8 1 .1.1.2.3.2.5.1 1.3-.2 1.5.4 3.9.1.2 0 .4-.1.5-.1.1-.2.1-.2.2-.1.8-.4 1.4-.9 1.6-.6.2-1.1-.1-1-.6.2-1 .7-1.2.8-2.2.1-.8-.4-1.7-.6-2-.2-.3-.6-1-1.1-1.5-.1-.1-.1-.1-.1 0-.2.6 0 1.9.1 2.2.1.5.3 1.2.3 1.6 0 .4-.2.7-.4.9-.3.3-.1.8-.7 1-.4.2-.7.1-.9 0-.1-.1-.2-.1-.2-.3 0-.2 0-.5.2-.7.3-.4.7-.9.8-1.9.1-1.8-1.5-3.9-1.6-3.9-.1 0-.1.1-.2 0-.2-.1-.4-.6-.5-.8-.1-.1-.3-.1-.4-.3 0-.1-.1-.3-.2-.3h-.2c-.2-.2-.2-.7-.3-.8h-.2c-.1-.1-.1-.5-.2-.9-.1-.2-.2-.2-.3-.4-.1-.4-.1-.9-.5-1.1-.4-.2-.7.1-.9-.2-.1-.1-.1-.3-.4-.4-.1-.1-.2-.2-.3-.2-.1 0 0 .2-.2.2s-.4-.5-.7-.5c-.1 0-.1.1-.2.1s-.1-.6-.5-.7c-.1 0-.1.1-.2 0 .1.2 0 .1-.1 0z"/><path d="M33.3 37c-.2 0-.3 0-.4-.1-.2-.1-.2-.3-.2-.6.1-.5.3-.8.4-1.1.2-.3.3-.6.4-1.1.1-.8-.4-1.7-.6-2 0 0 0-.1-.1-.1-.2-.3-.6-1-1-1.4h-.1c-.2.6 0 1.9.1 2.2.2.6.3 1.2.3 1.6 0 .4-.2.7-.4.9-.1.1-.2.3-.2.4-.1.2-.1.5-.5.6-.5.2-.8.1-.9 0-.1-.1-.2-.1-.2-.3 0-.2 0-.5.2-.7.3-.3.7-.9.8-1.9.1-1.8-1.4-3.9-1.6-3.9h-.1-.1c-.1-.1-.2-.2-.3-.4-.1-.2-.2-.3-.3-.4 0-.1-.1-.1-.2-.1s-.2-.1-.2-.2c0-.2-.1-.3-.2-.3h-.1-.1c-.1-.1-.2-.4-.2-.6 0-.1 0-.2-.1-.2h-.1-.1c-.1 0-.1-.2-.1-.4 0-.1 0-.3-.1-.4 0-.1-.1-.1-.1-.2-.1 0-.1-.1-.2-.2v-.2c-.1-.3-.1-.7-.4-.8-.1-.1-.2-.1-.3-.1-.2 0-.3 0-.4-.2l-.1-.1c0-.1-.1-.2-.3-.2-.1 0-.1-.1-.1-.1-.1-.1-.1-.1-.2-.1v.1c0 .1 0 .1-.1.2-.1 0-.2-.1-.3-.2-.2-.3-.3-.4-.5-.4 0 0-.1 0-.1.1l-.1.1c-.1 0-.1-.1-.1-.2-.1-.2-.2-.4-.4-.5h-.1s-.1.1-.1 0l-.3-.3c-.1-.1-.2-.3-.3-.4-1.9-2.8-5.1-4.5-8.5-4.5-.1 0-.3.1-.4.2h-.1c-.3.2-.6.2-.9.2-.2 0-.2-.1-.2-.2v-.1c-.2 0-.6.2-.8.3 0 .1-.1.2-.3.4-.4.3-1.2.4-1.6.2.1-1 1.6-1.8 4-2.2 1.3-.8 1.6-1 2.3-1.7l.2-.2c.4-.4.6-.5.8-.6-.1 0-.2-.1-.2-.3 0-.1 0-.1-.1-.2 0-.1 0-.2-.1-.2h-.1c-.1-.1-.2-.1-.2-.3 0-.1 0-.2-.1-.3-.2 0-.3 0-.3-.4v-.1c0-.1 0-.4-.1-.4s-.2.3-.4 1.6c-.1.7-.5 1.6-.7 1.7h-.1c-.1-.1-.1-.3-.1-.6s0-.6-.1-.8c0 .3-.1 1.1-.7 1.7h-.6l-.1-.1c0-.3.1-1.5-.1-1.8-.2-.2-.3-.3-.5-.4-.1 0-.1 0-.2-.1-.3-.1-.5-.5-.6-.7-.2-.7.1-1.4.2-1.8 0-.1 0-.1.1-.2 0 0 .4-1.4.3-1.9v-.1c-.1-.3-.2-.7 0-1.2v-.1c-.4-.3-.6-.5-.7-1.1v-.3c0-.2 0-.3-.1-.5 0 0 0-.1-.1-.1 0-.1-.1-.1 0-.2s.2-.1.3-.1c.5.1.9.4 1.2.8 0-.1.1-.2.2-.3 0-.3.1-.6.4-.9 0-.5.3-.8.5-.9 0-.4.3-.7.7-1 .2-.6.6-.8.8-.9h.1c.3-.1.6-.3 1.2-.4.2 0 .3.1.3.1 0 .1 0 .1-.1.2-.3.2-1.2 1.1-1.6 2.2.1-.2.4-.4.7-.6.2-.5.7-.8 1-1 .2-.3.6-.7 1.1-.8.6-.5 1.6-.5 1.8-.5.2 0 .4 0 .5.2 0 .1-.1.2-.5.5-.9.7-2.7 2.2-3 4.6l.1-.1c.3-.2.8-.6 1.4-.5.1 0 .1.1.1.1.3.6.2 1.1.1 1.4v.2c1.1.6 1.6 1.4 2 2 .2.3.4.6.6.8.5.5 1.2.7 1.7 1 .5.2.9.3 1.3.6.5.4 1.1 1.3 1.6 2.1.3.5.7 1 .9 1.2 2.4 1.7 4.3 3.2 5.8 5.5.2.3.3.5.7.5.8 0 1.5-.9 2.1-1.9 0 0 0-.1.1-.1h.1s0 .1.1.1v.1c.1 0 .2-.2.3-.3.1-.1.2-.3.2-.3h.2s.1.1 0 .1c0 .1-.1.2-.1.3-.1.1-.1.3-.1.3l.1-.1s.1 0 .1.1v.2c-.1.1-.1.3-.1.4h.1c.1.1.1.2 0 .3v.1c-.3.6-1 2.4-2.7 2.1-.1 0-.1 0-.2-.1h-.1v.1c.2.8.1 2 0 3.3-.1 1.1-.2 2.3 0 3.1.1.3.3.6.5.8.1.1.2.2.2.3.1.1.2.3.2.5v1c0 .6 0 1.2.4 2.9.1.2 0 .4-.1.5l-.1.1s-.1 0-.1.1c-.1.8-.4 1.4-.9 1.6h-.1zm-1.5-6.4s.1 0 .1.1c.5.4.8 1.1 1 1.4 0 0 0 .1.1.1.2.3.7 1.2.6 2-.1.5-.3.8-.4 1.1-.2.3-.3.6-.4 1.1 0 .2 0 .4.2.5.2.1.5.2.8.1.4-.2.8-.8.9-1.6 0-.1.1-.1.1-.1s.1 0 .1-.1c.1-.1.1-.2.1-.4-.4-1.7-.4-2.3-.4-2.9v-1c0-.2-.1-.3-.2-.5-.1-.1-.1-.2-.2-.3-.2-.2-.5-.5-.5-.8-.2-.8-.1-1.9 0-3.1.1-1.2.2-2.5 0-3.2v-.2h.1s.1 0 .2.1c1.6.2 2.4-1.5 2.6-2.1v-.1c.1-.1 0-.2 0-.2h-.1-.1v-.1c0-.2.1-.3.1-.4v-.1h-.1-.1c0-.1.1-.2.1-.4 0-.1.1-.2.1-.3v-.1h-.1c-.1.1-.2.2-.2.3-.1.2-.2.4-.3.3-.1 0-.1-.1-.1-.1v-.1c-.6 1-1.3 2-2.2 2-.4 0-.5-.2-.7-.6-1.5-2.4-3.3-3.8-5.8-5.5-.2-.2-.5-.7-.9-1.2-.5-.8-1.1-1.7-1.6-2.1-.4-.3-.9-.5-1.3-.6-.6-.2-1.2-.4-1.8-1-.2-.2-.4-.5-.6-.8-.4-.6-.9-1.4-2-2v-.3c0-.3.1-.8-.1-1.4 0 0 0-.1-.1-.1-.6-.1-1.1.3-1.4.5-.1.1-.2.1-.2.1.4-2.4 2.2-3.9 3.1-4.7.3-.2.5-.4.5-.4 0-.2-.3-.2-.4-.2-.2 0-1.2 0-1.8.5-1 .3-1.3.6-1.5 1-.3.2-.8.4-1 .9-.4.2-.7.5-.8.7.4-1.2 1.4-2.2 1.7-2.4 0 0 .1-.1 0-.1 0-.1-.1-.1-.2-.1-.6.1-.9.2-1.2.4h-.1c-.2.1-.6.3-.8.9-.4.3-.6.6-.6 1-.3.1-.5.4-.5.8-.3.3-.4.6-.4.9-.1.1-.2.2-.3.4-.3-.5-.7-.7-1.2-.8-.1 0-.2 0-.3.1v.1l.1.1c.1.2.1.3.1.5v.3c.1.6.3.8.7 1.1.1.1 0 .1 0 .2-.2.5-.1.8 0 1.1v.1c.1.6-.3 2-.3 2s0 .1-.1.2c-.1.4-.3 1.1-.2 1.7.1.2.3.6.5.7.1 0 .1.1.2.1.2.1.4.1.5.4.3.4.1 1.7.1 1.9 0 0 .1 0 .1-.1.6-.6.7-1.4.7-1.7V14c.1.2.2.6.2.9 0 .2 0 .5.1.5.2-.1.6-.9.7-1.7.2-1.5.3-1.7.5-1.7.1 0 .1.2.1.4v.1c0 .4.1.4.2.4h.1c.2 0 .2.2.2.3 0 .2.1.2.2.3h.1c.1.1.1.2.1.2v.2c0 .1.1.2.2.2 0 0 .1 0 .1.1v.1c-.1 0-.3.2-.7.6-.1.1-.2.1-.2.2-.8.7-1 .9-2.3 1.7-2.3.3-3.9 1.2-3.9 2.1.4.2 1 .1 1.6-.2.2-.1.3-.2.3-.3.2-.1.6-.3.8-.3h.1v.1c0 .1 0 .2.1.2.3 0 .6 0 .9-.2h.1c.2-.1.3-.2.4-.2 3.4 0 6.6 1.7 8.6 4.5.1.1.2.3.3.4l.3.3h.2c.2.1.3.4.4.6 0 .1.1.2.1.2s.1 0 .1-.1l.1-.1c.2 0 .3.1.4.3l.2.2c.1 0 .1-.1.1-.2 0 0 0-.1.1-.1s.2 0 .2.1l.1.1c.2 0 .3.1.3.3 0 0 0 .1.1.1.1.2.2.2.4.2.1 0 .3 0 .5.1.3.2.4.5.5.9v.2c0 .1.1.2.1.2.1 0 .1.1.1.2s.1.3.1.5 0 .4.1.4h.2s0 .1.1.2c0 .2.1.4.2.5h.2c.1.1.2.3.2.4 0 .1.1.1.2.1s.1 0 .2.1.2.2.3.4c.1.2.2.3.3.4h.1c.1 0 .5.6.9 1.3.4.7.8 1.7.7 2.7-.1 1.1-.5 1.6-.8 1.9-.2.2-.2.5-.2.7 0 .1.1.2.2.3.1 0 .4.2.8 0 .3-.1.4-.4.5-.6 0-.2.1-.3.2-.4.2-.2.4-.4.4-.8s-.1-1-.3-1.6c.2-.3 0-1.6.3-2.3-.1 0 0 0 0 0zm-15-16.1zm-2.8-.3z"/><path class="gst0" d="M13.6 5c.2-.2.5-.3.5-.4 0-.1-.2 0-.2 0h-.1c.2-.5.7-.6.8-.8v-.1c-.1 0-.2.1-.2 0 .1-.5.7-.8.8-.8v-.1h-.1c.1-.3.4-.5.7-.6.2-.1.7-.2.7-.2s-.4.2-.5.4c-.1.1-.2.2-.2.5-.4.2-.6.6-.6 1-.3.1-.5.6-.4.8-.3.3-.5.7-.4 1.2-.7.9-.5 1.2.3 1.5h.2s-.1-.1-.1-.2c-.4-.9.1-1.3.8-1.6.1 0 0-.1-.1-.1h-.4c-.1-.3.6-.9 1-1 .2 0 .1-.1 0-.1s-.3 0-.3-.1c.1-.3 1-.8 1.1-.8.1-.1.1-.2-.3-.1h-.1c.1-.2.9-.6 1.3-.7.1 0 .1-.1-.1-.1-.1 0-.2.1-.2 0 0-.3 1-.6 1.3-.6.1 0 .1-.1 0-.1s-.3.1-.2-.1c.2-.2.9-.2 1.1-.1h.1c-.1.2-1.2.5-1.3 1.2-.3.1-.7.5-.7.7-.2.1-.5.4-.5.8-.2.1-.7.6-.5 1.1-.3.3-.5.5-.5 1.2 0 .2-.3.6-.6.7-.1 0-.1.1 0 .1.5.2 1.1-.1 1.2-.3.6-.6 1-.8 1.3-.8.1 0 .1 0 .1.1.1.4.1.7 0 1.1-.2.7-.7 1-.8 1.2 0 0 .1.3 0 .5s0 .3.1.3c.2.1.3-.6.4-.6.1 0 .1.2.2.2s.1 0 .1-.1c0-.2.1-.7.1-.7s.1.2.1.3c0 .5-.3 1-.1 1.4 0 .1.1.1.2 0 .3-.4.4-1 .8-1.1.5-.1 1 1.2.6 1.6-.2.1-.4 0-.6.1-.2.1-.2.6-.4.8-.1.1-.2.1-.4.1-.4 0-.3 1.3-.2 1.5 0 .1.1.1.2.1.1-.1.1-.3.1-.6 0-.1.2-.1.2-.2.1-.1 0-.2.1-.2.1-.1.2 0 .3-.1.2-.2.1-.4.2-.5.2-.1.4-.1.6-.3.1-.1.1-.4.3-.5.9 0 1.8 1 2 1.3.5.9-.3 2.4.2 2.6.6.4.5 1.1.4 1.2-.1.4-1.1.8-1.3 1.6-.1.8.4.6.4.5s.1-.2.1-.3c0-.1.2 0 .2 0 0 .1.2.3.4-.2.2-.3.6-.7.9-.9.3-.2.4-.9.4-1.1 0-.1.2-.1.2-.3s-.3-.7-.1-1c.1-.1.3-.2.4 0 .2.2-.1.7.2.8.2 0 .3-.3.5-.3s-.2.8 0 .9c.1.1.3 0 .3.1.1.2-.3.6 0 .6 3.4-.1 4.7 2.6 4.4 3.1-.1.2-.5-.1-.6.1-.3 1 .4 1.8.6 2 .1 0 .2 0 .2-.1 0-.3-.2-.5-.2-.8.1-.5 1.2-.2 1.3.2 0 .1 0 .3.2.4.2.2.6 0 .6.3.1.7-.8.7-1.4 1.1-.3.2-.2.4 0 .4.3.1.7 0 1 .3.3.5-.1 1.4-.1 1.8 0 .4.7 1.6.7 2.2.1.3-.2.5-.4.2-.3-.3-.5-.7-.7-1-.1-.1-.2-.1-.2.1 0 .5 2.5 3.8 2.6 4.3.1.3-.1.5 0 .8 0 .1.1 0 .1.1 0 .2-.2.5.1.6.1.4 0 .5.1.8 0 .3.2.7.2 1-.1.8-.4 1.2-.7 1.3-.2.1-.3-.1-.3-.3.1-.5.6-1.4.4-2.4-.6-2.6-3.4-4.5-3.9-5.5-.2-.4-.7-.4-.7-.9-.1-.1-.2-.1-.3-.2-.1-.1-.1-.5-.2-.7 0-.1-.1 0-.2-.1-.4-.5-.3-3.1-.7-3.4-.3-.1-.5.3-.8.3-.3 0-.7-.6-.8-.4-.1.1-.1.4-.1.5s.1.3 0 .3-.2-.2-.5-.3c-.2-.1-.4 0-.5-.1-.2-.2 0-.7-.4-.9-.1 0-.1-.3-.2-.4-.1-.1-.2-.1-.2-.1-.1-.2-.2-.3-.2-.5 0-.1-.4 0-.4-.2s-.2-.2-.3-.2c-.2 0-.1-.4-.2-.4h-.1c-.1-.1-.1-.2-.1-.2h-.2c-.2-.3 0-.7-.2-.8-.1-.1-.2 0-.3-.1-.1-.1-.1-.2-.2-.2-.2 0-.3 0-.3-.1-.3-.5-.3-1-.4-1.2-.1-.1-.2-.2-.3 0-.2.4-.2 2-.7 2.2-.4.2-.7-.5-.9-.6-.1 0-.1.1-.2.1-.2-.1-.1-.3-.3-.4-.1-.1-.1.1-.2.1-.1-.1-.1-.5-.3-.5-.1 0-.2.1-.2 0-.2-.2-.1-.6-.3-.7-.1 0-.1.1-.2.1s-.1-.6-.4-.5c0 0 0-.1-.1-.1s-.2.1-.3 0l-.3-.3c-.1-.1-.3 0-.5-.1-.6-.3-1.9.8-2.5 1.4-.2-.2-.5 0-.8 0-.1 0-.4 0-.1-.3.5-.6.9-.5 2-1.3.7-.5 1.4-1.1 1.7-1.2.2-.1.5-.2.8.2.4.5 1.2 1.3 1.6 1.5.7.3.8-.2.9-.4.1-.2.1 0 .1.2 0 .1 0 .3.1.3.2 0 .2-.1.2-.2.2-.9 1.1-2 1.5-1.8.3.2.4.2.5-.1.1-.4-.2-.8-.3-1.2-.1-.5 0-1.1-.2-1.2-.1 0-.3.1-.3.2-.1.1-.1.3-.1.5 0 .1-.4.2-.5.7 0 .1-.2-.1-.3 0-.2.2-.2 1-.3 1.1-.1 0-.2-.1-.2 0s-.1.5-.1.5c-.1 0-.1-.1-.2 0-.2.2-.1.4-.3.6-.1.1-.2 0-.2-.1 0-.2-.2-.5-.3-.7-.4-.4-.2-1.2-.8-1.5-.2-.1-.2-.2-.2-.3 0-.2-.1-.3-.2-.3-.2 0-.2-.1-.2-.3 0-.3-.2-.3-.3-.4-.3 0-.3-.1-.2-.8v-.6c-.2-.2-.5-.1-.4-.5 0-.2.5-.6.7-.8.1-.1.2-.5-.2-.4-.9.2-1.6 1.8-1.8 2.1-.6 1.2-1.2 1.7-1.7 1.8-.2.1-1.1.2-1.3-.7-.1-.4 0-.8.2-1.5.9-3-.1-2.4.4-3.4.3-.3.7-.3 1.2-.3.1 0 .1-.1 0-.2s-.1-.1-.3-.1-.4-.3-.4-.6.2-.5.3-.6c.2-.2.3-.2.3-.2 0-.2-.3.1-.4 0 0 0 .2-.2.3-.4z"/><path class="gst0" d="M12.7 6.6c0 .1 0 .3.1.6-.1 0-.2.1-.4.1-.4-.2-.6-.6-.7-1-.1-.2-.1-.5-.2-.7.7 0 1.2.9 1.2 1z"/><path d="M18.2 6.7c0 .5-.5 1.5-1.2 1.7h-.1c-.1-.3.2-.9.7-1.1.3-.2.5-.4.6-.6zM15.9 8.6c.1.2 0 .2 0 0-.5-.3-.8-.2-1-.1-.1 0-.1 0-.1-.1.4-.4 1-.2 1.1.2zM14.1 8.7c.2.3.1.7-.1.9l-.4.8c0 .1-.1.1-.2.1s.2-.5.3-1c0-.2 0-.5.1-.8.2-.1.3-.1.3 0zM15.6 8.9c.1.3-.2.4-.4.5-.1 0-.2 0-.3-.1-.1 0 0-.1-.1-.1s-.1.1-.2.1-.1 0 0-.1c.1-.2.2-.3.4-.4.2-.1.4-.2.6.1zM14.6 10.2c.2.6 0 .8-.1 1-.1 0-.4.1-.4-.3.2-.2.3-.5.4-.7 0-.2 0-.2.1 0zM13.4 11.8c-.1.4-.2.6-.5.6s-.4-.3-.4-.3c.3.1.6-.1.9-.3-.1-.1 0 0 0 0zM28.6 17.6c.2.1.2.2.2.3-.1.2-.2.3-.2.4 0 .1 0 .2-.1.2-.2 0-.3-.4-.5-.1-.1.1-.3 0-.3 0 0-.1-.1-.2-.2-.3-.4 0-.5-.6-.4-.8.2-.6.9.1 1.5.3z"/><path class="gst0" d="M12.8 17.5c-.2.2-.4.4-.5.6-.3 0-.7.2-1 .3-.1.1-.5.1-.9.1-.1 0-.1 0-.1-.1 0-.3 1.7-1 2.4-1.1.1.1.2.1.1.2zM35.8 21.1c.1.1-.1.3-.3.5-.2.2-.8.7-1.4.6-.2 0-.3-.2-.3-.4.1-.2.6-.2 1-.4.3-.1.4-.2.7-.3.3-.1.3 0 .3 0zM31.1 31.5h.2c.1 0 .1.3.1.5 0 .1 0 .3.1.4.1.1-.1.4 0 .6.1.1-.1.5 0 .7.1 0 .1 0 .2.1-.1.4.1 1 .1 1.2-.2.3-.3.2-.5.7-.2.4-.9.2-.7-.2.4-.8.6-1.6.6-2 .1-1-.4-2.5-.5-2.7 0-.2 0-.3.2-.1.2.3.1.8.2.8zM14.8 23.4l-.6-.8c0 .2-.2 3-.2 3h-.1s-.2-2.8-.2-3c-.1.2-.6.9-.6.9s-1-4.6-1.1-5c-.1.3-1.1 5-1.1 5s-.5-.7-.6-.9l-1 13c1.4.9 3 1.4 4.6 1.4 1.6 0 3.3-.5 4.6-1.4l-1-13c-.1.2-.6.9-.6.9s-1-4.6-1.1-5c0 .4-1 4.9-1 4.9z"/><path d="M18.6 35.6l-1-13.1-.6.9-1.1-5-1.1 5-.6-.9-.3 3.2-.2-3.2-.7.9-1.1-5-1.1 5-.6-.9-1 13.1c1.4.9 3 1.4 4.7 1.4 1.7 0 3.3-.5 4.7-1.4z"/><path class="gst0" d="M22.7 28.1l-1.3-4.6-16.5 4.6 1 4.7z"/><path class="gst1" d="M8 27.8l2.2-.7-.4 4.1-1.5.4.3-2.8-.6.2v-1.2zM12 30c0 .4-.5.8-.9.9-.4.1-.8 0-.8-.4s.5-.8.9-.9c.5-.2.9 0 .8.4zM13 26.4l2.8-.8-.1 1.2-1.3.3v.4l1.1-.3-.1 1-1.1.3-.1 1.5-1.5.4.3-4zM19.4 26.2c-.2-.1-.5-.2-.9-.2-.5.1-.9.6-.9 1s.3.7.8.6c.4-.1.6-.3.9-.6l-.2 1.5c-.3.2-.8.4-1.1.5-1.2.3-2-.3-1.9-1.5.1-1.2 1.2-2.4 2.4-2.8.3-.1.7-.1 1-.1l-.1 1.6z"/><path class="gst0" d="M12.8 31.6c0 .2-.1.3-.3.4-.1 0-.2-.1-.2-.2 0-.2.1-.3.2-.3.3-.2.4-.1.3.1zm.7-.2c0 .2-.1.3-.2.4-.1 0-.2-.1-.2-.2 0-.2.1-.3.2-.4.1-.1.2 0 .2.2zm.4 1.7c-.1.9-.6 1.5-1.2 1.7-.6.2-1.1-.2-1-1.1.1-.8.6-1.5 1.2-1.7.6-.1 1.1.3 1 1.1zm-1.5.4c0 .3.1.5.3.4.2-.1.4-.3.4-.6s-.1-.5-.3-.4-.4.4-.4.6zM14.3 31.7l.7-.2-.2 1.8.6-.2v.9l-1.4.4.3-2.7zM15.8 31.3l.7-.2.5 1.3v-.7l.1-.8.7-.2-.2 2.7-.6.2-.5-1.2v.5l-.1.9-.7.2.1-2.7z"/><g><path class="gst0" d="M9.9 32.9l.7-.2-.1 1.2c0-.1.1-.2.1-.3l.4-1 .8-.2-.7 1.5.6 1.2-.9.2-.3-.7c0-.1-.1-.2-.1-.3l-.1 1.1-.7.2.3-2.7z"/></g></svg><view id="000009" viewBox="40 80 40 40"/><svg id="hS04_Signet_Outline_4c" viewBox="0 0 980 980" width="40" height="40" x="40" y="80"><defs><style>.hcls-1{fill:#fff}.hcls-2{fill:#004b9c}</style></defs><title>S04_Standard_Logo</title><path class="hcls-1" d="M500 990c270.62 0 490-219.38 490-490S770.62 10 500 10 10 229.38 10 500s219.38 490 490 490z" transform="translate(-10 -10)"/><path class="hcls-2" d="M500 972C239.34 972 28 760.66 28 500S239.34 28 500 28s472 211.34 472 472-211.34 472-472 472" transform="translate(-10 -10)"/><path class="hcls-1" d="M613.25 747.74h-23.18v-41.49h-36.24v41.53H529.4s37.74-157.67 38.06-158.39h-40.28s-47.46 198.25-47.46 197.1H552v64.94h38.07v-64.94h23.2v-38.75zm-254.84-107.8v161.31a54.51 54.51 0 1 0 109 0V639.94a54.51 54.51 0 0 0-109 0zm37.09-.07a17.91 17.91 0 1 1 35.82 0v161.46a17.91 17.91 0 0 1-35.82 0V639.87zm91.63-394.73c-2.22-5.48-8.85-35.16 26.55-47.67 11.08-3.07 20.09-2.41 30.67 1.65 27.13 9.84 32.23 46.38 34.22 69.52h29.83l-.05-126.44h-18.29s-9.06 13.54-11.69 17.4c-15.22-9.84-33.08-16.21-50.95-20.83-42.34-7.52-82 2.32-113.14 24.3-39.82 28.27-62.48 92.93-34.63 135.87S487 457.62 487 457.62s5.57 7.76 5.4 16.66c-.24 14.2-6 23.36-17.3 31.35s-22.82 9.72-38.38 6.35c-36.8-7.85-34.47-54.45-34.47-78.05h-43.84v133.28h28.13l9-17.18c11 5 31.34 15.18 48.54 18.08 46.32 9.25 95.94 1.14 129.68-28.94 36.4-30.1 54.88-88.73 18-138.71-38.9-58.8-97.42-137.46-104.62-155.32zm372.32 110.95h32.78C833.6 196.32 680.11 82.31 500 82.31c-230.68 0-417.69 187-417.69 417.69S269.32 917.69 500 917.69s417.53-186.86 417.69-417.41H637.33v155.7h46.27v91.8c0 31.47 0 139.33-183.6 139.33A385.32 385.32 0 0 1 314.81 840V160A385.35 385.35 0 0 1 500 113c183.6 0 183.6 107.86 183.6 139.32v103.77z" transform="translate(-10 -10)"/></svg><view id="00000A" viewBox="80 80 40 40"/><svg id="iEbene_1" viewBox="0 0 40 40" width="40" height="40" x="80" y="80"><style>.ist0{fill:#fff}.ist1{fill:#1d1d1b}.ist2{clip-path:url(#iSVGID_2_)}</style><path class="ist0" d="M6.8 20.4c0-10.1 5.7-18.3 12.7-18.3s12.7 8.2 12.7 18.3-5.7 18.3-12.7 18.3S6.8 30.5 6.8 20.4z"/><path class="ist1" d="M19.5 39.2c-1.8 0-3.5-.5-5.2-1.5-1.6-1-3-2.3-4.2-4.1-2.4-3.5-3.8-8.2-3.8-13.2s1.3-9.7 3.8-13.2c1.2-1.7 2.6-3.1 4.2-4.1 1.6-1 3.4-1.5 5.2-1.5 1.8 0 3.5.5 5.2 1.5 1.6 1 3 2.3 4.2 4.1 2.4 3.5 3.8 8.2 3.8 13.2s-1.3 9.7-3.8 13.2c-1.2 1.7-2.6 3.1-4.2 4.1-1.6 1-3.4 1.5-5.2 1.5zm0-36.6c-6.7 0-12.2 8-12.2 17.8s5.5 17.8 12.2 17.8c6.7 0 12.2-8 12.2-17.8S26.2 2.6 19.5 2.6z"/><path class="ist1" d="M8 20.4c0-9.5 5.2-17.2 11.6-17.2s11.6 7.7 11.6 17.2S26 37.6 19.6 37.6 8 29.9 8 20.4z"/><defs><ellipse id="iSVGID_1_" cx="19.5" cy="20.4" rx="11.6" ry="17.2"/></defs><clipPath id="iSVGID_2_"><use xlink:href="#iSVGID_1_" overflow="visible"/></clipPath><g class="ist2"><path class="ist0" d="M4.6 40.6V.3h22.2L11.6 40.6h-7z"/></g><path class="ist1" d="M19.5 37.7c-1.6 0-3.1-.5-4.6-1.4-1.4-.9-2.6-2.1-3.7-3.7C9 29.4 7.8 25 7.8 20.4s1.2-9 3.4-12.3c1.1-1.6 2.3-2.9 3.7-3.7 1.5-.9 3-1.4 4.6-1.4 1.6 0 3.1.5 4.6 1.4 1.4.9 2.6 2.1 3.7 3.7 2.2 3.3 3.4 7.6 3.4 12.3 0 4.6-1.2 9-3.4 12.3-1.1 1.6-2.3 2.9-3.7 3.7-1.4.9-3 1.3-4.6 1.3zm0-34.4C13.2 3.3 8.1 11 8.1 20.4c0 9.4 5.1 17.1 11.4 17.1 6.3 0 11.4-7.7 11.4-17.1C31 11 25.8 3.3 19.5 3.3z"/><path class="ist1" d="M20.4 8.8c.5.6.7 1.4.5 2.1-.1.5-.4 1-.4 1.5-.1.5.1.9-.1 1.3 0 .1-.1.2-.2.1s-.2-.3-.4-.3c-.2.2-.3.5-.4.8-.1.5.1 1 .1 1.5 0 .1 0 .2-.1.3-.1.1-.1.1-.2 0-.2-.2-.2-.4-.4-.5-.1 0-.2.1-.2.2-.1.1-.1.8-.2 1.1 0 .4.1.9.1 1.3-.1.1-.2 0-.3 0H18c-.4.6-.5 1.3-.7 2-.2.9-.3 1.9-.3 2.8-.1.1-.2.1-.3.1-.4-.3-.5-.8-.5-1.3 0-.7.1-1.5 0-2.2 0-.1 0-.4-.2-.4-.3.2-.3.5-.5.8-.6 1.4-1.1 2.8-1.6 4.3 0 .1-.1.3-.2.3-.3-.1-.3-.4-.3-.6-.2-1.5.4-3 .8-4.4 0-.1 0-.2-.1-.3h-.2c-1.2 1-2.1 2.3-3.1 3.4h-.2c-.1-.1-.1-.4 0-.5.4-1.5 1.4-2.8 2.4-4 .1-.2.4-.4.2-.7-.1-.1-.3-.1-.4 0-.8.3-1.5.7-2.3 1.1-.1 0-.1-.1-.1-.1 0-.5.4-.8.7-1.1.9-.8 1.9-1.3 2.9-1.8s2.1-1 3-1.6c.1-.2.3-.4.2-.7-.2-.3-.7-.2-1-.2-.9 0-1.9 0-2.6-.5-.1-.1-.2-.2-.1-.4 1 .1 2 0 2.9 0 .3-.1.6 0 .8-.2 0-.2-.2-.2-.3-.3-.7-.3-1.4-.4-2.2-.5v-.1c.2-.2.4-.1.7-.2.5 0 .9.2 1.3.1.1 0 .1-.1.2-.2 0-.1 0-.2-.1-.3-.5-.4-1.1-.4-1.7-.5-.5 0-1 .1-1.5.1h-1c-.2.1-.3.3-.3.6 0 .1.1.2 0 .3-.3 0-.6 0-.8-.2-.2-.4-.2-.9-.1-1.4.1-.4.6-.3.8-.5.2-.4.6-.1.8-.4.2-.2.4-.4.6-.5 1.2.1 2.5.1 3.7-.1 1.3-.3 2.4 0 3.1.9z"/><path class="ist0" d="M17.8 9.1c.1.1.1.3.1.4-.1.3-.5.3-.7.3-.1-.1-.4-.1-.4-.3-.1-.1 0-.2 0-.3 0-.2.2-.3.4-.3s.5 0 .6.2zM13.1 9.3c0 .1-.1 0-.2 0 0-.1-.2-.1-.1-.2 0 0 .1-.1.2-.1.1.1.1.2.1.3z"/><path class="ist1" d="M17.4 9.2c.1.1.2.2.2.3-.2 0-.4.2-.5 0-.1-.1-.2-.2-.1-.3 0 0 0-.1.1-.1s.2 0 .3.1z"/><path class="ist0" d="M12.7 9.6c.2.1.3.1.5.1.1 0 .1-.1.2-.1l.1.2c-.5.1-1.1 0-1.4.4 0 .1-.2.3-.2.4h-.1c0-.3-.1-.6 0-.9.1-.2.4-.2.6-.3.2 0 .2.2.3.2zM19.9 10.9c0 .4 0 1-.4 1.3-.1-.2 0-.3 0-.6s-.1-.6 0-.8c.1-.1.4-.1.4.1zM19 12.7c.1.2.1.6.1.6 0 .2 0 .5-.2.7-.1-.4-.1-.9-.3-1.3 0-.1.1-.1.1-.2h.2c.1 0 0 .1.1.2zM18 14c.1.1.1.3.2.4 0 .3.1.7-.1 1-.1 0-.1-.2-.1-.2-.1-.4-.2-.8-.3-1.1.1-.1.2-.1.3-.1zM15.7 16.1c-1.2.4-2.5.9-3.6 1.5 1.1-1.1 3.3-1.9 3.5-2 .1.1.1.3.1.5zM17.4 16.9c-.2.6-.5 3-.6 4.3-.2-1.6-.3-2.7.1-4.4.2 0 .4 0 .5.1zM15.4 17.1c-.9 1-2.5 2.9-3.7 4.3.7-1.7 2.5-4 3.3-4.5.2-.1.4 0 .4.2zM16.2 17.4c-.9 1.9-1.5 3.3-2.2 5.6.2-2.4 1-4.4 1.8-5.7.1-.1.3 0 .4.1z"/><g><path class="ist0" d="M28 24.1c-1.2-2.3-4.1-3.2-6.4-1.9-2.3 1.2-3.2 4.1-1.9 6.4s4.1 3.2 6.4 1.9c1-.5 1.8-1.4 2.2-2.5h.7c-.9 2.9-4 4.5-6.9 3.6s-4.5-4-3.6-6.9 4-4.5 6.9-3.6c1.5.5 2.7 1.6 3.4 3H28z"/><path class="ist0" d="M23.8 31.9c-.6 0-1.1-.1-1.7-.3-2.9-.9-4.5-4-3.6-6.9.9-2.9 4-4.5 6.9-3.6 1.5.5 2.7 1.6 3.4 3H28c-.6-1.1-1.6-1.9-2.8-2.3-1.2-.4-2.5-.2-3.6.4-1.1.6-1.9 1.6-2.3 2.8-.4 1.2-.2 2.5.4 3.6.6 1.1 1.6 1.9 2.8 2.3 1.2.4 2.5.2 3.6-.4 1-.5 1.8-1.4 2.2-2.5h.7c-.4 1.4-1.4 2.5-2.7 3.2-.8.4-1.6.7-2.5.7zm0-11c-.9 0-1.7.2-2.5.6-1.3.7-2.3 1.8-2.7 3.2-.9 2.9.7 5.9 3.6 6.9 1.4.4 2.9.3 4.2-.4 1.3-.7 2.2-1.8 2.7-3.2h-.8c-.4 1.1-1.2 2-2.2 2.5-1.1.6-2.4.7-3.6.4-1.2-.4-2.2-1.2-2.8-2.3-.6-1.1-.7-2.4-.4-3.6.4-1.2 1.2-2.2 2.3-2.8 1.1-.6 2.4-.7 3.6-.4 1.2.4 2.2 1.2 2.8 2.3h.8c-.6-1.4-1.9-2.5-3.3-3-.6-.1-1.2-.2-1.7-.2z"/></g><g><path class="ist0" d="M23 24.3h3.5v.7h-2.8v1.9h2.7v.7h-2.7v3h-.6v-6.3z"/><path class="ist0" d="M23 30.5v-6.2h3.5v.7h-2.8v1.9h2.7v.7h-2.7v3h-.3c-.2-.1-.4-.1-.4-.1zm0-6.2v6.2h.6v-3h2.7v-.7h-2.7V25h2.8v-.6H23z"/></g><g><path class="ist0" d="M25.6 23.7c-.3-.7-1.1-1.2-1.9-1.2-1.1 0-2 .8-2 1.9 0 1.2 1.2 1.7 2.2 2 .7.3 1.4.5 1.4 1.5 0 .9-.7 1.7-1.6 1.7-1 0-1.6-.6-1.8-1.5l-.7.2c.3 1.2 1.3 1.9 2.5 1.9 1.3 0 2.4-.9 2.4-2.3 0-2.7-3.6-1.8-3.6-3.6 0-.6.6-1.2 1.3-1.2.6 0 1.1.3 1.3.8l.5-.2z"/></g></svg><view id="00000B" viewBox="0 0 40 40"/><svg id="jEbene_1" viewBox="0 0 40 40" width="40" height="40"><style>.jst0{fill:#fff}.jst1{fill:#ffe108}.jst2{fill:#e2101a}.jst3{fill:#1d1d1b}</style><g id="jVordergrund"><path class="jst0" d="M11.8 7.3c.2-.2.7-.7 1.5-.6.5-.2 1.1-.1 1.4 0 0 0 .4 0 .6.1 3.1-1 6.4-1 9.5 0 .2-.1.6-.1.6-.1.2-.1.8-.2 1.4 0 .8 0 1.3.4 1.5.6.1-.3.3-.6.8-.8.2-.9 1.3-1.3 2.9-.5.7-.7 1.8 0 2.1 1 .5-.1 1.4.4 1.3 1.9.5 0 .7.6.6 1.5.3-.1 1.9-.4 3 1.1.5.7.2 1.6-.3 2 0 .1-.3 1.1-1 1.5 0 .5.8 1.5 1.1 2.2.9 1.9.4 5.2-2.8 5.7.1.1.5.6.6 1 .1.5 0 1-.2 1.4-.3.4-1.3 1.1-1.5 1.4.5.3 1 .8.8 1.9l-.9 4.2c-.2.7-.6 1.3-1.4 1.4-.4.1-.8 0-1-.1-1.6-.4-2.8-.1-4.6.5-.9.3-2 .6-3.2.9-2.9.6-6 .6-8.9 0-1.2-.3-2.2-.6-3.2-.9-1.8-.6-3-.9-4.6-.5-.2.1-.6.1-1 .1-.7-.1-1.2-.7-1.4-1.4l-.9-4.2c-.2-1.1.3-1.6.8-1.9-.3-.3-1.3-1-1.5-1.4-.2-.4-.4-.9-.2-1.4.1-.4.4-.8.6-1-3.3-.6-3.7-3.8-2.8-5.7.3-.7 1.2-1.7 1.1-2.2-.7-.4-1-1.3-1-1.5-.6-.4-.9-1.3-.3-2 1.1-1.4 2.7-1.1 3-1.1-.5-.8-.3-1.3.3-1.3-.1-1.6.8-2.1 1.3-2 .3-.9 1.4-1.6 2.1-1 1.6-.8 2.8-.4 2.9.5.5.1.7.4.9.7z"/><path class="jst1" d="M15.9 34.1c-1.2-.3-2.1-.6-3-.9-1.8-.6-3.3-1-5.3-.6-.4.1-.6.1-.6-.3l-1-3.8c-.1-.4 0-.4.4-.5 2.5-.5 4.6-.2 6.6.4 1.1.3 2.2.6 3.3.8 1.2.3 2.4.4 3.7.4 1.3 0 2.5-.2 3.7-.4 1.1-.2 2.2-.6 3.3-.8 2.1-.5 4.1-.9 6.6-.4.3.1.4.1.4.5l-.8 3.8c-.1.4-.2.4-.7.3-2-.5-3.6 0-5.3.6-.9.3-1.9.6-3 .9-2.8.5-5.6.5-8.3 0zm-.1-21.7l-.1-.1v-.1c.1-.3 0-.6-.5-.6h-.1l-.4-1.2.1-.1c.4-.2.3-.6-.2-.7h-.1v-.3c0-.2.1-.3.2-.4l.1-.1.1-.1c0-.1.1-.1.1-.2v-.1h.1c3.2-1.2 6.7-1.2 9.8 0h.1v.1c0 .1.1.1.1.2l.1.1.1.1c.1.1.2.2.2.4v.1h-.1c-.5.2-.6.5-.2.7l.1.1-.4 1.2h-.1c-.5 0-.6.3-.5.6v.1l-.1.1c-.2.1-.3.5-.2.7l.1.4-.4-.2c-2.4-1.1-5.1-1.1-7.4 0l-.4.2.1-.4c.1-.1 0-.4-.2-.5z"/><path class="jst2" d="M33.9 15.6c-.2.2-.4.3-.7.3H33v.2c.1.9.6 2 1.1 2.6.5.6.8 1.3.8 1.9v.2h.2c1 .1 1.7-.4 2-1.1.4-1-.4-2.2-.9-2.9-.7-1-.6-2.2-.4-2.9v-.1l-.1-.1c-.2-.1-.3-.4-.3-.6 0-.3.1-.6.4-.9.3-.3.6-.3 1.1-.3.2 0 .8.3 1 .5h-.1c-.2.1-.3.3-.4.4-.1.2-.1.3-.2.5-.1.3-.2.5-.7.5h-.1v.1c-.1.2-.1.5-.1.7 0 .7.2 1.3.4 1.7.1.2.2.4.4.6.2.2.3.5.4.8.7 1.4.2 3.1-1.4 3.6-.3.1-.8.2-1.4.1h-.1l-.1.1-.1.1-.2.2c-.1.4-.1 1 .4 1.5.2.2.3.4.5.5.1.1.2.2.2.3 0 .1 0 .2-.4.6-1.1.8-1.6 1.5-1.8 2-.1.2-.2.4-.2.5l-.1.1c-.2 0-.5 0-.8-.1l-.1-.1-.1.1c-.1.2-.7.3-.9.1h-.2c-.5.2-.8.1-1 .1-.1 0-.1-.1-.2-.1-.8-.1-.9-.9-.5-1.4.1-.1.3-.4.9-.4.4 0 2-1.1 2-1.6 0-.1-.1-.2-.1-.3-.1-.1-.2-.1-.3-.2-.2-.1-.4-.2-.7-.4-.5-.3-.9-.7-.9-1.4 0-.5.1-1.3 1.5-1.3h.2v-.2c0-1-1-2-1.5-2.4-.3-.2-.5-.5-.6-.8v-.1h-.1c-.5-.2-1-.8-1.4-1.4-.2-.3-.4-.7-.6-1-.2-.3-.4-.6-.6-.8l-.1-.1h-.1c-.2 0-.5-.1-.8-.2h-.1l-.1.1c-.4.3-.9.1-.9-.1v-.2h-.2c-.3 0-.4-.2-.4-.4 0-.3.1-.5.2-.6l.1-.1v-.1c-.1-.3-.2-1.2 2.5-.1.1 0 .1.1.2.1l.3.2-.2-.1c-.1-.5-.3-.9-.7-1.3l-.1-.1-.1.1c-.2.1-.3.1-.4 0-.1-.1-.2-.1-.3-.2-.1-.1-.2-.2-.4-.3-.4-.3-.3-.6.2-.7h.1v-.2c0-.1 0-.2-.1-.3 0 0 0-.1-.1-.1l-.1-.1-.1-.1-.1-.1c.1.1 0 .1 0 0-.1-.3.2-.6.6-.4l.2-.2h.2c.2 0 .4.1.4.1h.5c.2.1.4.2.6.7l.1.2h.2c.1 0 .3-.1.4-.1h.5c.1 0 .2 0 .2-.1l.1-.1.1-.1c.1-.1 0 0 .1 0 0 0 .1 0 .1-.1h.5l-.1-.2v-.2V8s0-.1.2-.1c.1 0 .3-.1.4-.1.1 0 .1 0 .2-.1.1 0 .1-.1.2-.1.1-.1.2-.2.1-.4h.1c.1 0 .2.1.4.1 0 0 .1 0 .1.1v.1l-.2.4H32.4c.1 0 .2-.1.2-.2v-.2c.1 0 .2 0 .3.1 0-.1.1.1.1.2s-.2.2-.2.2l-.2.1.2.2s.1.1.1.2c.1.2.4.2.5.1.1-.1.2-.2.3-.4.1.1.3.4.3.6 0 .2 0 .3-.1.4h-.5l.1.3v.3c0 .3.3.4.4.3.1 0 .3-.1.3-.2v.1c.1.2.1.5.1.6 0 .1-.2.3-.2.3H34h-.1-.1c-.2 0-.2.1-.2.2V11.4c0 .6.4.6.7.4v.3c0 .1 0 .3-.1.4 0 .1-.1.2-.2.2h-.2c-.2-.1-.3 0-.3.1v.2c-.1.3 0 .5.2.5h.4v.3c-.1.3-.2.5-.4.4h-.1s-.1 0-.1-.1h-.2c-.1 0-.2 0-.2.2V14.9c0 .2.1.3.1.5.4.1.5.2.7.2zM9.4 7.1c-.1.2 0 .3.1.4.1 0 .1.1.2.1s.1 0 .2.1c.1 0 .2.1.4.1.1 0 .2.1.2.1V8.2l-.1.2h.5s.1 0 .1.1h.1l.1.1.1.1c.1 0 .1.1.2.1h.5c.1 0 .3 0 .4.1h.2l.1-.1c.2-.5.4-.6.6-.7h.5s.2-.1.4-.1h.2c.6 0 .9.3.8.6 0 .1-.1.1-.1.2l-.1.1-.1.1-.1.1s0 .1-.1.1c-.1.1-.1.2-.1.3v.1h.1c.5.2.6.5.2.7-.1.1-.3.2-.4.3-.1.1-.2.1-.3.2-.1.1-.3.1-.4 0l-.1-.1-.1.1c-.4.4-.6.8-.7 1.3l-.1.4.3-.2c.1 0 .2-.1.2-.1 2.7-1.2 2.5-.2 2.5.1v.1l.1.1c.1.1.2.3.2.6 0 .2-.1.4-.4.4h-.2v.2c0 .3-.5.5-.9.1l-.1-.1h-.1c-.2.1-.5.2-.8.2h-.1l-.1.1c-.2.2-.4.5-.6.8-.2.3-.4.7-.6 1-.4.7-.9 1.3-1.4 1.4h-.1v.1c-.1.3-.4.6-.6.8-.5.4-1.5 1.4-1.5 2.4v.2h.2c1.4 0 1.5.8 1.5 1.3 0 .6-.4 1-.9 1.4-.3.2-.5.3-.7.4-.1.1-.2.1-.3.2-.1.1-.1.1-.1.3 0 .6 1.7 1.6 2 1.6.5 0 .8.3.9.4.4.5.3 1.3-.4 1.3h-.1l-.1.1c-.1 0-.1.1-.2.1-.2.1-.5.1-1-.1h-.2c-.2.1-.8.1-.9-.1l-.1-.1-.1.1c-.2.1-.6.1-.8.1-.1 0-.1 0-.1-.1-.1-.1-.1-.3-.2-.5-.2-.5-.7-1.2-1.8-2-.4-.3-.5-.5-.4-.6 0-.1.1-.2.2-.3l.5-.5c.4-.7.5-1.2.3-1.7-.1-.1-.2-.1-.2-.2l-.1-.1-.1-.1h-.1c-.6.1-1.2 0-1.4-.1-1.6-.5-2-2.2-1.4-3.6.1-.3.3-.5.4-.8.2-.2.3-.5.4-.6.3-.5.5-1 .4-1.7 0-.2 0-.5-.1-.7V14h-.2c-.5 0-.6-.2-.7-.5-.1-.2-.1-.3-.2-.5s-.2-.3-.4-.4H2c.2-.3.8-.5 1-.5.5 0 .8 0 1.1.3.3.3.4.6.4.9 0 .3-.1.5-.3.6l-.1.1v.1c.2.7.3 1.9-.4 2.9-.5.8-1.2 1.9-.9 2.9.3.7 1 1.2 2 1.1H5v-.2c0-.6.3-1.3.8-1.9.5-.6 1-1.8 1.1-2.6v-.2h-.2c-.2 0-.5-.1-.7-.3.2 0 .3-.1.4-.3.1-.1.1-.3.1-.5v-.4-.2c0-.1-.1-.2-.2-.2h-.2s-.1 0-.1.1h-.1c-.2 0-.4-.2-.4-.4v-.3h.4c.2 0 .4-.3.2-.5V13v-.1c0-.1-.1-.2-.3-.1h-.2c-.1 0-.1-.1-.2-.2s-.1-.3-.1-.4v-.3c.3.2.8.2.7-.4v-.2-.1c0-.1 0-.2-.2-.2h-.1-.1-.1c-.1 0-.2-.2-.2-.3-.1-.2 0-.4.1-.6V10c.1.1.2.2.3.2.2 0 .4 0 .4-.3v-.3l.1-.3h-.3-.2c.3-.1.2-.3.3-.4 0-.2.2-.4.3-.6 0 .1.1.3.3.3 0 .1.3.2.4-.1 0-.1.1-.1.1-.2.1-.3 0-.4-.1-.5 0-.1.1-.3.4-.4.1 0 .2-.1.3-.1v.2c0 .1.1.2.2.2H9.1s-.3-.3-.3-.4v-.1s.1 0 .1-.1c.1 0 .2-.1.4-.1 0 .1.1.1.1.1z"/><path class="jst3" d="M2.9 13.4c.1.3.2.4.8.4.1.3.2.7.2 1 0 .8-.2 1.3-.5 1.8-.1.2-.2.4-.4.6-.2.2-.3.5-.4.7-.6 1.3-.2 3 1.3 3.4.2.1.7.1 1.2.1-.1-.1-.1-.3-.2-.4-1.1.1-1.9-.4-2.2-1.2-.2-.6-.1-1.2.1-1.7s.5-1 .8-1.4c.6-1 .6-2.1.3-3 .2-.1.4-.2.4-.6 0-.3-.1-.5-.3-.8-.6-.5-1.5-.2-1.8 0 .2.1.3.3.3.5.3.2.3.4.4.6zm7.3 3.4c.1.1.3.2.5.2.5 0 .9-.4 1.4-1.2.2-.4.5-.7.7-1.1.2-.3.4-.7.6-.9l.1-.1c.4.1 1-.2 1-.2l.2.1c.1.1.3.1.5.1.1 0 .2-.1.2-.2 0-.2-.1-.3-.2-.4-.2-.1-.1-.4.2-.3 0 0 .2.1.4.4.2 0 .2-.1.2-.2 0-.2-.1-.6-.7-.6-.2 0-.3-.3 0-.4 0 0 .3 0 .4.1 0-.2 0-.2-.1-.3-.2-.1-.8-.1-2.1.5-.3.1-.9.5-1.5.7.1.2.3.3.5.1.3-.3.3 1.1-.2 1.2-.1 0-.2 0-.3-.1 0 .1 0 .2-.1.3-.1.2-.1.5.3.5 0 .4-.4 1-1 .8-.4-.2-.3-.8-.7-.7 0 0-.1.2 0 .5.1.9.4.7.4.8-.1.1-.4.3-.7.4zm.4.5c-.5 0-.7-.3-.9-.6-.3-.1-.5-.3-.5-.7 0-.4.2-.9-.2-.9-.1 0-.1.3-.2.5-.2 1 .3.7.1.9-.3.3-1.3.3-1.2-.7 0-.3.3-.8 0-.8-.2 0-.2.8-.5 1.1 0 1-.7 2.3-1.2 2.9-.9 1-1 2-.3 2.7.1.1.2.2.4.3.2.1.3.3.5.5.3.4.5.9 0 1.5-.1.1-.2.3-.3.4-.2.2-.1.3.1.5.8.6 1.3 1.1 1.6 1.5.1.2.3.4.4.6.1.2.2.3.2.5.1.1.5.3.8 0 0-.2-.1-.4-.2-.6-.1-.2.2-.4.3-.2.2.2.3.6.3.9.3.1.6.1.9 0 0-.4-.1-.6-.2-.8-.2-.2.1-.4.3-.2.2.2.3.5.3.8.2 0 .3-.2.3-.3 0-.2-.1-.5-.2-.7-.1-.1-.3-.3-.7-.3-.4 0-2.2-1.1-2.2-1.8 0-.2.1-.4.2-.4.1-.1.2-.1.3-.2.2-.1.4-.2.7-.4.5-.3.9-.7.9-1.2 0-.4-.1-1-1-1.1-.2 0-.8-.1-1.3.1-.2.1-.4-.2-.2-.3 0 0 .2-.2.8-.2 0-1.1 1.1-2.1 1.6-2.5 0-.4.1-.6.3-.8zm-4.5 5.1c0 .4-.1.8-.5 1.2-.2.2-.3.4-.5.5-.2.3-.2.3.2.6 1.1.8 1.6 1.5 1.9 2 .2.3.2.5.3.5.1 0 .3 0 .4-.1.1 0 .1 0 .2-.1-.3-.6-.6-1.3-2-2.2-.7-.5-.4-.8.1-1.4.5-.2.2-.6-.1-1zm6-11.1h-1.2v-.9h1.6v-.5c.1-.2.2-.4.2-.6-.3-.1-.6-.2-.9-.2h-.5c-.1 0-.2-.1-.3-.1-.1 0-.2-.3-.3-.3-.7-.1-1.4-.1-1.6 0-.1-.1-.2 0-.2.1h-.5c-.1 0-.2 0-.2.1 0 .2.4.4.4.4-.1.4-.2.7-.3 1v.3c.1.3.4.4.7.4.3 0 .6.5.8.5h1c.5 0 1-.1 1.1-.1.1.1.1 0 .2-.1zm-1 .6H9.7c-.3-.2-.5-.5-.7-.5-.4-.1-.8-.2-1-.6-.2-.5 0-.6.1-1.2-.4-.4-.3-.8-.1-1 .1-.1.4-.1.7-.1.1-.3.9-.3 1.5-.3V8c0-.1 0-.1-.1-.1-.2-.1-.4-.1-.6-.2-.2-.1-.3-.3-.2-.4 0-.1-.3 0-.3.1s.2.5.2.5h-.6c-.3 0-.5.1-.7.1-.3 0-.4-.2-.4-.4 0-.1-.3.2-.3.3 0 .1.1.2.4.4-.5.2-.4.6-.8.6-.1 0-.5-.1-.5-.3 0-.1-.3.3-.1.5.1.1.2.1.5.1-.2.3-.2.5-.2.7 0 .2-.1.3-.3.4-.1.1-.4.1-.6-.1-.1-.1-.1.3-.1.4 0 .1.1.2.3.2.3 0 .4-.1.4 0v.8c0 .4-.4.6-.8.5-.1 0 0 .5.1.5.3 0 .5-.2.6-.2.1.4.2.5.2.7.1.5-.4.6-.6.6-.1-.1 0 .5.3.4.1 0 .2-.1.3-.1.2 0 .3.1.4.3 0 .1.1.4 0 .6 0 .2-.1.3-.1.5-.1.1-.1.2-.2.2-.2 0 .3.2.5.1s.3-.8.3-.9c.1-.3.3-.3.4-.3.2 0 .4.1.5.3v.4c0 .1-.1.4-.1.5-.1.6.5.6.5.5-.1-.1-.1-.5 0-.8 0-.1.1-.4.2-.5.1-.2.3-.2.3-.2.5 0 .6.4.6.6v.6c0 .7.9.5.7.4-.2-.1-.3-.3-.3-.9 0-.4.1-.8.1-.8.4-.1.7-.1.9.3.1.1.1.3.2.4.1.1.4 0 .5-.2-.3-.1-.3-.6-.2-.9.1-.2.1-.4.2-.5.1.1.3.3.5.2.1 0 .2-.5.1-.5-.3.1-.6-.2-.7-.3-.1-.2-.2-.4-.2-.6-.1-.1-.1-.4-.3-.6zm1.5.3c.1-.6.3-1.2.9-1.7l.2-.2.2.1c.1.1.2.1.3 0 .1 0 .2-.1.3-.2.1-.1.2-.2.4-.3.3-.2.2-.3-.1-.4l-.3-.1c0-.3.1-.5.3-.6 0 0 .3-.2.2-.4 0-.2-.4-.1-.4-.1-.2 0-.3.3-.3.4-.1.2-.4.1-.3-.1.1-.1.1-.3.2-.4 0-.1-.3-.1-.4 0-.1.1-.1.2-.2.4 0 .2-.4.2-.4-.1 0-.1 0-.2.1-.2-.2 0-.4.2-.6.6.1.1.2.1.3.1.1.3 0 .7-.2.9 0 .3 0 .8-.4.8h-1.2v.3h1.2c.1.1-.1.8-.4.8-.1 0-.3 0-.5.1.2.3.2.6.2.8.3-.2.6-.3.9-.5zm14.8 0c.3.2.6.3.9.4 0-.2 0-.5.2-.8-.2 0-.4 0-.5-.1-.3-.1-.5-.7-.4-.8h1.2v-.3h-1.2c-.4.1-.4-.4-.4-.8-.2-.1-.2-.4-.2-.8.1 0 .3-.1.4-.1-.2-.4-.4-.6-.6-.6 0 .1.1.1.1.2 0 .2-.3.3-.4.1 0-.1-.1-.3-.2-.4-.1-.1-.4-.1-.4 0 .1.1.2.2.2.4.1.2-.3.4-.3.1 0-.1-.2-.3-.3-.4 0 0-.3-.1-.4.1 0 .1.2.3.2.4.1.1.3.3.3.6v.2l-.3.1c-.3.1-.4.2-.1.4.1.1.3.2.4.3.1.1.2.1.3.2.1.1.2.1.3 0l.2-.1.2.2c.5.4.7 1 .8 1.5zm1.5-.3c-.2.2-.3.5-.3.7 0 .2-.1.4-.2.6-.1.1-.4.5-.7.3-.1-.1 0 .4.1.5.2 0 .5-.2.5-.2 0 .2.1.4.2.5.2.3.1.8-.2.9.1.2.4.3.5.2.1-.1.1-.2.2-.4.2-.4.6-.4.9-.3 0 0 .1.4.1.8-.1.5-.2.8-.3.9-.1.1.7.2.7-.4v-.6c0-.2.1-.6.6-.6.1 0 .2 0 .3.2.1.1.1.4.2.5.1.4.1.7 0 .8-.1.1.6.1.5-.5 0-.1-.1-.4-.1-.5v-.4c.1-.2.2-.4.5-.3.2 0 .3.1.4.3 0 .1.2.8.3.9.2.1.7-.1.5-.1-.1 0-.2-.1-.2-.2-.1-.2-.1-.3-.1-.5v-.6c.1-.2.2-.3.4-.3.1 0 .2.1.3.1.2.1.4-.4.3-.4-.2.1-.7-.1-.6-.6 0-.2.1-.3.2-.7 0-.1.3.2.6.2.1 0 .2-.6.1-.5-.3.2-.8 0-.8-.5v-.8c0-.1.1 0 .4 0 .2 0 .2-.1.3-.2 0-.1 0-.5-.1-.4-.2.2-.5.1-.6.1-.2-.1-.3-.2-.3-.4s0-.4-.2-.7c.4 0 .4 0 .5-.1.1-.2-.1-.6-.1-.5 0 .2-.4.3-.5.3-.4 0-.3-.4-.8-.7.3-.2.4-.3.4-.4 0-.1-.3-.4-.3-.3 0 .2-.1.4-.4.4-.2 0-.4-.1-.7-.1h-.6s.3-.4.2-.5c0-.1-.3-.2-.3-.1s-.1.3-.2.4c-.2.1-.4.2-.7.2-.1 0-.1.1-.1.1v.2c.6 0 1.4 0 1.5.3.3 0 .6.1.7.1.2.2.3.5-.2.9.1.6.3.7.1 1.2-.2.4-.6.6-1 .6-.2 0-.3.3-.7.5.1.2-.6.1-1.2.1zm-1-.6c0 .1.1.2.1.2.2 0 .7.1 1.1.1h1c.2-.1.5-.5.8-.5.4-.1.6-.2.7-.4.1-.2.1-.3 0-.3-.1-.3-.2-.6-.2-.9 0 0 .4-.3.4-.4 0-.1-.1-.1-.2-.1h-.5c0-.1-.2-.2-.3-.3-.2 0-.9-.1-1.6 0-.1 0-.3.2-.3.3 0-.1-.1 0-.2 0h-.5c-.3 0-.6.1-.9.2 0 .2.1.4.2.6v.5h1.6v.9l-1.2.1zM34 22.4c-.4.4-.6.8-.2 1.2.5.5.9.9.1 1.4-1.3.9-1.7 1.6-2 2.2.1 0 .1.1.2.1s.3.1.4.1c.1 0 .1-.2.3-.5.3-.5.7-1.2 1.9-2 .4-.3.4-.4.2-.6l-.5-.5c-.3-.6-.5-1-.4-1.4zm-4.5-5.1c.1.2.3.4.4.5.5.4 1.6 1.4 1.6 2.5.6.1.8.2.8.2.2.1 0 .4-.2.3-.4-.2-1.1-.1-1.3-.1-.9.1-1 .7-1 1.1 0 .5.4.9.9 1.2.3.2.5.3.7.4.1.1.2.1.3.2.1.1.2.2.2.4 0 .7-1.8 1.8-2.2 1.8-.4 0-.6.2-.7.3-.1.1-.2.4-.2.7 0 .2.1.3.3.3 0-.3.1-.6.3-.8.2-.2.5 0 .3.2-.1.2-.2.4-.2.8.2.1.5.1.9 0 0-.3.1-.7.3-.9.1-.2.5 0 .3.2-.1.2-.2.4-.2.6.3.3.7.1.8 0 .1-.1.1-.3.2-.5s.2-.4.4-.6c.3-.5.8-1 1.6-1.5.2-.1.3-.2.1-.5-.1-.1-.2-.2-.3-.4-.5-.5-.3-1.1 0-1.5.1-.2.3-.3.5-.5.1-.1.3-.2.4-.3.7-.7.6-1.7-.3-2.7-.5-.6-1.2-1.9-1.2-2.9-.4-.3-.3-1.1-.5-1.1-.3 0 0 .5 0 .8.1 1-.9 1.1-1.2.7-.2-.2.3 0 .1-.9 0-.2-.1-.5-.2-.5-.4 0-.2.5-.2.9s-.3.7-.5.7c-.3.6-.6.9-1 .9zm.3-.5c-.3-.1-.6-.3-.5-.5 0-.1.4.1.4-.8V15c-.5-.1-.3.6-.7.7-.6.2-1-.4-1-.8.4 0 .4-.2.3-.5 0-.1-.1-.2-.1-.3-.1.1-.2.1-.3.1-.5-.1-.6-1.4-.2-1.2.2.2.4.1.5-.1-.6-.2-1.2-.6-1.5-.7-1.3-.6-1.9-.6-2.1-.5-.1 0-.1.1-.1.3.2-.1.4-.1.4-.1.2 0 .2.4 0 .4-.6 0-.7.4-.7.6 0 .1 0 .2.2.2.2-.3.4-.4.4-.4.2-.1.4.2.2.3-.1.1-.3.2-.2.4 0 .1.1.2.2.2.2 0 .3 0 .5-.1l.2-.1s.6.3 1 .2l.1.1c.2.2.4.6.6.9.2.3.4.7.7 1.1.5.8 1 1.2 1.4 1.2.1 0 .2 0 .3-.1zm7.3-3.4c.1-.2.1-.3.2-.5s.2-.3.3-.5c-.3-.2-1.2-.6-1.8 0-.2.2-.3.5-.3.8 0 .4.2.5.4.6-.2.9-.3 2.1.3 3 .3.4.6.9.8 1.4.2.5.3 1.1.1 1.7-.3.8-1.1 1.3-2.2 1.2 0 .2-.1.3-.2.4.5.1 1 0 1.2-.1 1.5-.5 1.9-2.1 1.3-3.4-.1-.3-.3-.5-.4-.7-.2-.2-.3-.5-.4-.6-.3-.5-.5-1-.5-1.8 0-.3.1-.7.2-1 .8-.1.9-.2 1-.5zM20 34.3c1.4 0 2.7-.1 4.1-.4 1.2-.3 2.1-.6 3-.9 1.8-.6 3.3-1.1 5.4-.6.4.1.4.1.4-.2l.8-3.8c0-.2 0-.2-.2-.3-2.5-.5-4.5-.2-6.6.4-1.1.3-2.2.6-3.3.8-1.2.3-2.4.4-3.7.4-1.3 0-2.5-.2-3.7-.4-1.1-.2-2.2-.6-3.3-.8-2.1-.5-4.1-.9-6.6-.4-.3.1-.3.1-.2.3l.9 3.9c.1.3.1.3.4.2 2.1-.5 3.7 0 5.4.6.9.3 1.9.6 3 .9 1.5.2 2.8.3 4.2.3zm-4.3-5.6c-4.2-2.4-5.7-7.7-3.3-11.9.6-1.1 1.5-2.1 2.5-2.8-.1 0-.3-.1-.4-.2-.2.1-.6.2-.8.2-.7.7-1.5 2.8-2.6 3.3-.2.3-.4.6-.7.9-.5.4-1.4 1.3-1.4 2.2 1.5 0 1.7 1 1.7 1.5 0 1.4-2.1 1.9-2.1 2.2 0 .4 1.6 1.4 1.9 1.4.6 0 .9.4 1 .5.3.4.4 1.4-.3 1.6 1.5.3 3 .7 4.5 1.1zm13.1-7.6c0 3.2-1.7 6.1-4.5 7.6 1.5-.4 3-.8 4.5-1.1-.7-.2-.6-1.2-.3-1.6.1-.1.4-.5 1-.5.3 0 1.9-1 1.9-1.4 0-.4-2.1-.8-2.1-2.2 0-.5.2-1.5 1.7-1.5 0-.9-.9-1.9-1.4-2.2-.3-.2-.5-.5-.7-.9-1.1-.4-1.9-2.6-2.6-3.3-.3 0-.6-.1-.8-.2-.1.1-.3.1-.4.2 2.3 1.6 3.7 4.2 3.7 7.1zm-16.7 0c0 4.4 3.6 8 8 8s8-3.6 8-8-3.6-8-8-8-8 3.6-8 8zm13.4-10.4l-.2.7c.4.1.9.2 1.5.5.1 0 .2.1.2.1-.1-.4-.3-.8-.7-1.2-.3.2-.5.1-.8-.1zm-10.8.7l-.2-.7c-.3.2-.5.3-.8.1-.4.3-.6.7-.7 1.2.1 0 .2-.1.2-.1.7-.3 1.2-.4 1.5-.5zm10.1-2.7c-3.1-1.2-6.6-1.2-9.7 0-.2.3-.4.4-.4.6.5.2.8.7.2 1l.3 1c.7 0 .7.5.7.9.2.1.4.6.3.9 2.4-1.1 5.2-1.1 7.6 0-.1-.3 0-.8.3-.9-.1-.4 0-.8.7-.9l.3-1c-.5-.4-.3-.9.2-1 0-.2-.3-.2-.5-.6zm-9.7-.5c3.1-1.2 6.6-1.2 9.7 0 .2-.2.6-.3.8-.2 0-.3.9-.3 1 0 .1-.1.7-.2 1.1.8.1 0 .3-.1.4-.1h.5c.2 0 .3-.3.5-.4.1 0 .2 0 .3-.1 0-.1-.1-.3-.1-.4.1-.2.5-.3.7-.3.2-.1.5-.1.3-.4-.3-.4.9-.1 1 .1.1.1-.1.3-.1.3h.3c.4.1.7.2.5-.3-.1-.3 1.2.1 1 .7-.1.2-.2.3-.2.3.1.1.2.2.2.3.1.2.4 0 .4-.3 0-.5.6.2.6.6 0 .2 0 .4-.2.5-.1.1-.3.1-.3.1s.1.2.1.4.4.2.5-.1c.1-.2.5.5.3 1 0 .2-.2.4-.4.4h-.3v.3c0 .3.3.4.6.1.2-.2.3 1.2-.2 1.3-.3.1-.4-.1-.4 0s0 .2-.1.2c-.2.4.3.3.5.2.2-.1.1 1.2-.6 1.1-.1 0-.2-.2-.3-.2s-.1 1.1.3 1.1c.6 0-.1.7-.7.7.1.8.6 2 1.1 2.5.5.6.9 1.3.8 2 .9.1 1.6-.3 1.8-1 .3-.9-.3-2-.8-2.8-.7-1.1-.6-2.3-.4-3-.3-.2-.4-.5-.4-.8 0-.3.1-.7.4-1 .9-.8 2.2-.1 2.4.2.1.1 0 .2-.1.3-.6.3-.2 1.5-1.3 1.5-.1.2-.1.5-.1.7 0 .7.1 1.2.4 1.6.2.3.6.9.8 1.4.7 1.5.2 3.3-1.5 3.9-.3.1-.9.2-1.5.1l-.1.1-.2.2c-.1.4-.1.9.3 1.4.7.8 1.1 1 .2 1.7-1.7 1.2-1.8 2.1-2 2.5.4.1.7.1 1.1.2.2 0 .5.1.4.7l-.9 4.2c-.1.6-.6.5-.8.4-4-1.1-6 1.8-12.6 1.8S11.4 31.9 7.4 33c-.2.1-.7.2-.8-.4l-.9-4.2c-.1-.5.2-.6.4-.7.4-.1.7-.2 1.1-.2-.2-.4-.4-1.3-2-2.5-.9-.6-.5-.8.2-1.7.4-.5.4-1 .3-1.4l-.2-.2-.1-.1c-.6.1-1.3 0-1.5-.1-1.7-.5-2.2-2.4-1.5-3.9.2-.5.6-1.1.8-1.4.3-.4.4-.9.4-1.6 0-.2 0-.5-.1-.7-1.1 0-.8-1.1-1.3-1.5-.2-.1-.2-.2-.1-.3.2-.3 1.5-1 2.4-.2.3.3.4.7.4 1 0 .3-.1.6-.4.8.2.7.3 1.9-.4 3-.5.8-1.2 1.8-.8 2.8.2.6.8 1 1.8 1 0-.7.3-1.4.8-2 .5-.6 1-1.7 1.1-2.5-.6 0-1.3-.7-.7-.7.4 0 .4-1.1.3-1.1s-.2.1-.3.2c-.7.1-.8-1.2-.6-1.1.2.1.7.1.5-.2C6 13 6 13 6 12.9s-.1.1-.4 0c-.5-.1-.4-1.5-.2-1.3.2.3.6.3.6-.1v-.3c0-.1-.2 0-.3 0-.1 0-.3-.2-.4-.4-.1-.5.2-1.2.3-1 .1.3.6.3.5.1 0-.3.1-.4.1-.4s-.2-.1-.3-.1c-.1-.1-.1-.4-.1-.6 0-.5.6-1.1.6-.6 0 .2.4.4.4.3l.3-.3s-.2-.1-.2-.3c-.2-.6 1.1-1 1-.7-.2.5.1.4.5.3h.3s-.1-.2-.1-.3c.1-.2 1.3-.5 1-.1-.1.3.1.3.4.4.2.1.6.1.7.3 0 .1 0 .3-.1.4.1 0 .2 0 .3.1.2.1.3.3.5.4h.5c.1 0 .3 0 .4.1.4-1 1-.9 1.1-.8.2-.2 1-.3 1 0 .2-.1.6 0 .7.2zm7.2 2.3l.6.2.2-.6c0-.1.1-.3.1-.4-.1.1-.2.3-.3.4l-.6.4zm.9 1.3l-.5-.1.2-.6-1.1-.3.1-.3 1.4-1.2.7.2-.4 1.4.3.1-.1.4-.3-.1-.3.5zm-2.7-.8c.3 0 .4-.3.5-.9 0-.6-.1-.9-.4-.9-.2 0-.4.3-.5.8 0 .6.2 1 .4 1zm0 .4c-.6 0-.9-.6-.9-1.3 0-.7.4-1.3 1-1.2.6 0 .9.6.9 1.3 0 .7-.4 1.2-1 1.2zm-2.3-2.1c-.2 0-.4.2-.3.5 0 .2.2.4.5.4.2 0 .3-.1.4-.2v-.1c-.1-.3-.3-.6-.6-.6zm-.4 2.3l-.1-.4h.3c.2 0 .4-.1.5-.2.2-.1.2-.3.3-.5-.1.1-.3.2-.5.3-.4.1-.8-.2-.9-.7-.1-.5.3-.9.8-1 .6-.1 1 .3 1.1.9.1.5 0 .9-.3 1.2-.2.2-.5.4-.9.5-.1-.2-.2-.1-.3-.1zm-.9.2l-.6-1.9-.3.4-.2-.4.5-.5.4-.1.7 2.4-.5.1zM10.3 9l-.2.2c.1 0 .2-.1.4-.1 0 0-.1-.1-.2-.1zm.6.2s-.8.3-.9.2c-.2-.1.2-.6.3-.6.4 0 .6.4.6.4zm18.2 0s.2-.4.6-.4c.1 0 .5.4.3.6-.1.1-.9-.2-.9-.2zm.6-.2c-.1 0-.2 0-.2.1.2 0 .3.1.4.1l-.2-.2zm-.2 22.6v-1.4-.7h.5v.3c.2-.2.4-.4.7-.4.4 0 .8.3.8.9v1.2h-.6v-1.1c0-.3-.1-.5-.4-.5-.2 0-.3.1-.4.3v1.4h-.6zm-21 0l-.1-2.9H9l.1 2.4h1.3v.5H8.5zm4.2-.4l-1.4-.3c0 .3.2.5.5.6.2.1.4.1.6 0v.4h-.8c-.7-.2-1-.7-.9-1.3.1-.5.6-1 1.3-.9.7.2.8.8.7 1.2v.3zm-1.3-.8l.9.2c0-.1 0-.5-.3-.5-.4-.1-.6.1-.6.3zm1.9-.3l.6.2v1.6c.1-.1.2-.3.3-.4l.6-.8.6.2-1.4 1.7-.6-.2-.1-2.3zm4.1 2.4l-1.4-.3c0 .3.2.5.5.6.2 0 .4.1.6 0v.4h-.8c-.7-.1-1-.6-.9-1.3.1-.5.5-1 1.3-.9.7.1.8.7.8 1.2-.1.2-.1.2-.1.3zm-1.4-.7l.9.2c0-.1 0-.5-.3-.5-.3-.1-.5.1-.6.3zm2 1.7l.1-1.4v-.7h.5v.4c.1-.3.4-.4.6-.4h.1v.6h-.2c-.3 0-.4.1-.5.3v.1l-.1 1.1H18zm2.5-3l.1 1.9c0-.1.1-.2.2-.2l.5-.7h.7l-.8.9 1 1.2h-.8l-.6-.9-.2.2v.7H20l-.1-3.1h.6zm3.9.4l.3 1.4c.1.3.1.5.1.6l-.5.1-.1-.3c-.1.2-.2.4-.6.5-.4.1-.8-.1-.9-.8l-.2-1.2.6-.1.2 1.1c.1.3.2.5.5.5.2 0 .3-.2.3-.3v-.1l-.2-1.2.5-.2zm.9 1.7v-.5h.6c.2-.1.3-.2.3-.3 0-.1-.1-.2-.4-.2-.5 0-.7-.2-.8-.4-.1-.4.1-.7.6-.9.2-.1.5-.1.6 0v.4h-.5c-.2 0-.2.1-.2.3 0 .1.1.1.4.1.4 0 .7.2.7.5.1.4-.1.7-.7.9-.1.2-.3.2-.6.1zm3.7-1.8l-1.4.3c.1.3.4.4.7.3.2 0 .4-.1.6-.2l.2.4c-.2.1-.5.2-.7.3-.8.1-1.3-.2-1.4-.9-.1-.5.1-1.2.9-1.3.7-.1 1.1.4 1.1.8v.3zm-1.5-.1l.9-.2c0-.1-.2-.4-.5-.4-.3.1-.4.4-.4.6zm-8-15.8h1c.1 0 .2-.1.2-.2s-.1-.2-.2-.2h-1v.4zm0 1h1c.1 0 .2-.1.2-.2s-.1-.2-.2-.2h-1v.4zm1.6-.8c.3.3.3.8 0 1.1-.1.1-.3.2-.5.2h-1.7V14h1.7c.4 0 .7.3.7.7 0 .2-.1.3-.2.4zm.4 4.2h-.6l-.2-.4h-1.4l-.2.4h-.6l1.2-2.4h.6l1.2 2.4zM20 17.5l-.4.9h.9l-.5-.9zm.8 2.4h.7l-1.2 1.6v.9h-.6v-.9l-1.2-1.6h.7L20 21l.8-1.1zm3.3 0v.5h-1.6v.4H24v.5h-1.6v.5H24v.5h-2.2v-2.4h2.3zm1.8 1.5h-.4v.9h-.6v-2.4h1.5c.4 0 .8.3.8.8 0 .3-.2.6-.5.7l.7 1h-.7l-.8-1zm.4-1h-.8v.5h.8c.1 0 .2-.1.2-.2.1-.2 0-.3-.2-.3zm-7.6 1.9h-.6l-.2-.4h-1.4l-.2.4h-.6l1.2-2.4h.6l1.2 2.4zm-1.5-1.8l-.4.9h.9l-.5-.9zm-3.7.3h1c.1 0 .2-.1.2-.2s-.1-.2-.2-.2h-1v.4zm0 1h1c.1 0 .2-.1.2-.2s-.1-.2-.2-.2h-1v.4zm1.7-.8c.3.3.3.8 0 1.1-.1.1-.3.2-.5.2H13v-2.5h1.7c.4 0 .7.3.7.7-.1.2-.1.4-.2.5zm5.9 1.8v.5h-1.6v.4h1.6v.5h-1.6v.5h1.6v.5h-2.2v-2.4h2.2zm-.4 3.8c0-.1-.1-.2-.2-.2h-1v.5h1c.1 0 .2-.1.2-.3zm-1.8 1.7v-2.4h1.6c.4 0 .8.3.8.8 0 .3-.2.6-.5.7l.7 1h-.7l-.7-.9h-.7v.9l-.5-.1z"/></g></svg><view id="00000C" viewBox="120 40 40 40"/><svg id="kEbene_1" viewBox="0 0 40 40" width="40" height="40" x="120" y="40"><style>.kst0{fill:#fff}.kst1{fill:#0e57a0}.kst2{fill:#1d1d1b}</style><g id="kLogo"><path class="kst0" d="M.9 5.8h38.2v28.3H.9z"/><path class="kst1" d="M1.8 6.7h36.5v26.6H1.8z"/><path transform="rotate(-45.001 20 20)" class="kst0" d="M11.8 11.8h16.5v16.5H11.8z"/><path class="kst2" d="M27.2 20L20 12.8 12.8 20l7.2 7.2z"/><path class="kst0" d="M22.5 20L20 17.5 17.5 20l2.5 2.5z"/></g></svg><view id="00000D" viewBox="120 80 40 40"/><svg id="lEbene_1" viewBox="0 0 40 40" width="40" height="40" x="120" y="80"><style>.lst0{fill:#fff}.st1{fill:#ffdd0b;stroke:#1d1d1b;stroke-width:16.79;stroke-miterlimit:10}.lst2{fill:#d40825}.lst3{fill:#1d1d1b}.lst4{fill:#ffdd0b}</style><path class="lst0" d="M2.9 1.3v6.9c.1 3.1.3 6.6 1.1 9.7 1.1 3.9 2.7 7.3 4.8 10.4 2.6 3.8 6.2 7.4 10.7 10.8l.4.3.4-.3c4.5-3.4 8.1-7 10.7-10.8 2.2-3.1 3.8-6.6 4.8-10.4.9-3.3 1.1-6.9 1.1-9.7V4.7 1.3h-34z"/><path class="lst2" d="M20 38.6c-4.7-3.6-8.1-7.2-10.5-10.7-2.4-3.5-3.8-7-4.7-10.2-.8-3-1-6.4-1.1-9.6-.1-2.2 0-4.3 0-6.1h32.8v6.1c-.1 3.2-.3 6.6-1.1 9.6-.9 3.2-2.3 6.7-4.7 10.2-2.6 3.5-6 7.1-10.7 10.7z"/><path class="lst0" d="M4.3 2.7c.1 8.7-1.9 21.7 15.7 35 17.6-13.4 15.6-26.4 15.7-35H4.3z"/><path class="lst2" d="M26.7 20.4l.4-.1c0 .1 0 .2.1.3.1.1.3.1.5 0 .1-.1.1-.2.1-.3 0-.1 0-.2-.1-.3-.1-.1-.1-.1-.2-.1h-.2l.1-.4c.1 0 .2 0 .3-.1.1-.1.1-.1.1-.2s-.1-.3-.2-.3-.1 0-.2.1-.1.2-.1.2l-.4-.1c0-.1.1-.2.1-.4.1-.1.2-.2.3-.2.1-.1.2-.1.4-.1s.4.1.5.2c.1.1.2.3.2.4 0 .2-.1.4-.3.5.1 0 .2.1.3.2.1.1.1.2.1.4s-.1.4-.2.5c-.3.3-.8.3-1.1 0-.4.2-.5 0-.5-.2zm-.8-.9c0-.2 0-.3-.1-.3-.1-.2-.2-.2-.3-.2-.1 0-.2 0-.2.1-.1.1-.1.2-.1.3 0 .2 0 .3.1.3.1.1.3.1.4 0 .1 0 .2-.1.2-.2zm-1.1 1h.5c0 .1 0 .1.1.2.1 0 .1.1.2.1s.2-.1.2-.1c.1-.1.1-.3.1-.5-.1.1-.3.2-.4.2-.2 0-.4-.1-.5-.2-.1-.1-.2-.3-.2-.6 0-.2.1-.4.2-.6.3-.3.8-.3 1.1 0 .2.2.2.5.2.9s-.1.8-.2 1c-.2.2-.4.3-.6.3-.2 0-.3-.1-.5-.2-.1-.2-.2-.3-.2-.5zm-10.9-.2c0 .1 0 .2.1.3.1.1.2.1.2.1.1 0 .2 0 .2-.1.1-.1.1-.2.1-.3 0-.1 0-.2-.1-.3-.1-.1-.2-.1-.2-.1-.1 0-.2 0-.3.1.1.1 0 .2 0 .3zm.1-1c0 .1 0 .2.1.2.1.1.3.1.4 0 .1-.1.1-.1.1-.2s-.1-.3-.3-.3c-.1 0-.2 0-.2.1-.1 0-.1.1-.1.2zm-.1.4c-.2-.1-.3-.3-.3-.5s.1-.3.2-.4c.1-.1.3-.2.5-.2s.4.1.5.2c.1.1.2.3.2.4 0 .1 0 .2-.1.3-.1.1-.1.2-.2.2.1 0 .2.1.3.2.1.1.1.2.1.4s-.1.4-.2.5c-.1.1-.3.2-.6.2-.2 0-.4-.1-.6-.2-.2-.1-.3-.3-.3-.6 0-.1 0-.3.1-.4.2.1.3 0 .4-.1zM12.8 21h-.5v-1.8c-.2.2-.4.3-.6.4v-.4c.1-.1.3-.1.4-.2.1-.1.2-.2.3-.4h.4V21zM28.6 4.1c-1.3-.5-2.6-.5-3.6.1-.9.5-1.5 1.4-1.5 2.8 0 .3-.1.6-.2.8-.4.7-1.1 1.4-2 1.4-.1-.7-.6-1.7-1.1-2.3.5 0 1.3.5 1.5.9.4-.4 1-1.5.8-2.4-.8 0-1.6-.2-2.4-.5 0 .5-.9 1.8-1.6 2.1.3.5.6 1.5.6 2.5-.5.4-1.1.5-1.6.5-.4-.6-.9-1.1-.9-1.8 0-.8.8-1.9 1.6-2.7l-.4-.5c-.5.2-1 .5-1.4.9-.5-.7-1.3-1.9-2.5-2.2-.3.1-.8.8-1.2 1.6-1.3.3-2.3 1.2-2.7 2-.4-.7-.8-1.1-.8-1.5 0-1.4 1.7-1.2 2.6-.8V4c-1.3-.5-2.6-.5-3.6.1-.9.5-1.5 1.4-1.5 2.8 0 .9-.6 1.6-1.7 2 .5.2 1.2.1 2.2-.2-.5.6-1 1-2.2 1.2.7.2 1.8.1 2.8-.2-.3.6-1.1 1.1-2.7 1.2 1.4.5 2.1.3 3.6-.1 2-.6 3.4 1.1 1 1.6-.6.1-1.3-.1-2-.4l-.7.8c.9.5 2.5.9 3.3.8 2.3 0 3.3-1.9 2.7-3.7-.4-1.2-1.4-1.9-2.3-2.5.8-1.1 3.6-2.3 4.6.2-.4 1.1-.6 2.2-.6 3 .1 1.5 1.6 2.9.6 3.6-.2.2-.8.4-1.3.6-2-.1-3.2-1.2-4.8-1.2-1.2-.1-2.1 0-2.7.9-.8 1.2-.1 3.3 1.8 3.3 0-.7.2-1.1.3-1.4-.6 0-1.8.1-1.8-.7 0-.4.4-.6.8-.6 2 0 3.8 2.6 6.2 2.8 0-1.2 1.8-2.6 3.1-1.6.7-1 .5-1.8.1-2.5.7-.8 1-1.7 1-2.6 0-.2 0-.4-.1-.6.4-.1 1-.2 1.3-.4v8.6c.4-.1.5-.1.9-.4V17c.4-.1.8-.1 1.3-.4V9.9c.8 0 1.9-.4 2.6-1.2-.2.8-.8 1.5-2 1.7.9.3 1.9-.1 2.7-.6-.2.6-1 1.5-2.6 1.7 1.4.5 2 0 3.4-.5 2-.6 3.2.9.9 1.5-.6.1-1.3-.1-2-.4l-.7.8c.9.5 2.5.9 3.3.8 2.2 0 3.2-1.8 2.8-3.6 2 .1 3.6 3.5 1.9 4.4-.7.4-1.3.2-1.9.1-1.5-.3-2.6-1-3.9-1-1.2-.1-2.1 0-2.7.9-.8 1.2-.1 3.3 1.8 3.3 0-.7.2-1.1.3-1.4-.6 0-1.8.1-1.8-.7 0-.4.4-.6.8-.6 2 0 3.8 2.6 6.2 2.8 0-1.2 1.8-2.6 3.1-1.6.7-1 .5-1.8.1-2.5.7-1 1.2-1.9 1.1-2.8-.1-1.4-1.3-1.8-1.3-3 0-.8.8-1.9 1.6-2.7l-.4-.5c-.5.2-1 .5-1.4.8-.5-.7-1.3-1.9-2.5-2.2-.3.1-.8.8-1.2 1.6-1.3.3-2.3 1.2-2.7 2-.5-.4-1.2-1.3-.5-2 .5-.5 1.7-.3 2.3 0l-.1-.9zm.8 5c-.5-.8-1.4-1.3-2-1.7C27.8 6.8 29 6 30 6c1.5 0 2.7 1.8 1.3 2.9-.3.3-.9.3-1.9.2z"/><path class="lst3" d="M20 36.9c-6.2-4.7-9.8-9.3-12-13.8 5.7-.2 9.4-1.8 12-3.8 3.1 2.1 7.2 3.9 12 3.8-2.2 4.5-5.8 9.1-12 13.8z"/><path class="lst4" d="M20 36.1c-5.6-4.2-8.7-8.3-10.8-12.3 4.2-.3 8-1.5 10.8-3.6 2.8 2.1 6.6 3.2 10.8 3.6-2.1 4-5.2 8-10.8 12.3z"/><path class="lst3" d="M17.9 31.3c.2 0 .4 0 .6-.1-.6-1.1.2-2.1 1.2-2.1-.8.7-.8 1.6-.2 2 .4 0 .5 0 .8-.1-.7-1 .1-1.9 1.1-2-.5.5-.7 1.4-.1 2h.9c-.4-1 .4-1.7 1.2-1.7-.5.4-.8 1.3-.3 1.8.3.1.5 0 1 .2.3.1.5.4.6.6-3.6-.4-4.1-.3-6.8.1-1.1.6-1.6.7-2.1.2-.1-.1 0-.5.4-.6 0-.2.2-.4.4-.4.4-.2.7.2 1.3.1zm-1.7-3.2c.2 0 .4-.1.6-.1-.7-1.1.1-2.2 1.2-2.2-.8.9-.7 1.6-.1 2.1.4 0 .8-.1 1.2-.1-.8-1 .1-2.1 1.2-2.2-.5.6-.9 1.5-.2 2.1h1.1c-.6-1.1.4-1.9 1.3-2-.5.5-.9 1.4-.3 2 .4 0 .8 0 1.1.1-.3-.7.1-1.4 1.1-1.5-.4.4-.6 1.1-.2 1.6.5.1 1.1.3 1.6.4.4.2.6.3.9.6-4-.6-8.4-.5-10.5 0-1.2.6-1.7.8-2.3.2-.1-.2 0-.6.4-.6 0-.5.4-.5.8-.5.4.3.7.2 1.1.1zm-1.3-2.9c.2 0 .7-.2.9-.2-.8-1.4.3-2.8 1.7-2.7-1 .9-1.1 2-.4 2.5.5 0 .8-.1 1.3-.1-.7-1.2.2-2.8 1.5-2.6-.7.7-1 1.9-.2 2.6h1.4c-.5-1.3.5-2.7 1.8-2.2-.7.2-1.3 1.6-.5 2.3.5 0 1 0 1.4.1-.3-1 .3-2.1 1.6-1.7-.6.4-1 1.1-.5 1.8.6.1 1.4.2 1.9.3.5.2 1 .6 1.2.8-5-.7-9.8-.6-13.1.1-1.4.7-2.2.9-2.9.2-.1-.2 0-.6.5-.7 0-.6.5-.6 1-.6.5.2.9.2 1.4.1z"/></svg><view id="00000E" viewBox="0 120 40 40"/><svg id="mEbene_1" viewBox="0 0 40 40" width="40" height="40" y="120"><style>.mst0{fill:#059858}.mst1{fill:#fff}</style><path class="mst0" d="M19.3.4L6.4 19.9l12.9 19.7 12.9-19.7L19.3.4z"/><path class="mst1" d="M19.3 1.5L7.1 19.9l12.2 18.5 12.2-18.5L19.3 1.5z"/><path class="mst0" d="M19.3 2.9l-11.2 17 11.2 17 11.1-17-11.1-17z"/><path class="mst1" d="M12.3 17.3c0-.9.1-2.2.7-3.3.4-.8 1.1-1.6 2.3-1.5.4 0 1.7.3 1.7 1.8 0 .7-.4 1.9-2.2 1.9 0 0-.2 1.8-.2 2.7 0 .8 0 4.6 1.4 7.5l3.3-7.3 3.1 7.4s1.3-3.3 1.3-6.1-.8-4.6-1.4-5.6c-.9-1.4-2.1-1.9-2.6-1.9 0 0-.6.6-1.5.5-1.1-.1-1.8-.9-1.8-1.9 0-.9.6-1.8 1.4-2.4.8-.6 2.2-.5 3.2-.2 1.5.5 2.8 2.1 3.4 3.3.6 1.1 1.3 3.4 1.3 6.4 0 2.5-.9 6.2-2 9.1-1.1 2.8-1.8 3.9-1.8 3.9L19.2 26l-2.7 5.5s-2.6-5.5-3.2-8c-.6-2.4-1-5.3-1-6.2z"/></svg><view id="00000F" viewBox="40 120 40 40"/><svg id="nLayer_1" viewBox="0 0 973.4 973.4" width="40" height="40" x="40" y="120"><style>.nst0{fill:#fff}.nst1{fill:#e30613}.nst2{fill:none;stroke:#e30613;stroke-width:75.68}</style><title>SGE_Standard_Logo</title><path class="nst0" d="M486.7 8C222.4 8 8 222.4 8 486.7s214.3 478.7 478.7 478.7 478.7-214.3 478.7-478.7S751.1 8 486.7 8z"/><path class="nst1" d="M486.7 973.4c-65.7 0-129.4-12.9-189.5-38.3-58-24.5-110-59.6-154.7-104.3-44.7-44.7-79.8-96.7-104.3-154.7C12.9 616.2 0 552.4 0 486.7s12.9-129.4 38.3-189.4c24.5-58 59.6-110 104.3-154.7 44.7-44.7 96.7-79.8 154.7-104.3C357.3 12.9 421 0 486.7 0s129.4 12.9 189.5 38.3c58 24.5 110 59.6 154.7 104.3 44.7 44.7 79.8 96.7 104.3 154.7 25.4 60 38.3 123.7 38.3 189.5s-12.9 129.4-38.3 189.4c-24.5 58-59.6 110-104.3 154.7s-96.7 79.8-154.7 104.3c-60 25.4-123.8 38.2-189.5 38.2zm0-957.4c-63.5 0-125.2 12.4-183.2 37-56 23.7-106.4 57.6-149.6 100.9-43.2 43.2-77.2 93.6-100.9 149.6-24.5 58-37 119.7-37 183.2s12.4 125.2 37 183.2c23.7 56 57.6 106.4 100.9 149.6 43.2 43.2 93.6 77.2 149.6 100.9 58 24.5 119.7 37 183.2 37s125.2-12.4 183.2-37c56-23.7 106.4-57.6 149.6-100.9 43.2-43.2 77.2-93.6 100.9-149.6 24.5-58 37-119.7 37-183.2s-12.4-125.2-37-183.2c-23.7-56-57.6-106.4-100.9-149.6C776.3 110.7 726 76.7 669.9 53c-58-24.5-119.6-37-183.2-37z"/><path class="nst2" d="M898.2 486.7c0 227.3-184.3 411.5-411.5 411.5S75.2 714 75.2 486.7 259.5 75.2 486.7 75.2s411.5 184.3 411.5 411.5z"/><path class="nst1" d="M671.6 506.7c15.8 6 54.8 24.6 119.4 26.8 43.6 1.5 60.8-25.6 46.5-30.3-5.7-1.9-130.2-37.1-130.2-37.1s-15.4-6-3.9-7.2 63.3-.7 85.3-9.8c27-11 31.7-35.4 25.4-35-54.2 2.8-105 1.8-108.2 1.5l-.9-.1s-6-2-.6-6.7c5.9-5.2 44.9-37.8 53.2-46 21.5-21.6 6.9-53.2 3.3-49.8-35.9 34.2-82.2 60.6-85 61.1s-2-5.9.2-10.6 14.5-18.8 18.4-33.6c10.5-39.2 7.8-63.9-14.3-73.3-4-1.7-5.5.5-10.7 12.7s-7.2 33.4-27 41.7c-10.1 4.2-28.8 21.5-29.1 28.4s3.9 17.7-1.5 21.4c-4.2 2.9-11.4-2.2-17.7 3s-24.6 23.7-31 28.5-19 12.5-27 8.1c-17.4-17.2-9-67.6-9-67.6 4.1.8 8.3.9 12.4.3 17.6-2.6 18.8-23.5 16.3-26.2-1.9 2.2-5.5 5.6-14.7 6.5-7.1.7-9-2.2-10.5-8.5-1.5-5.9-2.5-9.7.5-20.3s13.7-15.7 19.8-20.6 2.9-23.4 2.9-23.4c-1.6 3.5-3.9 6.7-6.7 9.5-5.8 5.5-13.9 3.9-31 2.9s-24.2-7.5-26.8-10.8-25.1-.9-31.5-.6-33.8 5.5-44 9.3-24.4 9.7-28.1 12.9-2.5 5.9-2.5 5.9l3.4 9.3s12.6-8.9 25.1-12.2 14 2.4 15.6 7.7c1.3 3.8 2.3 7.7 3 11.7-4.7 2-23.1 3.6-39.8 2.7-19.4-1-20.5-9.6-20.2-14.5.1-1.8-5.6.1-7.9 5-3.9 8.6-5 23.2 34.7 22.7 15.8-.2 30.5-6.1 35.1-7.8 3.1 10.5-.4 12.2-4.9 12.9-19.1 3.3-29-1.7-29-1.7s-2.7 8.6-.7 10.1c11.5 8.7 34.8 8.7 38.9 8.4s7.4-3 9.7-1.1 5.2 11.7 5.6 14.9-.6 5.5-10.2 5.2-13.3.1-12.9 2 10.8 9.9 12.6 11.8 11.7-8.5 11.7-8.5-.5 1.4.3 5.6 3.6 37-16.8 46.5c-7.9 4.4-20.6-3.3-27-8.1s-24.7-23.2-31-28.5-13.5-.1-17.7-3c-5.3-3.7-1.2-14.5-1.5-21.4s-19-24.2-29.1-28.4c-19.8-8.3-21.8-29.5-27-41.7s-6.7-14.4-10.7-12.7c-22.1 9.4-24.7 34.1-14.3 73.3 4 14.8 16.2 28.9 18.4 33.6s2.9 11.1.2 10.6-49.1-27-85-61.1c-3.6-3.4-18.2 28.2 3.3 49.8 8.2 8.3 47.3 40.8 53.2 46 5.4 4.7-.6 6.7-.6 6.7l-.9.1c-3.2.4-54 1.4-108.2-1.5-6.3-.3-1.6 24 25.4 35 22 9 73.8 8.5 85.3 9.8s-3.9 7.2-3.9 7.2-124.5 35.2-130.3 37.1c-14.4 4.7 2.9 31.8 46.5 30.3 64.7-2.3 103.6-20.8 119.4-26.8 15.8-6 6.4 5.1 3 7.4-23.4 16.5-92.3 63.3-124.9 84.2-4.7 3-5.3 6.3-.1 12 25.5 27.1 73.8-3.9 92.9-14.6 22.3-12.4 75.4-52.5 79.5-48.1 1.6 1.7-1.5 16.7-34.2 51.7 3.5 3.3 7.1 6.5 11 9.3 0 0-15.7 19-26.4 30.7-4.3 4.7-14.4 14.8-17.2 14.2s-16.9-15.8-21.6-16c-3-.2-9.5 4.5-14.4 1.8-2.9-1.7-11.9-.8-19.4 2.7s-6.1 21-4 13.2 16.9-7.5 24.3 1.1c2.4 2.7 9.5 8.1 14.1 9.1s6.8 2.5 5 3.8c-1.7 1.2-14.1 4.2-24.3 11.5-2.2 3.7-1 5-1.8 6.8-11.4 4-14 7.5-10.5 18.9.3 1.1.2 1.3 3.7 8.4 1.7-3.1.8-13.1 11.5-15.4 1.1-.2 3 1.3 5 1.3 4.4 0 20.5-9.3 23.3-12.9s2.2 2.1.3 5.5c-9 16.6-5.6 26.7-4.8 27 2.1.8 3.2-.8 4.5 2.4 5.5 16.2 21.8 25.9 19.2 23.1s-6.6-24.3-5-25.1 3 .3 5-.8 4.5-10.5 4.3-13.3c-.3-6.9-4-9-3.9-13.2s3-8.7 3-8.7 4.8 9.3 8.8 13.6c8.3 8.8 6.8 10.8 15.5 7.3 1.8-.7 13.3 18.3 13.3 18.3s4.2-10.1 2.3-17.4c-.8-3.2-4-4.7-6.2-7.5s4-6.4 1-10.9c-16.8-16-18.3-10.5-22.6-21-2.9-7 2.8-11.8 8.6-18.9 14.7-17.7 15.2-17.5 23.9-27.9 3.6 2.4 5.7 4.7 10.7 8.3 16.4-24 30.4-45.7 45.7-51.3s22.2 3.3 21.8 12.6c-.7 16.4-33.6 51.6-33.6 51.6-14.9 16.6-25.8 25.5-32 36.3-2.7 4.7-4.5 9.8-5.3 15.1-1 6.1.1 14.8 1.4 21.9 1.3 6.8 2.7 12.2 2.7 12.2s4.9-17.6 6-19.7c3.1-6 3.8 0 8.5 11.8s14.5 26.7 14.5 26.7l-.1-30.2c.5-7.8 1-18.3 4.5-10.5s14.9 24.7 14.9 24.7.2-6.2.6-13.6h-.1.1c.4-6.8 5.8-31.8 8.6-36.9h-.1.1c2.4-4.4 13-23 26-25s14 21.1 13.1 26c-1.7 9.5-5.2 20.4-7.1 24.3-1.2 2.5-11.4 21.6-12.7 25.2-13.8 38.5 15 61.8 15 60s3.4-28.4 7.8-34.8c2.6-3.8 6.2-6.3 8.9-2.5 3.8 5.3 11.9 23.2 23.5 35.6 11.6-12.3 19.8-30.3 23.6-35.6 2.7-3.8 6.3-1.3 8.9 2.5 4.4 6.4 7.8 33 7.8 34.8s28.8-21.5 15-60c-1.3-3.7-11.5-22.8-12.7-25.2-1.9-3.9-5.4-14.9-7.1-24.3-.9-5 .2-28 13.1-26s23.6 20.6 26 25h.2c2.8 5.1 8.1 30.1 8.6 36.9h.1-.1c.5 7.4.6 13.6.6 13.6s11.3-16.9 14.8-24.7 4 2.7 4.5 10.5l-.1 30.2s9.8-14.9 14.5-26.7 5.3-17.8 8.5-11.8c1.1 2.1 6 19.7 6 19.7s1.5-5.3 2.7-12.2c1.3-7.1 2.4-15.8 1.4-21.9-.8-5.3-2.6-10.5-5.3-15.1-6.2-10.8-17.1-19.7-32-36.3 0 0-32.8-35.3-33.6-51.6-.4-9.3 6.5-18.2 21.8-12.6s29.3 27.3 45.7 51.3c5-3.7 7.1-6 10.7-8.3 8.7 10.3 9.2 10.2 23.9 27.9 5.9 7.1 11.5 11.8 8.6 18.9-4.3 10.5-5.9 5-22.6 21-3 4.5 3.2 8.1 1 10.9s-5.4 4.3-6.2 7.5c-1.9 7.3 2.3 17.4 2.3 17.4s11.6-19 13.3-18.3c8.7 3.5 7.2 1.5 15.5-7.3 4-4.3 8.8-13.6 8.8-13.6s2.9 4.5 3 8.7-3.7 6.3-3.9 13.2c-.1 2.9 2.3 12.2 4.3 13.3s3.3 0 5 .8-2.3 22.3-5 25.1 13.6-6.9 19.2-23.1c1.4-3.2 2.5-1.7 4.5-2.4.8-.3 4.1-10.4-4.8-27-1.9-3.5-2.5-9.1.3-5.5s18.9 12.9 23.3 12.9c2 0 3.9-1.6 5-1.3 10.7 2.3 9.8 12.3 11.5 15.4 3.5-7.1 3.3-7.3 3.7-8.4 3.5-11.3.8-14.8-10.5-18.9-.8-1.8.3-3.2-1.8-6.8-10.2-7.3-22.6-10.3-24.3-11.5-1.9-1.3.4-2.8 5-3.8s11.7-6.4 14.1-9.1c7.4-8.6 22.3-8.9 24.3-1.1s3.4-9.7-4-13.2-16.5-4.4-19.4-2.7c-4.8 2.8-11.3-1.9-14.4-1.8-4.8.3-18.9 15.5-21.7 16s-12.8-9.5-17.2-14.2c-10.9-11.7-26.6-30.6-26.6-30.6 3.9-2.9 7.5-6 11-9.3-32.7-35-35.8-50-34.2-51.7 4.1-4.4 57.2 35.7 79.5 48.1 19.1 10.6 67.4 41.7 92.9 14.6 5.3-5.6 4.6-9-.1-12-32.6-20.9-101.5-67.8-124.9-84.2-3-2.5-12.4-13.6 3.4-7.5zM546.8 169.9c-.5 0-35.5 15-38.7 17.4-6.1-5.2-23.8-21-25.9-22.8v-.2l-.1.1-.1-.1v.2c-2 1.8-19.8 17.6-25.9 22.8-3.2-2.4-38.2-17.4-38.7-17.4 0 0 9.9 14.7 16 24.9 6.3 10.4 4.9 24.5 4.9 24.5h87.6s-1.4-14.1 4.9-24.5c6.1-10.2 16-24.9 16-24.9z"/><path class="nst0" d="M453.5 263.5c8.3-4.1 17.9-5 26.8-2.5l-22.6 18.3c0-.1-4-12.4-4.2-15.8zM552.5 469.3c20-3.5 46.1-10 73.7-58.3-26.1-4.9-30.5-18.1-30.5-18.1s14.2-3.7 34 12c1.1-33.6 20.7-39 20.7-39h.1s8.3 18.6-17 40.8c24.8 5.3 31 18.7 31 18.7s-13.2 4.8-33.4-12C601 468.2 568.4 480 552.5 480c.7-7.1-.1-8.9 0-10.7zM441.6 435.6c.6 19.7 2.7 39.3 6.3 58.6 7.1 37.1 18.5 61.1 27.2 75.1 3.3 5.5 7 10.6 11.1 15.5v.2l.1-.1.1.1v-.2c4.1-4.8 7.8-10 11.1-15.5 8.7-13.9 20.2-38 27.2-75.1 3.6-19.4 5.7-39 6.3-58.6-.3.3-89.1.3-89.4 0zM420.2 469.3c-20-3.5-46.1-10-73.7-58.3 26.1-4.9 30.5-18.1 30.5-18.1s-14.2-3.7-34 12c-1.1-33.6-20.7-39-20.7-39h-.1s-8.3 18.6 17 40.8c-24.8 5.3-31 18.7-31 18.7s13.2 4.7 33.4-12.1c30.1 54.8 62.7 66.6 78.6 66.6-.6-7 .1-8.8 0-10.6z"/><path class="nst1" d="M511 531.5v-11.7h-28.8v-22.3h25.7v-11.7h-25.7V467h25.5v-11.7h-42.8v76.2H511z"/></svg><view id="00000G" viewBox="80 120 40 40"/><svg viewBox="0 0 968 968" width="40" height="40" x="80" y="120"><defs><style>.ocls-1{fill:none}.ocls-2{fill:#0067b2}.ocls-3{fill:#fff}.ocls-4{fill:#db052c}.ocls-5{clip-path:url(#oclip-path)}</style><clipPath id="oclip-path" transform="translate(-16 -16)"><path class="ocls-1" d="M248.27 248.26h503.47v503.48H248.27z"/></clipPath></defs><title>FCB_Standard_Logo</title><g id="oRinge"><path class="ocls-2" d="M500 16C232.7 16 16 232.7 16 500s216.7 484 484 484 484-216.69 484-484S767.31 16 500 16z" transform="translate(-16 -16)"/><path class="ocls-3" d="M500 40.2C246.06 40.2 40.2 246.06 40.2 500S246.06 959.8 500 959.8 959.8 753.94 959.8 500 753.94 40.2 500 40.2z" transform="translate(-16 -16)"/><path class="ocls-4" d="M500 62C258.09 62 62 258.09 62 500s196.09 438 438 438 438-196.09 438-438S741.91 62 500 62zm0 711.48C349 773.46 226.54 651 226.54 500S349 226.54 500 226.54 773.46 349 773.46 500 651 773.46 500 773.46z" transform="translate(-16 -16)"/></g><g class="ocls-5" id="oRapport"><path class="ocls-2" d="M259.57 574.41a250.6 250.6 0 0 0 55.49 96.35V557.24l-64.13-93.68a250.73 250.73 0 0 0 8.64 110.85M389 664.3v-130l-73.37-107.19v-98.38a252.39 252.39 0 0 0-35.06 48.16l34.49 50.39v130l73.41 107.24v61.06a252.69 252.69 0 0 0 56.14 19.94zm74-152.85l73.41 107.24v130L463 641.4v-130l-73.4-107.19v-130L463 381.49zm74-22.9l-73.41-107.24v-130L537 358.6v130l73.4 107.24v130L537 618.51zm-111.4-229a250.67 250.67 0 0 0-97.19 56.25L389 404.38v130l73.41 107.24v107.29a252.18 252.18 0 0 0 209.15-64.73L611 595.61v-130l-73.44-107.19V251.09a250.67 250.67 0 0 0-112 8.48m259.39 313.15v-130l-73.41-107.2v-61.05a252.47 252.47 0 0 0-56.14-19.94L611 335.7v130l73.37 107.2v98.37a252.41 252.41 0 0 0 35.06-48.16zm55.48-147.13a250.72 250.72 0 0 0-55.48-96.35v113.52l64.12 93.68a250.65 250.65 0 0 0-8.64-110.85" transform="translate(-16 -16)"/></g><g id="oSchrift"><path class="ocls-3" d="M207.17 590.47l12.43 26.47-20.21 38.21c-3 5.68-5.68 10.33-5.68 10.33l.27.5s5.34.33 11.76.87l43.05 3.88 15.42 24.84-93 54.35-14.88-23.85 38.93-22.73c9.08-5.25 15.93-9 15.93-9l-.27-.5s-4.7-.35-14.51-1.79l-39.63-5.9-.27-.5 16.66-36.44c4.14-9 6.41-13.15 6.41-13.15l-.27-.5s-6.85 3.72-16.2 8.47l-40.28 20.25-11.93-25.43zM278.47 707.93L299.91 727l-43.06 51.24c-7.06 8.51-6.71 17.45 4 25.87s19.47 6.67 26.08-2.19l39.7-53.92 23.55 16.38-40.78 55.24c-18.69 25.38-42.9 20.38-63.83 3.85s-31.46-38.85-11.22-63zm42.9 34.87l-26.47 18.49-.45-.35 11.77-30.06zM366.76 773.73l28 10.22L410.59 838c3.43 11.69 4.82 17.88 4.82 17.88l.81.24s1.83-8 4.5-17.88l11.49-43 27.36 6.47-27.83 104.1-29-7-18-56.51c-3.5-11-5-17.92-5-17.92l-.81-.25s-2.4 8.45-5.45 17.6L358.8 885.6l-26.38-9.73zM576.42 867c.59 25.53-15.41 43.1-46 45.17-28.57 1.93-55.3-11-56.85-52.69-1.58-42.23 21.78-58 49.22-59.88 29.7-2 46.88 14.58 49.83 37.11l-28.85 2c-2.65-9.76-7.87-15.52-20.6-14.66-11.88.81-20.23 11.74-19.33 33.42 1 22.66 10.37 31.4 23.66 30.5s19.11-7.26 19.74-19zM582.82 792.51l26.76-10.32 15.18 36.38 33.4-15.22-17.5-35.35L666 754.6l47.77 96.6-25.34 13.42-18.91-38.42-34.95 15.93 16.59 39.47-26.76 10.33-41.52-99.29zM682.94 741.94l51.58-49.43 16.59 16.29-32.34 31 12.34 13.7 31.31-30 16.2 15.88-32.34 31 13.42 15 36.43-34.91 16.59 16.29L755 822.07zM747.4 677.23l14.8-25.87 56-6.46c12.11-1.4 18.44-1.73 18.44-1.73l.38-.76s-7.61-3.16-16.87-7.46l-40.46-18.6 11-25.87 97.91 45-11.79 27.42-58.75 8.23c-11.41 1.6-18.5 1.86-18.5 1.86l-.38.76s7.93 3.79 16.42 8.35l40.72 21.9-14 24.35zM131.16 320.52l21.62 8.55-17.27 47.85 20.19 6.68 16.16-44.79 21.09 8.36-15.68 43.45L215 402.9l-8.12 27.5-103.23-33.64zM263.16 249.39c18.63 16.88 21.85 40 3.22 63.59-17 21.57-43.27 31.91-77.2 6.73-33.48-24.83-29.06-54.2-11.31-76.66 18.8-23.8 42.78-25.8 61.38-12.55l-17.92 22.68c-8.75-4.93-17-4.37-25.13 6s-6.36 23.12 11.8 36.73c17.36 13 30.93 12.52 38.48 3 8.08-10.23 6.51-18.52-1.4-26.57zM334 127.41c19-8.8 37.68-10.7 45.89 8.77 6.74 15.93 2.47 22.9-5.86 29.88l.3.64c8.88-2.07 20.79-1.64 28.36 16.09 9.11 21.4-4.84 33.78-23.88 42.58L338.53 244l-48.27-96.35zm16.17 39.05c7.46-3.45 9.6-6.93 6.59-14.13-2.89-6.94-7.82-7.47-15-4.14l-16.08 7.43 9.09 18zm18.19 39.37c8.23-3.8 10.49-7 7-15.26-3.25-7.71-9-7.89-17.19-4.08l-13.89 6.42 9.8 19.52zM530 198.21l-30.59-.07-8.77-19.3-37 3.18-5.35 20.52-30.13 5.29L448 95.16l33.33-2.86zm-47.69-40.14l-9.2-21c-3.17-7.12-5.57-13.46-5.57-13.46h-.57s-1.28 6.65-3.19 14.21l-5.48 22.24zM557.24 166.59l-25-76.49 32.31 6.14 9.78 32.43c1.84 6.2 3.46 12.79 3.46 12.79l.55.12s4.2-5.32 8.45-10.2l22.35-25.46 32 7.81L586.61 173l-8.34 35.75-28.27-6.17zM662.55 123l67.83 37.24-11.81 20-41.86-23-8.37 16.42L707 194.94l-11.54 19.54L658 193.94l-9.19 17.91 40.75 22.37-11.81 20-64.1-35.2zM767.89 189.43l32.9 35.2c16.83 18 20.86 35.4.81 53-12.81 11.2-22.14 14.29-33.42 9.9L751 330.93l-20.32-24.85 15.74-35.46-9.39-10-25.31 25.21L690.9 266zm-14.8 55.15l11.13 11.91c6.19 6.63 11.4 6.8 18.32.72s6.71-11.7.52-18.33l-11.71-12.53zM795.05 430.19L785.22 402 817 355.56c6.8-9.88 10.78-15.06 10.78-15.06l-.33-.79s-7.37 3.67-16.69 7.84l-40.55 18.36-12.32-25.27 98.17-44.41 13 26.84-32.29 49.75C830.58 382.31 826 388 826 388l.32.79s8.06-3.5 17.07-6.93l43.21-16.39 9.18 26.57z" transform="translate(-16 -16)"/></g></svg><view id="00000Z" viewBox="120 120 40 40"/><svg id="pEbene_1" viewBox="0 0 40 40" width="40" height="40" x="120" y="120"><style>.pst0{fill:#fff}.pst1{fill:#0f509c}.pst2{fill:#1d1d1b}.pst3{fill:none}</style><path class="pst0" d="M37.7 13.9c.1-.5.2-1.6.2-2.4 0-1.1-.2-2.1-.6-3.8-.4-1.6-1-3-1.3-3.8-.4-.9-1-1.1-1.5-1.4-.5-.2-2.1-.3-5.2-.4h-.6c-1.3 0-2.9.2-4.4.5-1.2.2-2.3.3-2.9.3h-.1c-1.4 0-3.1-.4-4.9-.7-1.6-.3-3.2-.6-4.8-.8-.5 0-1-.1-1.5-.1-2.4 0-4.7.5-5.7.7-.3-.2-.7-.5-1.4-.5-.3 0-.7.1-1.1.2-.8.4-1.4 1-1.4 1.8-.1.6.2 1.4.8 1.7.3.2.6.3.9.3.8 3.1 3.2 12.3 5.2 19.9-.1.1-.2.3-.3.4-.6.8-1.3 1.7-1.1 3.3.3 2 1.8 2.8 3.3 3.3 1 3.6 1.1 4.1 1.1 4.2.3.8.7 1.3 1.3 1.3H12c.2 0 .5-.1.7-.4.2-.3.2-.8 0-1.8-.1-.5-.3-.9-.4-1.3-.1-.4-.2-.7-.4-1.3.9.2 1.1.4 1.1 1.1 0 1 .2 1.8.6 2.2.3.3.5.3.7.3.6 0 1.2-.4 1.2-2.5 0-2.8-1.9-3.3-3.9-3.8-.2 0-.3-.1-.5-.1l-1-3.9c1.1-.7 2.8-.8 4.3-.9h.3c.9 0 1.9.2 2.9.5 1.2.3 2.5.6 3.9.6 1.5 0 2.3-.3 3.2-.6 1.1-.4 2.4-.9 5.3-1h.5c4.2 0 7.1 2.2 7.1 2.3.1.1.2.1.4.1h.2c.2-.1.4-.2.4-.4 0-.1.8-3.3.9-7.1.3-3.5-1.2-5.3-1.8-6z"/><path class="pst1" d="M10 3.3c-3.1.2-5.2.8-5.2.8 0 .1 1.7 2 2.7 4.3 1 2.3 1.8 5.6 1.9 5.6v.1h.1s4-1.1 6.7-.8l3.1.5c1.4.3 2.7.6 3.9.5.9-.1 2.1-.3 3.3-.5 1.7-.3 3.5-.7 5.3-.8 3-.1 4.3.5 4.3.5.1-.1.2-3.1-.5-5.6C35 5.5 34 4.3 34 4.2c-.1 0-2.5-.6-6-.2l-3 .4-3.7.3c-1.3 0-3-.3-4.9-.7-2.4-.3-4.7-.8-6.4-.7"/><path class="pst0" d="M9.2 15.4s.6 2.8.7 4.2c.1 1.3 0 4.9 0 4.9s2.6-1 4.5-1 5.2 1.3 7.4 1.1 3.8-1.6 7.9-1.5c4.1.1 7.4 1.5 7.4 1.5s.6-3.1.4-5.2-.8-3.7-1.7-4.2-2.7-.9-4.5-.8c-1.8.1-6.3 1.4-8.6 1.3s-4.6-1-7.8-1-5.7.7-5.7.7"/><path class="pst0" d="M37.4 25l-.4-.2s-3.3-1.4-7.3-1.5c-2.5 0-4.1.5-5.4.9-.8.3-1.6.5-2.5.6-1.3.1-3-.2-4.6-.6-1.1-.2-2.1-.5-2.9-.5-1.8-.1-4.3.9-4.4.9l-.4.2v-.5s.1-3.5 0-4.8c-.1-1.3-.7-4.1-.7-4.1l-.1-.3.3-.1c.1 0 2.6-.9 5.8-.9 1.8 0 3.3.3 4.7.6 1.1.2 2.1.4 3.1.4 1.4 0 3.5-.4 5.4-.8 1.3-.3 2.4-.5 3.2-.5 1.7-.1 3.5.2 4.7.8 1.3.7 1.7 2.8 1.9 4.5.2 2.1-.4 5.2-.4 5.3v.6zm-23.2-1.8h.2c.8 0 1.9.3 3 .5 1.5.3 3.2.7 4.4.6.8-.1 1.5-.3 2.3-.6 1.4-.4 3-1 5.6-1 3.4.1 6.2 1 7.2 1.4.1-.9.5-3.2.3-4.8-.2-2.1-.7-3.5-1.6-4-.8-.5-2.5-.9-4.3-.7-.7 0-1.8.3-3.1.5-1.9.4-3.9.8-5.4.8h-.2c-1.1 0-2.1-.2-3.2-.5-1.4-.3-2.8-.6-4.6-.6-2.5 0-4.6.5-5.3.7.2.7.6 2.8.7 3.9.1 1.1 0 3.4 0 4.4.9-.1 2.6-.6 4-.6z"/><path class="pst2" d="M4 2.8s3.9-1.1 7.4-.7 7 1.4 9.7 1.5c1.5 0 5.5-.9 7.7-.8 2.2.1 4.8.1 5.2.3s.9.4 1.2 1.1c.3.7.9 2 1.3 3.7.4 1.6.6 2.7.6 3.7s-.1 2.6-.1 2.6 2.2 1.7 2 5.5c-.1 3.8-.9 7-.9 7s-3.3-2.6-7.9-2.4c-5.5.2-5.4 1.6-8.5 1.6-2.7 0-5-1.2-7.2-1.1-1.8.1-3.7.4-5 1.3.5 2.1 1 3.7 1.2 4.7 2.4.7 4.2.7 4.2 3.4 0 2.9-1.4 2.1-1.3 0 0-1.5-1.1-1.6-2.6-1.9.5 1.9.6 2.2 1 3.6.4 1.5.1 1.4-.3 1.4-.3.1-.6-.2-.8-.8 0-.1-.5-1.9-1.2-4.5-1.6-.5-3-1.2-3.2-2.9-.2-1.7 1-2.6 1.5-3.5-2.1-8-4.8-18-5.5-20.6-.2-.1-.5-.1-.9-.3-.7-.4-.9-1.8.5-2.4 1.7-.5 1.9.5 1.9.5m4.6 24.5c-.7 1.1-.9 2.4.8 3.1l-.8-3.1zm0-4.8c.1-1.8-.1-4.5-.9-7.4-1.1-4-2.1-6.8-3.2-8.6.9 3.3 2.7 10.3 4.1 16m.6-7.1s.6 2.8.7 4.2c.1 1.3 0 4.9 0 4.9s2.6-1 4.5-1 5.2 1.3 7.4 1.1 3.8-1.6 7.9-1.5c4.1.1 7.4 1.5 7.4 1.5s.6-3.1.4-5.2-.8-3.7-1.7-4.2c-1-.5-2.7-.9-4.5-.8-1.8.1-6.3 1.4-8.6 1.3s-4.6-1-7.8-1-5.7.7-5.7.7m.2-1.4s4-1.1 6.7-.8 4.9 1.1 7 1c2-.1 5.5-1.2 8.6-1.3 3.1-.1 4.2.4 4.2.4s.1-2.9-.6-5.3c-.6-2.4-1.6-3.6-1.6-3.6s-2.4-.6-5.9-.2-4 .6-6.7.7c-2.8 0-8-1.7-11.1-1.5s-5.2.8-5.2.8S6.5 6 7.5 8.4 9.4 14 9.4 14"/><path class="pst3" d="M29.7 19.2c-.3 0-.5 0-.5.7 0 .8.1 1.1.4 1.1.3 0 .4-.4.5-1 .1-.5-.1-.9-.4-.8zM26.1 20.9c-.1.5-.1.7.1.7s.4-.2.3-.7c0-.6-.3-.5-.4 0zM15.7 18.6c0-.2 0-.4-.2-.4-.2.1-.1.1-.1.3 0 .2.1.5.2.4.1.1.1-.1.1-.3zM29.1 16.5c-.2-.1-.3 0-.3 0s-.1.4-.1.7c0 .7.3.9.3.9s.3-.1.3-.8 0-.7-.2-.8z"/><path class="pst1" d="M30.1 18.3s.2-.6.2-1.5c0-.7-.2-1.2-.6-1.4-.4-.2-.9 0-1.3.1s-1 .2-1 .2v.8s.5.7.7 2.1c.2 1.4.5 3.8.5 3.8.4.1.7.1 1.1.1.6-.1 1.9-.3 1.7-2.4-.2-1.8-1.3-1.8-1.3-1.8zm-1.1-.1s-.2-.1-.3-.9c0-.3.1-.7.1-.7s.2-.1.3 0c.2.1.1.2.1.8.1.6-.2.8-.2.8zm1.1 1.9c0 .5-.2 1-.5 1s-.4-.3-.4-1.1c0-.7.2-.7.5-.7s.5.2.4.8z"/><path class="pst1" d="M31.7 16.8c-.1-.3.1-.4.4-.4.3 0 .2.3.4.5s.1.4.4.4c.3-.1.3-.4.3-.8s-.3-1.2-1.1-1.2-1.5.3-1.4 1.3c.1 1.1.3 1.4.8 1.9.6.7 1.2 1.3 1.5 1.9.3.6.2 1-.1 1-.4-.1-.4-.2-.4-.5-.1-.5-.4-.6-.6-.5-.2.1-.4.4-.3 1 .2.7.4 1.1 1.2 1.2 1 0 1.5-.5 1.5-1.5-.1-.9-.7-1.6-1.4-2.4-.8-.9-1.1-1.4-1.2-1.9zM13.4 16.1c-.1-.6 0-.8-.5-.7-.4.1-.7.1-.6.6s.2.8.2 1.1.1.7-.3.7-.5.2-.6-.5-.1-.9-.2-1.2c-.1-.3-.1-.5-.5-.4-.4.1-.6.1-.6.7s.2 1.7.4 3c.3 1.3.5 2.6.7 3.1.2.5.3.6.6.5.3-.1.5 0 .4-.7-.1-.7-.3-1.8-.4-2.3-.1-.5-.3-1.2.2-1.3.5-.1.6-.1.8.4.1.5.4 2.2.5 2.7s.1.9.7.7c.6-.1.5-.1.3-.9-.2-.6-1-4.9-1.1-5.5zM18.8 18c.1-.3-.1-.7-.3-.7s-.4.3-.7.4-.4-.3-.6-.2-.4.4-.3.8.2.7.3 1.3.2 1.3.4 1.9c.1.6.2 1.1.5 1.4.3.4.7.5.7 0s-.1-.8-.2-1.3c-.2-.5-.4-.9-.5-1.7-.1-.7-.1-1.1.2-1.2.2 0 .4.1.4.4s-.1 1 .2.9.7 0 .3-.6c-.4-.6-.6-.7-.4-1.4zM16.7 20.6c-.2-.1-.3-.1-.4.2-.1.3 0 .7-.3.7s-.4-.2-.5-.6 0-.6.2-.7c.2-.1.6.1.7-.4 0-.5.1-1-.1-1.7s-.2-.9-.5-1.2c-.3-.2-.8-.2-1-.1s-.4.2-.4.8.1 1.6.1 2.3c.1.7.2 1.7.5 2.1.3.4.5.6.9.5.4 0 .7.1.9-.3s.2-.6.2-1c-.1-.1-.1-.5-.3-.6zm-1.4-2c0-.2 0-.3.1-.3.2-.1.2.2.2.4s0 .4-.1.4c-.1-.1-.2-.3-.2-.5zM27.2 19.8c-.2-.6-.3-1.3-.4-1.7 0-.3 0-.7-.7-.8-.7 0-.9 0-1.2.3-.2.3-.3.7-.3 1.1 0 .4 0 .8.3.8.4-.1.4-.3.4-.6.1-.3.1-.4.3-.4.2 0 .5.2.4.5-.1.2-.5.6-.8 1-.3.3-.5.9-.4 1.5s.3 1.4 1 1.3.8-.3 1.1-.3.5.2.6 0c.1-.2.1-.2.1-.5.1-.4-.2-1.5-.4-2.2zm-1 1.8c-.2 0-.3-.2-.1-.7.1-.5.5-.7.4 0 .1.5-.1.7-.3.7z"/><path class="pst1" d="M36.7 20.1c-.3-.1-.3.3-.4.6-.1.4-.4.8-.8-.1-.4-.7-.6-1.5-.6-2.4 0-1 .2-1.4.4-1.4s.2.1.3.3c.1.2.1.6.4.5.4-.1.4-.5.2-1.2s-.6-1.2-1.2-1.2-1.3.5-1.3 2.3c0 1.8.4 3 .9 3.9.4.9.7 1.6 1.4 1.6.6 0 1.1-.8 1.1-1.6.1-.8 0-1.2-.4-1.3zM24 18.9c-.2-.6-.2-.7-.7-.7h-.8s-.2-1.1-.3-1.5c-.1-.5-.2-.7-.6-.7-.3 0-.5.3-.4 1s.4 1.6.6 2.8.4 2.5.4 3c.1.4.1 1.1.6.9.5-.2.5-.7.4-1.2-.1-1.1-.2-1.5-.4-2.1-.2-.6-.1-1.1.1-1.1.2-.1.4.2.5.8.1.5.1 1.5.2 2.1.1.5.3 1.4.8 1.2.5-.2.4-.2.2-1.4-.3-1.3-.5-2.5-.6-3.1z"/><g><path class="pst1" d="M20.8 20.8c-.1-.5-.1-1-.2-1.5 0 0 .7-.3.7-.8-.1-.5-.9-.5-.9-.8s-.1-.7-.3-1.2-.3-.6-.4-.6-.3.3-.3.6.2 1.5.2 1.5-.6.2-.6.5c0 .5.6.6.6.6s.1.8.3 1.9.1 1.4.5 2 .4.8.9.8c.4 0 .7 0 .7-.2s-.5-.7-.7-1.4-.4-.6-.5-1.4z"/></g></svg><view id="000010" viewBox="160 0 40 40"/><svg id="qEbene_1" viewBox="0 0 40 40" width="40" height="40" x="160"><style>.qst0{fill:#cd1719}.qst1{fill:#fff}.qst2{fill:#006139}.qst3{fill:none}.qst4{fill:#fd0}.qst5{fill:#1d1d1b}</style><title>KOE_Standard_Logo</title><path class="qst0" d="M34.7 26s-1.4 13-14.3 13.4c0 0-12.5 1.3-15-13V11.6h.8v.1H34v-.1h.7V26z"/><path class="qst1" d="M6.2 1.7H34v10.1H6.2z"/><path class="qst0" d="M28 3.3l3.8 7.1h-2.2l-1.3-2.6h-3.4l-1.3 2.6h-1.4V9.3l3.1-6z"/><path class="qst1" d="M33.9 12.4H20.4V38.6s11.1.2 13.5-12.6V12.4z"/><path class="qst0" d="M16.6 8.6s1.3.3 4.4.1c0 0 1.4 0 1.4-1.1v-1h-1.8V7s0 .3-.2.3h-2.6s-.5-.1-.6-.5V5.1s0-.4.5-.4c0 0 .8-.1 2.4 0 0 0 .6 0 .6.6h1.7v-1s-.1-1-1.3-1c0 0-2.8-.1-4 0 0 0-1.6 0-1.6 1.2v3s0 1 1.1 1.1zM26.5 4.6h.3l.9 2h-2.2l1-2zM11.2 7H15V5.7h-3.8l-.1-1h4.1V3.3H9.5v5.6h1.7z"/><path class="qst2" d="M13.7 9.2h4.2v1.1h-4.2z"/><path class="qst2" d="M18 10.4h-4.3V9.1H18v1.3zm-4.2-.1h4v-1h-4v1z"/><path class="qst1" d="M18 9.2h4.2v1.1H18z"/><path class="qst0" d="M22.3 10.4H18V9.1h4.3v1.3zm-4.2-.1h4v-1h-4v1zM9.4 9.2h4.2v1.1H9.4z"/><path class="qst0" d="M13.7 10.4H9.4V9.1h4.3v1.3zm-4.2-.1h4v-1h-4v1z"/><path class="qst1" d="M27.7 6.6l-1-2h-.2l-1 2"/><path class="qst3" d="M25.5 6.6h2.2"/><path class="qst0" d="M5.4 1v25.3c2.5 14.3 15 13 15 13 13-.3 14.3-13.4 14.3-13.4V1H5.4zM34 26s-1.3 11.9-13.6 12.5c0 0-11.6 1.1-14.2-11.9V12.4H34V26zm0-14.3H6.2v-10H34v10z"/><path class="qst4" d="M19.5 39.5c-1.2 0-3.4-.2-5.8-1.2-2-.9-3.7-2.1-5.1-3.8-1.7-2.1-2.9-4.9-3.4-8.2V.8h29.7v25.1s-.4 3.3-2.3 6.6c-1.2 1.9-2.6 3.5-4.4 4.6-2.2 1.4-4.8 2.2-7.8 2.3-.1.1-.4.1-.9.1zm-14-13.2c.6 3.2 1.7 5.9 3.4 8 1.3 1.7 3 2.9 5 3.7 3.4 1.4 6.4 1.1 6.5 1.1 2.9-.1 5.5-.8 7.6-2.2 1.7-1.1 3.1-2.6 4.3-4.5 1.9-3.2 2.3-6.3 2.3-6.5V1.1h-29v25.2zm14.2 12.5c-1.1 0-3.2-.1-5.5-1.1-1.9-.8-3.5-2-4.8-3.5-1.6-1.9-2.7-4.4-3.3-7.5V12.3h28.1v13.8s-.3 3-2.2 6.1c-1.1 1.8-2.5 3.2-4.2 4.3-2.1 1.4-4.6 2.1-7.4 2.3-.1-.1-.3 0-.7 0zM6.3 26.6c.6 3 1.7 5.4 3.3 7.3 1.3 1.5 2.8 2.7 4.7 3.4 3.1 1.3 6 1.1 6 1.1 2.8-.2 5.2-.9 7.3-2.2 1.6-1.1 3-2.5 4.1-4.2 1.8-2.9 2.1-5.8 2.2-5.9V12.6H6.3v14zm27.8-14.7H6V1.5h28.1v10.4zm-27.8-.4h27.5V1.9H6.3v9.6z"/><path class="qst0" d="M20 24.4s4.3.2 4.7-2.3c0 0 .7-2.3-.6-4.3 0 0-1.4-3-3.8-3.6 0 0-2.1-.1-3.9 2.9 0 0-1.9 3.4-.7 5.3 0 0 .8 2.2 4.3 2z"/><path class="qst5" d="M19.5 24.7c-3 0-3.9-1.8-4-2.1-1.3-1.9.6-5.4.7-5.5 1.9-3.1 4-3 4.1-3 1.1.2 2.1.9 3 2.1.6.8 1 1.5 1 1.6 1.2 2 .7 4.2.6 4.5-.2 1.1-1.1 1.9-2.7 2.2-1.1.2-2.1.2-2.3.2h-.4zM16 22.5c.1.2.3.5.7.8.8.6 1.9.9 3.2.8 0 0 4.1.2 4.5-2.1 0 0 .6-2.2-.6-4.1 0 0-1.3-2.9-3.6-3.4-.1 0-.5 0-1.2.3-1.2.5-2 1.6-2.5 2.4-.1.1-1.8 3.3-.7 5l.2.3z"/><path class="qst2" d="M19.9 24.4s4.3.2 4.7-2.3c0 0 .7-2.3-.6-4.3 0 0-1.4-3-3.8-3.6 0 0-2.1-.1-3.9 2.9 0 0-1.9 3.4-.7 5.3 0 0 .8 2.2 4.3 2z"/><path class="qst5" d="M19.5 24.5c-3 0-3.9-1.9-4-2.1-.5-.8-.6-2-.1-3.4.3-1.1.8-1.9.8-2 .5-.9 1.4-2 2.7-2.6.8-.4 1.3-.3 1.3-.3 1 .2 2 .9 2.9 2 .6.8 1 1.5 1 1.6 1.2 2 .6 4.2.6 4.4-.2 1.1-1.1 1.8-2.6 2.2-1.1.2-2.1.2-2.2.2h-.4zm-3.7-2.2c.1.1.8 2.1 4.1 1.9 0 0 4.2.2 4.6-2.1 0 0 .6-2.2-.6-4.2 0 0-1.4-3-3.7-3.5-.1 0-.5 0-1.2.3-1.2.6-2 1.7-2.5 2.5 0 0-1.9 3.4-.7 5.1z"/><path class="qst4" d="M16.2 27.9l-1-.9 1.4-1.4s3.8.7 7.2 0l1.5 1.3-1 1.3-8.1-.3z"/><path class="qst5" d="M24.4 28.3l-8.3-.3-1.1-1 1.6-1.5h.1s3.8.7 7.1 0h.1l1.7 1.4-1.2 1.4zm-8.2-.6l8 .3.9-1.1-1.4-1.2c-3.1.6-6.5.1-7.1 0L15.4 27l.8.7z"/><path class="qst4" d="M17.1 28s.4.9-.7.8c0 0-1-.3-.6-1.3 0 0 .4-.6 1.2-.6.8-.1 6.3.1 6.3.1s1.2-.1 1.5 1.1c0 0 .1 1-1 .7 0 0-.5-.1-.4-.8 0 0-.8 1.2-1 4.7l-4.3.2c.1 0 0-4-1-4.9z"/><path class="qst5" d="M18.1 33v-.1s-.1-3-.8-4.3c0 .1 0 .1-.1.2-.1.2-.4.3-.8.3 0 0-.5-.2-.7-.6-.1-.3-.1-.6 0-.9 0 0 .4-.6 1.3-.7.8-.1 6 .1 6.3.1.1 0 1.4 0 1.7 1.2 0 0 0 .5-.3.8-.2.2-.5.2-.9.1-.1 0-.3-.1-.4-.4-.3.6-.6 1.9-.7 4.1v.1l-4.6.1zm-.9-5.1c.9.8 1.1 4 1.1 4.8l4-.2c.2-3.4 1-4.5 1-4.6l.3.1c-.1.5.2.6.2.6.3.1.5.1.6 0 .2-.1.2-.5.2-.5-.3-1.1-1.3-1-1.4-1-.1 0-5.5-.1-6.3-.1-.7.1-1 .5-1.1.6-.1.3-.1.5 0 .7.1.3.5.4.5.4.2 0 .4 0 .5-.2.1-.1 0-.4 0-.5l.4-.1z"/><path class="qst5" d="M22.4 32.7l-2.1-5-2 4.7-.3-.1 2.3-5.4 2.3 5.7z"/><path class="qst5" d="M20.2 32.9l-.2-.5c-1.5-5.1-3-5.4-3-5.4v-.3s.5 0 1.1.8c.7.9 1.4 2.3 2.1 4.4.4-1.2 1.8-4.6 3-5.1l.1.3c-1.1.4-2.5 4-3 5.3l-.1.5z"/><path class="qst4" d="M19 24.5v2.4h2.5l-.1-2.4z"/><path class="qst5" d="M21.6 27.1h-2.8v-2.7l2.7-.1.1 2.8zm-2.5-.3h2.2l-.1-2.2h-2.1v2.2zM15.9 18.6s-.1 0-.1-.1v-.2l5.5-3.8h.2v.2l-5.6 3.9zM15.3 20.6s-.1 0-.1-.1v-.2l7.2-4.8h.2v.2l-7.3 4.9c.1 0 0 0 0 0zM15.6 22.3s-.1 0-.1-.1V22l8-5.3h.2v.2l-8.1 5.4zM16.5 23.7s-.1 0-.1-.1v-.2l7.9-5.3h.2v.2l-8 5.4zM18 24.4s-.1 0-.1-.1v-.2l6.8-4.4h.2v.2L18 24.4z"/><path class="qst5" d="M21 24.4s-.1 0-.1-.1v-.2l3.8-2.5h.2v.2L21 24.4zM24.1 18.1s-.1 0 0 0l-5.5-3.2c-.1 0-.1-.1-.1-.2s.1-.1.2-.1l5.4 3.2c.1 0 .1.1.1.2l-.1.1z"/><g><path class="qst5" d="M19.6 24.5l-4.2-2.4c-.1 0-.1-.1-.1-.2s.1-.1.2-.1l4.1 2.4c.1 0 .1.1.1.2s0 .1-.1.1z"/></g><g><path class="qst5" d="M24.8 20.6l-7.5-4.5c-.1 0-.1-.1 0-.2 0-.1.1-.1.2 0l7.5 4.5c.1 0 .1.1 0 .2h-.2z"/></g><g><path class="qst5" d="M24.7 22.2l-8.4-4.9c-.1 0-.1-.1-.1-.2s.1-.1.2-.1l8.3 4.9c.1 0 .1.1.1.2s0 .1-.1.1z"/></g><g><path class="qst5" d="M24.1 23.6c-.1 0-.1 0 0 0l-8.3-4.8c-.1 0-.1-.1-.1-.2s.1-.1.2-.1l8.3 4.8c.1 0 .1.1.1.2-.1.1-.2.1-.2.1z"/></g><g><path class="qst5" d="M22.2 24.3l-6.9-3.9c-.1 0-.1-.1-.1-.2s.1-.1.2-.1l6.9 3.9c.1 0 .1.1.1.2-.1.1-.1.1-.2.1z"/></g><g><path class="qst1" d="M16 35.8v-.2l.4-.1v-1.3H16V34h1.1v.2l-.4.1v1.3l.4.1v.2H16z"/></g><g><path class="qst1" d="M19.3 34.9v.5c-.1 0-.3.1-.4.1-.3 0-.4-.3-.4-.6 0-.4.1-.6.4-.6.1-.1.3.2.4.6zm.4.1c0-.6-.3-1-.9-1-.5 0-.9.4-.9.9 0 .6.4.9.8.9.1 0 .3 0 .4-.1-.2.4-.5.7-1 .9l.1.2c1-.3 1.5-1.1 1.5-1.8z"/></g><g><path class="qst0" d="M22.4 34.9c0 .4-.2.7-.6.7-.4 0-.6-.3-.6-.7 0-.4.2-.7.6-.7.4 0 .6.3.6.7zm.4 0c0-.5-.5-1-1-1s-1 .4-1 1c0 .5.5 1 1 1s1-.4 1-1z"/></g><g><path class="qst0" d="M23.7 36.7h-.3c.1-.6.5-1.5 1-2.3h-1.2V34h1.7v.3c-.5.5-1.1 1.6-1.2 2.4z"/></g></svg><view id="000017" viewBox="160 40 40 40"/><svg id="rEbene_1" viewBox="0 0 40 40" width="40" height="40" x="160" y="40"><style>.rst0{fill:#fff}.rst1{fill:#001f47}.rst2{fill:#dadada}.rst3{fill:#dd0741}</style><title>KOE_Standard_Logo</title><path class="rst0" d="M29.7 8.7v6.1c.3.1.6.3.9.4v-.1c0-.9.3-.8.9-1.1.2-.1.2-.4.5-.4s1 .1 1.3.2c.2.1.2.2.3.4.1.2.4.3.5.5.1.4 0 .9-.4 1.1-.1.1-.8 0-.8 0v.7s.1 0 .2.1c1.1.3 7 2.1 7.1 2.4v.1c-.1 0-3.9-.8-4.6-1-.8-.1-1.4-.3-2.4-.4v.1c0 .3-.1.3-.3.4v.1c.3.1 1.4.2 1.6.4.3.2.9 0 1.3.5.1.2.1.8 0 .9-.2.2-.4.1-.6.2-.1 0-.2.2-.3.2-.1.1-.3 0-.4 0-.3 0-.4-.3-.6-.4-.1-.1-.2 0-.4-.1-.2 0-.3-.3-.5-.3h-.4c-.6.3-2 0-2.6-.4V23c0 .4-.1.9-.4 1.3-1.8 3.1-5.6 5-9.2 5h-.1c-3.6 0-7.4-1.8-9.2-4.9-.2-.4-.4-.8-.4-1.3v-3.7c-.6.4-2.1.7-2.6.4-.1-.1-.3-.1-.4 0-.2.1-.3.3-.5.3-.1 0-.2 0-.4.1-.2.2-.3.4-.6.4h-.4c-.1-.1-.2-.2-.3-.2-.2 0-.4.1-.6-.2-.1-.1-.1-.8 0-.9.4-.6 1-.4 1.3-.5.2-.2 1.3-.3 1.6-.4v-.1c-.3-.1-.3-.1-.3-.4v-.1c-1 .1-1.6.3-2.4.4-.7.1-4.4 1-4.6 1 0 0-.1 0 0-.1.1-.3 6-2.1 7.1-2.4.1 0 .2-.1.2-.1v-.2-.5H7c-.4-.2-.6-.7-.4-1.1.1-.2.4-.3.5-.5-.3-.3-.3-.4-.1-.5.3-.1 1-.3 1.3-.2.3 0 .3.3.5.4.6.3.9.1.9 1.1v.1c.2-.1.6-.3.9-.4V8.7h19.1z"/><path class="rst1" d="M20.4 23.2l.3 3.1h.4l-.3-3.1h-.4zm-2.5-.5l-1 3 1 .3.3-1h-.4l-.2.6-.3-.1.9-2.6-.3-.2zm1.1.7l-.3 2.5c0 .2.1.4.3.4l.7.1V26l-.7-.1.1-1 .5.1v-.4l-.5-.1.1-1 .6.1v-.4l-.7-.1c.1 0-.1.1-.1.3zm5.1-1.9l-.3.3L26 24l.3-.3-2.2-2.2zm-1.8 1.6c0-.1-.2-.2-.3-.2h-.1l-.6.2.9 3 .3-.1-.4-1.3.3-.1c.2-.1.3-.2.2-.4l-.3-1.1zm-.3 1.2l-.3-1 .3-.1.3 1-.3.1zm5.2-2.5l-1.1-.7-.3.4.3.2.1-.1.9.6-.2.2-2.1-1.3.2-.2.4.3.2-.3-.3-.2c-.2-.2-.5-.1-.7.1s-.1.5.1.7l1.9 1.2c.2.2.5.1.7-.1.2-.4.1-.7-.1-.8zm-3 2.3l.3.5-.2.1-.8-2.4-.2-.3-.9.5.5.9.3-.2-.2-.5.2-.1.8 2.4.2.3.9-.5-.5-.9-.4.2z"/><path class="rst1" d="M11.9 24c1.9 2.8 4.9 4.1 8.2 4.1s6.4-1.4 8.2-4.1c.3-.5.4-.8.4-1.8v-2.7h-.5v2.7c0 1-.1 1.2-.3 1.6-1.7 2.5-4.6 3.9-7.8 3.9s-6.1-1.4-7.8-3.9c-.2-.4-.3-.6-.3-1.6v-2.7h-.5v2.7c0 1 .1 1.3.4 1.8zM11.3 14.4V9.5h17.5v4.9l.3.1V9.2h-18v5.3z"/><path class="rst1" d="M11.5 9.6v4.7l.5-.2v-4h16.2v4l.5.2V9.6zM28.8 19.5v2.7c0 1-.1 1.4-.4 1.9-1.9 2.8-5 4.2-8.3 4.2s-6.4-1.4-8.3-4.2c-.3-.5-.4-.8-.4-1.9v-2.7h-.3v2.7c0 1.1.1 1.5.5 2 1.9 2.9 5.1 4.3 8.5 4.3s6.6-1.4 8.5-4.3c.3-.5.5-.9.5-2v-2.7h-.3z"/><path class="rst1" d="M20.1 11.9c.6 0 1.2.1 1.7.3-.1.2-.1.4-.3.6-1-.1-2 0-2 0l-.9-.7c.5-.1 1-.2 1.5-.2z"/><path class="rst2" d="M24.2 18.6c-.4-.1-.7-.3-1-.4-.1.1-.2.1-.3.1-.4.5-.9.8-1.4 1.1-1.3.7-2.9.7-4.3.1-.3-.1-.6-.3-.8-.5.8 1.1 2.1 1.8 3.5 1.9h.2c.9 0 1.7-.2 2.5-.7.6-.2 1.2-.8 1.6-1.6 0 .1 0 0 0 0z"/><path class="rst1" d="M21.8 15.8c.2.5.5 1 .7 1.4.3-.4.3-.7.5-1.4.1-.3.4-.6.7-.9-.4-.2-.7-.4-1.1-.6-.4.7-.8 1.5-.8 1.5zM16.9 13.1c-.4.4-.8.8-1 1.3.1 0 .1.1.2.1l.1-.1c.2-.4.5-.8.7-1.3zM19.8 15.8s-.6-.9-1.2-1.6c0 0-1.3.6-1.7.8v.4c.3.5.4 1 .8 1.7.1.1.2.1.2.2.2.1.5.1.9.2-.1.2.7-1.1 1-1.7zM19.7 19.3l2-.1.4 1.1c-.8.4-1.7.7-1.7.7-1-.2-1.5-.6-1.5-.6l.8-1.1zM16.4 18.5c-.2.1-.3.1-.4.2.2.3.3.5.6.8.2.2.4.4.7.6l.1-.1c-.1-.1-.7-.9-1-1.5z"/><path class="rst3" d="M5.2 19.2c-.2 0-.2.3-.2.5.1 0 .2 0 .3-.1 0-.1.1-.2.1-.3-.1 0-.1-.1-.2-.1zm22.4-1c-.1 0-.2.1-.4 0-.1 0-.3-.1-.4.1 0 .1-.1.2-.1.3 0 .1.1.1.1.1.1 0 .2.1.2 0 .1-.1.1-.3.2-.3s.1.1.2.1.2-.1.2-.1c.1 0 .1-.1 0-.2.1.1.1 0 0 0zm4.1-2.4s.1.1 0 .2-.8 0-.8.1.4.2.5.3c.1.1.3.1.4 0 .2-.1.3-.3.2-.5 0-.1-.1-.3-.2-.4 0-.1-.5-.4-.3-.4.1 0 .3 0 .4.1.3.1.5.1.8.2.2 0 .4 0 .5-.2.1-.1.1-.2 0-.3 0-.1-.2-.1-.3-.2-.1 0 0 .1-.1.2h-.2c-.1-.2.2-.1.2-.2s-.1-.2 0-.3c0 0 0-.1-.1-.1s-.8-.2-.9-.2l.2.2c0 .1-.3.1-.3.2-.3.1-.9.1-.8.5.1.1.8.6.8.8zm-24.5-.4c.3 0 .5-.1.8-.2.1-.1.3-.1.4-.1.1 0-.3.4-.3.4-.1.1-.1.3-.2.4 0 .2.1.4.2.5.2.1.3 0 .4 0 .1 0 .5-.1.5-.3 0-.1-.7 0-.8-.1-.1 0 0-.1 0-.2.1-.2.8-.7.8-.9.1-.4-.6-.5-.8-.5-.1 0-.4-.1-.3-.2l.2-.2c-.1 0-.8.2-.9.2l-.1.1c.1.1 0 .2 0 .3 0 .1.3.1.2.2h-.2c-.1 0 0-.2-.1-.2s-.2.1-.3.2v.3c.1.3.3.3.5.3zM5.8 19s-.3 0-.3.1c-.1.1.2.1.3-.1zm28.6 0c.1.2.3.1.3.1 0-.1-.3-.1-.3-.1zm.6.2c-.1 0-.2.1-.2.2s0 .2.1.3c.1.1.2.1.3.1-.1-.3 0-.6-.2-.6zm3.1-.9c-1.3-.4-2.7-.7-4-1.1l-1.2-.3c-.6-.1-1.3-.3-1.9-.4-.1 0-.1 0-.2-.1 0-.1-.1-.1-.2-.2-.2-.1-.4-.1-.6-.2-.1 0-.3-.1-.4-.2-.2 0-.3 0-.5-.2.2.1.5.2.6.1.1-.1.2-.2.1-.3 0-.1-.1-.1-.2-.1-.3-.1-.6-.3-.9-.4l-1.8-.9c-.3-.1-.6-.3-.9-.4-.2-.1-.5 0-.7.1-.2.1-.2.4-.4.4V14c-.1-.1-.3.2-.4.3-.4.2-1 .9-1.2 1.2-.2.2-.2.5-.3.7h.2c.1 0 .1.1.1.1.3.4 1 .1 1.3.3H22.8c0 .1-.3.6-.3.6l-.2.2c-.2.2-.3.4-.5.5-.1 0-.2.1-.2.1.6 0 .7-.6 1-.7-.1.1-.2.2-.3.4-.2.5-.4.3-.6.5v.1c.7 0 .8-.4 1-.4.2 0 .9.3 1.1.4.1 0 .2.1.3.1h.1c.1 0 .1.2.3.1.1-.1.1-.2.1-.3 0-.1-.1-.2-.1-.3 0-.1.1 0 .2-.1 0-.1 0-.2-.1-.2-.1-.1-.3-.3-.3-.5h.1l.8.1s.1.3.2.3c0 0-.1.3-.1.4-.1.2-.2.3-.2.5s.2.4.3.6c.1.2.3.1.5.2.1 0 .2.1.2.1.2.1.5.2.7.3.1 0 .3 0 .4-.1.1-.1-.1-.1-.1-.2s.1-.1.2 0c.1 0 .8.1.9 0v-.1c-.1-.1-.4-.1-.5-.1-.2-.1-.4-.1-.6-.1-.2 0-.2.1-.3.2-.2.1-.6-.1-.7-.3-.1-.2.1-.4.2-.6.1-.1.2-.1.3-.2.1 0 0-.1 0-.2.1-.1.5.1.6 0 .2 0 0-.3.2-.3.1 0 .2.1.3.2.1 0 .2 0 .3.1v.2c0 .1.2.1.3.1h.4c.1 0 .3.1.4.1h.4c.1.1 0 .1.1.4-.1 0-.5-.1-.6 0 .4.4 1.3.6 1.8.7h1c.2 0 .2-.2.4-.2s.3.2.4.3c.1.1.2.1.3.2.2.1.3-.1.5 0s.3.6.5.5c.1 0 .1-.1.1-.1.1-.1 0-.3-.1-.4.1-.1.2.1.2-.1l-.1-.1c-.3-.1-.3-.4-.7-.5-.2 0-.4-.1-.6-.1-.1 0-.2 0-.2-.1h.4c-.6-.1-1.1-.2-1.7-.3l-.1-.2c0-.1.2.1.3-.1 0-.1-.1-.2 0-.3.3 0 .5.1.8.1-1.4-.3-2.8-.6-4.3-1-.3-.1-.6-.1-.9-.2 1.2.2 2.5.5 3.7.6-.7-.1-1.4-.3-2.1-.4-1-.2-2.1-.3-3.1-.5l-2.1-.3c0 .1.1.1.2.1-.1 0-.5 0-.5-.1.1-.1.2-.2.4-.2.3 0 .7.1 1 .1 1.9.2 3.8.5 5.6.8 2 .3 3.9.7 5.9 1.2.3.1 2.4.6 2.5.6.5-.2-.2-.4-.4-.4zM24 17.9h-.2c-.1 0-.1-.1-.1-.2v-.1c.1 0 .2 0 .2.1.1.1.1.2.1.2zm6.7.8c.2 0 .4.1.6.1l.1.1h-.1l-.8-.2-.1-.1c.1.1.2.1.3.1zm-4.7-.9c0-.1 0-.1 0 0 .1-.1.2 0 .2 0l-.2.4c-.1.2 0 .4 0 .6h-.1c-.1-.1-.3-.3-.2-.5l.3-.5zm-1.6-2.4s-.1 0-.1-.1l.1.1 2.4.3.1.1s-1.7-.3-2.5-.4zm2.8-.4c-.4-.1-.9-.2-1.3-.3 0 0-.1 0-.1-.1.2 0 .9.2 1 .2h.2c.1 0 .2.1.2.2zm-14.6 3.6c.1 0 .1-.1.2-.1.1.1.1.3.2.3h.2c.1 0 .1-.1.1-.1 0-.1-.1-.2-.1-.3-.1-.2-.3-.1-.4-.1h-.4s-.1 0-.1.1v.2c.2-.1.3 0 .3 0zm5.5-.6c-.2-.1-.3-.3-.5-.5l-.2-.2s-.3-.5-.3-.6H15.3c.4-.1 1.1.1 1.3-.3 0 0 0-.1.1-.1s.1.1.2 0c-.1-.2-.1-.5-.3-.7-.3-.3-.9-1-1.2-1.2-.2-.1-.4-.4-.4-.3v.1c-.2 0-.2-.3-.4-.4-.2-.1-.5-.2-.7-.1-.3.1-.6.2-.9.4l-1.8.9c-.3.1-.6.3-.9.4-.1 0-.2 0-.2.1s0 .3.1.3c.2.1.5 0 .6-.1-.1.2-.3.2-.5.2-.1 0-.3.1-.4.2-.2.1-.4.1-.6.2-.1 0-.2 0-.2.2 0 .1-.1.1-.2.1-.7.1-1.3.3-1.9.4-.2 0-.6.1-1 .2-1.3.3-2.7.7-4 1.1-.1 0-.8.2-.9.3.1 0 2.2-.5 2.5-.6 1.9-.5 3.9-.8 5.9-1.2 1.9-.3 3.8-.6 5.6-.8.3 0 .7-.1 1-.1.2 0 .2.1.4.2 0 .1-.4.1-.5.1.1 0 .1-.1.2-.1l-2.1.3c-1 .2-2.1.3-3.1.5-.7.1-1.4.3-2.1.4 1.3-.1 2.5-.4 3.7-.6-.3.1-.6.1-.9.2-1.4.3-2.8.6-4.3 1 .3 0 .5-.1.8-.1.1.1 0 .2 0 .3.1.2.2 0 .3.1 0 0 0 .2-.1.2-.6.1-1.1.2-1.7.3h.4c0 .1-.1.1-.2.1-.2 0-.4.1-.6.1-.4.1-.4.4-.7.5 0 0-.1 0-.1.1s.2-.1.2.1c0 .1-.1.2-.1.4 0 .1.1.1.1.1.3.1.4-.4.5-.5.1-.1.3.1.5 0 .1-.1.2-.1.3-.2.3-.2.4-.4.6-.4.1 0 .2.2.4.2h1c.5-.1 1.4-.3 1.8-.7 0-.1-.5 0-.6 0 .1-.2 0-.3.1-.4h.4c.1 0 .3-.1.4-.1h.4c.1 0 .2 0 .3-.1 0-.1-.1-.1 0-.2s.2-.1.3-.1c.1 0 .2-.1.3-.2.1 0 0 .3.2.3.1 0 .5-.1.6 0v.2c.1.1.2.1.3.2.1.1.3.4.2.6-.1.2-.5.4-.7.3-.1-.1-.1-.2-.3-.2-.2.1-.4.1-.6.1-.2 0-.4.1-.5.1 0 0-.1 0 0 .1s.8 0 .9 0h.2c.1.1-.1.1-.1.2.1.1.3.2.4.1.3-.1.5-.2.7-.3.1 0 .2-.1.2-.1.2-.1.4 0 .5-.2.1-.2.3-.4.3-.6 0-.2-.1-.3-.2-.5 0-.1-.1-.3-.1-.4 0 0 .1-.3.2-.3l.8-.1h.1c0 .2-.2.3-.3.5l-.1.2c0 .1.2 0 .2.1s-.2.2-.1.3c0 .1 0 .3.1.3.2.1.2-.1.3-.1h.1c.1 0 .2 0 .3-.1.2-.1.9-.4 1.1-.4.2 0 .3.4 1 .4V18c-.2-.2-.4-.1-.6-.5-.1-.1-.2-.3-.3-.4.4.1.5.8 1 .7.1.3 0 .3-.1.2zm-5.2-3.1c0-.1.1-.1.2-.1h.2c.2-.1.9-.2 1-.2l-.1.1c-.4.1-.8.2-1.3.2zm2.9.5c-.8.1-2.5.4-2.5.4l.1-.1 2.4-.3.1-.1c0 .1-.1.1-.1.1zm-6.1 3.3l-.8.2h-.1s0-.1.1-.1c.2-.1.4-.1.6-.1h.2zm4.5.2c0-.1-.1-.1 0 0 0-.2.1-.5 0-.7l-.2-.4c0-.1.1-.1.1-.1s.1 0 .1.1l.2.5c0 .2-.1.4-.2.6zm2.2-1h-.2v-.2c.1-.1.2-.1.2-.1v.1c.1.1.1.2 0 .2z"/><path class="rst2" d="M24 14.6c.1 0 .1-.1.1-.1-.1-.2-.2-.4-.3-.5.2.2.2.4.2.6z"/><path class="rst1" d="M15.8 21.1l-.4-.5-2.6 1.8.2.3 1.1-.8.2.2-.9.7-.2.2.2.3c0-.1.1-.1.1-.2l.9-.6c.1-.1.2-.2.2-.3h.1c.1 0 .1 0 .2-.1l.8-.6c.2 0 .2-.2.1-.4zm-.3.2l-.9.6-.2-.3.9-.6.2.3zM16.8 22.2c0-.1 0-.2-.1-.2l-.5-.4-2.1 2.4.5.4c.1.1.4.1.5 0l.6-.7c.1-.1.1-.2.1-.3.1 0 .2 0 .2-.1l.6-.7c.2-.2.2-.3.2-.4zm-1.3 1.1l-.7.8-.2-.2.7-.8.2.2zm.2-.3l-.2-.2.7-.8.2.2-.7.8z"/></svg></svg>