<?xml version="1.0" encoding="UTF-8" standalone="no"?>
<!-- Created with Inkscape (http://www.inkscape.org/) -->

<svg
   xmlns:dc="http://purl.org/dc/elements/1.1/"
   xmlns:cc="http://creativecommons.org/ns#"
   xmlns:rdf="http://www.w3.org/1999/02/22-rdf-syntax-ns#"
   xmlns:svg="http://www.w3.org/2000/svg"
   xmlns="http://www.w3.org/2000/svg"
   version="1.1"
   width="300"
   height="300.08594"
   id="svg15783">
  <defs
     id="defs15785">
    <clipPath
       id="clipPath8195">
      <path
         d="m 532.567,482.928 41.126,0 0,41.138 -41.126,0 0,-41.138 z"
         id="path8197" />
    </clipPath>
  </defs>
  <metadata
     id="metadata15788">
    <rdf:RDF>
      <cc:Work
         rdf:about="">
        <dc:format>image/svg+xml</dc:format>
        <dc:type
           rdf:resource="http://purl.org/dc/dcmitype/StillImage" />
        <dc:title></dc:title>
      </cc:Work>
    </rdf:RDF>
  </metadata>
  <g
     transform="translate(112.95226,-180.4172)"
     id="layer1">
    <g
       transform="matrix(7.2946875,0,0,-7.2946875,-3997.8621,4003.3149)"
       id="g8191">
      <g
         clip-path="url(#clipPath8195)"
         id="g8193">
        <g
           transform="translate(572.4612,498.0374)"
           id="g8199">
          <path
             d="M 0,0 -0.003,0 C -0.265,0 -3.166,-0.847 -3.166,-0.847 -3.428,-0.938 -3.731,-1.132 -3.878,-1.335 -4.6,-2.816 -5.364,-4.518 -7.57,-6.742 c 0,0 -0.202,-0.196 -0.117,-0.616 0.074,-0.338 0.53,-2.354 0.53,-2.354 0.051,-0.213 0.284,-0.265 0.463,-0.225 -1.945,-1.628 -4.207,-2.89 -6.679,-3.683 0.324,0.188 0.298,0.535 -0.072,0.858 l -1.349,1.358 c -0.216,0.194 -0.508,0.302 -0.876,0.237 -1.45,-0.369 -2.999,-0.441 -3.786,-0.444 -0.786,-0.004 -2.336,0.075 -3.786,0.444 -0.368,0.065 -0.66,-0.043 -0.876,-0.237 l -1.349,-1.358 c -0.369,-0.323 -0.396,-0.668 -0.074,-0.857 -2.47,0.793 -4.73,2.054 -6.673,3.681 0.178,-0.038 0.408,0.015 0.458,0.226 0,0 0.457,2.016 0.53,2.354 0.086,0.42 -0.116,0.616 -0.116,0.616 -2.206,2.224 -2.971,3.926 -3.692,5.407 -0.147,0.203 -0.451,0.397 -0.712,0.488 0,0 -2.901,0.847 -3.163,0.847 -0.3,0 -0.197,-0.288 -0.197,-0.288 2.439,-8.556 10.312,-14.821 19.651,-14.821 9.339,0 17.212,6.265 19.652,14.821 C 0.197,-0.288 0.299,0 0,0 m -12.72,-5.85 c 0.112,-0.151 0.319,-0.262 0.541,-0.274 l 3.122,-0.07 c 0.299,0 0.659,0.082 1.079,0.57 0,0 1.946,2.095 2.797,4.025 0.6,1.176 0.403,1.6 -0.821,1.599 l -7.332,-0.005 c -0.361,0 -0.683,-0.215 -0.799,-0.508 l -0.696,-1.771 c -0.123,-0.319 -0.041,-0.709 0.134,-0.905 l 1.975,-2.661 z m -12.498,-1.671 1.968,-2.26 c 0.123,-0.141 0.33,-0.364 0.765,-0.467 0.861,-0.139 2.066,-0.293 3.029,-0.286 0.963,-0.007 2.168,0.147 3.029,0.286 0.435,0.103 0.642,0.326 0.765,0.467 l 1.968,2.26 c 0.205,0.238 0.226,0.691 0.064,0.907 l -2.086,2.918 c -0.172,0.238 -0.573,0.389 -0.891,0.393 0,10e-4 -2.849,-0.095 -2.849,-0.095 0,0 -2.849,0.096 -2.849,0.095 -0.318,-0.004 -0.718,-0.155 -0.891,-0.393 l -2.086,-2.918 c -0.162,-0.216 -0.142,-0.669 0.064,-0.907 m -5.716,1.897 c 0.42,-0.488 0.78,-0.57 1.078,-0.57 l 3.123,0.07 c 0.221,0.012 0.429,0.123 0.541,0.274 l 1.975,2.661 c 0.175,0.196 0.257,0.586 0.134,0.905 l -0.696,1.771 c -0.116,0.293 -0.438,0.508 -0.799,0.508 L -32.909,0 c -1.225,0.001 -1.423,-0.423 -0.823,-1.599 0.852,-1.93 2.798,-4.025 2.798,-4.025"
             id="path8201"
             style="fill:#c5281c;fill-opacity:1;fill-rule:nonzero;stroke:none" />
        </g>
        <g
           transform="translate(534.5847,502.0875)"
           id="g8203">
          <path
             d="m 0,0 c 0,-0.818 0.481,-1.666 1.589,-1.666 0.421,0 0.811,0.13 1.093,0.359 0.253,0.207 0.329,0.383 0.39,0.543 L 4.914,-0.955 C 4.853,-1.154 4.784,-1.353 4.609,-1.627 3.974,-2.606 2.736,-2.881 1.551,-2.881 c -0.527,0 -1.047,0.045 -1.544,0.199 -1.107,0.343 -2.025,1.192 -2.025,2.674 0,1.047 0.55,2.935 3.623,2.935 2.621,0 3.034,-1.192 3.21,-1.704 L 3.026,0.902 C 2.95,1.055 2.858,1.261 2.575,1.445 2.285,1.628 1.926,1.689 1.65,1.689 0.78,1.689 0,1.146 0,0"
             id="path8205"
             style="fill:#000000;fill-opacity:1;fill-rule:nonzero;stroke:none" />
        </g>
        <g
           transform="translate(542.6972,503.2873)"
           id="g8207">
          <path
             d="m 0,0 -0.619,-1.826 1.253,0 L 0,0 Z m -1.108,1.498 2.201,0 2.338,-5.396 -2.101,0 -0.291,0.879 -2.063,0 -0.291,-0.879 -2.116,0 2.323,5.396 z"
             id="path8209"
             style="fill:#000000;fill-opacity:1;fill-rule:nonzero;stroke:none" />
        </g>
        <g
           transform="translate(546.588,504.7852)"
           id="g8211">
          <path
             d="M 0,0 1.597,0 3.256,-1.819 C 3.73,-2.331 3.829,-2.453 4.211,-2.95 4.18,-2.209 4.173,-1.949 4.173,-1.223 l 0,1.223 1.903,0 0,-5.395 -1.605,0 -1.98,2.231 C 2.217,-2.843 2.125,-2.728 1.88,-2.422 1.903,-3.355 1.903,-3.561 1.911,-4.249 l 0,-1.146 L 0,-5.395 0,0 Z"
             id="path8213"
             style="fill:#000000;fill-opacity:1;fill-rule:nonzero;stroke:none" />
        </g>
        <g
           transform="translate(556.6045,503.2873)"
           id="g8215">
          <path
             d="m 0,0 -0.619,-1.826 1.253,0 L 0,0 Z m -1.107,1.498 2.2,0 2.339,-5.396 -2.102,0 -0.29,0.879 -2.064,0 -0.291,-0.879 -2.117,0 2.325,5.396 z"
             id="path8217"
             style="fill:#000000;fill-opacity:1;fill-rule:nonzero;stroke:none" />
        </g>
        <g
           transform="translate(562.376,500.6125)"
           id="g8219">
          <path
             d="M 0,0 0.848,0 C 1.506,0 1.88,0.122 2.102,0.321 2.361,0.551 2.537,1.001 2.537,1.46 2.537,1.972 2.331,2.361 2.055,2.583 1.719,2.851 1.26,2.889 0.902,2.889 L 0,2.889 0,0 Z m -1.888,4.173 3.065,0 c 0.558,0 2.124,0.03 2.873,-1.276 C 4.164,2.698 4.425,2.224 4.425,1.422 4.425,1.001 4.348,0.573 4.18,0.191 4.043,-0.122 3.791,-0.558 3.171,-0.879 2.591,-1.185 2.055,-1.223 1.535,-1.223 l -3.423,0 0,5.396 z"
             id="path8221"
             style="fill:#000000;fill-opacity:1;fill-rule:nonzero;stroke:none" />
        </g>
        <g
           transform="translate(570.0104,503.2873)"
           id="g8223">
          <path
             d="m 0,0 -0.618,-1.826 1.253,0 L 0,0 Z m -1.107,1.498 2.2,0 2.339,-5.396 -2.102,0 -0.29,0.879 -2.064,0 -0.29,-0.879 -2.116,0 2.323,5.396 z"
             id="path8225"
             style="fill:#000000;fill-opacity:1;fill-rule:nonzero;stroke:none" />
        </g>
        <g
           transform="translate(552.9928,524.066)"
           id="g8227">
          <path
             d="M 0,0 C -0.074,0 -0.152,-0.047 -0.193,-0.123 L -3.104,-4.704 C -3.205,-4.863 -3.436,-4.95 -3.618,-4.896 l -2.82,1.633 c -0.181,0.054 -0.315,-0.056 -0.297,-0.244 l 1.03,-11.071 c 0.018,-0.189 -0.084,-0.24 -0.226,-0.115 l -6.188,7.281 c -0.141,0.125 -0.304,0.08 -0.361,-0.1 l -0.445,-1.622 c -0.058,-0.18 -0.259,-0.327 -0.448,-0.327 l -4.171,-0.856 c -0.19,0 -0.332,-0.153 -0.318,-0.342 l 0.139,-4.796 c 0.014,-0.188 -0.121,-0.391 -0.3,-0.451 l -1.796,-0.527 c -0.179,-0.06 -0.221,-0.222 -0.094,-0.362 l 0.796,-0.867 c 0.127,-0.14 0.338,-0.253 0.575,-0.253 l 37.084,0 c 0.238,0 0.448,0.113 0.576,0.253 l 0.795,0.867 c 0.128,0.14 0.086,0.303 -0.093,0.362 l -1.797,0.527 c -0.179,0.06 -0.313,0.263 -0.299,0.451 l 0.138,4.796 c 0.014,0.189 -0.128,0.343 -0.318,0.343 l -4.171,0.855 c -0.189,0 -0.39,0.147 -0.448,0.327 l -0.445,1.622 c -0.057,0.18 -0.219,0.225 -0.362,0.1 l -6.187,-7.281 c -0.142,-0.125 -0.243,-0.074 -0.226,0.115 l 1.031,11.071 c 0.017,0.188 -0.117,0.298 -0.297,0.244 L 3.618,-4.895 C 3.437,-4.95 3.206,-4.863 3.105,-4.704 L 0.193,-0.123 C 0.153,-0.047 0.074,0 0,0"
             id="path8229"
             style="fill:#c5281c;fill-opacity:1;fill-rule:nonzero;stroke:none" />
        </g>
        <g
           transform="translate(572.7478,504.9091)"
           id="g8231">
          <path
             d="M 0,0 0.11,0 C 0.186,0 0.227,0.002 0.257,0.021 0.289,0.039 0.303,0.08 0.303,0.113 0.303,0.147 0.289,0.188 0.248,0.206 0.218,0.218 0.2,0.218 0.076,0.218 L 0,0.218 0,0 Z M 0.122,0.411 C 0.211,0.411 0.298,0.408 0.369,0.385 0.503,0.344 0.556,0.223 0.556,0.126 0.556,-0.03 0.438,-0.085 0.372,-0.115 0.436,-0.156 0.466,-0.181 0.489,-0.312 0.512,-0.454 0.526,-0.544 0.578,-0.64 l -0.289,0 C 0.257,-0.576 0.246,-0.505 0.232,-0.413 0.204,-0.216 0.197,-0.204 0.044,-0.2 l -0.044,0 0,-0.44 -0.252,0 0,1.051 0.374,0 z m 0.011,0.208 c -0.42,0 -0.748,-0.335 -0.748,-0.743 0,-0.417 0.335,-0.743 0.744,-0.743 0.419,0 0.741,0.33 0.743,0.741 C 0.874,0.28 0.558,0.619 0.133,0.619 m -0.006,-1.56 c -0.425,0 -0.815,0.333 -0.815,0.817 0,0.47 0.376,0.817 0.817,0.817 0.473,0 0.819,-0.374 0.816,-0.819 C 0.943,-0.581 0.588,-0.941 0.127,-0.941"
             id="path8233"
             style="fill:#000000;fill-opacity:1;fill-rule:nonzero;stroke:none" />
        </g>
      </g>
    </g>
  </g>
</svg>
