<?xml version="1.0" encoding="utf-8"?>
<!-- Generator: Adobe Illustrator 19.1.1, SVG Export Plug-In . SVG Version: 6.00 Build 0)  -->
<svg version="1.1" id="D98" xmlns="http://www.w3.org/2000/svg" xmlns:xlink="http://www.w3.org/1999/xlink" x="0px" y="0px"
	 width="316" height="316" 
viewBox="-234 326.3 141.7 141.7" style="enable-background:new -234 326.3 141.7 141.7;" xml:space="preserve">
<style type="text/css">
	.st0{fill:#FFFFFF;}
	.st1{fill:#004F9F;}
</style>
<circle class="st0" cx="-163.1" cy="397.1" r="70.6"/>
<path class="st1" d="M-163.1,468c-39.1,0-70.9-31.8-70.9-70.9s31.8-70.9,70.9-70.9c39.1,0,70.9,31.8,70.9,70.9S-124.1,468-163.1,468
	z M-163.1,326.8c-38.8,0-70.4,31.6-70.4,70.4s31.6,70.4,70.4,70.4c38.8,0,70.4-31.6,70.4-70.4S-124.3,326.8-163.1,326.8z"/>
<path class="st1" d="M-163.1,397.1"/>
<path class="st1" d="M-163.1,351.5c-25.4,0-46,20.6-46,46c0,25.4,20.6,46,46,46s46-20.6,46-46C-117.2,372-137.7,351.5-163.1,351.5z"
	/>
<path class="st1" d="M-163.1,464.8c-37.2,0-67.4-30.2-67.4-67.4c0-37.2,30.2-67.4,67.4-67.4s67.4,30.2,67.4,67.4
	C-95.7,434.6-126,464.8-163.1,464.8z M-163.1,332.5c-35.8,0-64.9,29.1-64.9,64.9s29.1,64.9,64.9,64.9s64.9-29.1,64.9-64.9
	S-127.4,332.5-163.1,332.5z"/>
<path class="st1" d="M-163.2,397.3"/>
<path class="st1" d="M-163.1,397.3"/>
<g>
	<path class="st1" d="M-213.9,416.8l-2.6,0.8c-2.5,0.7-4.5-0.4-5.4-3.3l-1-3.5c-0.1-0.5,0-0.7,0.4-0.8l9.5-2.8
		c0.5-0.1,0.7,0,0.8,0.4l1,3.5C-210.3,414-211.4,416.1-213.9,416.8z M-213.4,411.8l-0.5-1.7l-6.2,1.8l0.5,1.7
		c0.4,1.3,1.2,1.8,2.4,1.5l2.6-0.8C-213.4,414-213,413.1-213.4,411.8z"/>
	<path class="st1" d="M-215.6,428.9l-0.5-1.1c-0.4-0.7-0.3-1,0-1.3l1.1-1.1l-1.7-3.5l-1.5,0.2c-0.5,0.1-0.7-0.1-1-0.8l-0.5-1
		c-0.2-0.4-0.1-0.6,0.4-0.7l10.6-1.1c0.5-0.1,0.6,0.1,0.8,0.5l0.5,1.1c0.2,0.4,0.2,0.6-0.1,0.9l-7.3,7.9
		C-215.2,429.4-215.4,429.3-215.6,428.9z M-209.9,420.8l-0.1-0.1c0,0-1,0.5-2.2,0.7l-2.6,0.4l1.1,2.3l1.8-1.8
		C-210.9,421.3-209.9,420.8-209.9,420.8z"/>
	<path class="st1" d="M-203.2,433.2c-1.3,0.9-2.5,1.1-3.7,0.5c-0.1,0.2-0.2,0.4-0.2,0.6l-1.5,3.2c-0.2,0.4-0.5,0.5-0.7,0.1l-0.8-1
		c-0.5-0.6-0.6-0.9-0.3-1.4l1.2-2.4c0.4-0.7,0.4-1.1-0.2-1.8l-0.4-0.5l-2.6,2c-0.4,0.3-0.6,0.3-0.9-0.1l-0.8-1
		c-0.3-0.4-0.3-0.6,0.1-0.9l7.9-5.9c0.4-0.3,0.6-0.3,0.9,0.1l2.6,3.5C-201.2,429.8-201.4,431.8-203.2,433.2z M-204.5,429.2l-1.3-1.7
		l-2.1,1.6l1.3,1.7c0.5,0.7,1.2,0.8,1.8,0.3C-204.1,430.6-204,429.9-204.5,429.2z"/>
	<path class="st1" d="M-191.7,439.4l-6.4,7.5c-0.3,0.4-0.5,0.4-0.9,0.1l-0.9-0.8c-0.4-0.3-0.4-0.5-0.1-0.9l2.3-2.7
		c0.6-0.7,1.4-1.4,2.7-2.4l-0.1-0.1c-0.9,0.6-1.9,1.1-2.8,1.4l-2.1,0.8c-0.3,0.1-0.5,0.1-0.8-0.1l-0.6-0.5c-0.3-0.3-0.3-0.4-0.3-0.8
		l0.4-2.3c0.2-1,0.5-1.9,1-3l-0.1-0.1c-0.8,1.5-1.3,2.2-1.9,3l-2.3,2.7c-0.3,0.4-0.5,0.4-0.9,0.1l-0.9-0.7c-0.4-0.3-0.4-0.5-0.1-0.9
		l6.4-7.5c0.3-0.4,0.5-0.4,0.9-0.1l0.8,0.7c0.4,0.3,0.5,0.5,0.4,0.9l-1.3,5.9l5.6-2.2c0.4-0.2,0.6-0.1,1,0.2l0.9,0.7
		C-191.4,438.8-191.4,439-191.7,439.4z"/>
	<path class="st1" d="M-186.4,441.3c2,1.1,2.7,2.3,2.6,4c0,0.5-0.2,0.6-0.7,0.6l-1.3-0.1c-0.4,0-0.6-0.2-0.6-0.7
		c0-0.7-0.3-1.3-1.2-1.8c-1.1-0.6-1.8-0.6-2.1,0.1c-0.4,0.8,0.5,1.4,1.5,2.1c1.5,1.1,3.3,2.5,2,5c-1,1.9-3.3,2.4-5.8,1
		c-2.2-1.1-2.9-2.6-2.7-4.3c0.1-0.5,0.3-0.6,0.7-0.5l1.2,0.2c0.5,0.1,0.6,0.2,0.6,0.7c0,0.7,0.4,1.4,1.3,1.9c1.2,0.6,2,0.7,2.4-0.1
		c0.4-0.7-0.4-1.3-1.3-2c-1.6-1.1-3.6-2.5-2.2-5.1C-191.1,440.5-189,439.9-186.4,441.3z"/>
	<path class="st1" d="M-174.2,446.9l-0.3,1c-0.1,0.4-0.3,0.6-0.8,0.4l-2.3-0.7l-2.4,7.8c-0.1,0.5-0.3,0.6-0.8,0.4l-1.2-0.4
		c-0.4-0.1-0.6-0.3-0.4-0.8l2.4-7.8l-2.4-0.7c-0.5-0.1-0.6-0.3-0.4-0.8l0.3-1c0.1-0.5,0.3-0.6,0.8-0.4l7.1,2.2
		C-174.1,446.2-174,446.4-174.2,446.9z"/>
	<path class="st1" d="M-167.6,458.5l-1.2-0.2c-0.8-0.1-1-0.3-1.1-0.8l-0.3-1.5l-3.8-0.6l-0.7,1.4c-0.2,0.4-0.4,0.5-1.2,0.4l-1.1-0.2
		c-0.5-0.1-0.5-0.3-0.3-0.7l5.3-9.3c0.2-0.4,0.4-0.5,0.9-0.4l1.2,0.2c0.4,0.1,0.6,0.2,0.7,0.6l2.1,10.5
		C-167,458.4-167.2,458.5-167.6,458.5z M-170.9,449l-0.2,0c0,0-0.2,1.1-0.7,2.1l-1.2,2.3l2.5,0.4l-0.4-2.5
		C-171,450.1-170.9,449-170.9,449z"/>
	<path class="st1" d="M-157,451.4l0.1,2.7c0.1,2.6-1.5,4.3-4.5,4.3l-3.7,0.1c-0.5,0-0.6-0.1-0.7-0.6l-0.2-9.9c0-0.5,0.2-0.6,0.6-0.7
		l3.7-0.1C-158.8,447.2-157.1,448.7-157,451.4z M-161.7,449.6l-1.7,0l0.2,6.5l1.7,0c1.4,0,2.1-0.7,2.1-1.9l-0.1-2.7
		C-159.6,450.2-160.4,449.5-161.7,449.6z"/>
	<path class="st1" d="M-148,445.8l0.2,1c0.1,0.5,0,0.6-0.5,0.8l-2.4,0.5l1.8,8c0.1,0.5,0,0.7-0.5,0.8l-1.2,0.3
		c-0.5,0.1-0.6,0-0.8-0.5l-1.8-8l-2.4,0.5c-0.5,0.1-0.7,0-0.8-0.5l-0.2-1c-0.1-0.5,0-0.7,0.5-0.8l7.3-1.6
		C-148.3,445.2-148.1,445.3-148,445.8z"/>
	<path class="st1" d="M-139.2,441.9l4.3,8.9c0.2,0.4,0.1,0.7-0.3,0.9l-1.1,0.5c-0.4,0.2-0.7,0.1-0.9-0.3l-3.2-6.7l-1,1.4
		c-0.3,0.5-0.6,0.5-1,0.2l-0.9-0.7c-0.4-0.3-0.4-0.5-0.1-0.9l1.9-2.7c0.2-0.3,0.4-0.5,0.7-0.6l0.8-0.4
		C-139.6,441.4-139.4,441.5-139.2,441.9z"/>
	<path class="st1" d="M-135.2,438.4c2.2-1.5,4-1.4,5.1,0.3c0.7,1,0.5,2,0.3,2.7c1.1-0.1,2.1,0.1,2.9,1.3c1.1,1.7,0.9,3.5-1.8,5.3
		c-2.6,1.8-4.3,1.4-5.4-0.1c-0.8-1.2-0.5-2.3-0.1-3.1c-0.9,0-1.8-0.4-2.5-1.4C-137.9,441.7-137.3,439.8-135.2,438.4z M-134,440.2
		c-0.8,0.6-1,1.2-0.6,1.8c0.4,0.6,1,0.5,1.9,0.2l0.6-0.2c0.3-0.5,0.4-1.1,0-1.7C-132.5,439.7-133.2,439.7-134,440.2z M-132.1,444.4
		c-0.3,0.5-0.5,1.1,0,1.9c0.4,0.6,1.1,0.7,2.2,0c1.1-0.7,1.2-1.4,0.8-2C-129.7,443.4-130.7,443.9-132.1,444.4z"/>
	<path class="st1" d="M-123.3,438.1c-2.1,2-3.9,2.1-5.6,0.4c-1.6-1.6-1.4-3.8,0.6-5.7c2-2,4.2-1.9,6.1-0.1l2.3,2.3
		c1.8,1.9,1.8,4.1-0.2,6.1c-1.6,1.6-3.2,1.9-4.8,1.2c-0.4-0.2-0.5-0.4-0.3-0.9l0.5-1.1c0.2-0.4,0.4-0.5,0.9-0.3
		c0.7,0.3,1.3,0.1,2-0.6c0.9-0.9,0.9-1.7,0-2.6l-0.2-0.2C-122.3,437-122.6,437.5-123.3,438.1z M-126.7,434.5c-0.9,0.9-1,1.6-0.4,2.3
		c0.6,0.6,1.3,0.6,2.3-0.3c0.7-0.7,1-1.2,1.1-1.5l-0.5-0.5C-125,433.6-125.8,433.6-126.7,434.5z"/>
	<path class="st1" d="M-122.5,426c1.5-2.2,3.3-2.7,4.9-1.5c1,0.7,1.2,1.7,1.2,2.4c1-0.5,2-0.6,3.2,0.2c1.6,1.2,2.1,3,0.2,5.6
		c-1.8,2.6-3.6,2.9-5.1,1.8c-1.1-0.8-1.3-2-1.2-2.9c-0.9,0.3-1.8,0.3-2.9-0.5C-123.8,430-123.9,428-122.5,426z M-120.7,427.2
		c-0.6,0.8-0.5,1.4,0.1,1.9c0.6,0.4,1.2,0.1,1.9-0.4l0.5-0.4c0.1-0.5,0-1.2-0.6-1.6C-119.5,426.2-120.1,426.4-120.7,427.2z
		 M-117.4,430.5c-0.1,0.5-0.1,1.2,0.6,1.8c0.6,0.4,1.3,0.3,2.1-0.8c0.8-1.1,0.6-1.7,0-2.1C-115.6,428.7-116.3,429.5-117.4,430.5z"/>
	<path class="st1" d="M-113.7,419.3c0.9-2,2.5-2.4,3.8-1.8l0.7,0.3c0.4,0.2,0.5,0.4,0.3,0.9l-1.5,3.3l0.3,0.1c0.7,0.3,1.1,0,1.4-0.7
		c0.3-0.6,0.2-1,0-1.4c-0.2-0.3-0.2-0.5,0.2-0.8l0.6-0.5c0.3-0.3,0.6-0.2,0.8,0.1c0.5,0.8,0.6,1.8-0.1,3.1c-0.9,2.1-2.4,2.4-4,1.7
		l-1.3-0.6C-114.1,422.6-114.6,421.2-113.7,419.3z M-112.3,420c-0.3,0.7-0.2,1.2,0.4,1.5l0.2,0.1l1-2.1l-0.2-0.1
		C-111.5,419-112,419.3-112.3,420z"/>
	<path class="st1" d="M-105.8,416.4l0.2,0.1c0.5,0.2,0.6,0.4,0.4,0.8l0,0.1c-0.2,0.5-0.4,0.6-0.8,0.4l-0.2-0.1
		c-0.5-0.2-0.6-0.4-0.4-0.8l0-0.1C-106.5,416.3-106.3,416.2-105.8,416.4z"/>
	<path class="st1" d="M-111.6,407.3l7.3,5.1c0.3,0.2,0.4,0.4,0.3,0.8l-0.3,1c-0.1,0.4-0.2,0.5-0.6,0.5l-8.9,0.7
		c-0.4,0-0.5-0.1-0.4-0.5l0.3-1c0.2-0.6,0.3-0.8,0.7-0.8l5.2-0.2c0.7,0,1.6,0.1,1.6,0.1l0-0.1c0,0-0.8-0.3-1.4-0.7l-4.3-2.8
		c-0.3-0.2-0.4-0.4-0.2-1.1l0.3-0.9C-112.1,407.1-112,407.1-111.6,407.3z"/>
	<path class="st1" d="M-104,409.3l0.2,0c0.5,0.1,0.6,0.3,0.5,0.8l0,0.1c-0.1,0.5-0.3,0.6-0.8,0.5l-0.2,0c-0.5-0.1-0.6-0.3-0.5-0.8
		l0-0.1C-104.6,409.3-104.4,409.2-104,409.3z"/>
</g>
<g>
	<path class="st1" d="M-211.2,359.6c1.4-1.8,2.8-2.3,4.4-1.9c0.5,0.1,0.6,0.3,0.5,0.8l-0.3,1.3c-0.1,0.4-0.3,0.5-0.8,0.4
		c-0.7-0.1-1.4,0-2,0.8c-0.8,1-0.9,1.7-0.3,2.1c0.7,0.5,1.5-0.2,2.4-1.1c1.3-1.3,3.1-2.8,5.2-1.1c1.7,1.3,1.7,3.6-0.1,5.9
		c-1.5,1.9-3.1,2.4-4.7,1.9c-0.5-0.2-0.5-0.4-0.4-0.8l0.4-1.2c0.1-0.5,0.3-0.6,0.8-0.4c0.7,0.2,1.5-0.1,2.1-0.9
		c0.8-1.1,1-1.9,0.3-2.4c-0.6-0.5-1.4,0.1-2.2,1c-1.3,1.3-3.1,3.1-5.4,1.3C-212.8,364.1-213,361.9-211.2,359.6z"/>
	<path class="st1" d="M-197,351.2c1.5,1.8,1.3,3.8-0.4,5.4l-1.7,1.5l2,2.3c0.3,0.4,0.3,0.6-0.1,0.9l-1,0.8c-0.4,0.3-0.6,0.3-0.9-0.1
		l-6.5-7.5c-0.3-0.4-0.3-0.6,0.1-0.9l3.2-2.8C-200.6,349.3-198.6,349.4-197,351.2z M-199,352.9c-0.6-0.7-1.4-0.7-2.1-0.1l-1.5,1.3
		l1.9,2.2l1.5-1.3C-198.5,354.3-198.4,353.6-199,352.9z"/>
	<path class="st1" d="M-193.7,344.4c2.6-1.5,4.8-0.9,6.1,1.3l1.6,2.8c1.3,2.3,0.7,4.5-1.9,6c-2.6,1.5-4.8,0.9-6.1-1.3l-1.6-2.8
		C-196.9,348.2-196.3,345.9-193.7,344.4z M-192.5,346.5c-1.1,0.7-1.5,1.6-0.9,2.6l1.6,2.8c0.6,1.1,1.6,1.2,2.7,0.6
		c1.2-0.7,1.5-1.6,0.9-2.6l-1.6-2.8C-190.4,345.9-191.4,345.8-192.5,346.5z"/>
	<path class="st1" d="M-177,341.6c0.5,1.5,0.2,2.8-0.7,3.6c0.2,0.1,0.3,0.3,0.5,0.4l2.5,2.4c0.3,0.3,0.3,0.6-0.1,0.7l-1.2,0.4
		c-0.8,0.3-1.1,0.2-1.4-0.2l-1.9-1.9c-0.6-0.6-0.9-0.7-1.8-0.4l-0.6,0.2l1.1,3.1c0.2,0.5,0,0.7-0.4,0.8l-1.2,0.4
		c-0.4,0.1-0.7,0.1-0.8-0.4l-3.1-9.4c-0.2-0.5,0-0.7,0.4-0.8l4.1-1.4C-179.6,338.7-177.8,339.5-177,341.6z M-181.2,341.7l-2.1,0.7
		l0.8,2.4l2.1-0.7c0.8-0.3,1.1-0.9,0.8-1.6C-179.8,341.7-180.4,341.4-181.2,341.7z"/>
	<path class="st1" d="M-167.6,337.1l0.2,1c0.1,0.5-0.1,0.6-0.5,0.7l-2.4,0.4l1.2,8.1c0.1,0.5-0.1,0.7-0.5,0.7l-1.3,0.2
		c-0.5,0.1-0.6-0.1-0.7-0.5l-1.2-8.1l-2.4,0.4c-0.5,0.1-0.7-0.1-0.7-0.5l-0.2-1c-0.1-0.5,0.1-0.7,0.5-0.7l7.4-1.1
		C-167.8,336.5-167.7,336.7-167.6,337.1z"/>
	<path class="st1" d="M-156.5,337.3l-3.9,9.9c-0.2,0.4-0.4,0.5-0.8,0.5l-1.3,0c-0.4,0-0.6-0.1-0.8-0.5l-3.3-10.1
		c-0.1-0.4,0-0.6,0.4-0.6l1.2,0c0.8,0,1,0.2,1.1,0.6l1.7,5.9c0.2,0.9,0.3,1.9,0.3,1.9l0.1,0c0,0,0.2-1,0.4-1.9l2-5.8
		c0.2-0.5,0.4-0.6,1.2-0.6l1.1,0C-156.4,336.6-156.3,336.9-156.5,337.3z"/>
	<path class="st1" d="M-147.2,339.1l-0.2,1c-0.1,0.5-0.3,0.6-0.8,0.5l-4.3-0.9l-0.4,2l3.5,0.7c0.5,0.1,0.6,0.3,0.5,0.7l-0.2,1
		c-0.1,0.5-0.3,0.6-0.8,0.5l-3.5-0.7l-0.4,2.1l4.5,0.9c0.5,0.1,0.6,0.3,0.5,0.8l-0.2,1c-0.1,0.5-0.3,0.6-0.8,0.5l-6.4-1.3
		c-0.5-0.1-0.6-0.3-0.5-0.8l2-9.7c0.1-0.5,0.3-0.6,0.8-0.5l6.2,1.3C-147.2,338.5-147.1,338.7-147.2,339.1z"/>
	<path class="st1" d="M-136.7,346.4c-0.6,1.4-1.7,2.2-2.9,2.3c0,0.2,0.1,0.4,0.1,0.6l0.3,3.5c0,0.4-0.1,0.7-0.6,0.5l-1.2-0.5
		c-0.7-0.3-1-0.5-1-1.1l-0.1-2.7c0-0.8-0.2-1.1-1.1-1.5l-0.6-0.3l-1.3,3.1c-0.2,0.4-0.4,0.5-0.8,0.3l-1.2-0.5
		c-0.4-0.2-0.5-0.4-0.3-0.8l3.8-9.1c0.2-0.4,0.4-0.5,0.8-0.3l4,1.7C-136.6,342.5-135.8,344.3-136.7,346.4z M-139.8,343.6l-2-0.9
		l-1,2.4l2,0.9c0.8,0.3,1.4,0.1,1.7-0.7C-138.8,344.6-139.1,344-139.8,343.6z"/>
	<path class="st1" d="M-126.2,349.6l-0.6,0.9c-0.3,0.4-0.5,0.4-0.9,0.2l-3.7-2.5l-1.1,1.7l3,2c0.4,0.3,0.4,0.5,0.2,0.9l-0.6,0.9
		c-0.3,0.4-0.5,0.4-0.9,0.2l-3-2l-1.2,1.8l3.8,2.5c0.4,0.3,0.4,0.5,0.2,0.9l-0.6,0.9c-0.3,0.4-0.5,0.4-0.9,0.2l-5.4-3.6
		c-0.4-0.3-0.4-0.5-0.2-0.9l5.5-8.2c0.3-0.4,0.5-0.4,0.9-0.2l5.2,3.5C-126,349-126,349.2-126.2,349.6z"/>
	<path class="st1" d="M-122.9,351.7l1,0.9c0.4,0.3,0.4,0.5,0,0.9l-6.6,7.4c-0.3,0.4-0.5,0.4-0.9,0l-1-0.9c-0.4-0.3-0.4-0.5,0-0.9
		l6.6-7.4C-123.4,351.4-123.2,351.4-122.9,351.7z"/>
	<path class="st1" d="M-113.8,362.5l-7.6,6.3c-0.4,0.3-0.6,0.3-0.9-0.1l-0.8-1c-0.2-0.2-0.2-0.4-0.2-0.7l1.7-5.4
		c0.4-1.3,1.2-2.5,1.4-2.9l-0.1-0.1c-0.3,0.4-1.2,1.5-2.4,2.6l-2.9,2.4c-0.4,0.3-0.6,0.3-0.9-0.1l-0.7-0.9c-0.3-0.4-0.3-0.6,0.1-0.9
		l7.6-6.3c0.4-0.3,0.6-0.3,0.9,0.1l0.8,1c0.2,0.3,0.2,0.4,0.2,0.7l-1.7,5.5c-0.4,1.4-1.2,2.4-1.4,2.8l0.1,0.1
		c0.3-0.4,1.1-1.5,2.4-2.6l2.9-2.4c0.4-0.3,0.6-0.3,0.9,0.1l0.7,0.9C-113.4,362-113.4,362.2-113.8,362.5z"/>
</g>
<path class="st1" d="M-217.6,384.6c0.2,0.4,0.7,1,1.3,1.6c0.6,0.6,1.2,1.1,1.6,1.3l0,0c-0.4,0.2-1,0.7-1.6,1.3
	c-0.6,0.6-1.1,1.2-1.3,1.6l0,0c-0.2-0.4-0.7-1-1.3-1.6c-0.6-0.6-1.2-1.1-1.6-1.3l0,0c0.4-0.2,1-0.7,1.6-1.3
	C-218.3,385.6-217.8,385-217.6,384.6L-217.6,384.6z"/>
<path class="st1" d="M-108.6,384.6c0.2,0.4,0.7,1,1.3,1.6c0.6,0.6,1.2,1.1,1.6,1.3l0,0c-0.4,0.2-1,0.7-1.6,1.3
	c-0.6,0.6-1.1,1.2-1.3,1.6l0,0c-0.2-0.4-0.7-1-1.3-1.6c-0.6-0.6-1.2-1.1-1.6-1.3l0,0c0.4-0.2,1-0.7,1.6-1.3S-108.8,385-108.6,384.6
	L-108.6,384.6z"/>
<path class="st0" d="M-163.1,358.7c-0.3,0-0.8,0.3-2.3,2.8c-2.5,4.4-9.6,10.7-9.6,17.1c0,5.8,1.6,8.7,5.1,16.6
	c1.8,4,2.4,11.8,2.5,12.6c0.1,0.4,0.3,1.6-0.7,1.6c-0.8,0-0.9-0.6-1.2-1.8c-0.3-1.4-0.9-7-4.2-11.6c-3.3-4.6-9.4-9.7-17.3-8.7
	c-7.9,1-11.6,6.7-10.9,12.2c0.7,5.5,4.6,6.8,7.1,8.1c2.4,1.2,2.6,3.1,2.7,4c0.1,0.9,0.5,0.9,1.5,0.3c0.8-0.5,1.7-2,1.5-4.1
	c-0.1-1.4-0.9-1.8-0.9-5.7c0-2.6,2.7-4.1,5.4-4.1c1.6,0,7.2,2.3,10.4,10.1c0.3,0.7,0.3,1.1-0.3,1.2c-0.6,0.1-2.3,0.3-2.3,2.8
	c0,2.5,0.7,3.4,2.1,3.4c1.5,0,0.8,1,0.6,1.6c-0.3,0.5-1.2,2.6-5.2,2.6s-5.7,3-5.7,5.3s0.8,1.2,1.7,1c1.6-0.4,2.6,0.3,4.2,0.6
	c1.6,0.3,5.5-0.7,7.2-2.7s3.1-5.2,3.1-7s0.5-2,1-2s0.9,0.2,0.9,1.9c0,5.8-2.6,7.6-2.6,11.1c0,2.7,1.4,4.1,3,5.8
	c1.3,1.4,2.6,2.8,3.5,2.8l0,0c0.9,0,2.2-1.4,3.5-2.8c1.6-1.8,3-3.1,3-5.8c0-3.4-2.6-5.3-2.6-11.1c0-1.6,0.5-1.9,0.9-1.9s1,0.2,1,2
	s1.4,5,3.1,7s5.6,3,7.2,2.7c1.6-0.3,2.6-1,4.2-0.6c0.9,0.2,1.7,1.3,1.7-1s-1.7-5.3-5.7-5.3s-5-2.1-5.2-2.6c-0.3-0.6-0.9-1.6,0.6-1.6
	c1.5,0,2.1-0.9,2.1-3.4c0-2.5-1.7-2.7-2.3-2.8c-0.6-0.1-0.5-0.5-0.3-1.2c3.1-7.8,8.7-10.1,10.4-10.1c2.6,0,5.4,1.5,5.4,4.1
	c0,3.9-0.8,4.3-0.9,5.7c-0.2,2.1,0.7,3.6,1.5,4.1c1,0.6,1.4,0.7,1.5-0.3s0.3-2.8,2.7-4c2.4-1.2,6.4-2.6,7.1-8.1
	c0.7-5.5-3-11.2-10.9-12.2s-14.1,4.1-17.3,8.7c-3.3,4.6-3.9,10.2-4.2,11.6c-0.3,1.3-0.4,1.8-1.2,1.8c-1,0-0.8-1.2-0.7-1.6
	c0.1-0.8,0.7-8.6,2.5-12.6c3.5-7.9,5.1-10.8,5.1-16.6c0-6.4-7.1-12.7-9.6-17.1C-162.3,358.9-162.9,358.7-163.1,358.7z"/>
</svg>
