<?xml version="1.0" encoding="UTF-8" standalone="no"?>
<svg
   xmlns:dc="http://purl.org/dc/elements/1.1/"
   xmlns:cc="http://creativecommons.org/ns#"
   xmlns:rdf="http://www.w3.org/1999/02/22-rdf-syntax-ns#"
   xmlns:svg="http://www.w3.org/2000/svg"
   xmlns="http://www.w3.org/2000/svg"
   version="1.1"
   id="svg5397"
   viewBox="0 0 361.41731 361.41732"
   height="316"
   width="316">
  <defs
     id="defs5399" />
  <metadata
     id="metadata5402">
    <rdf:RDF>
      <cc:Work
         rdf:about="">
        <dc:format>image/svg+xml</dc:format>
        <dc:type
           rdf:resource="http://purl.org/dc/dcmitype/StillImage" />
        <dc:title></dc:title>
      </cc:Work>
    </rdf:RDF>
  </metadata>
  <g
     transform="translate(-182.86237,-205.22537)"
     id="layer1">
    <g
       transform="matrix(1.0510134,0,0,1.0510134,-5.7851392,-32.449697)"
       id="g5955">
      <path
         d="m 182.86236,398.07649 c 0,-93.09974 75.46646,-168.56621 168.56625,-168.56621 93.0997,0 168.5662,75.46647 168.5662,168.56621 0,93.09975 -75.4665,168.56621 -168.5662,168.56621 -93.09979,0 -168.56625,-75.46646 -168.56625,-168.56621 m 17.21662,0 c 0,83.59144 67.75815,151.34959 151.34963,151.34959 83.5914,0 151.3495,-67.75815 151.3495,-151.34959 0,-83.59144 -67.7581,-151.34959 -151.3495,-151.34959 -83.59148,0 -151.34963,67.75815 -151.34963,151.34959"
         style="fill:#009932;fill-opacity:1;fill-rule:nonzero;stroke:none"
         id="path4440" />
      <g
         id="g4442"
         transform="matrix(8.3333108,0,0,-8.3333108,325.32031,384.30157)">
        <path
           d="m 0,0 c 0.208,0.276 0.391,0.55 -1.052,1.904 -1.771,1.663 -4.747,4.654 -2.841,8.225 1.294,2.424 3.724,1.942 4.742,1.419 0.704,-0.361 2.388,-1.464 4.01,-0.273 1.81,1.328 4.494,0.333 5.078,-1.26 C 10.507,8.461 10.679,6.031 8.365,3.622 6.051,1.214 4.749,0.253 5.868,-0.205 c 0.425,-0.174 0.78,0.405 1.348,1.09 0.954,1.151 2.62,2.303 4.798,3.312 2.31,1.071 6.406,-0.336 4.69,-5.388 -0.537,-1.581 -0.622,-3.349 -0.054,-4.422 0.806,-1.522 0.645,-4.153 -1.342,-4.959 -1.953,-0.792 -4.264,-0.583 -5.66,0.423 C 8.251,-9.143 6.093,-6.045 5.706,-5.543 5.318,-5.042 4.902,-4.264 3.919,-4.056 4.104,-5.566 3.737,-7.721 3.645,-8.271 3.554,-8.821 2.91,-10.654 2.2,-12.167 1.491,-13.68 1.468,-13.703 0.459,-13.863 c -1.009,-0.159 -3.04,-0.723 -3.392,-0.869 -0.253,-0.105 -0.963,0.088 -1.145,0.388 -0.183,0.299 0.159,0.547 0.436,0.686 0.276,0.14 5.5,3.327 5.523,9.329 0,0.937 -0.504,0.595 -0.918,0.205 -0.413,-0.391 -1.308,-1.08 -3.964,-4.355 -2.656,-3.275 -6.396,-2.182 -6.852,-2.015 -1.707,0.628 -2.647,3.216 -1.832,4.973 0.773,1.668 1.214,2.777 0.687,4.102 -0.274,0.687 -1.12,2.474 -0.274,4.078 0.846,1.605 3.12,2.807 6.116,1.123 C -3.32,2.75 -2.289,1.425 -1.67,0.758 -1.052,0.091 -0.502,-0.505 0,0"
           style="fill:#009932;fill-opacity:1;fill-rule:nonzero;stroke:none"
           id="path4444" />
      </g>
    </g>
  </g>
</svg>
