<?xml version="1.0" encoding="UTF-8" standalone="no"?>
<!-- Created with Inkscape (http://www.inkscape.org/) -->

<svg
   xmlns:dc="http://purl.org/dc/elements/1.1/"
   xmlns:cc="http://creativecommons.org/ns#"
   xmlns:rdf="http://www.w3.org/1999/02/22-rdf-syntax-ns#"
   xmlns:svg="http://www.w3.org/2000/svg"
   xmlns="http://www.w3.org/2000/svg"
   xmlns:sodipodi="http://sodipodi.sourceforge.net/DTD/sodipodi-0.dtd"
   xmlns:inkscape="http://www.inkscape.org/namespaces/inkscape"
   version="1.0"
   width="300"
   height="300"
   id="svg3289"
   inkscape:version="0.48.2 r9819"
   sodipodi:docname="Holstein_Kiel_Logo.svg">
  <metadata
     id="metadata50">
    <rdf:RDF>
      <cc:Work
         rdf:about="">
        <dc:format>image/svg+xml</dc:format>
        <dc:type
           rdf:resource="http://purl.org/dc/dcmitype/StillImage" />
      </cc:Work>
    </rdf:RDF>
  </metadata>
  <sodipodi:namedview
     pagecolor="#ffffff"
     bordercolor="#666666"
     borderopacity="1"
     objecttolerance="10"
     gridtolerance="10"
     guidetolerance="10"
     inkscape:pageopacity="0"
     inkscape:pageshadow="2"
     inkscape:window-width="640"
     inkscape:window-height="480"
     id="namedview48"
     showgrid="false"
     fit-margin-top="0"
     fit-margin-left="0"
     fit-margin-right="0"
     fit-margin-bottom="0"
     inkscape:zoom="0.78666667"
     inkscape:cx="145"
     inkscape:cy="145.00001"
     inkscape:window-x="0"
     inkscape:window-y="0"
     inkscape:window-maximized="0"
     inkscape:current-layer="svg3289" />
  <defs
     id="defs3" />
  <g
     transform="matrix(1.0344828,0,0,1.0344828,-13.642576,-26.693419)"
     id="layer1">
    <g
       transform="translate(5.0000009,5.0000025)"
       id="g3337">
      <path
         d="m 153.15935,310.80363 c 80.10974,0 145.02847,-64.93129 145.02847,-144.99997 0,-80.068686 -64.91873,-145.000025 -145.02847,-145.000025 -80.05278,0 -144.9715282,64.931339 -144.9715282,145.000025 0,80.06868 64.9187482,144.99997 144.9715282,144.99997"
         style="fill:#0f5787;fill-rule:nonzero;stroke:none"
         id="path336"
         inkscape:connector-curvature="0" />
      <path
         d="m 21.786136,165.80366 c 0,-72.443127 58.9444,-131.39916 131.373214,-131.39916 72.48577,0 131.43019,58.956033 131.43019,131.39916 0,72.44307 -58.94442,131.39911 -131.43019,131.39911 -72.428814,0 -131.373214,-58.95604 -131.373214,-131.39911 z m -3.868702,0 c 0,74.60554 60.650965,135.32571 135.241916,135.32571 74.64791,0 135.29887,-60.72017 135.29887,-135.32571 0,-74.605599 -60.65096,-135.32577 -135.29887,-135.32577 -74.590951,0 -135.241916,60.720171 -135.241916,135.32577"
         style="fill:#ffffff;fill-rule:nonzero;stroke:none"
         id="path338"
         inkscape:connector-curvature="0" />
      <path
         d="m 83.8029,165.80366 c 0,-38.24178 31.12228,-69.370113 69.35645,-69.370113 38.29114,0 69.41341,31.128333 69.41341,69.370113 0,38.24173 -31.12227,69.37006 -69.41341,69.37006 -38.23417,0 -69.35645,-31.12833 -69.35645,-69.37006 z m -3.925647,0 c 0,40.4042 32.885787,73.29667 73.282097,73.29667 40.45327,0 73.33906,-32.89247 73.33906,-73.29667 0,-40.40425 -32.88579,-73.296713 -73.33906,-73.296713 -40.39631,0 -73.282097,32.892463 -73.282097,73.296713"
         style="fill:#ffffff;fill-rule:nonzero;stroke:none"
         id="path340"
         inkscape:connector-curvature="0" />
      <path
         d="m 35.72567,208.54106 -1.706566,-7.73938 15.873887,-3.58518 0,-0.0569 -17.523961,-3.69896 -1.877861,-8.36537 19.287929,4.72328 20.71022,-14.85283 1.93435,8.76375 -13.825642,9.38969 4.381218,1.19507 11.265337,-2.56081 1.706566,7.7963 -40.225477,8.99135"
         style="fill:#ffffff;fill-rule:nonzero;stroke:none"
         id="path342"
         inkscape:connector-curvature="0" />
      <path
         d="m 29.182772,176.55915 -0.625953,-7.91013 41.136164,-3.01609 0.568551,7.91011 -41.078762,3.01611"
         style="fill:#ffffff;fill-rule:nonzero;stroke:none"
         id="path344"
         inkscape:connector-curvature="0" />
      <path
         d="m 28.670712,159.43002 2.219081,-19.40543 7.79435,0.8536 -1.308396,11.55221 8.192973,0.96741 1.251907,-10.86927 7.737857,0.9105 -1.194959,10.8124 9.330987,1.08124 1.251907,-11.32457 7.794805,0.9105 -2.162137,19.2347 -40.908375,-4.72329"
         style="fill:#ffffff;fill-rule:nonzero;stroke:none"
         id="path346"
         inkscape:connector-curvature="0" />
      <path
         d="m 34.417272,127.44806 3.129312,-7.34105 30.723653,13.03178 4.210379,-9.90189 7.225797,3.07301 -7.282745,17.18604 -38.006396,-16.04789"
         style="fill:#ffffff;fill-rule:nonzero;stroke:none"
         id="path348"
         inkscape:connector-curvature="0" />
      <path
         d="m 46.763679,100.98614 11.322285,-15.990976 6.372518,4.552585 -6.713739,9.446614 6.770683,4.780237 6.258167,-8.877579 6.429463,4.552584 -6.31557,8.877585 7.73786,5.40618 6.656791,-9.27587 6.429461,4.49568 -11.322285,15.82024 -33.625634,-23.78728"
         style="fill:#ffffff;fill-rule:nonzero;stroke:none"
         id="path350"
         inkscape:connector-curvature="0" />
      <path
         d="m 83.859847,83.970836 1.93435,-1.536526 c 2.503811,-1.99174 1.308857,-4.837113 -0.170384,-6.715066 -1.991297,-2.44703 -3.98305,-3.471358 -6.486407,-1.536488 l -1.877405,1.536488 6.599846,8.251592 z M 66.790999,75.377817 77.203056,67.0124 c 5.291445,-4.211119 10.298158,-1.707182 13.825641,2.731587 3.755268,4.723278 4.039545,8.251554 1.82091,11.381485 l 0.05696,0.113777 c 4.494654,-2.503899 7.111903,0.341465 10.696323,4.609501 5.17756,6.316722 5.86045,6.771974 7.11191,6.544372 l 0.34168,0.398335 -6.71375,5.349311 c -1.36579,-0.73981 -2.95892,-2.390113 -5.917384,-6.032203 -4.437717,-5.576923 -5.973896,-6.259815 -7.965654,-4.666371 l -2.389465,1.877914 10.639387,13.316342 -6.201672,4.95094 -25.716939,-32.209573"
         style="fill:#ffffff;fill-rule:nonzero;stroke:none"
         id="path352"
         inkscape:connector-curvature="0" />
      <path
         d="m 117.54242,77.141945 0.56901,1.308847 c 1.19497,2.902282 2.78809,4.780235 5.34839,3.698999 2.56031,-1.081236 2.27558,-3.755916 1.36535,-5.918388 -3.52748,-8.194636 -14.90671,2.105603 -20.93801,-12.064329 -2.61725,-6.08912 -2.16168,-12.292027 5.40534,-15.535735 7.28275,-3.129921 11.83435,0.284519 14.33771,6.14599 l 0.39817,0.910503 -7.05496,3.016106 c -0.79634,-1.821045 -1.53618,-3.072975 -2.33252,-3.755867 -0.79679,-0.682902 -1.70702,-0.853634 -2.78808,-0.341475 -1.82047,0.739809 -2.33252,2.560855 -1.13802,5.292403 3.3571,7.910118 15.0206,-1.764137 20.71021,11.609126 3.69832,8.59297 1.25191,13.714641 -5.46182,16.616922 -5.29145,2.21938 -11.03801,2.390113 -14.4516,-5.520005 l -1.02412,-2.447029 7.05495,-3.016068"
         style="fill:#ffffff;fill-rule:nonzero;stroke:none"
         id="path354"
         inkscape:connector-curvature="0" />
      <path
         d="m 129.77494,43.168203 8.42076,-1.308838 8.87588,30.843772 0.11389,0 -0.91069,-32.09574 8.47771,-1.308886 -1.30841,41.883869 -9.95693,1.593395 -13.71221,-39.607572"
         style="fill:#ffffff;fill-rule:nonzero;stroke:none"
         id="path356"
         inkscape:connector-curvature="0" />
      <path
         d="m 173.98347,42.428442 7.68091,1.99174 -3.86916,14.966658 6.14519,1.593395 3.8687,-14.90975 7.68091,1.991787 -10.41205,39.892081 -7.68091,-1.991778 4.43816,-17.072222 -6.14473,-1.593396 -4.43816,17.015306 -7.68091,-1.99174 10.41205,-39.892081"
         style="fill:#ffffff;fill-rule:nonzero;stroke:none"
         id="path358"
         inkscape:connector-curvature="0" />
      <path
         d="m 197.19704,88.409605 c 2.7881,1.536488 5.00673,-1.365794 10.5829,-11.210743 5.57572,-9.78808 6.99801,-13.20253 4.20992,-14.795925 -2.73068,-1.536527 -4.94976,1.365755 -10.58243,11.210742 -5.57573,9.844998 -6.94153,13.202521 -4.21039,14.795926 z m -3.18625,5.63383 c -9.1032,-5.178578 -6.20168,-13.145613 0.28473,-24.527098 6.48595,-11.381475 11.83434,-17.868891 20.93755,-12.690352 9.7861,5.576952 5.34839,14.568315 -0.28428,24.470171 -5.68961,9.901905 -11.1519,18.324192 -20.938,12.747279"
         style="fill:#ffffff;fill-rule:nonzero;stroke:none"
         id="path360"
         inkscape:connector-curvature="0" />
      <path
         d="m 231.90375,68.890353 5.80351,5.406228 -22.75847,24.413263 8.13603,7.397966 -5.34839,5.74765 -13.93954,-12.861097 28.10686,-30.10401"
         style="fill:#ffffff;fill-rule:nonzero;stroke:none"
         id="path362"
         inkscape:connector-curvature="0" />
      <path
         d="m 232.13108,111.17256 -1.19451,0.73977 c -2.61725,1.70722 -4.21037,3.58518 -2.78809,5.86147 1.53618,2.39012 4.09649,1.70722 6.08779,0.39834 7.51052,-4.72328 -4.49465,-14.34062 8.4777,-22.649135 5.57573,-3.528217 11.7774,-4.040425 16.21557,2.845364 4.26686,6.715071 1.64961,11.722951 -3.69833,15.137401 l -0.85374,0.56907 -4.09648,-6.48745 c 1.65007,-1.08124 2.73114,-1.99175 3.30015,-2.90229 0.56901,-0.9105 0.51207,-1.82104 -0.11389,-2.78846 -1.08107,-1.70722 -2.90153,-1.934865 -5.40488,-0.28451 -7.28275,4.60946 4.20992,14.51137 -8.07954,22.36458 -7.90824,5.00783 -13.31358,3.47135 -17.23923,-2.67464 -3.12932,-4.89402 -4.21038,-10.52789 3.07236,-15.13735 l 2.21863,-1.47962 4.09649,6.48746"
         style="fill:#ffffff;fill-rule:nonzero;stroke:none"
         id="path364"
         inkscape:connector-curvature="0" />
      <path
         d="m 261.54679,122.32639 -2.38992,-6.65814 7.39663,-2.61778 7.39663,20.88505 -7.39663,2.61772 -2.38992,-6.71506 -31.4635,11.09691 -2.61725,-7.45487 31.46396,-11.15383"
         style="fill:#ffffff;fill-rule:nonzero;stroke:none"
         id="path366"
         inkscape:connector-curvature="0" />
      <path
         d="m 275.7706,141.618 1.53617,19.46233 -7.85174,0.62599 -0.91024,-11.55222 -8.19297,0.62598 0.79634,10.86932 -7.7948,0.56908 -0.85329,-10.8124 -9.38794,0.68289 0.91024,11.66599 -7.79481,0.62599 -1.53618,-19.57611 41.07922,-3.18684"
         style="fill:#ffffff;fill-rule:nonzero;stroke:none"
         id="path368"
         inkscape:connector-curvature="0" />
      <path
         d="m 277.7619,169.38879 -0.62597,7.96704 -41.07875,-3.30063 0.62595,-7.96703 41.07877,3.30062"
         style="fill:#ffffff;fill-rule:nonzero;stroke:none"
         id="path370"
         inkscape:connector-curvature="0" />
      <path
         d="m 275.88447,189.19255 -2.38991,8.82067 -27.53738,-0.73981 -0.057,0.11383 25.83082,6.99961 -1.93434,7.17032 -39.77083,-10.81241 2.33298,-8.70684 29.24442,0.73982 0.0569,-0.0569 -27.42395,-7.45488 1.87785,-6.88579 39.77035,10.8124"
         style="fill:#ffffff;fill-rule:nonzero;stroke:none"
         id="path372"
         inkscape:connector-curvature="0" />
      <path
         d="m 67.246115,216.62192 c 1.820912,3.01611 0.796791,6.99963 -2.218629,8.82067 -3.07282,1.76409 -6.998467,0.73976 -8.818925,-2.27629 -1.763969,-3.07302 -0.796794,-6.99963 2.275574,-8.76376 3.015416,-1.82104 6.998466,-0.79672 8.76198,2.21938"
         style="fill:#ffffff;fill-rule:nonzero;stroke:none"
         id="path374"
         inkscape:connector-curvature="0" />
      <path
         d="m 247.89153,214.40254 c 3.07236,1.76413 4.09648,5.69074 2.27602,8.76376 -1.82091,3.01605 -5.74656,4.04038 -8.81893,2.27629 -3.01587,-1.82104 -4.03999,-5.80456 -2.21908,-8.82067 1.76351,-3.0161 5.74657,-4.04042 8.76199,-2.21938"
         style="fill:#ffffff;fill-rule:nonzero;stroke:none"
         id="path376"
         inkscape:connector-curvature="0" />
      <path
         d="m 160.04393,75.719244 c 1.36535,0.967411 1.82046,3.016106 1.02413,4.609501 -0.85374,1.536488 -2.61725,2.105565 -4.03955,1.138144 -1.3658,-0.910494 -1.82091,-2.959189 -1.02411,-4.552584 0.79633,-1.593405 2.61724,-2.105565 4.03953,-1.195061"
         style="fill:#ffffff;fill-rule:nonzero;stroke:none"
         id="path378"
         inkscape:connector-curvature="0" />
      <path
         d="m 139.67493,77.767939 c 1.36581,0.910494 1.82092,2.95915 1.02413,4.552584 -0.79634,1.593405 -2.61725,2.105565 -4.03955,1.195023 -1.36534,-0.967421 -1.82045,-3.016068 -1.02411,-4.609463 0.85327,-1.536527 2.67419,-2.105603 4.03953,-1.138144"
         style="fill:#ffffff;fill-rule:nonzero;stroke:none"
         id="path380"
         inkscape:connector-curvature="0" />
      <path
         d="m 83.916792,215.19926 6.201682,5.86143 -18.88931,25.9498 0.05649,0.0569 24.806705,-20.37283 6.201681,5.80457 -33.852966,24.75473 -7.396635,-6.94271 22.872354,-35.11185"
         style="fill:#ffffff;fill-rule:nonzero;stroke:none"
         id="path382"
         inkscape:connector-curvature="0" />
      <path
         d="m 91.882437,268.12309 c 2.787635,1.65032 5.063663,-1.25193 10.867173,-10.92618 5.80305,-9.67426 7.28274,-13.0887 4.5516,-14.73901 -2.73115,-1.59344 -5.00717,1.30884 -10.810228,10.98309 -5.803509,9.67426 -7.282741,13.08871 -4.608545,14.6821 z m -3.300151,5.57696 c -8.989765,-5.40622 -5.9174,-13.25943 0.853286,-24.47018 6.770678,-11.2677 12.232968,-17.64129 21.222278,-12.29202 9.67266,5.80457 5.06412,14.6821 -0.85328,24.47018 -5.86046,9.84499 -11.550077,18.09654 -21.222284,12.29202"
         style="fill:#ffffff;fill-rule:nonzero;stroke:none"
         id="path384"
         inkscape:connector-curvature="0" />
      <path
         d="m 120.89952,243.93747 8.87542,2.2763 -0.39817,27.60006 0.057,0 6.77069,-25.94975 7.1119,1.87795 -10.35511,39.89209 -8.70504,-2.21943 0.39817,-29.25037 -0.0569,-0.0569 -7.1119,27.5432 -6.94108,-1.82105 10.35511,-39.89209"
         style="fill:#ffffff;fill-rule:nonzero;stroke:none"
         id="path386"
         inkscape:connector-curvature="0" />
      <path
         d="m 158.90592,262.03401 -6.42946,0.39834 -0.39817,-6.08908 1.02412,-0.0569 c 5.97434,-0.39835 7.16885,-4.26804 7.33969,-6.8858 l 5.63267,-0.39835 2.56031,40.80259 -7.96519,0.51217 -1.76397,-28.28297"
         style="fill:#ffffff;fill-rule:nonzero;stroke:none"
         id="path388"
         inkscape:connector-curvature="0" />
      <path
         d="m 185.70392,258.27814 c -1.47924,-4.55259 -2.95847,-7.22726 -5.17756,-6.48746 -2.16213,0.6829 -1.99129,3.41445 -0.62594,7.62561 1.53618,4.72329 2.67419,6.71506 5.06411,5.97525 2.21863,-0.73976 1.8774,-3.58513 0.73939,-7.1134 z m -1.76351,18.6087 c 0.28427,1.08124 0.6255,2.10557 1.25145,2.78846 0.51206,0.6829 1.2519,0.96742 2.16214,0.73982 2.5603,-0.62599 2.61725,-3.30063 0.39817,-12.00747 l -0.1139,0 c -0.39817,2.67463 -2.10473,4.26804 -4.89282,4.95093 -4.95023,1.25197 -8.64809,-1.42266 -10.92411,-10.30024 -1.99131,-7.85321 -1.59314,-14.96661 6.94151,-17.12913 9.61526,-2.5039 12.68764,4.66642 15.6461,16.50314 3.41405,13.20253 4.60856,21.28339 -5.85999,24.01493 -5.80351,1.47962 -10.12778,-0.56907 -12.00519,-7.68247 l 7.39664,-1.87797"
         style="fill:#ffffff;fill-rule:nonzero;stroke:none"
         id="path390"
         inkscape:connector-curvature="0" />
      <path
         d="m 215.29002,268.00932 c 2.33251,-1.30889 1.19495,-4.21117 -4.21039,-14.39759 -5.51878,-10.30025 -7.33969,-12.86105 -9.72915,-11.55221 -2.38946,1.25196 -1.25191,4.15425 4.26732,14.4545 5.46183,10.18641 7.28275,12.74722 9.67222,11.4953 z m 3.07236,5.29235 c -8.76198,4.89406 -13.37053,-1.36575 -19.74304,-12.86105 -5.68962,-10.24334 -9.27405,-18.72253 -0.51207,-23.55968 8.76199,-4.89402 13.37053,1.30888 19.74305,12.80418 5.68962,10.30024 9.27404,18.72253 0.51206,23.61655"
         style="fill:#ffffff;fill-rule:nonzero;stroke:none"
         id="path392"
         inkscape:connector-curvature="0" />
      <path
         d="m 239.58466,248.49006 c 1.93435,-1.87795 0.0569,-4.38185 -8.02213,-12.63345 -8.07954,-8.42228 -10.52595,-10.41402 -12.46031,-8.47919 -1.9348,1.82104 -0.057,4.32499 8.07908,12.74727 8.02214,8.25155 10.46901,10.24334 12.40336,8.36537 z m 4.49465,4.21117 c -7.1119,7.1134 -13.25663,2.39007 -22.58761,-6.8858 -8.24993,-8.30851 -14.05343,-15.42191 -6.99802,-22.53536 7.1119,-7.1134 13.25663,-2.39007 22.58762,6.8858 8.24992,8.30851 13.99649,15.47883 6.99801,22.53536"
         style="fill:#ffffff;fill-rule:nonzero;stroke:none"
         id="path394"
         inkscape:connector-curvature="0" />
      <path
         d="m 205.27612,119.31029 c 0,0 3.07237,28.33991 -8.30686,57.19195 -11.60656,29.36419 -37.77907,59.35437 -43.80991,59.35437 -6.03083,0 -32.14639,-29.99018 -43.75295,-59.35437 -11.379228,-28.85204 -8.30686,-57.19195 -8.30686,-57.19195 l 104.17658,0"
         style="fill:#ffffff;fill-rule:nonzero;stroke:none"
         id="path396"
         inkscape:connector-curvature="0" />
      <path
         d="m 105.42335,122.61095 c -0.34122,10.01568 -0.0565,31.07142 8.24992,52.18406 10.92412,27.60007 33.68258,53.09456 39.48608,56.2245 5.86046,-3.12994 28.61892,-28.62443 39.54304,-56.2245 8.30687,-21.11264 8.59114,-42.16838 8.24992,-52.18406 l -95.52896,0"
         style="fill:#cc3043;fill-rule:nonzero;stroke:none"
         id="path398"
         inkscape:connector-curvature="0" />
      <path
         d="m 161.52317,218.21532 c -3.47053,4.04043 -6.37251,6.94272 -8.36382,8.53611 -1.8774,-1.59339 -4.83633,-4.49568 -8.30686,-8.53611 l 2.95847,-13.9992 -13.88258,0.28452 8.87587,-12.46272 -17.23968,-0.79667 11.09494,-13.82851 -18.60502,-0.0569 12.4603,-14.56828 -17.63786,0.39834 10.69633,-16.44623 -14.2238,-7.34105 c -0.39817,-4.6095 -0.56901,-8.93445 -0.51206,-12.34889 l 14.96365,0 7.33969,10.92622 7.39618,-10.98313 7.33969,10.98313 7.28274,-10.98313 7.39665,10.98313 7.33968,-10.98313 7.33924,10.98313 7.33969,-10.92622 14.96366,0 c 0.0569,3.41444 -0.11344,7.73939 -0.51206,12.34889 l -14.22381,7.34105 10.69633,16.44623 -17.63786,-0.39834 12.46031,14.56828 -18.60504,0.0569 11.09495,13.82851 -17.23967,0.79667 8.87586,12.46272 -13.88258,-0.28452 2.95847,13.9992"
         style="fill:#ffffff;fill-rule:nonzero;stroke:none"
         id="path400"
         inkscape:connector-curvature="0" />
      <path
         d="m 133.92838,150.09719 c 0.17083,3.41444 3.47098,6.08907 6.31556,7.34105 l 0.057,-3.41445 2.27603,0 c -0.057,0.0569 0,4.43877 0,4.43877 l 3.81175,1.13815 0,2.73159 c -5.00671,-0.96746 -9.6722,-3.35753 -13.54136,-7.45488 0.6829,7.39797 5.40534,15.02353 12.63113,18.21037 5.63267,2.67463 13.48442,2.04865 18.49115,-1.6503 5.74655,-4.04044 8.98975,-10.07265 9.67266,-16.56007 -3.81222,3.98352 -8.53466,6.43051 -13.59832,7.5118 l 0,-2.78851 c 1.25146,-0.28452 2.44641,-0.73977 3.69832,-1.08123 l 0.057,-4.49569 2.27557,0 0,3.35753 c 1.87786,-0.68285 3.86916,-2.16247 5.29145,-4.04042 0.56901,-0.96741 1.02412,-1.93482 1.02412,-3.12988 l 2.84458,-0.11383 c 0.62595,9.38974 -3.1858,17.81202 -11.0945,23.1613 -5.17756,3.35757 -13.08625,4.26807 -18.83282,1.53652 -9.55831,-4.26807 -14.79281,-14.34066 -14.16686,-24.69782 l 2.78764,0"
         style="fill:#211d1e;fill-rule:nonzero;stroke:none"
         id="path402"
         inkscape:connector-curvature="0" />
      <path
         d="m 140.47173,162.16157 0,3.30061 c -1.19496,-0.39833 -2.38992,-1.42266 -3.52794,-2.10555 -0.96717,-1.53649 -1.53618,-3.24371 -2.04824,-4.89407 1.76396,1.53654 3.64137,2.67468 5.57618,3.69901"
         style="fill:#211d1e;fill-rule:nonzero;stroke:none"
         id="path404"
         inkscape:connector-curvature="0" />
      <path
         d="m 169.5453,163.35663 -3.58442,2.16247 -0.057,-3.24371 c 1.87786,-1.02433 3.86916,-2.16247 5.57618,-3.81283 -0.45511,1.53654 -1.08107,3.35758 -1.93481,4.89407"
         style="fill:#211d1e;fill-rule:nonzero;stroke:none"
         id="path406"
         inkscape:connector-curvature="0" />
      <path
         d="m 158.05264,159.82835 0.11344,2.84538 c -3.18581,0.51216 -6.6568,0.51216 -9.84306,0 l 0,-2.84538 c 3.07282,0.39835 6.65725,0.39835 9.72962,0"
         style="fill:#211d1e;fill-rule:nonzero;stroke:none"
         id="path408"
         inkscape:connector-curvature="0" />
      <path
         d="m 152.24913,164.6655 0.057,3.30063 c -3.41405,-0.0569 -6.88458,-0.56908 -9.9,-1.82105 l 0,-3.30062 c 3.12931,0.96741 6.25862,1.87791 9.84305,1.82104"
         style="fill:#211d1e;fill-rule:nonzero;stroke:none"
         id="path410"
         inkscape:connector-curvature="0" />
      <path
         d="m 163.96959,166.14508 c -3.07237,1.25197 -6.37207,1.70723 -9.84306,1.99173 l 0,-3.35752 c 3.47099,-0.17069 6.6568,-0.9105 9.72915,-1.93483 l 0.11391,3.30062"
         style="fill:#211d1e;fill-rule:nonzero;stroke:none"
         id="path412"
         inkscape:connector-curvature="0" />
      <path
         d="m 146.38867,168.99045 0,2.78846 c -2.73114,-1.13815 -5.1206,-3.01611 -7.22579,-5.46309 2.21908,1.47958 4.77938,1.87791 7.22579,2.67463"
         style="fill:#211d1e;fill-rule:nonzero;stroke:none"
         id="path414"
         inkscape:connector-curvature="0" />
      <path
         d="m 160.15783,171.77891 -0.1139,-2.78846 c 2.44641,-0.68289 4.94977,-1.30888 7.16885,-2.67463 -2.10519,2.3332 -4.4377,4.32494 -7.05495,5.46309"
         style="fill:#211d1e;fill-rule:nonzero;stroke:none"
         id="path416"
         inkscape:connector-curvature="0" />
      <path
         d="m 158.16608,169.38879 0,3.12992 c -3.01542,0.91051 -6.71374,0.79668 -9.72916,0.0569 l -0.1139,-3.18684 c 3.18626,0.28456 6.71374,0.62599 9.84306,0"
         style="fill:#211d1e;fill-rule:nonzero;stroke:none"
         id="path418"
         inkscape:connector-curvature="0" />
    </g>
  </g>
</svg>
