<?xml version="1.0" encoding="utf-8"?>
<!-- Generator: Adobe Illustrator 13.0.0, SVG Export Plug-In . SVG Version: 6.00 Build 14948)  -->
<!DOCTYPE svg PUBLIC "-//W3C//DTD SVG 1.0//EN" "http://www.w3.org/TR/2001/REC-SVG-20010904/DTD/svg10.dtd">
<svg version="1.0" id="Ebene_1" xmlns="http://www.w3.org/2000/svg" xmlns:xlink="http://www.w3.org/1999/xlink" x="0px" y="0px"
	 width="281.437px" height="396.2px" viewBox="0 0 281.437 396.2" enable-background="new 0 0 281.437 396.2" xml:space="preserve">
<path fill="#3C4E99" d="M133.263,4.022c4.465,10.335,7.039,21.113,7.562,32.815l7.52,6.516c2.131-1.248,2.695-4.063,3.699-6.234
	c3.258-9.692,2.695-21.837,13.513-27.667l10.778-7.562c2.614,0,3.258,3.5,4.504,5.349c4.184,11.864,7.721,28.714-0.843,39.612
	c-3.741,5.55-9.814,8.486-14.639,12.146c0.804,3.417-0.282,6.394-2.252,8.686c-0.402,3.258,1.77,5.389,2.252,8.285
	c-0.161,3.298,2.131,6.554,0.644,9.772c2.171,8.727-0.926,18.901,3.54,26.864c1.165,8.365,4.182,17.453,1.407,26.059
	c3.177,16.811,5.309,36.395,0.684,53.165c-0.926,3.659-1.449,7.802-3.057,10.938h-0.604c3.137-15.925,5.228-33.458,1.569-49.585
	c-0.362-0.24-0.644-0.803-1.127-0.642c-2.01,4.705-3.941,9.53-5.872,14.275c0.644-16.688,7.641-31.931,5.63-48.62l-1.208,3.5
	c0-3.862-0.562-8.164-3.055-11.181c-1.449,3.538-1.69,8.043-1.609,12.466c0.241,12.507-0.683,24.25-4.021,35.189
	c1.648-14.358-2.976-26.623-3.137-40.619c-0.04-0.965-0.724-1.93-1.608-2.372h-3.419c-9.731,6.997-20.55,15.603-18.781,28.915
	c0.885,8.446,10.295,13.392,9.492,22.48c0.079,6.717-1.851,12.949-3.942,19.063c-2.614,5.751-6.033,14.035-13.553,15
	c-7.359,1.65-16.769,2.373-22.721-3.177c-1.809-2.292-3.338-4.705-3.66-7.601c-4.584-7.882-10.897-16.688-7.118-26.46
	c1.648-4.868,5.711-8.728,7.118-13.754c2.694-4.505,5.711-9.009,4.183-15.041c1.89-0.121,1.89-2.092,0.844-3.338l-0.481-0.161
	c-6.435,3.618-5.349,11.863-7.521,17.171l-2.975-12.104c2.775-3.58,4.665-7.641,7.48-10.858c0.924-0.041,1.527,1.167,2.453,0.644
	c-1.207-2.775-2.01-6.677-4.342-8.768c-2.695,4.143-4.425,9.411-6.114,13.352c-1.97-10.094,3.739-17.533,1.81-27.828
	c1.408,0.121,3.378,0,4.304-1.61c0-0.843,0.803-1.447,1.044-2.373c1.248,7.16,4.504,13.231,6.556,19.908
	c0.522,5.067,0.481,10.416,1.688,15.201c0.845-0.402,2.051-1.328,2.131-2.574c-1.085-12.507-5.147-23.888-9.088-35.229
	c-0.523-0.723-0.684-1.688-1.489-2.131c-1.769,1.69-0.724,7.198-4.987,5.832c-1.729-1.247-0.965-3.58-2.373-5.067l-4.986,1.567
	c0.402-1.648,1.568-3.016,2.413-4.503c-0.362-1.809-1.046-4.142-0.362-5.872l2.252-2.131c1.851-6.354,6.676-11.381,7.319-18.257
	l-0.562-2.172C79.294,52.642,67.713,35.71,70.448,15.724c0.803-4.343,2.131-8.687,5.309-11.863
	c7.76,0.723,14.638,4.102,20.067,9.048l0.563,0.563c8.726,8.365,13.431,18.902,19.383,28.754
	c2.372-15.04,4.423-30.482,14.959-42.226C132.419,0.563,132.661,2.614,133.263,4.022"/>
<path fill="#FFFFFF" d="M134.711,44.397l-4.503-8.204c-3.379-2.533-7.28-4.262-10.136-7.761c0.684-4.544,1.891-8.766,3.459-12.909
	C131.655,22.802,136.239,32.897,134.711,44.397"/>
<path fill="#FFFFFF" d="M140.583,39.693c5.589,7.962,13.954,10.697,19.826,17.05l2.131,7.721l-0.443,0.805
	c-2.894-6.353-8.323-13.593-15.08-16.005c-1.085,0.482-0.845,2.131-0.121,2.694c0.202,1.771,2.735,2.372,2.494,4.344
	c2.533,1.769,4.384,4.625,5.349,7.319c3.419,4.262,7.561,8.204,8.928,13.15l-0.443,0.483c-3.78-6.435-10.335-11.985-13.11-18.982
	c-2.936-4.464-7.278-6.596-11.422-9.009c-2.694-2.091-0.401-5.59-1.084-7.963C138.291,40.377,139.215,39.25,140.583,39.693"/>
<path fill="#FFFFFF" d="M114.202,48.259c-4.344,4.665-8.124,9.732-12.989,13.632c1.567-5.349,6.393-11.5,11.782-14.718h1.65"/>
<path fill="#FFFFFF" d="M115.77,53.729c-0.725,5.027-6.555,7.681-10.335,10.537l-6.313,4.946c1.89-4.304,5.991-7.441,9.41-10.938
	C110.904,56.743,112.995,54.291,115.77,53.729"/>
<path fill="#FFFFFF" d="M154.738,72.066c3.258,3.015,5.429,6.876,9.371,8.646l1.89,2.493c-7.439,6.234,2.413,14.479-1.769,22.2
	l-1.127,4.423c-3.98-3.66-8.043-8.526-13.834-7.117c-8.204,4.302-14.879,12.909-20.309,20.268l-5.429,8.285
	c-0.282-5.47,4.183-10.134,6.234-15.201c4.705-7.923,12.185-15.885,19.504-21.395c2.413-0.081,4.747,0.081,6.636,1.567
	c2.01,1.811,2.091,4.465,3.217,6.757c6.957-4.585,1.045-13.553,3.417-20.31c-0.241-0.32-0.443-0.562-0.845-0.481
	c-1.166,3.578-5.188,6.152-7.961,8.404c0.282-4.584,8.122-8.565,2.894-13.511c-7.198-6.596-14.919-12.949-23.003-18.177
	C142.312,59.277,148.425,66.074,154.738,72.066"/>
<path fill="#FFFFFF" d="M109.576,125.552c-1.97-10.939-0.481-23.204-3.055-33.821c0-8.727,5.147-15.241,9.691-21.998
	C111.347,87.268,109.497,106.852,109.576,125.552"/>
<path fill="#FFFFFF" d="M147.298,85.739c-0.925,8.003-10.818,12.025-14.758,18.901l-5.147,6.113
	c3.458-9.291,4.826-20.509,11.501-29.076c0.563-3.781-0.603-7.439-1.729-10.938C142.755,73.675,147.459,79.063,147.298,85.739"/>
<path fill="#FFFFFF" d="M118.545,115.458c0.08,4.342,0.161,9.168-1.688,12.909c-1.892-19.787,2.413-39.451,8.003-57.427
	C126.548,86.342,123.25,101.583,118.545,115.458"/>
<path fill="#FFFFFF" d="M96.387,89.721c-2.493-0.081-4.626-2.091-5.912-3.861c4.222-4.222,7.561-9.41,12.587-12.466
	C99.442,78.339,94.697,83.366,96.387,89.721"/>
<path fill="#3C4E99" d="M153.291,141.478c0.242,2.533-0.241,4.463-1.529,6.353l1.288,0.805c1.608,8.848-4.584,14.879-8.848,21.516
	c0.443-5.147,5.067-9.571,6.677-14.839c-0.081-0.644,0.161-1.529-0.121-2.133h-0.644c-3.097,3.097-4.665,6.918-6.715,10.497
	c1.004-3.86,2.975-9.45,3.015-14.759c-3.578-5.027-5.83-10.577-9.249-15.523c-0.161-3.218,2.494-6.274,5.389-7.601
	C145.852,131.102,151.2,135.686,153.291,141.478"/>
<path fill="#3C4E99" d="M157.473,169.104c-1.567,14.237-2.734,28.633-10.174,40.377c-17.734,7.762-35.429,23.969-45.001,41.18
	c-0.441-20.993,21.153-32.575,32.414-49.344c3.98-5.59,7.842-11.02,10.094-17.292c-2.252,0.481-4.343,2.735-6.515,4.222v-2.051
	c7.4-5.59,10.736-14.76,18.578-18.821"/>
<path fill="#3C4E99" d="M95.301,192.067c-11.663,8.124-25.295,18.179-30.041,32.012c-1.489,4.063-2.535,8.083-3.942,12.267
	c-0.644-20.832,11.863-40.136,30.201-50.591"/>
<path fill="#3C4E99" d="M101.736,201.76c-1.529,2.936-4.667,5.268-5.59,8.405c-8.928,13.511-24.854,20.188-32.374,34.383
	l-4.142,6.878c3.095-22.2,27.426-35.672,37.078-55.458C97.955,198.06,99.885,199.83,101.736,201.76"/>
<path fill="#3C4E99" d="M66.426,229.83c2.694-12.708,13.513-24.933,25.335-31.771C85.891,209.481,74.268,219.132,66.426,229.83"/>
<path fill="#3C4E99" d="M126.548,202.283c-11.903,15.523-24.572,32.855-41.06,44.357c-11.1,7.641-25.938,11.541-32.052,25.617
	c2.775-26.14,35.469-31.811,44.438-54.975c3.056-4.463,5.751-9.129,9.249-13.312C113.558,205.338,120.676,204.213,126.548,202.283"
	/>
<path fill="#3C4E99" d="M96.708,215.353c-6.756,12.668-19.504,22.319-30.765,31.046c6.355-13.714,22.32-20.069,30.765-33.179"/>
<path fill="#3C4E99" d="M95.542,265.179l-4.786,14.478c-8.848,16.849-27.628,18.057-39.129,32.373l-4.545,6.033
	c5.59-12.909,11.623-26.019,19.988-37.922c7.882-9.452,18.378-18.338,22.762-29.478c3.057-3.781,6.234-8.124,10.054-11.341
	C96.427,246.641,98.478,257.257,95.542,265.179"/>
<path fill="#3C4E99" d="M86.292,176.143c1.811,2.212,2.213,4.826,3.418,7.279c-29.517,14.034-40.053,46.207-44.438,75.726
	c-0.201,7.761-1.85,13.873-0.604,21.755c-10.575-37.399,3.781-74.277,27.508-102.347c-9.17,2.413-17.855,12.708-22.722,21.274
	c-11.421,19.302-21.515,39.812-19.264,64.183c-9.611-28.03-0.121-61.53,20.952-83.044c-13.713,3.78-26.783,18.661-34.344,30.966
	c-8.727,14.638-14.759,31.931-15.523,48.66c-5.469-34.022,6.636-68.406,36.153-87.708C52.11,165.084,72.781,168.141,86.292,176.143"
	/>
<circle fill="#3C4E99" cx="188.278" cy="303.042" r="93.158"/>
<circle fill="#FFFFFF" cx="188.278" cy="303.042" r="69.804"/>
<path fill="#3C4E99" d="M209.69,250.531c-2.817,3.416-6.841,6.1-10.182,8.907c-3.7-2.929-7.202-9.03-12.433-8.419
	c-1.73,0.935-2.133,2.928-1.49,4.515c9.296,16.84,35.775,31.404,21.488,53.169c-5.714,7.769-14.606,11.267-24.185,9.518
	c-6.438-1.222-13.117-6.225-15.813-12.489c-2.857-5.532-2.857-14.035-0.241-19.771l13.038,6.347c0,2.522-0.241,5.533,1.488,7.526
	c1.529,1.83,3.381,2.807,5.393,3.051c2.496,0.204,4.426-0.855,5.957-2.645c1.69-1.83,1.851-5.125,1.085-7.688
	c-6.639-10.495-15.452-20.096-22.252-30.51c-2.455-5.533-2.173-12.854,1.609-17.695c4.307-5.899,10.745-7.77,17.787-6.793
	C198.383,238.936,204.218,244.794,209.69,250.531"/>
<path fill="#3C4E99" d="M168.686,265.948c6.077,7.811,11.911,15.621,17.907,23.268c-12.434-5.777-25.19-11.715-37.825-17.98
	c-2.817,2.277-4.549,5.899-6.279,9.03c-8.491,15.824-6.56,39.012,4.104,53.25l8.894,10.088l-12.232,5.288
	c-16.258-15.824-22.617-38.89-17.627-61.059c3.421-12.449,9.538-23.919,20.162-32.992"/>
<path fill="#3C4E99" d="M234.093,302.03c-0.443-8.908-2.576-16.922-7.243-24.001l-12.232,5.696c1.528,2.318,2.896,4.678,3.701,7.281
	c7.122,19.242-4.869,36.287-19.035,48.776c-3.379,2.813-7.075,5.149-11.006,6.931c-3.931-1.782-7.626-4.118-11.006-6.931
	c-14.166-12.489-26.157-29.534-19.034-48.776c0.805-2.604,2.172-4.963,3.701-7.281l-12.232-5.696
	c-4.668,7.08-6.801,15.094-7.244,24.001c-0.959,27.635,23.523,49.365,45.815,60.54C210.569,351.395,235.053,329.665,234.093,302.03z
	"/>
<path fill="#3C4E99" d="M250.93,287.833c-3.421-12.449-9.538-23.919-20.161-32.992l-28.924,14.029l8.311,10.892
	c5.875-2.785,11.768-5.617,17.635-8.527c2.817,2.277,4.548,5.899,6.278,9.03c8.492,15.824,6.56,39.012-4.104,53.25l-8.894,10.088
	l12.233,5.288C249.561,333.068,255.92,310.002,250.93,287.833z"/>
<polygon fill="#FFFFFF" points="141.037,374.156 145.503,363.215 142.767,361.1 133.672,368.543 140.393,359.312 137.294,357.033 
	128.36,369.114 133.311,372.815 140.594,366.876 137.093,375.702 142.083,379.322 150.976,367.243 147.877,364.965 "/>
<polygon fill="#FFFFFF" points="127.314,344.872 124.699,347.068 129.85,353.332 127.516,355.203 122.848,349.548 120.594,351.542 
	125.263,357.156 123.45,358.741 118.42,352.722 115.966,354.755 123.934,364.558 135.524,354.796 "/>
<polygon fill="#FFFFFF" points="123.571,338.202 110.614,345.848 113.109,349.915 125.865,342.31 "/>
<path fill="#FFFFFF" d="M119.145,328.521c-0.241-0.731-0.725-1.586-1.288-2.44c-0.522-0.772-1.085-1.22-1.891-1.626
	c-0.725-0.407-1.69-0.569-2.616-0.61c-0.964-0.081-2.213,0.162-3.582,0.854c-1.045,0.244-1.851,0.691-2.654,1.3
	c-0.725,0.529-1.328,1.181-1.892,1.994c-0.362,0.773-0.645,1.586-0.645,2.564c-0.079,0.933,0.121,1.993,0.564,3.211l2.495,6.59
	l14.004-5.246L119.145,328.521z M109.085,334.703l-0.362-1.057c-0.443-1.097-0.443-2.033,0-2.846
	c0.241-0.609,1.207-1.221,2.696-1.791c1.087-0.448,1.972-0.651,2.536-0.651c0.604,0,1.085,0.204,1.407,0.57
	c0.282,0.203,0.806,0.936,1.047,1.872l0.443,1.056L109.085,334.703z"/>
<polygon fill="#FFFFFF" points="114.478,306.721 111.137,307.248 112.265,315.343 109.407,315.75 108.28,308.429 105.222,308.958 
	106.349,316.116 103.935,316.482 102.888,308.672 99.708,309.12 101.479,321.606 116.248,319.573 "/>
<path fill="#FFFFFF" d="M114.799,299.479l-6.076-0.487l0.081-0.407c0-0.529,0.08-0.814,0.362-1.18
	c0.241-0.285,0.602-0.448,1.247-0.855l4.748-2.074l0.443-5.369l-4.587,2.074c-0.161,0.041-0.443,0.245-0.967,0.489
	c-0.282,0.366-0.562,0.529-0.763,0.732c-0.282,0.204-0.483,0.61-0.645,1.14c-0.12-0.732-0.281-1.262-0.483-1.587
	c-0.322-0.732-0.846-1.26-1.408-1.585c-0.483-0.488-1.289-0.733-2.054-0.733c-0.964-0.081-1.73,0.082-2.455,0.448
	c-0.723,0.448-1.246,1.059-1.448,1.79c-0.322,0.691-0.604,1.75-0.685,3.335l-0.604,7.769l14.891,1.179L114.799,299.479z
	 M105.946,298.789l-3.059-0.285l0.161-2.156c0.081-0.732,0.202-1.261,0.524-1.709c0.242-0.285,0.645-0.366,1.125-0.366
	c0.282,0,0.604,0.163,0.886,0.366c0.202,0.285,0.362,0.611,0.443,0.896c0.041,0.57,0.041,0.934,0.041,1.178L105.946,298.789z"/>
<polygon fill="#FFFFFF" points="117.577,282.805 103.048,279.021 101.922,283.658 116.328,287.318 "/>
<path fill="#FFFFFF" d="M111.338,276.581c1.69,0.855,3.14,1.099,4.628,0.855c1.328-0.082,2.454-0.61,3.3-1.383
	c0.846-0.772,1.609-1.953,2.293-3.416c0.604-1.262,0.886-2.401,0.886-3.376c0-0.936-0.282-1.871-0.684-2.685
	c-0.443-0.814-1.088-1.709-1.972-2.318l-2.817,3.132c0.725,0.69,1.207,1.219,1.528,1.83c0.242,0.691,0.202,1.463-0.161,2.196
	c-0.362,0.814-1.005,1.384-1.689,1.585c-0.845,0.244-1.931-0.041-3.381-0.69c-1.287-0.569-2.132-1.18-2.535-1.872
	c-0.483-0.853-0.524-1.708-0.121-2.725c0.121-0.446,0.483-0.69,0.805-1.097c0.282-0.122,0.685-0.367,1.087-0.407
	c0.281-0.082,0.683-0.082,1.046,0l0.926-4.188c-1.611-0.204-2.979,0.122-4.146,0.771c-1.166,0.569-2.133,1.791-2.938,3.58
	c-0.924,2.236-1.085,4.311-0.481,6.101C107.596,274.222,109.005,275.482,111.338,276.581z"/>
<polygon fill="#FFFFFF" points="128.279,260.556 123.491,256.814 126.549,252.746 131.378,256.489 134.235,252.746 122.445,243.473 
	119.588,247.214 123.692,250.469 120.594,254.536 116.409,251.201 113.471,255.024 125.422,264.339 "/>
<polygon fill="#FFFFFF" points="146.307,242.416 144.174,239.812 137.938,244.937 135.965,242.66 141.599,237.982 139.668,235.583 
	134.114,240.301 132.626,238.349 138.621,233.385 136.569,230.823 127.032,238.958 136.448,250.591 "/>
<path fill="#FFFFFF" d="M156.729,230.782c-0.563-0.202-0.763-0.405-1.005-0.446c-0.362-0.082-0.805-0.041-1.449,0.081
	c0.604-0.407,1.046-0.813,1.248-1.22c0.443-0.611,0.604-1.383,0.644-2.034c0-0.732-0.04-1.424-0.523-2.237
	c-0.402-0.814-0.966-1.465-1.649-1.873c-0.725-0.285-1.49-0.446-2.255-0.285c-0.763,0.123-1.891,0.488-3.057,1.262l-7.083,3.539
	l6.962,13.423l4.104-2.116l-2.817-5.532l0.483-0.202c0.241-0.082,0.684-0.204,1.087-0.163c0.32,0.082,0.723,0.202,1.328,0.609
	l4.225,2.97l4.669-2.481l-3.944-2.807C157.615,231.107,157.091,230.904,156.729,230.782z M151.739,228.463
	c0,0.204-0.241,0.53-0.4,0.733c-0.443,0.407-0.846,0.569-1.007,0.732l-1.649,0.894l-1.449-2.766l1.771-0.894
	c0.683-0.407,1.328-0.61,1.69-0.529c0.483,0.163,0.725,0.367,0.964,0.896C151.82,227.814,151.82,228.057,151.739,228.463z"/>
<path fill="#FFFFFF" d="M184.134,222.405c-0.443-0.57-1.208-1.14-2.133-1.344c-0.966-0.447-2.455-0.692-4.506-0.813
	c-0.805-0.082-1.41-0.243-1.57-0.446c-0.242-0.123-0.402-0.326-0.402-0.53c-0.081-0.326,0-0.61,0.241-0.854
	c0.242-0.285,0.725-0.407,1.248-0.529c0.603-0.123,1.207,0,1.529,0.244c0.443,0.325,0.725,0.773,0.926,1.424l4.385-0.814
	c-0.443-1.464-1.085-2.685-2.213-3.173c-1.167-0.651-2.656-0.771-4.546-0.529c-1.57,0.203-2.737,0.529-3.582,1.017
	c-0.846,0.489-1.529,1.221-1.851,1.952c-0.322,0.651-0.483,1.425-0.403,2.237c0.161,1.139,0.644,2.035,1.649,2.644
	c1.007,0.65,2.536,1.18,4.589,1.221c1.287,0.163,2.012,0.366,2.495,0.651c0.322,0.204,0.562,0.57,0.603,1.016
	c0.04,0.448-0.121,0.773-0.361,1.099c-0.322,0.285-0.845,0.651-1.489,0.732c-0.846,0.122-1.609-0.163-2.173-0.732
	c-0.322-0.326-0.563-0.814-0.805-1.545l-4.346,0.894c0.282,1.506,1.045,2.562,2.173,3.458c1.087,0.896,2.897,1.138,5.392,0.855
	c1.488-0.285,2.696-0.57,3.582-1.058c0.925-0.651,1.569-1.262,2.012-2.196c0.403-0.854,0.564-1.75,0.403-2.685
	C184.939,223.746,184.577,223.013,184.134,222.405z"/>
<polygon fill="#FFFFFF" points="195.12,225.82 192.747,214.676 187.757,214.27 192.223,229.726 197.293,230.254 204.214,215.652 
	199.466,215.286 "/>
<path fill="#FFFFFF" d="M226.348,227.407c0.08-0.57,0.08-1.099,0.08-1.628c-0.08-0.527-0.242-1.016-0.483-1.667
	c-0.201-0.489-0.564-1.018-1.086-1.425c-0.441-0.527-1.247-0.934-2.093-1.382c-1.971-0.854-3.62-0.895-4.989-0.203
	c-1.488,0.651-2.696,2.277-3.701,4.962c-0.523,1.058-0.846,2.115-1.006,3.092c-0.242,0.936-0.242,1.667-0.161,2.358
	c0.241,1.018,0.563,1.83,1.207,2.359c0.523,0.692,1.369,1.383,2.536,1.872c2.052,0.894,3.823,0.935,5.151,0.081
	c1.408-0.773,2.535-2.482,3.58-5.004C225.784,229.644,226.105,228.586,226.348,227.407z M221.519,229.319
	c-0.564,1.302-1.046,2.195-1.409,2.725c-0.403,0.529-0.765,0.936-1.126,1.058c-0.443,0.162-0.806,0.162-1.208,0
	c-0.604-0.244-0.965-0.773-1.005-1.587c-0.041-0.732,0.321-2.033,1.085-3.74c0.684-1.791,1.329-2.97,1.851-3.58
	c0.564-0.448,1.167-0.652,1.852-0.244c0.562,0.163,0.924,0.732,0.924,1.424C222.604,226.227,222.201,227.57,221.519,229.319z"/>
<path fill="#FFFFFF" d="M231.9,238.794c0.323-0.041,1.086-0.041,2.012-0.041c1.811-0.081,3.099-0.364,4.024-0.65
	c0.925-0.528,1.57-1.058,2.174-1.791c0.361-0.771,0.643-1.585,0.643-2.44c0-0.772-0.323-1.545-0.804-2.359
	c-0.523-0.691-1.37-1.504-2.535-2.277c-1.289-0.773-2.254-1.302-3.179-1.423c-0.765-0.081-1.61,0-2.293,0.202
	c-0.725,0.447-1.531,0.936-2.294,1.832l3.339,2.603c0.563-0.692,1.046-0.937,1.489-1.018c0.442-0.163,1.005,0,1.287,0.163
	c0.564,0.366,0.806,0.732,0.846,1.261c0.121,0.446,0.081,0.813-0.08,1.138c-0.282,0.448-0.766,0.651-1.289,0.977
	c-0.482,0.244-1.529,0.326-3.017,0.326c-2.536,0.122-4.387,0.488-5.554,0.976c-1.248,0.528-2.253,1.221-3.058,2.157l10.503,7.117
	l1.85-2.929l-5.433-3.62C231.015,238.917,231.499,238.876,231.9,238.794z"/>
<path fill="#FFFFFF" d="M247.796,259.295c0.644,0.365,1.328,0.731,2.213,0.935c0.924,0.122,1.811,0.082,2.616-0.326
	c1.005-0.285,2.092-0.813,3.258-1.952c0.846-0.569,1.53-1.26,2.094-2.033c0.523-0.773,0.885-1.667,1.046-2.522
	c0.201-0.896,0.161-1.708-0.081-2.603c-0.282-0.896-0.844-1.952-1.69-2.97l-4.386-5.409l-11.55,9.558l4.386,5.45
	C246.226,257.993,246.87,258.685,247.796,259.295z M253.268,248.313l0.724,0.853c0.725,0.936,1.046,1.832,0.966,2.523
	c-0.161,0.731-0.805,1.708-2.092,2.724c-0.886,0.813-1.61,1.18-2.254,1.383c-0.481,0.163-1.006,0.123-1.448-0.081
	c-0.403-0.122-0.926-0.57-1.449-1.384l-0.846-0.854L253.268,248.313z"/>
<path fill="#FFFFFF" d="M254.637,263.444c-0.483,0.529-0.765,1.018-1.127,1.789c-0.241,0.611-0.402,1.343-0.402,1.954
	c0,0.69,0.081,1.422,0.402,2.318c0.362,0.731,0.644,1.545,0.845,2.237c0.604,1.139,1.289,2.032,1.971,2.684
	c0.524,0.53,1.168,0.896,1.893,1.057c0.804,0.325,1.689,0.447,2.495,0.325c0.804-0.163,1.649-0.325,2.374-0.69l8.008-3.986
	l-2.093-4.189l-8.169,3.985c-0.765,0.448-1.329,0.488-1.973,0.285c-0.724-0.203-1.045-0.61-1.449-1.341
	c-0.322-0.814-0.402-1.506-0.322-2.076c0.322-0.649,0.806-1.178,1.45-1.504l8.249-4.026l-2.173-4.313l-7.887,4.15
	C256.084,262.345,255.32,262.833,254.637,263.444z"/>
<polygon fill="#FFFFFF" points="259.706,285.448 273.993,281.258 272.786,276.744 258.46,280.933 "/>
<path fill="#FFFFFF" d="M271.377,287.156c-1.168,0.122-1.972,0.692-2.656,1.667c-0.645,0.936-1.087,2.521-1.329,4.638
	c-0.081,1.219-0.242,2.115-0.604,2.4c-0.242,0.448-0.483,0.608-0.885,0.608c-0.442,0.082-0.804-0.039-1.208-0.364
	c-0.241-0.285-0.483-0.814-0.564-1.465c-0.161-0.894,0.162-1.626,0.564-2.155c0.403-0.285,0.926-0.529,1.609-0.814l-0.804-4.393
	c-1.449,0.326-2.616,1.058-3.501,2.115c-0.886,1.139-1.167,2.969-0.766,5.613c0.122,1.343,0.443,2.603,1.047,3.54
	c0.483,0.934,1.208,1.626,2.092,2.033c0.765,0.407,1.771,0.57,2.696,0.407c0.805-0.082,1.49-0.244,2.051-0.773
	c0.645-0.488,1.087-1.219,1.49-2.196c0.322-0.895,0.564-2.4,0.765-4.555c0.04-0.814,0.2-1.343,0.401-1.587
	c0.081-0.285,0.282-0.448,0.523-0.448c0.403,0,0.604,0,0.886,0.326c0.282,0.244,0.443,0.651,0.524,1.139
	c0.04,0.651,0,1.219-0.283,1.667c-0.242,0.448-0.644,0.732-1.45,0.936l0.887,4.393c1.447-0.407,2.535-1.098,3.058-2.237
	c0.644-1.181,0.803-2.563,0.563-4.637c-0.202-1.587-0.563-2.644-0.967-3.62c-0.482-0.813-1.127-1.545-1.891-1.83
	C272.906,287.196,272.141,287.034,271.377,287.156z"/>
<path fill="#FFFFFF" d="M262.282,303.833l-0.846,8.013v2.114c0.081,0.936,0.161,1.504,0.241,1.871
	c0.444,0.651,0.846,1.221,1.37,1.708c0.563,0.448,1.327,0.61,2.052,0.651c0.965,0.122,1.689-0.082,2.414-0.488
	c0.724-0.488,1.208-1.219,1.568-2.237c0.121,0.651,0.484,1.261,0.846,1.75c0.564,0.528,1.289,0.853,2.133,0.935
	c1.127,0.123,1.933-0.122,2.736-0.854c0.806-0.691,1.37-1.831,1.45-3.254l0.803-8.786L262.282,303.833z M267.755,311.438
	c-0.12,0.895-0.322,1.504-0.523,1.749c-0.442,0.326-0.685,0.449-1.167,0.367c-0.482-0.041-0.845-0.245-1.046-0.529
	c-0.322-0.407-0.403-0.975-0.362-1.79l0.282-2.359l3.139,0.245L267.755,311.438z M273.429,311.764
	c-0.081,0.69-0.242,1.22-0.523,1.422c-0.201,0.326-0.604,0.326-1.046,0.326c-0.482,0-0.764-0.204-1.006-0.488
	c-0.241-0.285-0.362-0.935-0.241-1.626l0.241-2.074l2.777,0.366L273.429,311.764z"/>
<path fill="#FFFFFF" d="M263.691,321.037c-0.604,0-1.208,0.082-1.933,0.406c-0.684,0.163-1.207,0.693-1.77,0.978
	c-0.483,0.608-0.806,1.218-1.127,2.032c-0.401,0.773-0.764,1.626-0.885,2.278c-0.483,1.261-0.644,2.277-0.564,3.213
	c0,0.733,0.161,1.544,0.564,2.196c0.362,0.733,0.885,1.464,1.529,1.953c0.564,0.448,1.329,0.976,2.172,1.221l8.451,2.806
	l1.569-4.474l-8.731-2.886c-0.685-0.245-1.289-0.733-1.53-1.263c-0.362-0.569-0.362-1.179-0.08-2.032
	c0.241-0.773,0.684-1.303,1.207-1.548c0.604-0.405,1.247-0.445,2.052-0.08l8.652,2.888l1.449-4.434l-8.411-2.847
	C265.583,321.159,264.656,321.037,263.691,321.037z"/>
<path fill="#FFFFFF" d="M252.263,340.072l5.15,3.092l-0.241,0.406c-0.161,0.365-0.523,0.608-0.846,0.772
	c-0.242,0.163-0.682,0.203-1.448,0.163l-5.191-0.285l-2.817,4.475l4.95,0.448c0.241,0,0.604,0,1.127-0.082
	c0.563-0.081,0.925-0.163,1.126-0.285c0.241-0.203,0.645-0.325,1.087-0.773c-0.282,0.57-0.362,1.302-0.362,1.708
	c0,0.772,0.161,1.505,0.443,1.993c0.403,0.69,0.885,1.26,1.569,1.668c0.846,0.528,1.611,0.813,2.415,0.731
	c0.765,0,1.529-0.365,2.133-0.813c0.564-0.57,1.207-1.587,2.054-2.766l4.023-6.631l-12.716-7.971L252.263,340.072z M258.339,347.556
	c0.161-0.651,0.321-0.975,0.522-1.178l1.046-1.627l2.495,1.586l-1.007,1.667c-0.562,0.773-0.884,1.26-1.327,1.342
	c-0.363,0.122-0.726,0.04-1.127-0.163c-0.282-0.121-0.482-0.487-0.603-0.73C258.218,348.085,258.218,347.841,258.339,347.556z"/>
<path fill="#FFFFFF" d="M252.061,354.186c-1.047-1.016-2.293-1.831-3.542-2.236c-1.327-0.407-2.615-0.407-3.782,0
	c-1.248,0.406-2.454,1.342-3.782,2.562c-0.925,1.098-1.69,2.076-2.254,3.091c-0.483,0.936-0.886,2.277-1.206,3.987l4.626,4.432
	l4.99-5.206l-2.213-2.196l-2.213,2.278l-1.047-0.977c0.242-0.771,0.483-1.301,0.644-1.749c0.162-0.407,0.564-0.773,0.925-1.178
	c0.765-0.895,1.529-1.14,2.495-1.14c1.046,0.122,2.013,0.61,3.139,1.789c1.046,1.018,1.691,2.075,1.771,3.051
	c0,0.896-0.24,1.75-1.006,2.48c-0.482,0.448-0.926,0.772-1.528,0.896c-0.443,0.082-1.046,0-1.53-0.245l-2.575,3.744
	c0.805,0.608,1.729,0.771,2.575,0.811c0.805,0.082,1.609-0.081,2.455-0.446c0.765-0.407,1.69-1.179,2.898-2.44
	c1.207-1.138,2.011-2.359,2.414-3.457c0.403-1.342,0.483-2.724,0.041-4.068C254.073,356.587,253.268,355.284,252.061,354.186z"/>
<path fill="#FFFFFF" d="M194.384,384.604c0,3.378-2.728,6.024-6.107,6.024c-3.337,0-6.105-2.646-6.105-6.024
	c0-3.459,2.768-6.188,6.105-6.188C191.657,378.417,194.384,381.145,194.384,384.604"/>
</svg>
