<?xml version="1.0" encoding="utf-8" standalone="no"?>

<!DOCTYPE svg PUBLIC "-//W3C//DTD SVG 1.1//EN" "http://www.w3.org/Graphics/SVG/1.1/DTD/svg11.dtd">
<svg version="1.1" id="Layer_1" xmlns="http://www.w3.org/2000/svg" xmlns:xlink="http://www.w3.org/1999/xlink" x="0px" y="0px"
	 width="231px" height="228px" viewBox="0 0 231 228" enable-background="new 0 0 231 228" xml:space="preserve">
<path fill-rule="evenodd" clip-rule="evenodd" d="M224.195,2c3.37,7.678-3.486,14.158-6.739,19.042
	c2.294,0.471,4.552,0.988,6.332,1.979c-1.317,3.628-7.236,1.773-10.693,3.174c-2.006,0.808-2.241,2.15-3.579,3.565
	c1.671,0.708,4.382,0.382,5.957,1.19c-2.65,2.373-6.18,3.875-11.108,3.969c-1.506,1.139-2.728,2.562-3.563,4.358
	c2.626-0.137,4.936-0.613,7.921-0.39c-1.318,1.898-2.562,3.441-5.148,4.358c-3.913,1.392-9.302-0.382-10.711,3.168
	c4.302,0.203,7.417,1.581,10.312,3.184c-2.129,2.113-6.682,3.174-11.107,3.166c-3.323,0-6.435-1.104-7.528,1.979
	c4.963,1.652,11.036,2.186,13.484,6.35c-4.213,0.708-9.497,1.241-14.281,0.794c-3.665-0.347-6.853-2.504-9.114-1.191
	c4.841,3.082,10.557,5.296,13.077,10.708c-6.805,1.964-13.652-0.275-18.235-3.174c-1.738-1.09-3.278-3.623-5.551-1.978
	c2.115,2.691,5.588,3.89,7.933,6.344c2.191,2.287,3.196,5.31,5.149,7.93c-6.24,1.233-12.033-0.593-16.651-2.779
	c-3.232-1.523-5.783-3.7-8.727-5.151c0.21,1.876,3.14,3.658,5.16,5.151c4.068,3.031,8.673,6.084,10.701,11.502
	c-13.032,1.278-19.173-4.393-26.176-9.51c-1.144-0.845-2.397-3.269-4.361-1.593c2.186,3.405,6.992,5.41,10.311,8.729
	c3.26,3.254,5.002,7.764,7.929,11.099c-11.501,0.648-19.366-5.246-26.171-10.709c-1.032-0.83-2.37-1.97-3.565-2.771
	c-1.217-0.822-2.216-2.186-3.964-1.191c0.324,2.323,3.671,3.465,5.941,5.154c6.48,4.798,13.092,10.902,16.258,19.431
	c-15.873-1.703-26.299-8.853-33.697-19.036c-2.015,0.247-3.492,1.011-5.159,1.587c10.204,6.314,19.621,13.43,25.378,24.196
	c-17.699-0.548-29.276-7.223-35.293-19.432c-2.363,0.007-3.423,1.328-5.549,1.578c10.522,6.402,19.28,16.67,25.376,26.177
	c-16.92-2.38-30.125-8.482-38.466-19.428c-1.473,0.771-2.546,1.939-4.367,2.373c11.258,7.39,22.45,14.833,29.348,26.582
	c-18.582,0.173-32.163-8.01-42.826-17.063c-1.342,0.505-2.518,1.184-3.565,1.985c13.328,8.482,28.13,15.481,33.7,31.731
	c-17.262,0.275-34.206-6.104-44.021-16.653c-0.922-0.996-2.544-3.075-4.357-5.168c-1.343-1.558-4.185-4.732-4.366-4.747
	c-1.767-0.174-6.69,6.149-7.533,7.129c-6.834,8.024-11.46,18.04-15.464,28.157c-1.017-2.756-2.021-5.83-2.778-9.121
	c-0.728-3.221-2.063-7.694-1.191-10.708c0.477-1.617,3.601-3.753,5.549-5.542c5.462-5.008,12.146-11.618,16.267-16.667
	c-7.131-18.962-5.5-49.242,8.325-59.488c5.125,13.263,10.103,28.765,9.917,46.011c1.696,0.243,1.614-1.292,3.173-1.192
	c-0.734-5.303-1.462-10.528-1.191-15.868c0.889-17.362,6.019-34.053,15.466-42.827c3.246,13.234,5.022,30.963,3.167,46.795
	c1.637,0.693,3.486-1.796,5.555-1.984c-2.049-22.666,3.586-40.734,14.282-51.949c2.698,13.473,1.827,32.04-0.8,44.812
	c1.369-0.352,2.559-0.873,3.568-1.58c-0.504-19.814,5.392-33.215,14.274-43.627c2.628,11.869,0.688,27.364-1.579,38.071
	c2.244,0.131,3.066-1.162,5.159-1.19c-0.507-16.359,2.491-29.233,11.097-36.485c2.744,9.7,1.966,22.904,0,32.914
	c1.222-0.238,2.064-0.845,3.177-1.191c0.723-14.994,5.331-28.237,13.478-34.5c0.349,11.315-1.116,20.824-2.771,30.141
	c1.215,0.289,1.17-0.685,2.381-0.396c1.469-2.735,1.588-5.883,2.376-8.726c2.315-8.342,5.801-16.092,11.897-21.02
	c1.336,9.409-0.533,19.035-3.173,25.775c1.57-0.151,2.877-0.555,3.96-1.183c1.07-11.235,4.78-19.814,11.509-25.378
	c0.506,8.572-0.567,15.556-2.38,21.806c0.729,0.714,2.167-1.248,3.571-1.19c0.645-6.769,2.968-12.881,5.939-17.845
	c0.806-1.335,1.971-3.709,3.578-3.572c0.195,6.286-0.245,11.92-1.595,16.654c0.818,0.533,2.712-1.234,3.968-1.581
	c-1.406-7.503,1.569-14.013,5.154-17.844c1.595,3.427,2.333,7.722,1.991,13.088c3.588,0.022,1.992-5.021,2.373-8.73
	c0.393-3.76,1.538-7.252,3.571-8.328c1.44,3.183,2.527,6.726,2.772,11.105c0.396,0.751,1.602-1.009,2.381-1.188
	c-1.731-5.58-0.207-11.555,1.986-15.472c2.459,1.898,2.848,5.874,3.571,9.525c1.053-0.269,1.509-1.141,2.373-1.588
	c-1.126-3.759-2.648-10.009-0.796-14.28c0.531-1.363,2.816,1.876,3.567,3.175c1.034,1.775,1.508,4.256,2.381,5.555
	c2.721-0.815,0.775-3.743,0.799-5.945c0.037-2.8,1.2-5.204,1.583-7.541c3.111,0.592,3.552,3.853,4.364,6.74
	C217.656,9.743,220.212,5.152,224.195,2"/>
<polyline points="3.934,170.34 8.565,170.34 17.406,185.291 17.463,185.291 17.463,170.34 21.822,170.34 21.822,192.636 
	17.167,192.636 8.365,177.712 8.298,177.712 8.298,192.636 3.934,192.636 3.934,170.34 "/>
<polyline points="25.892,170.34 41.738,170.34 41.738,174.466 30.553,174.466 30.553,179.242 40.814,179.242 40.814,183.052 
	30.553,183.052 30.553,188.521 41.977,188.521 41.977,192.636 25.892,192.636 25.892,170.34 "/>
<polyline points="65.888,192.636 61.265,192.636 57.677,177.467 57.622,177.467 54.085,192.636 49.374,192.636 43.767,170.34 
	48.419,170.34 51.775,185.521 51.833,185.521 55.513,170.34 59.874,170.34 63.497,185.709 63.553,185.709 67.022,170.34 
	71.593,170.34 65.888,192.636 "/>
<polyline points="81.146,188.769 92.511,174.466 82.031,174.466 82.031,170.34 98.709,170.34 98.709,174.206 87.344,188.521 
	99.004,188.521 99.004,192.636 81.146,192.636 81.146,188.769 "/>
<polyline points="102.194,170.34 118.039,170.34 118.039,174.466 106.846,174.466 106.846,179.242 117.124,179.242 117.124,183.052 
	106.846,183.052 106.846,188.521 118.278,188.521 118.278,192.636 102.194,192.636 102.194,170.34 "/>
<path d="M128.107,170.34h4.773l7.926,22.296h-4.84l-1.605-4.965h-7.922l-1.651,4.965h-4.728L128.107,170.34 M127.658,184.02h5.492
	l-2.676-8.184h-0.058L127.658,184.02z"/>
<polyline points="143.064,170.34 147.719,170.34 147.719,188.521 158.044,188.521 158.044,192.636 143.064,192.636 143.064,170.34 
	"/>
<path d="M167.613,170.34h4.771l7.922,22.296h-4.836l-1.602-4.965h-7.924l-1.66,4.965h-4.719L167.613,170.34 M167.158,184.02h5.493
	l-2.662-8.184h-0.067L167.158,184.02z"/>
<polyline points="182.565,170.34 187.19,170.34 196.037,185.291 196.098,185.291 196.098,170.34 200.462,170.34 200.462,192.636 
	195.8,192.636 186.989,177.712 186.933,177.712 186.933,192.636 182.565,192.636 182.565,170.34 "/>
<path d="M204.928,170.34h9.137c5.489,0,9.61,3.62,9.61,11.024c0,6.465-3.137,11.271-9.61,11.271h-9.137V170.34 M209.582,188.521
	h4.155c2.7,0,5.286-1.76,5.286-6.68c0-4.504-1.489-7.376-6.112-7.376h-3.329V188.521z"/>
<polyline points="29.753,201.74 44.648,201.74 44.648,205.855 34.406,205.855 34.406,211.008 43.284,211.008 43.284,214.815 
	34.406,214.815 34.406,224.039 29.753,224.039 29.753,201.74 "/>
<path d="M58.415,201.207c6.552,0,10.415,5.155,10.415,11.765c0,6.433-3.863,11.587-10.415,11.587
	c-6.56,0-10.419-5.154-10.419-11.587C47.996,206.362,51.855,201.207,58.415,201.207 M58.415,220.447
	c4.185,0,5.758-3.753,5.758-7.476c0-3.898-1.574-7.65-5.758-7.65s-5.758,3.752-5.758,7.65
	C52.656,216.694,54.23,220.447,58.415,220.447z"/>
<path d="M83.52,201.207c6.551,0,10.41,5.155,10.41,11.765c0,6.433-3.859,11.587-10.41,11.587c-6.567,0-10.42-5.154-10.42-11.587
	C73.099,206.362,76.952,201.207,83.52,201.207 M83.52,220.447c4.178,0,5.751-3.753,5.751-7.476c0-3.898-1.573-7.65-5.751-7.65
	c-4.186,0-5.758,3.752-5.758,7.65C77.762,216.694,79.334,220.447,83.52,220.447z"/>
<polyline points="103.37,205.855 97.028,205.855 97.028,201.74 114.383,201.74 114.383,205.855 108.033,205.855 108.033,224.039 
	103.37,224.039 103.37,205.855 "/>
<path d="M118.745,201.74h9.974c4.035,0,6.755,1.373,6.755,5.53c0,2.177-1.029,3.708-2.871,4.646c2.581,0.778,3.89,2.876,3.89,5.657
	c0,4.534-3.652,6.466-7.484,6.466h-10.263V201.74 M123.401,210.761h4.72c1.629,0,2.85-0.778,2.85-2.653
	c0-2.122-1.543-2.555-3.21-2.555h-4.359V210.761z M123.401,220.229h4.987c1.831,0,3.441-0.636,3.441-2.945
	c0-2.28-1.365-3.175-3.355-3.175h-5.073V220.229z"/>
<path d="M147.3,201.74h4.779l7.92,22.299h-4.839l-1.603-4.965h-7.926l-1.655,4.965h-4.717L147.3,201.74 M146.854,215.41h5.49
	l-2.67-8.171h-0.064L146.854,215.41z"/>
<polyline points="164.063,201.74 168.719,201.74 168.719,219.912 179.051,219.912 179.051,224.039 164.063,224.039 164.063,201.74 
	"/>
<polyline points="183.495,201.74 188.157,201.74 188.157,219.912 198.486,219.912 198.486,224.039 183.495,224.039 183.495,201.74 
	"/>
</svg>
