<?xml version="1.0" encoding="UTF-8" standalone="no"?>
<svg
   xmlns:dc="http://purl.org/dc/elements/1.1/"
   xmlns:cc="http://creativecommons.org/ns#"
   xmlns:rdf="http://www.w3.org/1999/02/22-rdf-syntax-ns#"
   xmlns:svg="http://www.w3.org/2000/svg"
   xmlns="http://www.w3.org/2000/svg"
   xmlns:sodipodi="http://sodipodi.sourceforge.net/DTD/sodipodi-0.dtd"
   xmlns:inkscape="http://www.inkscape.org/namespaces/inkscape"
   width="265.59842"
   version="1.1"
   height="385.10721"
   viewBox="0 0 212.47874 308.08577"
   id="svg2869"
   inkscape:version="0.47 r22583"
   sodipodi:docname="SPAL-Seite001.svg">
  <metadata
     id="metadata2918">
    <rdf:RDF>
      <cc:Work
         rdf:about="">
        <dc:format>image/svg+xml</dc:format>
        <dc:type
           rdf:resource="http://purl.org/dc/dcmitype/StillImage" />
        <dc:title></dc:title>
      </cc:Work>
    </rdf:RDF>
  </metadata>
  <sodipodi:namedview
     pagecolor="#ffffff"
     bordercolor="#666666"
     borderopacity="1"
     objecttolerance="10"
     gridtolerance="10"
     guidetolerance="10"
     inkscape:pageopacity="0"
     inkscape:pageshadow="2"
     inkscape:window-width="1152"
     inkscape:window-height="804"
     id="namedview2916"
     showgrid="false"
     inkscape:zoom="2.2010954"
     inkscape:cx="140.52185"
     inkscape:cy="216.02044"
     inkscape:window-x="-4"
     inkscape:window-y="-4"
     inkscape:window-maximized="1"
     inkscape:current-layer="svg2869" />
  <defs
     id="defs2871">
    <inkscape:perspective
       sodipodi:type="inkscape:persp3d"
       inkscape:vp_x="0 : 121.25 : 1"
       inkscape:vp_y="0 : 1000 : 0"
       inkscape:vp_z="242.5 : 121.25 : 1"
       inkscape:persp3d-origin="121.25 : 80.833333 : 1"
       id="perspective2920" />
    <clipPath
       id="Clip0">
      <path
         d="m 0,0 192.756,0 0,192.756 L 0,192.756 0,0 z"
         transform="translate(0.259766,0.676758)"
         id="path2874" />
    </clipPath>
  </defs>
  <g
     id="Hintergrund"
     transform="matrix(1.6033831,0,0,1.6467513,-48.707411,-5.7829308)">
    <g
       id="Gruppe1"
       clip-path="url(#Clip0)">
      <path
         style="fill:#ffffff;fill-rule:evenodd;stroke:none"
         d="M 0,38.5821 C 0.0059,38.5293 0.0127,38.4756 0.0186,38.4219 0.0889,37.8204 0.1641,37.2198 0.2432,36.6221 0.253,36.5508 0.2627,36.4786 0.2725,36.4063 2.0713,22.9883 5.9551,10.6133 11.419,0 c 14.4912,6.7784 31.9297,10.7452 50.666,10.7452 18.7362,0 36.1802,-3.9649 50.672,-10.7432 5.757,11.1836 9.762,24.3252 11.419,38.5811 C 107.827,48.9463 86.0032,55.293 62.0889,55.293 38.1739,55.293 16.3496,48.9454 0,38.5821 z"
         transform="translate(34.5488,43.6357)"
         id="path2880" />
      <path
         style="fill:#00a3dd;fill-rule:evenodd;stroke:none"
         d="m 125.399,0 c 0.059,0.666 0.113,1.334 0.161,2.0049 0.004,0.0615 0.009,0.124 0.014,0.1855 0.049,0.709 0.093,1.4199 0.132,2.1338 10e-4,0.0352 0.003,0.0693 0.005,0.1055 0.039,0.7353 0.073,1.4726 0.099,2.2119 0.001,0.0195 0.001,0.0381 0.002,0.0576 0.026,0.7441 0.046,1.4902 0.06,2.2402 0.001,0.0264 0.001,0.0528 0.001,0.0791 0.013,0.7588 0.021,1.5196 0.021,2.2813 0,49.6983 -28.2774,90.2302 -62.9467,90.2302 C 28.2764,101.53 0,60.9981 0,11.2998 0,10.5381 0.0069,9.7773 0.0205,9.0185 c 0,-0.0263 10e-4,-0.0527 10e-4,-0.08 C 0.0352,8.1904 0.0547,7.4443 0.0811,6.7002 0.0811,6.6806 0.0821,6.6601 0.083,6.6406 0.1104,5.8867 0.1436,5.1357 0.1836,4.3867 0.1836,4.3789 0.1846,4.3711 0.1846,4.3623 0.2237,3.6299 0.2696,2.8994 0.3213,2.1719 0.3242,2.1211 0.3291,2.0713 0.3321,2.0205 0.3809,1.3457 0.4346,0.6719 0.4942,0.001 16.9766,10.2734 38.916,16.5571 62.9473,16.5571 86.9776,16.5571 108.916,10.2724 125.399,0 z"
         transform="translate(33.6904,85.7549)"
         id="path2882" />
      <path
         style="fill:#00a3dd;fill-rule:evenodd;stroke:none"
         d="m 49.1729,0 c 0.4932,0 0.9853,0.01074 1.4766,0.02734 0.0752,0.00196 0.1494,0.00391 0.2246,0.00782 0.4687,0.01757 0.9355,0.04394 1.4004,0.07617 0.0859,0.00586 0.1728,0.01269 0.2587,0.01953 0.47,0.03515 0.938,0.07715 1.404,0.12793 0.063,0.00683 0.125,0.01367 0.188,0.02148 0.483,0.05469 0.967,0.11524 1.448,0.18555 0.008,9.8e-4 0.017,0.00195 0.025,0.00293 0.473,0.06933 0.944,0.14844 1.414,0.23242 0.085,0.01563 0.169,0.03027 0.254,0.0459 0.446,0.08301 0.89,0.17285 1.332,0.26855 0.095,0.02051 0.191,0.04102 0.286,0.0625 0.443,0.09864 0.883,0.20411 1.324,0.31641 0.081,0.02051 0.16,0.04199 0.24,0.06348 0.427,0.11132 0.852,0.22754 1.275,0.35156 0.05,0.01465 0.101,0.02832 0.151,0.04297 0.434,0.1289 0.865,0.26562 1.297,0.40722 0.098,0.03223 0.199,0.06348 0.298,0.09668 0.415,0.13965 0.829,0.28516 1.24,0.43555 0.114,0.04199 0.227,0.08496 0.342,0.12695 0.408,0.15332 0.815,0.31054 1.221,0.47564 0.099,0.041 0.199,0.083 0.298,0.124 0.369,0.1533 0.736,0.3095 1.102,0.4717 0.1,0.0449 0.201,0.0888 0.301,0.1328 0.374,0.1699 0.747,0.3447 1.119,0.5224 0.126,0.0616 0.253,0.1211 0.378,0.1836 0.373,0.1817 0.743,0.3701 1.112,0.5625 0.14,0.0733 0.278,0.1465 0.417,0.2207 0.367,0.1953 0.733,0.3946 1.098,0.5996 0.125,0.0703 0.25,0.1436 0.374,0.2149 0.299,0.1728 0.598,0.3486 0.895,0.5263 0.157,0.0948 0.315,0.1885 0.47,0.2852 0.315,0.1934 0.63,0.3916 0.942,0.5928 0.148,0.0937 0.294,0.1885 0.442,0.2842 0.324,0.2128 0.647,0.4296 0.969,0.6503 0.172,0.1182 0.343,0.2373 0.513,0.3565 0.28,0.1963 0.56,0.3955 0.838,0.5986 0.2,0.1455 0.398,0.29302 0.598,0.44142 0.207,0.1563 0.415,0.3125 0.621,0.4707 0.253,0.1953 0.505,0.3916 0.755,0.5909 0.208,0.164 0.414,0.3291 0.619,0.496 0.183,0.1504 0.368,0.3008 0.55,0.4532 0.281,0.2334 0.56,0.4707 0.838,0.7109 0.19,0.1641 0.378,0.3291 0.567,0.4971 0.174,0.1523 0.345,0.3076 0.517,0.4629 0.291,0.2627 0.58,0.5283 0.868,0.7978 0.137,0.1289 0.275,0.2588 0.413,0.3897 0.339,0.3242 0.677,0.6533 1.012,0.9863 0.096,0.0947 0.191,0.1885 0.285,0.2842 0.673,0.6758 1.336,1.3691 1.989,2.081 0.058,0.0625 0.115,0.126 0.173,0.1895 0.401,0.4414 0.799,0.8896 1.193,1.3437 0.028,0.0323 0.055,0.0635 0.083,0.0948 3.584,4.1484 6.846,8.8476 9.723,14.0058 C 84.2012,40.5303 67.3012,44.3281 49.1729,44.3281 31.044,44.3281 14.1426,40.5303 0,34.0166 2.5215,29.4951 5.3399,25.3262 8.4112,21.5723 c 0.0224,-0.0283 0.0459,-0.0567 0.0683,-0.085 0.3946,-0.4795 0.792,-0.9531 1.1944,-1.4199 0.0615,-0.0703 0.122,-0.1406 0.1836,-0.2109 0.3603,-0.4161 0.7246,-0.8252 1.0927,-1.2295 0.0791,-0.0879 0.1582,-0.1758 0.2393,-0.2627 0.3262,-0.3565 0.6562,-0.7071 0.9873,-1.0537 0.1162,-0.1221 0.2324,-0.2452 0.3496,-0.3653 0.1983,-0.205 0.3975,-0.4072 0.5977,-0.6074 0.1357,-0.1367 0.2724,-0.2715 0.4082,-0.4062 0.3047,-0.3018 0.6103,-0.5996 0.9189,-0.8926 0.1416,-0.1358 0.2842,-0.2705 0.4278,-0.4043 0.2666,-0.25 0.5351,-0.4981 0.8046,-0.7422 0.1944,-0.1758 0.3897,-0.3516 0.585,-0.5244 0.1846,-0.1621 0.3691,-0.3242 0.5537,-0.4834 0.2783,-0.2412 0.5576,-0.4785 0.8389,-0.7119 0.1787,-0.1494 0.3564,-0.2969 0.5371,-0.4434 0.2148,-0.1738 0.4316,-0.3476 0.6484,-0.5195 0.2412,-0.1904 0.4824,-0.3799 0.7246,-0.5654 0.2159,-0.1661 0.4317,-0.3301 0.6485,-0.4922 0.1914,-0.1436 0.3838,-0.28622 0.5761,-0.42682 0.2862,-0.208 0.5733,-0.4121 0.8614,-0.6143 0.1601,-0.1123 0.3203,-0.2246 0.4814,-0.3349 0.335,-0.2295 0.6709,-0.4551 1.0088,-0.6768 0.1348,-0.0879 0.2695,-0.1738 0.4043,-0.2607 0.3174,-0.2031 0.6357,-0.4043 0.9561,-0.6006 0.1513,-0.0937 0.3027,-0.1846 0.455,-0.2764 0.3067,-0.1845 0.6153,-0.3652 0.9248,-0.5429 0.1202,-0.0694 0.2383,-0.1387 0.3594,-0.2061 0.374,-0.2119 0.751,-0.416 1.1289,-0.6182 0.1192,-0.0634 0.2393,-0.1259 0.3584,-0.1884 0.3789,-0.1983 0.7598,-0.3916 1.1416,-0.5791 0.1201,-0.0596 0.2412,-0.1162 0.3623,-0.1748 0.3946,-0.1895 0.791,-0.376 1.1895,-0.5547 0.0703,-0.0323 0.1426,-0.0625 0.2138,-0.0948 0.376,-0.166 0.754,-0.3271 1.1319,-0.4843 0.0996,-0.041 0.1992,-0.083 0.2988,-0.124 0.4063,-0.1651 0.8125,-0.32232 1.2207,-0.47564 0.1143,-0.04199 0.2276,-0.08496 0.3418,-0.12695 0.4121,-0.15137 0.8272,-0.29687 1.2432,-0.43555 0.0937,-0.03222 0.1875,-0.0625 0.2812,-0.09277 0.4405,-0.14551 0.8809,-0.28418 1.3242,-0.41601 0.042,-0.01172 0.085,-0.02344 0.127,-0.03516 0.4268,-0.125 0.8555,-0.24317 1.2852,-0.35449 0.08,-0.02149 0.1601,-0.04297 0.2402,-0.06348 0.4394,-0.1123 0.8818,-0.21777 1.3242,-0.31641 0.0957,-0.02148 0.1904,-0.04199 0.2852,-0.0625 0.4433,-0.09668 0.8877,-0.18554 1.333,-0.26855 0.084,-0.01563 0.1689,-0.03027 0.2539,-0.0459 0.4697,-0.08398 0.9404,-0.16309 1.414,-0.23242 C 42.754,0.46777 42.7627,0.4668 42.7715,0.46582 43.252,0.39551 43.7354,0.33496 44.2198,0.28027 44.2813,0.27246 44.3438,0.26562 44.4063,0.25879 44.8731,0.20801 45.3418,0.16601 45.8116,0.13086 45.8975,0.12402 45.9844,0.11719 46.0694,0.11133 46.5342,0.07812 47.001,0.05273 47.4698,0.03516 47.545,0.03125 47.6202,0.0293 47.6944,0.02734 48.1856,0.01074 48.6778,0 49.1729,0 z"
         transform="translate(47.4648,6.82422)"
         id="path2884" />
      <path
         style="fill:#c9ad76;fill-rule:evenodd;stroke:none"
         d="m 66.2598,0 c 36.4942,0 66.2592,42.0215 66.2592,93.543 0,51.522 -29.765,93.544 -66.2592,93.544 C 29.7657,187.087 0,145.065 0,93.543 0,42.0215 29.7657,0 66.2598,0 z M 17.0869,37.3291 c 14.1426,6.5137 31.044,10.3115 49.1729,10.3115 18.1283,0 35.0282,-3.7978 49.1712,-10.3115 C 103.882,16.6201 86.1211,3.3125 66.2598,3.3125 c -19.8633,0 -37.624,13.3067 -49.1729,34.0166 z M 116.928,40.126 C 102.436,46.9043 84.9921,50.8692 66.2559,50.8692 47.5196,50.8692 30.0811,46.9024 15.5899,40.124 9.833,51.3076 5.8282,64.4492 4.17,78.7061 20.5196,89.0694 42.3448,95.417 66.2598,95.417 90.1741,95.417 111.998,89.0703 128.347,78.7071 126.69,64.4512 122.685,51.3096 116.928,40.126 z m 11.783,42.1172 C 112.228,92.5156 90.2901,98.8003 66.2598,98.8003 42.2285,98.8003 20.2891,92.5166 3.8057,82.2442 3.4795,85.9463 3.3125,89.7178 3.3125,93.543 c 0,49.698 28.2764,90.23 62.9473,90.23 34.6692,0 62.9462,-40.532 62.9462,-90.23 0,-3.8252 -0.168,-7.5977 -0.495,-11.2998 z"
         transform="translate(30.3779,3.51172)"
         id="path2886" />
      <path
         style="fill:#575453;fill-rule:evenodd;stroke:none"
         d="M 2.251,16.565 C 0.9707,11.331 0.1924,5.771 0,0 l 56.2938,0 c -0.192,5.771 -0.971,11.331 -2.253,16.565 l -51.7898,0 z"
         transform="translate(68.4902,126.704)"
         id="path2888" />
      <path
         style="fill:#ffffff;fill-rule:evenodd;stroke:none"
         d="M 25.8965,36.839 C 13.7949,30.794 4.1983,17.15 0,0 l 51.7898,0 c -4.197,17.15 -13.794,30.794 -25.8933,36.839 z"
         transform="translate(70.7412,143.269)"
         id="path2890" />
      <path
         style="fill:#c9ad76;fill-rule:evenodd;stroke:none"
         d="m 0,22.7822 c 0.9736,-1.248 1.9414,-2.4912 2.8994,-3.7256 0.877,1.0176 1.8281,1.8829 2.8125,2.5684 0.9893,0.6895 2.0166,1.2139 3.0439,1.5508 3.2198,1.0547 4.9405,0.5049 5.2725,-1.5967 0.1465,-0.9238 0.0205,-1.8447 -0.6836,-2.9834 C 12.6474,17.4668 11.3769,16.1113 9.2412,14.3164 7.1787,12.6123 5.9267,11.4365 5.1387,10.4424 4.3584,9.4561 4.0342,8.6406 3.8369,7.6797 3.5215,6.6816 3.4707,5.666 3.6816,4.627 4.0674,2.7227 5.29,1.3701 7.0449,0.6934 8.793,0.0186 11.0898,0 13.6601,0.7813 c 1.6172,0.4921 3.0069,1.0546 4.1758,1.6748 1.1709,0.623 2.1162,1.3154 2.833,2.0752 -0.7148,1.1152 -1.4365,2.2412 -2.1611,3.374 C 17.7344,7.0615 16.8779,6.3535 15.9756,5.7891 15.0752,5.2275 14.124,4.7949 13.1553,4.4951 10.7353,3.752 9.2021,4.4746 8.8945,6.1387 8.7597,6.8711 9.082,7.7539 9.8633,8.7969 c 0.7861,1.0508 2.0439,2.2676 3.7714,3.6689 1.8584,1.5098 3.0958,2.6866 3.9542,3.7754 0.8671,1.0987 1.3535,2.1143 1.7207,3.3018 0.2578,1.04 0.3564,2.2754 0.1777,3.5605 -0.3115,2.2373 -1.6729,3.8584 -3.7949,4.6377 C 13.5576,28.5254 10.667,28.4561 7.3418,27.3516 5.9092,26.877 4.5801,26.2481 3.3555,25.4805 2.1347,24.7158 1.0195,23.8096 0,22.7822 z"
         transform="translate(46.3799,56.6289)"
         id="path2892" />
      <path
         style="fill:#c9ad76;fill-rule:evenodd;stroke:none"
         d="M 5.7607,18.0957 C 5.622,19.8222 5.4834,21.5527 5.3447,23.2822 5.206,25.0117 5.0673,26.7441 4.9277,28.4736 3.2841,28.3086 1.6406,28.1445 0,27.9795 0.3798,23.2988 0.7597,18.623 1.1377,13.956 1.5156,9.2998 1.8935,4.6445 2.2705,0 c 1.6582,0.1074 2.9443,0.1777 3.8877,0.2295 0.9423,0.0527 1.5449,0.0791 1.8291,0.1074 4.2734,0.4316 7.2998,1.4189 9.1982,3.0097 1.9014,1.5928 2.6816,3.7969 2.458,6.6661 -0.2471,3.1718 -1.3476,5.4619 -3.2988,6.8632 -1.9541,1.4043 -4.7617,1.9219 -8.4209,1.5537 C 7.3515,18.372 6.665,18.3027 5.7607,18.0957 z M 6.8252,4.8222 C 6.706,6.3095 6.5859,7.7978 6.4677,9.2812 c -0.1191,1.4844 -0.2392,2.9766 -0.3584,4.4609 0.7891,0.1983 1.3614,0.2559 1.9326,0.3135 2.1719,0.2188 3.7725,0.0254 4.8604,-0.6484 C 13.9912,12.7334 14.5712,11.5761 14.706,9.872 14.8212,8.4072 14.3339,7.2656 13.2646,6.4355 12.1962,5.6054 10.54,5.08 8.3173,4.8564 7.7461,4.7988 7.291,4.7529 6.8252,4.8222 z"
         transform="translate(75.0977,61.4268)"
         id="path2894" />
      <path
         style="fill:#c9ad76;fill-rule:evenodd;stroke:none"
         d="M 0,2.9697 C 0,1.2871 1.2871,0 2.9697,0 c 1.584,0 2.8711,1.2871 2.8711,2.9697 0,1.584 -1.2871,2.8711 -2.8711,2.8711 C 1.2871,5.8408 0,4.5537 0,2.9697 z"
         transform="translate(66.1143,82.293)"
         id="path2896" />
      <path
         style="fill:#c9ad76;fill-rule:evenodd;stroke:none"
         d="M 0,2.9697 C 0,1.2871 1.2871,0 2.9697,0 c 1.584,0 2.8711,1.2871 2.8711,2.9697 0,1.584 -1.2871,2.8711 -2.8711,2.8711 C 1.2871,5.8408 0,4.5537 0,2.9697 z"
         transform="translate(89.9004,85.208)"
         id="path2898" />
      <path
         style="fill:#c9ad76;fill-rule:evenodd;stroke:none"
         d="M 0,2.9707 C 0,1.2871 1.287,0 2.971,0 c 1.584,0 2.87,1.2871 2.87,2.9707 0,1.584 -1.286,2.8711 -2.87,2.8711 C 1.287,5.8418 0,4.5547 0,2.9707 z"
         transform="translate(123.828,81.8545)"
         id="path2900" />
      <path
         style="fill:#c9ad76;fill-rule:evenodd;stroke:none"
         d="m 20.239,22.1875 c -2.274,0.8848 -4.575,1.7793 -6.898,2.6827 -2.351,0.914 -4.733,1.8408 -7.14,2.7763 C 5.11,23.0108 4.044,18.4688 3,14.0264 1.98,9.6836 0.979,5.4258 0,1.2559 1.316,0.835 2.625,0.417 3.925,0 c 0.846,3.4561 1.71,6.9698 2.588,10.543 0.894,3.6377 1.806,7.3438 2.733,11.1172 1.674,-0.6318 3.334,-1.2568 4.98,-1.8779 1.631,-0.6153 3.251,-1.2276 4.859,-1.835 0.382,1.4043 0.767,2.8213 1.154,4.2402 z"
         transform="translate(127.705,58.1484)"
         id="path2902" />
      <path
         style="fill:#c9ad76;fill-rule:evenodd;stroke:none"
         d="M 0,2.9698 C 0,1.2871 1.286,0 2.97,0 4.554,0 5.841,1.2871 5.841,2.9698 5.841,4.5547 4.554,5.8409 2.97,5.8409 1.286,5.8409 0,4.5547 0,2.9698 z"
         transform="translate(149.825,71.79)"
         id="path2904" />
      <path
         style="fill:#c9ad76;fill-rule:evenodd;stroke:none"
         d="m 21.6652,26.5918 c -1.315,0.2539 -2.64,0.4893 -3.977,0.7031 -0.319,-2.498 -0.632,-4.956 -0.94,-7.3662 -1.956,0.2266 -3.916,0.46 -5.882,0.6836 -1.973,0.2246 -3.948,0.4619 -5.93,0.6895 0.201,2.4043 0.403,4.8545 0.61,7.3476 -1.36,0.0869 -2.727,0.1563 -4.103,0.2041 C 1.3452,27.4121 1.2482,25.9854 1.1512,24.5733 0.8352,19.9258 0.5262,15.4287 0.2305,11.0811 0,7.6612 0.9352,5.0088 3.1012,2.9336 c 0.84,-0.8037 1.742,-1.4199 2.688,-1.874 0.94,-0.4522 1.928,-0.7744 2.962,-0.9141 1.076,-0.1455 2.135,-0.0293 3.143,0.2334 1.014,0.2627 1.974,0.7442 2.92,1.3301 2.379,1.4766 3.838,3.8223 4.336,7.3057 0.608,4.2578 1.239,8.6601 1.89,13.2119 0.206,1.4385 0.414,2.8935 0.625,4.3652 z M 4.4842,15.874 c 1.94,-0.2128 3.878,-0.4375 5.809,-0.6503 1.925,-0.212 3.847,-0.4366 5.766,-0.6563 -0.222,-1.7334 -0.442,-3.4473 -0.658,-5.1406 -0.207,-1.6319 -1.091,-2.7061 -2.685,-3.5274 -1.221,-0.6298 -2.444,-0.9482 -3.445,-0.8418 -1.206,0.1289 -2.366,0.5479 -3.42,1.4366 -1.319,1.1132 -1.949,2.3916 -1.801,4.1699 0.142,1.7178 0.288,3.4521 0.434,5.2099 z"
         transform="translate(99.7168,62.3408)"
         id="path2906" />
      <path
         style="fill:#ffffff;fill-rule:evenodd;stroke:none"
         d="M 25.8965,36.839 C 13.7949,30.794 4.1983,17.15 0,0 l 51.7898,0 c -4.197,17.15 -13.794,30.794 -25.8933,36.839 z"
         transform="translate(70.7412,143.269)"
         id="path2908" />
      <path
         style="fill:#c9ad76;fill-rule:nonzero;stroke:none"
         d="M 27.1338,38.902 26.6992,38.685 C 20.502,35.59 14.9531,30.558 10.4238,24.114 5.9209,17.709 2.4219,9.899 0.294,1.203 L 0,0 54.2661,0 53.9721,1.203 c -2.129,8.696 -5.628,16.506 -10.13,22.911 -4.53,6.444 -10.077,11.476 -16.2747,14.571 l -0.4336,0.217 z m 0,-2.18 c 5.7303,-2.967 10.8793,-7.698 15.1173,-13.727 4.159,-5.918 7.437,-13.079 9.527,-21.046 l -49.2908,0 c 2.0889,7.967 5.3682,15.128 9.5274,21.046 4.2382,6.029 9.3877,10.76 15.1191,13.727 z"
         transform="translate(69.5039,142.294)"
         id="path2910" />
      <path
         style="fill:#575453;fill-rule:evenodd;stroke:none"
         d="M 2.251,16.565 C 0.9707,11.331 0.1924,5.771 0,0 l 56.2938,0 c -0.192,5.771 -0.971,11.331 -2.253,16.565 l -51.7898,0 z"
         transform="translate(68.4902,126.704)"
         id="path2912" />
      <path
         style="fill:#c9ad76;fill-rule:nonzero;stroke:none"
         d="M 2.4991,18.514 2.3165,17.768 C 1.6612,15.092 1.1368,12.334 0.752,9.508 0.3731,6.716 0.1299,3.876 0.0342,1.005 L 0,0 58.3106,0 58.2766,1.005 c -0.096,2.87 -0.339,5.708 -0.718,8.499 -0.385,2.828 -0.909,5.587 -1.564,8.264 l -0.183,0.746 -53.3125,0 z m 1.5273,-1.949 50.2582,0 c 0.555,-2.376 1.008,-4.819 1.348,-7.318 0.322,-2.37 0.543,-4.805 0.656,-7.297 l -54.2661,0 c 0.1133,2.493 0.334,4.929 0.6553,7.3 0.3408,2.499 0.7929,4.941 1.3486,7.315 z"
         transform="translate(67.4814,125.729)"
         id="path2914" />
    </g>
  </g>
</svg>
