<?xml version="1.0" encoding="utf-8"?>
<!-- Generator: Adobe Illustrator 13.0.2, SVG Export Plug-In . SVG Version: 6.00 Build 14948)  -->
<!DOCTYPE svg PUBLIC "-//W3C//DTD SVG 1.0//EN" "http://www.w3.org/TR/2001/REC-SVG-20010904/DTD/svg10.dtd">
<svg version="1.0" id="Ebene_1" xmlns="http://www.w3.org/2000/svg" xmlns:xlink="http://www.w3.org/1999/xlink" x="0px" y="0px"
	 width="333.146px" height="351.494px" viewBox="0 0 333.146 351.494" enable-background="new 0 0 333.146 351.494"
	 xml:space="preserve">
<path d="M2.264,0h330.881c0.342,243.365-165.73,351.029-165.73,351.029l-0.708,0.465l-0.605-0.426
	C166.101,351.068,0,244.822,0,0.948L0.012,0H2.264L2.264,0z"/>
<path fill="#FFED00" d="M6.175,4.163H329.18c0.332,236.409-161.786,340.995-161.786,340.995l-0.69,0.453l-0.591-0.414
	c0,0-162.147-103.211-162.147-340.115l0.013-0.919H6.175L6.175,4.163z"/>
<path fill-rule="evenodd" clip-rule="evenodd" d="M166.123,257.083c-14.879-14.113-30.675-32.152-44.862-54.641h-57.13
	c30.416,59.539,71.936,97.82,101.992,120.559c30.057-22.738,71.576-61.02,101.99-120.559h-57.131
	C196.795,224.931,181,242.97,166.123,257.083L166.123,257.083L166.123,257.083z M110.495,68.25h48.813v127.376h-42.217h-6.596
	h-49.75C43.812,160.581,30.798,118.487,25.974,68.25h50.709c4.459,46.394,17.369,84.58,33.813,115.611V68.25L110.495,68.25
	L110.495,68.25z M221.748,68.25h-48.813v127.376h42.217h6.596H271.5c16.934-35.045,29.943-77.139,34.771-127.376h-50.713
	c-4.455,46.394-17.365,84.58-33.811,115.611V68.25L221.748,68.25L221.748,68.25z"/>
<path fill-rule="evenodd" clip-rule="evenodd" d="M45.309,54.417l11.795-38.413H46.022l-6.523,23.533l-6.507-23.533H21.904
	l11.799,38.413H45.309L45.309,54.417L45.309,54.417z M81.775,54.417L93.57,16.004H82.489l-6.522,23.533l-6.508-23.533H58.372
	L70.17,54.417H81.775L81.775,54.417L81.775,54.417z M118.236,54.417l11.795-38.413h-11.078l-6.523,23.533l-6.506-23.533H94.836
	l11.797,38.413H118.236L118.236,54.417L118.236,54.417z M165.37,54.178l11.794-38.412h-11.077l-6.523,23.533l-6.51-23.533h-11.085
	l11.799,38.412H165.37L165.37,54.178L165.37,54.178z M292.711,55.144c-2.387,0-4.586-0.381-6.594-1.148
	c-2.016-0.767-3.801-1.918-5.357-3.445c-1.902-1.843-3.338-4.07-4.324-6.693c-0.982-2.622-1.477-5.523-1.477-8.714
	c0-1.68,0.117-3.21,0.346-4.595c0.229-1.391,0.607-2.758,1.131-4.109c0.967-2.561,2.422-4.784,4.369-6.68
	c1.531-1.514,3.297-2.649,5.299-3.402c2.002-0.754,4.199-1.136,6.607-1.136c2.369,0,4.561,0.382,6.568,1.136
	c2.01,0.753,3.795,1.889,5.359,3.402c1.857,1.81,3.283,4.017,4.275,6.623c0.996,2.616,1.486,5.537,1.486,8.761
	c0,3.26-0.471,6.175-1.42,8.744c-0.943,2.566-2.381,4.787-4.297,6.663c-1.539,1.479-3.316,2.615-5.328,3.405
	C297.344,54.749,295.127,55.144,292.711,55.144L292.711,55.144L292.711,55.144z M292.654,46.114c1.848,0,3.242-0.924,4.186-2.769
	c0.949-1.849,1.424-4.581,1.424-8.203c0-3.602-0.465-6.317-1.396-8.15c-0.93-1.829-2.299-2.742-4.104-2.742
	c-1.896,0-3.316,0.903-4.256,2.699c-0.938,1.807-1.408,4.535-1.408,8.193c0,3.635,0.459,6.378,1.381,8.216
	C289.406,45.19,290.795,46.114,292.654,46.114L292.654,46.114L292.654,46.114z M249.066,54.417V16.004h11.479v29.492h14.613v8.921
	H249.066L249.066,54.417L249.066,54.417z M211.799,54.417V16.004h11.297l12.076,19.57v-19.57h9.895v38.413h-9.674l-13.805-22.422
	v22.422H211.799L211.799,54.417L211.799,54.417z M179.625,54.417V16.004h28.193v8.947h-17.242v5.653h14.162v8.326h-14.162v6.513
	h17.459v8.974H179.625L179.625,54.417L179.625,54.417z M130.301,41.882v-8.442h11.442v8.442H130.301L130.301,41.882L130.301,41.882z
	"/>
<path fill-rule="evenodd" clip-rule="evenodd" fill="#FFFFFF" d="M166.123,164.436c22.355,0,40.586-18.235,40.586-40.59
	c0-22.355-18.23-40.587-40.586-40.587c-22.354,0-40.59,18.231-40.59,40.587C125.533,146.2,143.769,164.436,166.123,164.436
	L166.123,164.436L166.123,164.436z"/>
<path fill-rule="evenodd" clip-rule="evenodd" d="M140.867,143.724l-3.615-0.259c-3.138-4.541-5.223-9.866-5.899-15.622
	l-0.555-3.795l2.619-0.873l7.885,9.939L140.867,143.724L140.867,143.724L140.867,143.724z"/>
<path fill-rule="evenodd" clip-rule="evenodd" d="M189.982,130.236l7.422-7.852l3.188,1.022v2.546c0,6.763-2.775,12.974-6.51,18.137
	l-4.084-0.98L189.982,130.236L189.982,130.236L189.982,130.236z"/>
<path fill-rule="evenodd" clip-rule="evenodd" d="M173.479,92.819l5.033-1.497c6.355,2.477,11.799,6.766,15.703,12.237l-2.072,2.061
	l-12.83-4.505L173.479,92.819L173.479,92.819L173.479,92.819z"/>
<path fill-rule="evenodd" clip-rule="evenodd" d="M152.17,102.308l-11.702,3.938l-2.834-2.789c4.033-5.604,9.684-9.969,16.276-12.39
	l2.676,2.962L152.17,102.308L152.17,102.308L152.17,102.308z"/>
<path fill-rule="evenodd" clip-rule="evenodd" d="M176.633,153.81l-0.432,3.15c-3.26,1.009-6.722,1.557-10.314,1.557
	c-3.574,0-7.021-0.541-10.268-1.544l-0.607-3.512l11.111-3.917L176.633,153.81L176.633,153.81L176.633,153.81z"/>
<polygon fill-rule="evenodd" clip-rule="evenodd" points="153.401,127.623 157.851,114.065 173.031,114.065 178.844,125.904 
	165.794,135.996 153.401,127.623 153.401,127.623 "/>
</svg>
