<?xml version="1.0" encoding="utf-8"?>
<!-- Generator: Adobe Illustrator 21.0.1, SVG Export Plug-In . SVG Version: 6.00 Build 0)  -->
<svg version="1.1" id="Layer_1" xmlns="http://www.w3.org/2000/svg" xmlns:xlink="http://www.w3.org/1999/xlink" x="0px" y="0px"
	 viewBox="0 0 528.9 309.8" style="enable-background:new 0 0 528.9 309.8;" xml:space="preserve">
<style type="text/css">
	.st0{fill:#002E62;}
</style>
<title>Asset 1</title>
<g id="Layer_2">
	<g id="Layer_1-2">
		<path class="st0" d="M282.1,127.4l15.1,15.2c-2.4,1.4-4.8,2.9-7.3,4.2c-7,3.5-14.7,5.5-22.6,5.9c-16.8,0.7-31.3-4.8-43.3-16.6
			c-8.3-8-13.8-18.5-15.7-29.9c-2.9-16.9,1.2-32,12-45.2c8.4-10.5,20.3-17.5,33.6-19.7c17.1-3.1,32.7,0.7,46.3,11.5
			c10.6,8.2,17.8,20.1,20.2,33.3c1.1,6.1,1.3,12.3,0.4,18.5c-0.1,0.3-0.1,0.5-0.2,0.8H308c-15.3,0-30.7,0-46.1,0
			c-1,0.1-2-0.3-2.6-1.1c-5.3-5.4-10.7-10.8-16.1-16.1c-0.2-0.2-0.4-0.4-0.7-0.8h55.6c0-0.3-0.1-0.7-0.1-1
			c-4.5-13.7-13.5-22.5-27.8-25.2c-17.7-3.2-35.1,8.3-39.5,26c-3.2,13.1-0.2,24.7,9,34.5c5.3,5.7,12.3,9.3,20,10.3
			c7.6,1.1,15.4-0.4,22-4.3C281.8,127.6,282,127.5,282.1,127.4z"/>
		<path class="st0" d="M323.4,142.3c1.1-1.5,2.3-3.2,3.4-4.9c5.8-8.9,9.6-18.9,11.2-29.4c1-6.4,1.2-12.9,0.5-19.3
			c-1.8-18.4-10.3-35.5-24-47.9c-10.2-9.6-23-16-36.8-18.5c-6.3-1.2-12.7-1.5-19-1c-14.7,1.1-28.6,6.7-40.1,15.9
			c-0.1,0-0.1,0.1-0.1,0L203,21.9c1.6-1.2,3.1-2.5,4.8-3.6c11.6-8.3,24.8-13.9,38.8-16.5c7.9-1.5,16-2,24.1-1.4
			c25.4,1.9,47.1,12,64.6,30.5c12.2,12.8,20.5,28.7,24.1,45.9c1.8,8.2,2.4,16.6,1.9,25c-1.1,19.6-8.1,38.3-20.2,53.8
			c-0.7,0.9-1.4,1.8-2.1,2.6L323.4,142.3z"/>
		<path class="st0" d="M189.8,35.1l15.6,15.6c-0.1,0.2-0.2,0.4-0.4,0.6c-7.2,9.6-12,20.9-13.9,32.8c-1.1,6.5-1.3,13.2-0.6,19.8
			c1.3,14.5,6.9,28.3,16,39.7c10.9,13.9,26.4,23.5,43.7,26.8c5.7,1.2,11.5,1.6,17.3,1.4c15.1-0.6,29.6-5.9,41.6-15.1l1.1-0.9
			l15.4,15.4c-32.2,27.5-90.3,33-130.1-7C156.1,124.6,161.6,67.3,189.8,35.1z"/>
		<path class="st0" d="M221.6,252.6v-1.6c0-9.6,0-19.2,0-28.8c0-1.1,0.3-1.4,1.4-1.3c4.8,0.1,9.6,0,14.4,0h1.1V308h-16.9v-3.3
			c-0.6,0.3-1.1,0.5-1.5,0.8c-10.3,5.7-23.9,5.1-33.4-2.8c-6-4.9-9.9-12-10.8-19.7c-1.3-8.1,0.7-16.4,5.6-23
			c4.5-6.5,11.6-10.8,19.5-11.7c6.8-1,13.8,0.4,19.7,3.9C221,252.3,221.3,252.5,221.6,252.6z M221.6,278.6c-0.1-2.2-0.1-4.4,0.1-6.6
			c0.3-2.6-0.9-4.3-2.8-5.8c-0.2-0.1-0.4-0.3-0.6-0.5c-5.8-4.5-15.9-5-21.6,1.5c-3,3.4-4.5,7.8-4.2,12.4c0.1,5.2,2.7,9.9,7,12.8
			c6.4,4.3,16,2.9,21-3c0.8-0.8,1.2-1.9,1.1-3C221.5,283.9,221.6,281.2,221.6,278.6L221.6,278.6z"/>
		<path class="st0" d="M528.4,284.8h-42.7c0.7,3.1,2.6,5.9,5.2,7.7c4.5,3.1,10.2,3.8,15.3,1.8c1.4-0.5,2.5-1.8,3.8-2.8
			c0.3-0.3,0.7-0.5,1.1-0.5c5.5,0,11,0,16.4,0c0.2,0,0.4,0.1,0.5,0.1c-1.2,4.3-3.7,8.1-7.1,11c-4.6,3.9-10.3,6.3-16.4,6.9
			c-7.5,0.8-14.8-0.1-21.4-3.9c-8.2-4.8-12.8-12-14.2-21.3c-1.2-6.9-0.1-14,3.2-20.2c4.2-8.1,11-12.9,19.9-14.8
			c7.5-1.6,14.9-1.1,21.8,2.4c8,4.1,12.6,10.8,14.4,19.5c0.7,4.2,0.9,8.5,0.5,12.8C528.6,284,528.5,284.4,528.4,284.8z M512,273
			c-0.3-3-1.6-5.9-3.9-8c-4.5-4.2-14-4-18.7,0.6c-2,2-3.4,4.6-4,7.4L512,273z"/>
		<path class="st0" d="M60,284.8H17.3c0,0.2,0,0.5,0,0.8c1.6,5.2,6.2,8.9,11.6,9.6c2.5,0.4,5.1,0.3,7.6-0.4c2-0.5,3.7-1.6,4.9-3.2
			c0.3-0.3,0.6-0.5,1-0.6c0.2,0,0.4,0,0.6,0h16.5c-0.8,3-2.3,5.9-4.3,8.3c-4.9,5.8-11.3,8.8-18.7,9.7c-6,0.9-12.2,0.2-17.9-2
			c-10.2-4.2-16.2-11.9-18.1-22.8c-1.4-7.5-0.1-15.2,3.7-21.8c4.6-7.9,11.7-12.3,20.5-13.8c6.8-1.2,13.4-0.7,19.7,2.3
			c8.6,4.2,13.5,11.2,15.2,20.5C60.6,275.8,60.3,280.2,60,284.8z M43.5,273c-0.7-4.2-2.4-7.5-6.1-9.6c-2.4-1.2-5-1.7-7.7-1.4
			c-4.1,0-7.9,2-10.3,5.2c-1.3,1.7-2.2,3.7-2.5,5.8H43.5z"/>
		<path class="st0" d="M168.5,284.8h-43.2c0.8,3.3,2.8,6.2,5.6,8c4.3,2.8,9.7,3.4,14.6,1.6c1.5-0.5,2.7-1.8,4-2.7
			c0.4-0.3,0.8-0.7,1.1-0.7c5.6,0,11.3,0,17.1,0c-0.4,1.1-0.7,2.1-1.2,3c-3.5,7.5-9.5,12-17.4,14c-9.5,2.5-18.7,1.7-27.2-3.5
			c-7.5-4.5-11.8-11.4-13.3-20c-1.3-6.5-0.5-13.3,2.2-19.3c4.3-9.4,11.9-14.8,22-16.6c6.5-1.3,13.3-0.6,19.3,2.1
			c8.9,4.2,14,11.3,15.7,20.9c0.3,2.2,0.5,4.4,0.5,6.5C168.6,280.4,168.5,282.5,168.5,284.8z M151.7,273c-0.5-3.5-1.8-6.5-4.6-8.6
			c-4.2-3.2-11.2-3.3-15.9-0.4c-3.2,2-5.4,5.3-6.1,9L151.7,273z"/>
		<path class="st0" d="M376.9,287.9h15.3c0.4,1.2,0.7,2.3,1.2,3.3c1.5,3,4.1,4.5,7.3,5.1c3.2,0.7,6.6,0.5,9.7-0.4
			c0.7-0.2,1.4-0.5,2.1-0.9c3.1-1.8,3.2-5.3,0-7c-1.7-0.8-3.5-1.4-5.3-1.7c-5.1-1-10.2-1.7-15.2-3c-4.4-1-8.3-3.7-10.7-7.6
			c-4.8-8.4-1.9-19.1,6.4-24c4.2-2.3,8.9-3.6,13.7-3.9c5.3-0.5,10.6,0.2,15.5,1.9c7.8,2.7,12.4,8.1,13.6,16.3c0,0.5,0,1,0,1.5h-15.1
			c-0.7-4.4-3.8-7-10.1-7.2c-1.9,0.1-3.9,0.3-5.8,0.7c-0.5,0.1-1,0.3-1.4,0.6c-3.3,1.9-3.4,5.6-0.2,7.6c2.1,1.4,4.5,1.7,6.9,2.1
			c5,0.9,10.2,1.3,15,3.1s8.6,4.6,10.3,9.6c2.7,8.1,0,17.6-9.1,22.3c-5.8,2.9-11.9,3.6-18.2,3.4c-5.4,0-10.7-1.4-15.4-4
			c-5.6-3.3-8.8-8.3-9.9-14.7C377.1,290,377,289,376.9,287.9z"/>
		<path class="st0" d="M276,249.3c5.9,0,11.6,0,17.2,0c0.7,0,0.8,0.4,1,0.9l13.9,34c0.2,0.5,0.4,0.9,0.7,1.7c0.3-0.6,0.5-1,0.7-1.4
			c4.7-11.4,9.3-22.8,13.9-34.2c0.2-0.7,0.8-1.2,1.5-1.1c5.5,0,11,0,16.8,0c-0.2,0.5-0.3,0.9-0.5,1.2c-8.2,18.9-16.3,37.8-24.5,56.7
			c-0.2,0.6-0.7,0.9-1.3,0.8c-4.4,0-8.7,0-13.1,0c-0.7,0.1-1.4-0.4-1.5-1.1c-6.7-15.6-13.5-31.3-20.3-46.9
			C279.1,256.5,277.6,253,276,249.3z"/>
		<path class="st0" d="M106,264.2c-3,0.4-6,0.7-8.9,1.2c-1.7,0.3-3.4,0.9-5,1.6c-4.2,1.8-6.9,6-6.7,10.6c0,9.6,0,19.3,0,28.9
			c0,0.5,0,0.9,0,1.5H68.6v-58.6h16.8v6.6c5.6-5.1,13-7.9,20.6-7.7V264.2z"/>
		<path class="st0" d="M366.2,308h-16.8v-58.6h16.8V308z"/>
		<path class="st0" d="M252.5,249.4h16.7V308h-16.7V249.4z"/>
		<path class="st0" d="M458.8,308h-16.6v-58.6h16.6V308z"/>
	</g>
</g>
</svg>
