<?xml version="1.0" encoding="UTF-8" standalone="no"?>
<svg xmlns:rdf="http://www.w3.org/1999/02/22-rdf-syntax-ns#" xmlns="http://www.w3.org/2000/svg" height="71.93445" width="46.88366" version="1.1" xmlns:cc="http://creativecommons.org/ns#" xmlns:dc="http://purl.org/dc/elements/1.1/" viewBox="0 0 46.88366 71.93445"><defs><clipPath id="clip-path"><path d="M24.07685,33.374c-1.25,1.011-1.559,2.728-.665,3.44,1.061.845,2.526.564,3.813-.372,1.538-1.157,1.866-2.722.851-3.531a2.37575,2.37575,0,0,0-1.509-.485,4.09319,4.09319,0,0,0-2.49.948m-16.945-4.001c-.561.414-.152,1.923.913,3.368,1.066,1.448,2.386,2.285,2.946,1.87195s.153-1.92-.914-3.368a4.328,4.328,0,0,0-2.592-1.978.57949.57949,0,0,0-.353.106m22.151-1.461c-.685,2.343.276,5.191,2.757,5.37,2.587.215,4.621-1.624,5.569-3.969,1.093-2.854-.15-5.192-2.627-5.371-.151-.011-.302-.016-.451-.016a5.43765,5.43765,0,0,0-5.248,3.986m-25.805-7.861a19.97425,19.97425,0,0,0,2.394,9.508,1.72256,1.72256,0,0,1,.653-1.701,1.38392,1.38392,0,0,1,.887-.102,11.99877,11.99877,0,0,1-1.155-2.386,7.50577,7.50577,0,0,1,.185-4.993,2.884,2.884,0,0,1-2.642-.507,2.42616,2.42616,0,0,1-.316-.308c-.005.163-.006.324-.006.489m6.665-.85205c-2.266.491-3.345,3.09-2.711,5.789.63,2.7,3.021,4.437,4.997,3.987,2.022-.461,3.427-3.058,2.712-5.79-.591-2.268-2.433-4.055-4.352-4.055a3.01932,3.01932,0,0,0-.646.069m31.255-4.212a23.44787,23.44787,0,0,0,.535,5.819,18.95,18.95,0,0,0,1.177,3.557,20.09514,20.09514,0,0,0-1.408-12.783,27.82305,27.82305,0,0,0-.304,3.407m-21.941-.613c.25,5.16095,4.113,8.403,9.341,8.465a7.484,7.484,0,0,0,7.832-8.226,9.62324,9.62324,0,0,0-9.341-8.462c-.042-.001-.084-.001-.125-.001a7.575,7.575,0,0,0-7.707,8.224M9.80685,5.431a20.25265,20.25265,0,0,0-1.904,2.057,21.36588,21.36588,0,0,0-1.385,1.975,23.49985,23.49985,0,0,0-1.158,2.098,19.89292,19.89292,0,0,0-1.333,3.812c-.286,1.55-.093,2.73.663,3.197,1.694,1.049,5.16-1.372,7.637-5.451,2.478-4.079,2.975-8.177,1.341-9.212a1.23956,1.23956,0,0,0-.673-.179A5.55777,5.55777,0,0,0,9.80685,5.431m18.883,19.165c-6.387-.073-11.044-3.989-11.408-10.216a9.237,9.237,0,0,1,9.566-9.927,11.7,11.7,0,0,1,11.407,10.216,8.87482,8.87482,0,0,1-2.834,7.482c3.298.309,4.958,3.573,3.496,7.32-1.195,3.18-4.059,5.548-7.578,5.255a5.14,5.14,0,0,1-1.385-.339,5.1722,5.1722,0,0,1-1.392,2.482c-1.354,1.352-3.916,2.08-5.635,1.078-1.914-1.079-1.673-3.655-.29-5.19a5.27637,5.27637,0,0,1,4.901-1.481,7.53456,7.53456,0,0,1,.036-3.881,8.915,8.915,0,0,1,1.59-2.803c-.121.003-.241.004-.362.004h-.112M13.73785,2.549a1.81609,1.81609,0,0,1,.909.257c2.302,1.425,1.947,6.664-1.164,11.412a21.51077,21.51077,0,0,1-2.303,3.029,6.85279,6.85279,0,0,1,5.842,5.42c.835,4.146-.721,7.213-3.716,7.971a4.2251,4.2251,0,0,1-1.995-.077c1.819,2.606,1.976,4.499.858,5.231a1.4063,1.4063,0,0,1-.787.211,20.0529,20.0529,0,0,0,31.08-9.346,20.04313,20.04313,0,0,1-2.068-5.456,25.35634,25.35634,0,0,1-.571-6.271,29.47993,29.47993,0,0,1,.508-4.641c.065-.336.129-.633.187-.886a20.0585,20.0585,0,0,0-26.78-6.854" fill="none"/></clipPath><radialGradient id="radial-gradient" cx="-267.07086" cy="443.49272" r="1" gradientTransform="matrix(27.80284, 0, 0, -27.80284, 7453.49341, 12344.05939)" gradientUnits="userSpaceOnUse"><stop offset="0" stop-color="#dfebb4"/><stop offset="0.416" stop-color="#a0b58b"/><stop offset="0.55176" stop-color="#98ac86"/><stop offset="0.77615" stop-color="#829279"/><stop offset="1" stop-color="#677368"/></radialGradient></defs><title>Ligue 2 logo</title><path d="M14.06126,43.913h-2.412a.14534.14534,0,0,0-.146.145v5.432a.14513.14513,0,0,0,.146.144h2.42a2.87261,2.87261,0,1,0-.008-5.721m0,4.212h-.825V45.42206h.833a1.24959,1.24959,0,0,1,1.372,1.347,1.32448,1.32448,0,0,1-1.38,1.356" fill="#0079ad"/><path d="M27.89626,45.38867a1.7825,1.7825,0,0,0-1.449.728,1.13431,1.13431,0,0,0-1.192-.728,1.83748,1.83748,0,0,0-1.373.57306v-.326a.1451.1451,0,0,0-.145-.145h-1.255a.14554.14554,0,0,0-.144.145v3.855a.14534.14534,0,0,0,.144.144h1.255a.1449.1449,0,0,0,.145-.144v-2.414a.79913.79913,0,0,1,.627-.326.42331.42331,0,0,1,.472.464v2.276a.144.144,0,0,0,.144.144h1.255a.14468.14468,0,0,0,.144-.144v-2.414a.80378.80378,0,0,1,.634-.326.426.426,0,0,1,.472.464v2.276a.14468.14468,0,0,0,.144.144h1.257a.14362.14362,0,0,0,.142-.144v-2.86a1.13655,1.13655,0,0,0-1.277-1.242" fill="#0079ad"/><path d="M31.20135,45.49072h-1.253a.146.146,0,0,0-.146.145v3.855a.14577.14577,0,0,0,.146.144h1.253a.14664.14664,0,0,0,.147-.144v-3.855a.14683.14683,0,0,0-.147-.145" fill="#0079ad"/><path d="M30.61306,43.4585a.86652.86652,0,1,0,.865.86505.86682.86682,0,0,0-.865-.86505" fill="#0079ad"/><path d="M34.96755,45.38867a1.81861,1.81861,0,0,0-1.422.57306v-.326a.14553.14553,0,0,0-.144-.145h-1.257a.1432.1432,0,0,0-.142.145v3.855a.143.143,0,0,0,.142.144h1.257a.14533.14533,0,0,0,.144-.144v-2.414a.8263.8263,0,0,1,.659-.326.5301.5301,0,0,1,.601.593v2.147a.144.144,0,0,0,.144.144h1.255a.14468.14468,0,0,0,.144-.144v-2.798a1.23508,1.23508,0,0,0-1.381-1.304" fill="#0079ad"/><path d="M19.69016,45.37054a2.18649,2.18649,0,1,0,2.186,2.184,2.18635,2.18635,0,0,0-2.186-2.184m0,2.90094a.74649.74649,0,1,1,.745-.748.74577.74577,0,0,1-.745.748" fill="#0079ad"/><path d="M38.99245,45.37585a2.18649,2.18649,0,1,0,2.188,2.186,2.18635,2.18635,0,0,0-2.188-2.186m0,2.903a.74649.74649,0,1,1,.745-.748.74684.74684,0,0,1-.745.748" fill="#0079ad"/><path d="M42.387,44.15332l-.001-.001v-.003l-.003-.01a.89062.89062,0,0,0-1.029-.647.84166.84166,0,0,0-.682.97.82152.82152,0,0,0,.769.634.53882.53882,0,0,1-.263.341.08809.08809,0,0,0-.029.12l.096.14a.09321.09321,0,0,0,.119.05505,1.46551,1.46551,0,0,0,1.023-1.59906" fill="#0079ad"/><path d="M43.49825,46.72308c-.003-.154.197-.222.448-.222a1.78294,1.78294,0,0,1,1.103.352.141.141,0,0,0,.113.019.13223.13223,0,0,0,.091-.068l.425-.738a.14341.14341,0,0,0-.052-.193,3.129,3.129,0,0,0-1.745-.476c-1.276,0-1.961.601-1.846,1.464.201,1.519,2.564,1,2.525,1.518-.007.12-.215.21-.579.21a2.80718,2.80718,0,0,1-1.333-.442.137.137,0,0,0-.11-.017.14261.14261,0,0,0-.091.069l-.489.816a.14358.14358,0,0,0,.044.19,3.64536,3.64536,0,0,0,1.889.53094c1.279,0,2.015-.549,2.016-1.452,0-1.665-2.398-1.149-2.409-1.561" fill="#0079ad"/><path d="M46.88366,45.621a.4362.4362,0,0,1-.06.225.41624.41624,0,0,1-.162.163.44644.44644,0,0,1-.608-.163.44987.44987,0,0,1,0-.449.43756.43756,0,0,1,.164-.164.43425.43425,0,0,1,.444,0,.41874.41874,0,0,1,.162.164.43275.43275,0,0,1,.06.224m-.085,0a.35374.35374,0,0,0-.106-.256.355.355,0,0,0-.506,0,.36215.36215,0,0,0,0,.512.35261.35261,0,0,0,.506,0,.3519.3519,0,0,0,.106-.256m-.562-.24h.214a.18077.18077,0,0,1,.129.037.13256.13256,0,0,1,.011.182.17239.17239,0,0,1-.096.05.12878.12878,0,0,1,.04.024.21936.21936,0,0,1,.036.047l.077.14h-.14a.95276.95276,0,0,0-.091-.165.06642.06642,0,0,0-.047-.027l-.014.005v.187h-.119Zm.119.20294h.051a.13227.13227,0,0,0,.074-.015.05268.05268,0,0,0,.019-.045.0514.0514,0,0,0-.018-.042.11815.11815,0,0,0-.07-.017h-.056Z" fill="#0079ad"/><path d="M10.18575,42.55859l-2.817-2.816a.63127.63127,0,0,0-.891,0l-2.36,2.362-3.934,3.931a.63067.63067,0,0,0,0,.89l2.817,2.81805a.63142.63142,0,0,0,.891,0l3.524-3.525,2.77-2.771a.62956.62956,0,0,0,0-.889" fill="#fff"/><path d="M9.98645,42.75824l-2.818-2.816a.34823.34823,0,0,0-.491,0l-3.044,3.046,3.307,3.309,3.046-3.04706a.3494.3494,0,0,0,0-.49194m-2.477.81494a.81475.81475,0,1,1,.239-.577.81549.81549,0,0,1-.239.577" fill="#e21936"/><path d="M.38326,46.23535a.34821.34821,0,0,0,0,.491l2.817,2.817a.35009.35009,0,0,0,.247.102.33506.33506,0,0,0,.244-.102l3.045-3.045-3.307-3.306Zm2.441.811a.8165.8165,0,0,1-1.394-.578.827.827,0,0,1,.239-.577.8145.8145,0,0,1,1.392.577.81585.81585,0,0,1-.237.578m1.239-1.121a.81491.81491,0,0,1,1.153,0,.815.815,0,0,1-.576,1.392.81531.81531,0,0,1-.577-1.392" fill="#0079ad"/><path d="M5.98914,49.03308a.46.46,0,0,1-.059.227.44377.44377,0,0,1-.162.163.45477.45477,0,0,1-.222.059.449.449,0,0,1-.222-.059.44489.44489,0,0,1-.224-.39.45166.45166,0,0,1,.06-.223.443.443,0,0,1,.164-.166.43028.43028,0,0,1,.222-.06.43559.43559,0,0,1,.222.06.4306.4306,0,0,1,.162.166.45061.45061,0,0,1,.059.223m-.084,0a.359.359,0,1,0-.718,0,.35166.35166,0,0,0,.105.257.3595.3595,0,0,0,.613-.257m-.562-.24h.214a.19046.19046,0,0,1,.13.037.13354.13354,0,0,1,.041.098.11961.11961,0,0,1-.031.084.17664.17664,0,0,1-.098.052.12.12,0,0,1,.042.024.23108.23108,0,0,1,.038.047s.025.048.076.138h-.141a.95509.95509,0,0,0-.09-.163.07306.07306,0,0,0-.046-.028l-.016.003v.188h-.119Zm.119.204h.052a.10591.10591,0,0,0,.071-.016.05347.05347,0,0,0,.021-.044.06123.06123,0,0,0-.019-.04395.11555.11555,0,0,0-.069-.015h-.056Z" fill="#0079ad"/><path d="M35.72355,66.87946a18.10019,18.10019,0,0,1-2.043-.166,13.11884,13.11884,0,0,1-4.663-1.57,7.9095,7.9095,0,0,1-1.592-1.322v-.001a4.87576,4.87576,0,0,0-7.292.001v.001a7.02073,7.02073,0,0,1-1.553,1.314,11.47781,11.47781,0,0,1-4.731,1.64,15.02674,15.02674,0,0,1-2.001.142c-.981-.005-8.4-.001-8.4-.001v.32h8.386a17.95258,17.95258,0,0,1,2.042.167,13.09877,13.09877,0,0,1,4.664,1.56805,7.97663,7.97663,0,0,1,1.593,1.324h.001a4.87582,4.87582,0,0,0,7.292-.001,7.06662,7.06662,0,0,1,1.551-1.315,11.47963,11.47963,0,0,1,4.731-1.639,15.3168,15.3168,0,0,1,2.001-.141c.98.006,7.839,0,7.839,0v-.321Zm-11.944,4.606a4.428,4.428,0,1,1,4.429-4.42694,4.42734,4.42734,0,0,1-4.429,4.42694" fill="#677368"/><path d="M25.38355,69.44092a.6715.6715,0,1,1,.672.671.67257.67257,0,0,1-.672-.671" fill="#677368" fill-rule="evenodd"/><path d="M25.04415,68.81641a5.51507,5.51507,0,0,0-.948-2.089,8.41717,8.41717,0,0,0,.531-1.06,2.48232,2.48232,0,0,0,.248-1.414c-.016-.045-.07-.063-.105-.073-.184-.043-.169.46-.791,1.128a.61494.61494,0,1,0-.203.207,1.99534,1.99534,0,0,1-.517.412c-1.118-1.044-2.232-1.775-2.38-1.656-.127.098.046.196.232.42a4.31392,4.31392,0,0,1,1.129,2.231,4.53826,4.53826,0,0,1-.782,2.281.11394.11394,0,0,0,.071.124c.13.034.271-.075.439-.223.129-.114.277-.238.429-.396.459-.482.911-1.063.911-1.063s-.005-.052.496.581a4.962,4.962,0,0,1,.493.778c.452.833.368,1.257.508,1.257a.14379.14379,0,0,0,.109-.08,2.31222,2.31222,0,0,0,.13-1.36505" fill="#677368" fill-rule="evenodd"/><polygon points="3.478 58.824 3.478 52.991 5 52.991 5 57.499 6.842 57.499 6.842 58.824 3.478 58.824" fill="#677368"/><rect x="9.30286" y="52.99103" width="1.523" height="5.83301" fill="#677368"/><path d="M16.36986,52.77832a2.83521,2.83521,0,0,1,2.634,1.46l-1.218.671a1.60446,1.60446,0,0,0-1.433-.806c-.996,0-1.445.813-1.445,1.873,0,.99.456,1.78094,1.582,1.78094a1.30261,1.30261,0,0,0,1.296-1.035h-1.341v-1.219h2.924v.32c0,1.729-.799,3.213-2.985,3.213a2.99,2.99,0,0,1-3.044-3.122,3.03369,3.03369,0,0,1,3.03-3.136" fill="#677368"/><path d="M23.32105,52.99072v3.578a.94571.94571,0,0,0,1.051,1.052.934.934,0,0,0,1.035-.975v-3.655h1.539v3.731c0,1.332-.907,2.27-2.604,2.27-1.288,0-2.544-.671-2.544-2.103v-3.898Z" fill="#677368"/><polygon points="29.801 52.991 33.182 52.991 33.182 54.316 31.324 54.316 31.324 55.261 33.075 55.261 33.075 56.554 31.324 56.554 31.324 57.529 33.213 57.529 33.213 58.824 29.801 58.824 29.801 52.991" fill="#677368"/><path d="M38.96316,55.03131a2.10558,2.10558,0,0,1,2.284-2.253,2.07136,2.07136,0,0,1,2.177,1.995c0,1.165-.898,1.994-1.796,2.817h1.948v1.234h-4.736l2.528-2.917a1.92063,1.92063,0,0,0,.533-1.134.67086.67086,0,0,0-.716-.7c-.539,0-.716.387-.716.95795Z" fill="#677368"/><g clip-path="url(#clip-path)"><rect x="3.47784" width="40.09899" height="40.10101" fill="url(#radial-gradient)"/></g></svg>