<?xml version="1.0" encoding="UTF-8" standalone="no"?>
<!-- Created with Inkscape (http://www.inkscape.org/) -->
<svg
   xmlns:svg="http://www.w3.org/2000/svg"
   xmlns="http://www.w3.org/2000/svg"
   version="1.0"
   width="363.702"
   height="566"
   viewBox="0 0 363.702 566"
   id="Calque_1"
   xml:space="preserve"><defs
   id="defs92" />
<radialGradient
   cx="248.8965"
   cy="74.943802"
   r="272.49719"
   id="SVGID_1_"
   gradientUnits="userSpaceOnUse"
   gradientTransform="matrix(0.909696,0,0,0.909696,16.411704,25.543378)">
	<stop
   style="stop-color:#b6c6ce;stop-opacity:1"
   offset="0"
   id="stop4" />
	<stop
   style="stop-color:#4d5c64;stop-opacity:1"
   offset="0.94999999"
   id="stop6" />
</radialGradient>
<path
   d="M 50.97996,210.67554 C 59.31276,209.67234 64.419,195.6717 62.5134,179.36226 C 60.63564,163.1085 52.22316,150.75426 43.91724,151.73538 C 35.58348,152.73858 30.38028,166.73922 32.45388,182.9757 C 34.34028,199.30242 42.74604,211.65666 50.97996,210.67554 z "
   style="fill:url(#SVGID_1_)"
   id="path8" />
<radialGradient
   cx="248.8994"
   cy="74.943398"
   r="272.5"
   id="SVGID_2_"
   gradientUnits="userSpaceOnUse"
   gradientTransform="matrix(0.909696,0,0,0.909696,16.411704,25.543378)">
	<stop
   style="stop-color:#b6c6ce;stop-opacity:1"
   offset="0"
   id="stop11" />
	<stop
   style="stop-color:#4d5c64;stop-opacity:1"
   offset="0.94999999"
   id="stop13" />
</radialGradient>
<path
   d="M 139.66284,44.947858 C 176.5518,32.199058 205.31724,18.841618 204.09996,15.048658 C 203.2734,12.814738 189.50796,10.507858 171.86604,11.599378 C 175.41516,12.170578 179.18892,13.315858 181.68492,14.887378 L 142.7022,32.430418 L 95.96844,44.714578 C 95.96844,44.714578 93.17196,44.464978 90.13068,41.495698 C 77.93676,50.723218 70.28172,58.967698 70.515,61.040338 C 70.91628,64.992658 102.7278,57.642898 139.66284,44.947858 z "
   style="fill:url(#SVGID_2_)"
   id="path15" />
<radialGradient
   cx="248.8994"
   cy="74.945801"
   r="272.50259"
   id="SVGID_3_"
   gradientUnits="userSpaceOnUse"
   gradientTransform="matrix(0.909696,0,0,0.909696,16.411704,25.543378)">
	<stop
   style="stop-color:#b6c6ce;stop-opacity:1"
   offset="0"
   id="stop18" />
	<stop
   style="stop-color:#4d5c64;stop-opacity:1"
   offset="0.94999999"
   id="stop20" />
</radialGradient>
<path
   d="M 130.50828,19.914898 C 119.69772,23.704978 110.4894,28.317778 102.08364,33.342418 C 113.45676,31.107538 135.28332,26.260498 155.72172,13.477138 C 149.36364,14.227858 139.0734,16.945618 130.50828,19.914898 z "
   style="fill:url(#SVGID_3_)"
   id="path22" />
<radialGradient
   cx="248.8994"
   cy="74.943802"
   r="272.5"
   id="SVGID_4_"
   gradientUnits="userSpaceOnUse"
   gradientTransform="matrix(0.909696,0,0,0.909696,16.411704,25.543378)">
	<stop
   style="stop-color:#b6c6ce;stop-opacity:1"
   offset="0"
   id="stop25" />
	<stop
   style="stop-color:#4d5c64;stop-opacity:1"
   offset="0.94999999"
   id="stop27" />
</radialGradient>
<path
   d="M 58.56204,98.109778 C 47.44812,99.344338 39.30348,113.02338 34.02732,129.76002 C 44.97036,123.57282 59.47404,120.26466 59.47404,120.26466 C 59.47404,120.26466 73.97388,136.25154 87.16428,171.19266 C 87.16428,171.19266 87.16428,209.51106 80.73324,230.34402 C 80.73324,230.34402 62.70156,236.0493 48.34188,232.09602 C 57.57804,252.1053 69.531,257.38146 82.3902,255.8973 C 103.55148,253.58946 112.54476,211.40802 108.58476,172.83714 C 104.3022,131.13666 79.67052,95.802898 58.56204,98.109778 z "
   style="fill:url(#SVGID_4_)"
   id="path29" />
<radialGradient
   cx="248.8994"
   cy="74.943398"
   r="272.5"
   id="SVGID_5_"
   gradientUnits="userSpaceOnUse"
   gradientTransform="matrix(0.909696,0,0,0.909696,16.411704,25.543378)">
	<stop
   style="stop-color:#b6c6ce;stop-opacity:1"
   offset="0"
   id="stop32" />
	<stop
   style="stop-color:#4d5c64;stop-opacity:1"
   offset="0.94999999"
   id="stop34" />
</radialGradient>
<path
   d="M 274.53324,55.998418 C 294.65196,74.130898 311.11884,88.883218 311.35308,87.737938 C 311.6046,86.897938 300.83916,67.030738 280.131,48.737938 C 267.21996,37.472338 255.4926,31.034578 250.96812,28.639378 C 243.13548,24.616018 238.18188,22.542418 238.11084,22.971538 C 237.87756,23.865298 254.50668,37.955218 274.53324,55.998418 z "
   style="fill:url(#SVGID_5_)"
   id="path36" />
<radialGradient
   cx="248.8994"
   cy="74.943802"
   r="272.49911"
   id="SVGID_6_"
   gradientUnits="userSpaceOnUse"
   gradientTransform="matrix(0.909696,0,0,0.909696,16.411704,25.543378)">
	<stop
   style="stop-color:#b6c6ce;stop-opacity:1"
   offset="0"
   id="stop39" />
	<stop
   style="stop-color:#4d5c64;stop-opacity:1"
   offset="0.94999999"
   id="stop41" />
</radialGradient>
<path
   d="M 201.86508,50.561938 C 158.28684,55.497298 127.11948,97.125778 132.48396,143.3325 C 137.02476,183.04866 167.01228,213.3741 203.0958,217.91778 C 203.0958,217.91778 202.34604,209.92482 201.4542,202.00194 C 200.54028,194.09922 199.48524,186.35586 199.48524,186.35586 L 190.0062,187.34082 C 190.0062,187.34082 179.04684,176.96802 170.55276,164.86338 C 162.63948,153.5613 156.94572,140.5437 156.94572,140.5437 C 156.94572,140.5437 161.0862,126.2925 166.43244,113.11266 C 171.77772,99.755218 178.53708,87.471058 178.53708,87.471058 C 178.53708,87.471058 191.15532,84.431698 204.4206,82.948498 C 218.43948,81.374098 232.92204,81.212818 232.92204,81.212818 C 232.92204,81.212818 242.6526,90.941458 250.80684,102.56322 C 259.2078,114.32994 265.89804,128.00898 265.89804,128.00898 C 265.89804,128.00898 263.99916,141.13314 258.70956,154.31106 C 253.26924,167.65314 244.37004,181.08066 244.37004,181.08066 L 235.8894,182.49378 C 235.8894,182.49378 237.0558,189.98466 237.53676,197.72898 C 238.17996,205.88322 238.60908,213.80418 238.60908,213.80418 C 272.72748,201.26946 294.9726,165.02466 290.44908,125.22018 C 285.15372,79.066258 245.53164,45.538258 201.86508,50.561938 z "
   style="fill:url(#SVGID_6_)"
   id="path43" />
<radialGradient
   cx="248.8965"
   cy="74.943398"
   r="272.50269"
   id="SVGID_7_"
   gradientUnits="userSpaceOnUse"
   gradientTransform="matrix(0.909696,0,0,0.909696,16.411704,25.543378)">
	<stop
   style="stop-color:#b6c6ce;stop-opacity:1"
   offset="0"
   id="stop46" />
	<stop
   style="stop-color:#4d5c64;stop-opacity:1"
   offset="0.94999999"
   id="stop48" />
</radialGradient>
<path
   d="M 324.22572,118.20834 C 320.84844,117.06498 313.92588,145.08354 309.06156,179.27394 C 304.28844,213.53442 303.19884,241.98402 306.7374,242.21634 C 312.51372,242.53698 326.1198,211.97826 330.2334,183.2253 C 335.16972,148.8765 326.28396,118.94274 324.22572,118.20834 z "
   style="fill:url(#SVGID_7_)"
   id="path50" />
<radialGradient
   cx="248.8994"
   cy="74.944298"
   r="272.49829"
   id="SVGID_8_"
   gradientUnits="userSpaceOnUse"
   gradientTransform="matrix(0.909696,0,0,0.909696,16.411704,25.543378)">
	<stop
   style="stop-color:#b6c6ce;stop-opacity:1"
   offset="0"
   id="stop53" />
	<stop
   style="stop-color:#4d5c64;stop-opacity:1"
   offset="0.94999999"
   id="stop55" />
</radialGradient>
<path
   d="M 196.8366,242.87874 C 155.39052,249.13794 121.9326,268.17954 127.20876,288.78018 C 129.51564,298.16898 138.1614,304.8381 155.39052,308.30658 C 149.29068,298.16898 148.06668,285.88194 148.06668,285.88194 C 148.06668,285.88194 163.79436,273.68898 199.71948,260.09826 C 199.71948,260.09826 232.99788,263.24418 254.34348,268.84194 C 254.34348,268.84194 256.15308,278.06946 253.69932,292.57218 C 268.11372,283.00386 273.3006,274.27842 270.58092,263.31618 C 267.11148,249.22722 234.65676,237.10242 196.8366,242.87874 z "
   style="fill:url(#SVGID_8_)"
   id="path57" />
<radialGradient
   cx="248.8994"
   cy="74.950203"
   r="272.49161"
   id="SVGID_9_"
   gradientUnits="userSpaceOnUse"
   gradientTransform="matrix(0.909696,0,0,0.909696,16.411704,25.543378)">
	<stop
   style="stop-color:#b6c6ce;stop-opacity:1"
   offset="0"
   id="stop60" />
	<stop
   style="stop-color:#4d5c64;stop-opacity:1"
   offset="0.94999999"
   id="stop62" />
</radialGradient>
<path
   d="M 202.52748,281.77026 C 186.29964,284.32962 174.1038,292.3197 175.3278,299.65218 C 176.55276,306.98274 190.563,310.86498 206.70828,308.30658 C 222.87564,305.7501 235.0686,297.68418 233.90892,290.33826 C 232.67148,282.9165 218.67276,279.12258 202.52748,281.77026 z "
   style="fill:url(#SVGID_9_)"
   id="path64" />
<radialGradient
   cx="248.8994"
   cy="74.943802"
   r="272.5"
   id="SVGID_10_"
   gradientUnits="userSpaceOnUse"
   gradientTransform="matrix(0.909696,0,0,0.909696,16.411704,25.543378)">
	<stop
   style="stop-color:#b6c6ce;stop-opacity:1"
   offset="0"
   id="stop67" />
	<stop
   style="stop-color:#4d5c64;stop-opacity:1"
   offset="0.94999999"
   id="stop69" />
</radialGradient>
<path
   d="M 240.75468,130.74498 C 239.0382,115.49058 225.43116,104.54658 210.49932,106.35234 C 195.51756,107.99874 184.8126,121.67874 186.53868,137.00226 C 188.27148,152.1645 201.771,163.1085 216.75852,161.39202 C 231.7614,159.65922 242.49132,145.97922 240.75468,130.74498 z "
   style="fill:url(#SVGID_10_)"
   id="path71" />
<polyline
   points="0,421.158 0,365.259 14.669,365.259 14.669,408.418 32.346,408.418 32.346,421.158 "
   id="polyline73"
   transform="matrix(0.96,0,0,0.96,7.27404,11.320018)"
   style="fill:#4d5c64" />
<rect
   width="14.080319"
   height="53.750401"
   x="60.955318"
   y="361.88034"
   style="fill:#4d5c64"
   id="rect75" />
<path
   d="M 126.04332,359.94882 C 136.82508,359.94882 144.79308,364.22274 150.26412,373.4685 L 139.0782,379.5837 C 139.0782,379.5837 135.3774,372.18114 125.87532,372.18114 C 116.71788,372.18114 112.5246,379.67202 112.5246,389.40066 C 112.5246,398.50146 116.80044,405.81666 127.179,405.81666 C 133.12332,405.81666 138.60492,401.31042 139.0782,396.3213 L 126.77772,396.3213 L 126.77772,385.0557 L 153.65388,385.0557 L 153.65388,388.0413 C 153.65388,403.97442 146.331,417.56418 126.20364,417.56418 C 109.06476,417.56418 98.12172,404.50914 98.12172,388.84482 C 98.12172,372.41346 110.4414,359.94882 126.04332,359.94882"
   style="fill:#4d5c64"
   id="path77" />
<path
   d="M 190.33068,361.95042 C 190.33068,361.95042 190.33068,383.9997 190.33068,394.87266 C 190.33068,402.0237 194.69196,404.5293 199.98636,404.5293 C 205.15116,404.5293 209.49804,401.79234 209.49804,395.6061 C 209.49804,384.7341 209.49804,372.91266 209.49804,361.95042 L 223.731,361.95042 C 223.731,361.95042 223.731,384.25026 223.731,396.3213 C 223.731,408.55266 215.36172,417.17058 199.75308,417.17058 C 187.82412,417.17058 176.3358,411.05442 176.3358,397.85826 C 176.3358,385.44834 176.3358,361.95138 176.3358,361.95138"
   style="fill:#4d5c64"
   id="path79" />
<polyline
   points="252.561,365.24 285.003,365.24 285.003,377.908 267.142,377.908 267.142,386.959 283.984,386.959   283.984,399.366 267.142,399.366 267.142,408.752 285.324,408.752 285.324,421.158 252.561,421.158 "
   id="polyline81"
   transform="matrix(0.96,0,0,0.96,7.27404,11.320018)"
   style="fill:#4d5c64" />
<polyline
   points="341.073,365.24 363.702,365.24 363.702,421.158 349.119,421.158 349.119,377.238 341.073,377.238   "
   id="polyline83"
   transform="matrix(0.96,0,0,0.96,7.27404,11.320018)"
   style="fill:#4d5c64" />
<path
   d="M 195.37068,533.58018 C 195.37068,530.44098 197.92524,527.89794 201.06444,527.89794 C 204.19212,527.89794 206.74668,530.44098 206.74668,533.58018 C 206.74668,536.71938 204.19212,539.28354 201.06444,539.28354 C 197.92524,539.28354 195.37068,536.71938 195.37068,533.58018"
   style="fill:#4d5c64;fill-rule:evenodd"
   id="path85" />
<path
   d="M 192.51948,528.29154 C 190.86924,518.92866 184.50636,510.6189 184.50636,510.6189 C 184.50636,510.6189 187.02924,506.48994 188.96556,501.68034 C 190.73292,497.3709 191.98764,492.58242 191.0718,489.69954 C 190.9662,489.32706 190.48716,489.1677 190.18956,489.09282 C 188.63532,488.74146 188.76396,493.00866 183.50604,498.6477 C 183.97452,497.83938 184.26252,496.9245 184.26252,495.92418 C 184.26252,493.0509 181.91052,490.69986 179.01612,490.69986 C 176.12172,490.69986 173.78124,493.0509 173.78124,495.92418 C 173.78124,498.81858 176.12172,501.16962 179.01612,501.16962 C 180.04812,501.16962 180.98412,500.89314 181.7934,500.39202 C 179.15436,502.93506 177.49452,503.9565 177.41004,503.89314 C 167.9502,495.04002 158.53356,488.84706 157.2894,489.84738 C 156.20364,490.6989 157.69356,491.51682 159.23628,493.41186 C 162.57708,497.50818 168.81228,505.5741 168.80172,512.28738 C 168.77004,522.65154 162.27948,530.99394 162.17292,531.57858 C 162.09804,532.01442 162.41772,532.52514 162.77868,532.6221 C 163.89612,532.93026 165.07692,531.97218 166.49196,530.72706 C 167.57772,529.7805 168.8334,528.73794 170.13132,527.38626 C 173.9934,523.33218 177.82476,518.41698 177.82476,518.41698 C 177.82476,518.41698 177.78252,517.94946 182.02764,523.33218 C 183.96396,525.7485 185.11404,527.9181 186.19884,529.89762 C 190.02924,536.9421 189.2958,540.51714 190.50828,540.51714 C 190.75212,540.51714 191.12556,540.3261 191.41164,539.84706 C 192.45516,538.08066 193.4142,533.3997 192.51948,528.29154"
   style="fill:#4d5c64;fill-rule:evenodd"
   id="path87" />
<path
   d="M 282.86316,512.26626 C 282.86316,512.26626 273.44556,512.08482 265.6014,510.84834 C 257.76396,509.61186 240.66444,506.43138 226.16556,497.60514 C 226.16556,497.60514 218.25324,492.7485 212.6958,486.36162 C 205.12812,477.88482 194.12076,472.54818 181.85196,472.54818 C 169.5822,472.54818 158.57484,477.88482 151.00716,486.36162 C 145.44972,492.7485 137.5374,497.60514 137.5374,497.60514 C 123.03756,506.43138 105.93996,509.61186 98.10252,510.84834 C 90.2574,512.08386 80.8398,512.26626 80.8398,512.26626 L 7.51212,512.26626 L 7.51212,513.6141 L 7.51212,514.9629 L 80.83884,514.9629 C 80.83884,514.9629 90.25644,515.14338 98.10156,516.37986 C 105.939,517.61634 123.03756,520.79682 137.53644,529.62306 C 137.53644,529.62306 145.44876,534.4797 151.0062,540.86658 C 158.57388,549.34338 169.58124,554.68098 181.851,554.68098 C 194.1198,554.68098 205.12716,549.34338 212.69484,540.86658 C 218.25228,534.4797 226.1646,529.62306 226.1646,529.62306 C 240.66444,520.79682 257.763,517.61634 265.60044,516.37986 C 273.44556,515.14434 282.8622,514.9629 282.8622,514.9629 L 356.18988,514.9629 L 356.18988,513.6141 L 356.18988,512.26626 L 282.86316,512.26626 z M 181.85196,551.07618 C 161.16204,551.07618 144.38988,534.30498 144.38988,513.61506 C 144.38988,492.9261 161.16204,476.15394 181.85196,476.15394 C 202.54188,476.15394 219.31404,492.92706 219.31404,513.61506 C 219.31404,534.30498 202.54092,551.07618 181.85196,551.07618 z "
   style="fill:#4d5c64"
   id="path89" />
</svg>