<?xml version="1.0" encoding="UTF-8" standalone="no"?>
<svg
   xmlns:dc="http://purl.org/dc/elements/1.1/"
   xmlns:cc="http://creativecommons.org/ns#"
   xmlns:rdf="http://www.w3.org/1999/02/22-rdf-syntax-ns#"
   xmlns:svg="http://www.w3.org/2000/svg"
   xmlns="http://www.w3.org/2000/svg"
   xmlns:sodipodi="http://sodipodi.sourceforge.net/DTD/sodipodi-0.dtd"
   xmlns:inkscape="http://www.inkscape.org/namespaces/inkscape"
   version="1.1"
   id="svg2"
   inkscape:version="0.91 r13725"
   sodipodi:docname="Premier_League_Logo.svg"
   width="1000"
   height="421.17599"
   viewBox="0 0 999.99996 421.17601"
   overflow="visible"
   enable-background="new 0 0 204.695 86.213"
   xml:space="preserve"
   style="overflow:visible"><metadata
     id="metadata10"><rdf:RDF><cc:Work
         rdf:about=""><dc:format>image/svg+xml</dc:format><dc:type
           rdf:resource="http://purl.org/dc/dcmitype/StillImage" /><dc:title></dc:title></cc:Work></rdf:RDF></metadata><defs
     id="defs8" /><sodipodi:namedview
     pagecolor="#ffffff"
     bordercolor="#666666"
     borderopacity="1"
     objecttolerance="10"
     gridtolerance="10"
     guidetolerance="10"
     inkscape:pageopacity="0"
     inkscape:pageshadow="2"
     inkscape:window-width="1366"
     inkscape:window-height="705"
     id="namedview6"
     showgrid="false"
     inkscape:zoom="0.5"
     inkscape:cx="245.13382"
     inkscape:cy="24.839853"
     inkscape:window-x="-8"
     inkscape:window-y="-8"
     inkscape:window-maximized="1"
     inkscape:current-layer="svg2"
     fit-margin-top="0"
     fit-margin-left="0"
     fit-margin-right="0"
     fit-margin-bottom="0" /><path
     id="path44_1_"
     inkscape:connector-curvature="0"
     d="m 769.85872,280.95345 2.75042,-11.6612 22.29159,0 0,87.80338 c 0,17.14738 -4.79736,29.15054 -16.11658,38.0662 -8.56881,6.51698 -20.23977,11.31434 -34.29476,11.31434 -19.20897,0 -32.92688,-6.51698 -43.89925,-17.14738 l 14.06476,-19.55094 c 6.85895,6.51698 16.11659,12.35002 28.11975,12.35002 18.86212,0 27.08895,-9.26252 27.08895,-22.98042 l 0,-6.51698 c -7.538,7.88975 -16.45367,10.97237 -26.40012,10.97237 -26.06793,0 -46.64478,-21.26568 -46.64478,-48.35464 0,-26.75675 21.26568,-47.32872 47.32872,-47.32872 10.6304,0.005 20.23,5.14422 25.7113,13.03397 m -22.6238,9.95134 c -13.37104,0 -24.01121,10.28354 -24.01121,24.34341 0,13.37594 10.64017,24.00634 24.01121,24.00634 13.37105,0 24.00145,-10.6304 24.00145,-24.00634 0,-14.05987 -10.6304,-24.34341 -24.00145,-24.34341 M 602.16125,138.28334 c -10.63528,0 -19.55583,6.17501 -21.60765,16.12147 l 42.52159,0 c -2.05182,-9.60449 -10.62062,-16.12147 -20.91394,-16.12147 m 1.37277,74.42256 c -28.46172,0 -49.38543,-19.54606 -49.38543,-48.01266 0,-25.72596 18.86212,-48.70149 48.70149,-48.70149 22.29159,0 45.27201,16.80052 45.27201,48.01266 0,2.39868 0,5.49107 -0.68394,8.91566 l -67.22163,0 c 2.39379,10.28843 11.66119,17.15715 22.97553,17.15715 10.28843,0 18.17818,-3.77633 24.69516,-10.64017 l 15.43264,15.77461 c -9.94157,11.31923 -24.3483,17.49424 -39.78583,17.49424 m 284.99336,-74.42256 c -10.6304,0 -19.54118,6.17501 -21.60766,16.12147 l 42.52648,0 c -2.05182,-9.60449 -10.6304,-16.12147 -20.91882,-16.12147 m 1.37765,74.42256 c -28.46172,0 -49.38543,-19.54606 -49.38543,-48.01266 0,-25.72596 18.86212,-48.70149 48.70149,-48.70149 22.29159,0 45.27201,16.80052 45.27201,48.01266 0,2.39868 0,5.49107 -0.68394,8.91566 l -67.22652,0 c 2.40845,10.28843 11.66608,17.15715 22.98042,17.15715 10.28354,0 18.17329,-3.77633 24.69516,-10.64017 l 15.42775,15.77461 c -9.94645,11.31923 -24.35318,17.49424 -39.78094,17.49424 m 64.12925,76.47926 c -10.6304,0 -19.54606,6.17502 -21.60277,16.12147 l 42.52648,0 c -2.0616,-9.60448 -10.63529,-16.12147 -20.92371,-16.12147 m 1.37276,74.41768 c -28.47149,0 -49.38543,-19.54606 -49.38543,-48.01266 0,-25.72596 18.86212,-48.70149 48.70149,-48.70149 22.29159,0 45.2769,16.80052 45.2769,48.01266 0,2.39868 0,5.49107 -0.6986,8.91566 l -67.21186,0 c 2.39868,10.28843 11.66119,17.14738 22.97553,17.14738 10.28843,0 18.17818,-3.77145 24.69516,-10.6304 l 15.42776,15.77461 c -9.94646,11.32411 -24.34342,17.49424 -39.78095,17.49424 M 533.56685,289.18516 c -10.63528,0 -19.54606,6.17502 -21.60765,16.12147 l 42.52648,0 c -2.05183,-9.60448 -10.62552,-16.12147 -20.91883,-16.12147 m 1.37277,74.41768 c -28.46172,0 -49.38543,-19.54606 -49.38543,-48.01266 0,-25.72596 18.85723,-48.70149 48.69172,-48.70149 22.29647,0 45.27689,16.80052 45.27689,48.01266 0,2.39868 0,5.49107 -0.68394,8.91566 l -67.22652,0 c 2.40357,10.28843 11.67097,17.14738 22.98531,17.14738 10.28354,0 18.1684,-3.77145 24.69515,-10.6304 l 15.42776,15.77461 c -9.94157,11.32411 -24.34342,17.49424 -39.78094,17.49424 m -140.95048,-2.39868 0,-136.15313 27.08895,0 0,110.43206 58.98991,0 0,25.72107 -86.07886,0 z m 103.22624,-150.89694 0,-91.91679 21.94963,0 2.75042,13.37593 c 4.10853,-8.57858 12.33536,-14.40185 23.3175,-14.40185 2.39868,0 4.79736,0.33709 7.20092,1.02592 l 0,24.3483 c -3.09239,-0.68394 -5.82327,-1.0308 -8.91566,-1.0308 -12.34513,0 -20.91882,7.54778 -20.91882,22.29159 l 0,46.30281 -25.38399,0 z m 447.21929,0 0,-91.91679 21.94474,0 2.74554,13.37593 c 4.1183,-8.57858 12.34513,-14.40185 23.32239,-14.40185 2.40356,0 4.79735,0.33709 7.2058,1.02592 l 0,24.3483 c -3.09239,-0.68394 -5.82815,-1.0308 -8.92054,-1.0308 -12.34514,0 -20.91394,7.54778 -20.91394,22.29159 l 0,46.30281 -25.38399,0 z M 767.12295,156.11466 c 0,-9.94646 -5.48618,-16.12147 -14.06476,-16.12147 -9.94157,0 -15.08578,6.17501 -15.08578,16.46833 l 0,53.84081 -25.3791,0 0,-54.18767 c 0,-9.94646 -5.48619,-16.12147 -14.05988,-16.12147 -9.94645,0 -15.09067,6.17501 -15.09067,16.46833 l 0,53.84081 -25.37909,0 0,-91.9119 22.29159,0 2.75042,12.00316 c 0,0 5.48618,-14.40184 22.63356,-14.40184 10.64017,0 19.55095,4.45538 25.72596,13.72279 l 0.68882,1.02591 0.68883,-1.02591 c 8.92055,-12.692 19.89291,-13.72279 26.75187,-13.72279 19.54605,0 32.92199,14.7487 32.92199,35.66752 l 0,58.64795 -25.3791,0 0,-54.19256 -0.0147,0 z m 51.10017,-50.06448 c -8.91566,0 -15.77461,-6.863845 -15.77461,-15.437535 0,-8.91566 6.85895,-15.77461 15.77461,-15.77461 8.91566,0 15.77461,6.85406 15.77461,15.77461 0,8.5688 -6.85895,15.437535 -15.77461,15.437535 m -13.02908,12.34025 25.37422,0 0,91.90702 -25.37422,0 0,-91.90702 z M 638.85469,290.90479 c -13.72279,0 -24.00144,10.28354 -24.00144,24.34341 0,13.37594 10.27865,24.00634 24.00144,24.00634 13.37593,0 23.66436,-10.6304 23.66436,-24.00634 0,-14.05987 -10.28843,-24.34341 -23.66436,-24.34341 m -5.14421,72.69805 c -24.3483,0 -45.6091,-22.2916 -45.6091,-48.35464 0,-25.72106 21.2608,-47.32872 45.6091,-47.32872 13.72279,0 22.97553,4.79736 28.4666,13.37105 l 2.74554,-12.00316 22.29159,0 0,91.9119 -22.29159,0 -2.74554,-11.66608 c -5.49107,8.24149 -15.77461,14.06965 -28.4666,14.06965 m 218.46543,0 c -20.23489,0 -44.92027,-10.97237 -44.92027,-45.26713 l 0,-49.04834 25.36933,0 0,47.32872 c 0,15.77461 7.21069,22.63356 19.55094,22.63356 11.31434,0 19.55094,-7.88486 19.55094,-22.63356 l 0,-47.32872 25.3791,0 0,49.04834 c 0,34.29476 -25.03713,45.26713 -44.93004,45.26713 M 421.07809,138.6302 l 15.77949,0 c 13.72279,0 23.66436,-7.5429 23.66436,-21.26569 0,-13.72767 -9.94157,-20.923715 -23.66436,-20.923715 l -15.77949,0 0,42.189405 z m -27.08895,71.67702 0,-139.587495 44.23633,0 c 28.80857,0 50.41622,17.14738 50.41622,46.644785 0,29.83449 -21.26568,47.32873 -50.41622,47.32873 l -17.14738,0 0,45.61398 -27.08895,0 z"
     style="fill:#360c3a;fill-opacity:1" /><path
     id="path56"
     inkscape:connector-curvature="0"
     d="m 296.95099,192.70862 c -9.20658,7.545 -17.01181,11.75011 -17.01181,11.75011 l 0.1065,23.91552 c 6.58117,7.16423 13.07368,13.09981 17.9342,23.91546 9.22432,-16.19743 7.45042,-40.00918 -1.02884,-59.58109 m -7.48593,78.28781 c 0,0 -1.8803,-9.86385 -9.88065,-19.07009 l -18.25351,0.43284 c 0,0 -24.6041,20.62761 -39.61138,21.11209 0,0 8.26641,15.00347 12.45286,22.84265 8.24867,-1.76515 22.77695,-8.11608 28.63085,-14.76121 0,0 3.86715,12.16546 3.13983,26.52856 8.2132,-4.6377 19.53071,-17.23575 23.522,-37.0846 m -23.522,-43.19327 -0.0342,-23.829 c 0,0 -10.90955,-3.40905 -22.54636,-12.21733 -23.38014,3.44374 -51.69173,26.39011 -51.69173,26.39011 0,0 9.5614,17.70308 20.02745,36.8078 18.39543,2.50918 45.50075,-20.16038 54.24611,-27.15158 m 62.35285,99.22685 -15.04275,-16.24936 c -4.29285,43.9201 -26.34252,81.21238 -66.84082,107.22178 l -6.19094,-23.69055 C 205.84437,418.53912 146.8442,434.25208 96.163628,406.2872 102.46097,374.96514 108.04881,343.22778 96.057129,305.22597 67.993903,347.62323 43.159173,364.23601 43.159173,364.23601 24.196125,333.17356 25.899041,270.85827 31.557822,252.51492 L 0,262.04999 c 0,-20.93905 15.450717,-65.36097 37.837476,-90.31481 l -19.708153,-3.08027 -0.01954,0 c 13.393032,-26.7016 33.384971,-49.71729 57.847149,-67.00498 l 0.0342,-0.0195 C 68.647169,112.9479 68.540718,140.87815 90.058237,151.50346 80.92264,135.87707 79.822814,116.56463 89.36643,106.56233 98.910046,96.473515 114.9639,99.934545 125.2171,107.75639 122.16599,99.034675 113.22547,88.063305 99.832487,87.319185 l -0.01954,0 c 25.295903,-12.70187 54.015513,-19.84883 84.402533,-19.84883 5.67652,0 11.3353,0.24226 16.8699,0.72681 l 0,0 c 8.83407,3.461 21.8013,15.60911 27.85037,23.17141 0,0 0.42551,-8.91209 -4.64767,-19.6758 32.90601,7.82186 48.6051,20.88716 55.18627,27.18616 1.3482,13.878635 5.60557,22.202345 11.22885,35.388725 -10.66118,-11.6463 -37.44719,-30.43948 -50.23708,-34.938795 0,0 -1.04658,12.027015 -5.44588,17.806855 -25.47334,-17.927955 -37.9794,-22.444605 -37.9794,-22.444605 -27.95677,3.91092 -45.94423,14.432375 -55.71843,22.704205 l 8.51472,7.07767 c -16.85211,5.0531 -27.79712,19.17394 -27.79712,19.17394 0.12409,0.2599 15.06048,2.3362 15.06048,2.3362 0,0 -1.52558,17.11465 20.43543,27.84378 18.82118,9.18894 45.87324,-2.21504 71.34658,7.75262 -16.74566,-18.86241 -28.32933,-27.28998 -28.32933,-27.28998 0,0 -6.65216,-1.34976 -11.33525,-1.31522 -5.8539,0.0342 -14.58152,1.15947 -24.14287,-2.4746 -4.57669,-1.74781 -9.91617,-4.82804 -14.10257,-7.3892 0,0 11.761,-11.78475 28.95015,-14.3805 0,0 15.50396,4.25705 27.77944,13.11721 8.15995,-7.75262 16.67472,-7.51036 16.67472,-7.51036 0,0 -8.44384,7.6834 -5.88936,16.9935 12.25768,10.6599 25.562,25.92288 25.562,25.92288 13.55263,-7.23351 43.01725,-5.57222 49.06627,1.28058 -7.66326,-9.70806 -18.71472,-17.80685 -27.26497,-24.72882 -1.04657,-3.63407 -10.37734,-16.30129 -11.95612,-17.47806 0,0 8.86955,2.66497 16.79892,9.60429 2.27058,-3.16684 6.52797,-6.38557 12.32867,-7.80455 5.9603,4.87997 7.02466,12.37303 6.86501,13.61902 -2.67861,3.13221 -5.33948,4.41279 -5.33948,4.41279 l 14.36867,15.17646 1.43687,-10.88487 c 33.10113,46.11785 51.14179,99.48645 27.93904,166.57795 M 66.889192,35.163875 c 19.08728,8.53137 31.34497,19.29508 33.580088,20.93906 -1.011108,-4.81079 -4.771807,-27.96489 -6.935992,-42.34534 11.122392,7.52767 36.932772,25.00573 45.429812,30.68176 3.45913,-10.4003 15.45071,-44.37002019 15.45071,-44.37002019 0,0 21.67717,34.22930019 25.38462,39.78420019 C 184.32192,35.233095 210.22096,7.1124748 216.92637,1.1480224e-4 218.04393,16.180285 219.56946,39.317085 219.95975,42.795385 c 1.29494,-1.7132 11.21111,-15.28032 27.83259,-27.77453 -7.20205,13.844 -10.64345,32.94872 -12.16898,48.29826 -16.35542,-4.44739 -33.61555,-6.83547 -51.39016,-6.83547 -34.14771,0 -66.21995,8.75633 -93.94614,24.14047 -5.03791,-14.83038 -12.931811,-33.27752 -23.397868,-45.46024"
     style="fill:#360c3a;fill-opacity:1" /></svg>